/* XPM */
static char *Articuno_bg3[] = {
/* columns rows colors chars-per-pixel */
"48 48 253 2 ",
"   c #080F13",
".  c #041B28",
"X  c #111F2C",
"o  c #201F21",
"O  c #092629",
"+  c #072738",
"@  c #182835",
"#  c #183839",
"$  c #122D2B",
"%  c #2F3436",
"&  c #1C1B17",
"*  c #443323",
"=  c #65330F",
"-  c #294A3E",
";  c #37463D",
":  c #056237",
">  c #735334",
",  c #5E4A36",
"<  c #032946",
"1  c #04344C",
"2  c #032A51",
"3  c #003C5C",
"4  c #033955",
"5  c #173A54",
"6  c #163148",
"7  c #273950",
"8  c #073A65",
"9  c #173D68",
"0  c #263C6A",
"q  c #403F50",
"w  c #174556",
"e  c #0D484F",
"r  c #2C5448",
"t  c #27585B",
"y  c #304E4D",
"u  c #26664C",
"i  c #2A6E50",
"p  c #3B6756",
"a  c #37604F",
"s  c #014263",
"d  c #00496A",
"f  c #09446A",
"g  c #014C72",
"h  c #034C78",
"j  c #164A78",
"k  c #015A7D",
"l  c #045476",
"z  c #1A5577",
"x  c #174F6E",
"c  c #3A526D",
"v  c #385877",
"b  c #285170",
"n  c #2B6669",
"m  c #2B6878",
"M  c #326973",
"N  c #387879",
"B  c #2F7170",
"V  c #126866",
"C  c #52524C",
"Z  c #46725B",
"A  c #7A664B",
"S  c #475B76",
"D  c #477B65",
"F  c #546779",
"G  c #4B637B",
"H  c #706F6D",
"J  c #6B5944",
"K  c #8A5731",
"L  c #89633F",
"P  c #B14430",
"I  c #926D4D",
"U  c #A77C54",
"Y  c #B12420",
"T  c #089C57",
"R  c #228474",
"E  c #4C846F",
"W  c #48877A",
"Q  c #528D76",
"!  c #55947A",
"~  c #6D9B7A",
"^  c #BB895D",
"/  c #8B857F",
"(  c #CD8A54",
")  c #D5A171",
"_  c #184D87",
"`  c #005C83",
"'  c #005D8A",
"]  c #005585",
"[  c #1C568C",
"{  c #1D5593",
"}  c #005796",
"|  c #245788",
" . c #325A87",
".. c #265C96",
"X. c #274F8B",
"o. c #00628C",
"O. c #1C6689",
"+. c #006395",
"@. c #00659C",
"#. c #006A9D",
"$. c #0C6495",
"%. c #17699B",
"&. c #38698D",
"*. c #2B6598",
"=. c #396A98",
"-. c #3A7499",
";. c #317088",
":. c #0B5DA4",
">. c #006CA4",
",. c #026AA5",
"<. c #0071AC",
"1. c #0671A8",
"2. c #0075B3",
"3. c #007BBC",
"4. c #0079B6",
"5. c #1273AE",
"6. c #2A6AA9",
"7. c #346BA8",
"8. c #3A74A8",
"9. c #336DB3",
"0. c #3A75B3",
"q. c #3877B8",
"w. c #2872B5",
"e. c #295DA8",
"r. c #466C9A",
"t. c #4D6D8F",
"y. c #637287",
"u. c #4778A6",
"i. c #457AB7",
"p. c #517AAC",
"a. c #637CA0",
"s. c #007AC4",
"d. c #3B77C8",
"f. c #3173D1",
"g. c #457DCA",
"h. c #467ED2",
"j. c #318A88",
"k. c #3187B5",
"l. c #458A86",
"z. c #4C9387",
"x. c #489792",
"c. c #549A8A",
"v. c #738096",
"b. c #5DA58B",
"n. c #5AAC96",
"m. c #61A889",
"M. c #69B799",
"N. c #62AD93",
"B. c #4B85A6",
"V. c #4984BA",
"C. c #5989B8",
"Z. c #5191B8",
"A. c #6D91B5",
"S. c #5AA3B7",
"D. c #69B8AB",
"F. c #67B5B4",
"G. c #62ADAE",
"H. c #70C29F",
"J. c #6FC19F",
"K. c #73C7A3",
"L. c #70C3AA",
"P. c #6FC1A3",
"I. c #0084CA",
"U. c #0382C6",
"Y. c #0089D5",
"T. c #0992DE",
"R. c #3794D4",
"E. c #0095E5",
"W. c #0A99EB",
"Q. c #3799E4",
"!. c #29ACFD",
"~. c #4A86CA",
"^. c #548BC8",
"/. c #5594CD",
"(. c #5A98C6",
"). c #4E8BDD",
"_. c #4C88D4",
"`. c #548BD6",
"'. c #5895D8",
"]. c #4B91CF",
"[. c #6697C9",
"{. c #659CD9",
"}. c #749BCB",
"|. c #59A1CB",
" X c #69A8D8",
".X c #77A6D9",
"XX c #72B0CF",
"oX c #4D8BE2",
"OX c #518AE4",
"+X c #5997E5",
"@X c #559CEC",
"#X c #649BE5",
"$X c #5EA4EB",
"%X c #45A6F7",
"&X c #53BAFE",
"*X c #62A2ED",
"=X c #6BA7E8",
"-X c #77AAE7",
";X c #6AABF5",
":X c #6BAEFA",
">X c #64A7F5",
",X c #74ADF7",
"<X c #6DB1FB",
"1X c #69B8FA",
"2X c #72B4FD",
"3X c #74BAFE",
"4X c #7BBCFE",
"5X c #7AB3F7",
"6X c #77B4E5",
"7X c #7BC2FF",
"8X c #63C2FF",
"9X c #8F8F8D",
"0X c #99A7AA",
"qX c #A1A1A5",
"wX c #CDA693",
"eX c #88B0D6",
"rX c #83B5EB",
"tX c #89B8E6",
"yX c #93BBEC",
"uX c #81B5F2",
"iX c #8ABEFC",
"pX c #86BAF7",
"aX c #86ADE0",
"sX c #B3BDC9",
"dX c #8CC2FE",
"fX c #84CBFF",
"gX c #89C7FE",
"hX c #94C5FF",
"jX c #96C9FF",
"kX c #9BCCFF",
"lX c #98C8F3",
"zX c #98D5FF",
"xX c #93CDF4",
"cX c #A1CEFF",
"vX c #A3D3FF",
"bX c #A6DAFE",
"nX c #ABDBFF",
"mX c #A8D3FB",
"MX c #B9DCFE",
"NX c #A2C3E6",
"BX c #ADE2FF",
"VX c #AFE9FF",
"CX c #B2E2FE",
"ZX c #B8EBFF",
"AX c #BAF1FF",
"SX c #C3DFFF",
"DX c #CBE7FF",
"FX c #D5EAFF",
"GX c #D9EDFF",
"HX c #C9FAFF",
"JX c #DBF3FF",
"KX c #E4F6FF",
"LX c #EBDDD5",
/* pixels */
"K.K.K.K.K.K.K.K.K.K.K.K.K.K.K.K.K.K.K.K.K.K.K.K.K.K.K.K.K.K.K.K.H.K.K.K.K.K.K.K.K.K.K.K.K.K.K.K.",
"K.K.K.K.K.K.K.K.K.K.K.K.K.K.K.K.K.K.K.K.K.K.K.M.! K.K.K.K.K.G.#X#X#X XF.D.K.K.K.K.K.K.K.K.K.K.K.",
"K.K.T K.T i K.T K.K.K.K.K.K.K.K.T K.T i K.T H.k # K.T K.i j.=XkXcXcXiX-X#XS.D.K.T K.i T K.T K.K.",
"K.K.i K.i i K.i K.K.K.K.K.F.Z.(.-.K.i i K.i j.4.r K.i K.B =XkXhXhXhXjXcXjX5X#XZ.B K.i i K.i K.K.",
"K.K.K.i K.K.i K.K.K.K.(./.5XpXpXpXV.L.K.i n.R.l b.K.K.i x._.pXkXjXhXhXhXhXvXhXpX{.;.L.K.i K.K.K.",
"K.K.K.K.K.K.K.K.D.(.'.pXhXhXcXkXkXdX X(.n k.!.1 K.K.K.H.;.].8.zXhXhXhXhXhXhXhXvXvX=X`.G.K.K.K.K.",
"K.K.K.K.K.K.L.S.'.uXkXhXjXhXhXhXkXjX=Xq.-.$XU.t H.! Q Q V.0._ aXcXjXhXhXhXhXhXpXhXcXkX-X(.D.K.K.",
"K.K.K.K.K.S./.uXmXhXhXhXhXhXhXhXBX;Xb + [.&X>.p r g   . fX0.| .XcXhXhXhXhXhXkXpX+XrXnXnXuX/.K.K.",
"K.K.K.F.(.-XiXmXjXhXhXhXhXhXhXkX=X{ 6.7 0.<.] h >.E.E Q #XV.*..XkXjXhXhXhXiXpXvXuX#Xi.-XCXjX|.K.",
"K.K.S.{.hXnXvX,XuXkXhXhXhXjXcX4X{ { ].y.5.%.].E.Y.# K.M.*.0... XkXjXhXhXhXkX,XuXnXkX`.9 C.ZXr.K.",
"K.D.,XvXcXrX#X#XhXjXiXhXhXkX#X8 ..).%.g g '.!.] + Q K.K.W g.0./.mXiXgXhXpXkXjX0.p.CXnX'.[ t z.K.",
"K.^.AXlX=.6.pXvXkX,XhXcXjXi.8 9.OX_.1 < } 2.8 @ *Xy K.K.c.~.`.8.nX'.iXkX#XpXmXiX..C.kXmX5XG.K.K.",
"K.N A.z _ kXnXtX^.uXkXnXV.8 _.OX_.d.j   2 y U 6X%Xt T H.r ].$Xu.nXC.[.nX[.| nXmX-X8 ^.ZXkX'.L.K.",
"K.M.w g.kXmXvXX.^.mXvX X_ OX_.OXX.9.a.> & S wX`.1Xr.i M.# ].$X8.CX}.t.BXxX5 u.nXkX<X8.p.ZXuXb.K.",
"K.K.F.jXBXrXx i.nXkXdX[ d.:X+X+X_.+X% K L j } *XfXC.E z | *X+Xu.CXA.G BXZXy X VXjXvXr.y =.M M.K.",
"K.F.pXnXlXu.7.iXcXkX8.7.2X:X+X2X>X;X&.= Y y &X<X7Xu.+ oX..:X'.-.nXeX+ rXCXp.5 A.bXcX-XG.N.M.K.K.",
"K.b.C.tX5 8.dXkXnX(.6.3X2X*X+X2X+X2X+X& P L /.2X7Xu.< h.{ :X`.S VX-X  }.nXrXu.G aXbXdX|.K.K.K.K.",
"K.H.W t z./.vXkXlX&.*X2X;X+X;X*X#X2X>X5 = v %X5X3X/.h...7.2X~.S VXp.5 A.nXrX-..Xy.bXzX6XK.K.K.K.",
"K.K.K.K.F.iXkXmX8.~.4X<X*X*X<X:X:X:X<X8 . Q.jX;X*X@Xg...~.7Xi.c ZXt. .C.bXiXe u.7 C.ZXV.K.K.K.K.",
"K.K.K.K. XdXnX[.p.gX>X;X:X<X;X:X:X<X:XX.%.zXMXdX5X9._ ).>X2X^.S ZXc 8. .kXvXB.Q E r MX-.K.K.K.K.",
"K.K.K.K.#XnXtXu..Xb 2X2X;X;X>X<X>X@X3Xq.7.FXGXSX5X| d.).:X<Xi.t.tX8.~.c kXnX[.b.K.H.@ l.K.K.K.K.",
"K.K.K.K.-.HX=.5 M B hXkX7X+XB.4X<X,X3X9.B.JXGXKXyXf.h.+X:X7Xj S a.u.fX..}.AXC.5 K.K.M.K.K.K.K.K.",
"K.K.T K.m [.c.T N.A.nXgX'.'.>X<X$X>X:X7.yXDXFXKXyXf.'.2X*X#X].6 X :XfX&.c HX{.t T K.i T K.T K.K.",
"K.K.i K.u e K.i N C.nX=X_ +X<XzX .*.3X*.NXJXDXKXaXf.*X3X<X..*X[ 9.j fX6X@ y.-.J.i K.i i K.i K.K.",
"K.K.K.i K.K.i K.+ ^.DXC.7.gX2Xu.z 7.=X8.MXGXDXGXSX`.).*X2XV.j $X7X+ r.HX&.Q n.K.K.i K.K.i K.K.K.",
"K.K.K.K.K.K.K.K.W (.CXx V.fX~.f x <Xf C.DXGXDXJXyX9.OX+Xi.3X*.0.bX&.r NXv n z.K.K.K.K.K.K.K.K.K.",
"K.K.K.K.K.K.K.K.K.N w z MX=X2 /.i.~.4 (.DXFXDXKXZ.:.#X4X .p.3X`.cX6Xw X u.XXq.6 O p K.K.K.K.K.K.",
"K.K.K.K.K.K.K.K.K.i K.=.HXv f fX`.4 | kXMXMXDXJXZ.6.h.>Xu.b zXb eXzX*.=XiX%X>.o.4.d x.J.K.K.K.K.",
"K.K.K.K.K.K.K.K.K.T K.V C.B B.BXi.d.u.mXMXhXSXFX~.w.e.[.rX  BXw F G V.gX/.$.*.5.3.#.g c.K.K.K.K.",
"K.K.K.K.K.K.K.K.K.K.T M.! V jXtX{.>X=.cXkXiXkXNX0.d._.t.7 t G l.# b 5XR.5.B.1XT.Y.E.g n K.K.K.K.",
"K.K.K.K.K.K.K.K.K.K.K.K.M.B kX.X3 uXu.jXhXhXkX-X*.oX@X^.=.x.a n &XxX%Xw.pX8X$.. O s E.1 K.K.K.K.",
"K.K.K.K.K.K.K.K.K.K.x.m >.o.9 m N aXz {.nXjXbXZ.w.oXh.:XfXO.| Q.&Xk.w.fX1X3   1 4 . ` >.D K.K.K.",
"K.K.T K.T i K.T K.m R.>X<.1.> > k g e (.tXkXmX .e.h.g.g.<X%.+.U.<.$.;X%X` D t g ` 1 < 3.a T K.K.",
"K.K.i K.i i K.i W <.%X0.s }.wX> y ' l &.j .XA.0 ..`.oXX.OXj >.<.k 5.!.3 r M.l 8 l 4 1 ,.p i K.K.",
"K.K.K.i K.K.i K.l T.| O 1 H o 9X( C s.x ~.*.6 qXqX`.p.6. .[ ` o.Y.Y.s Z H.N d s k d s +.$ K.K.K.",
"K.K.K.K.K.K.K.c.1.#.+ Z - p ~ 9X> ^ ; C #Xf.6 H sX/ 0X=.0 [ #.I.' + D K.D.V s d l s k e b.K.K.K.",
"K.K.K.K.K.K.K.W ,.d - K.M.K.% Q ; I ) K X.i.LXH * > y.y.6 h o.. $ m.K.K.M o.g l d s o.$ K.K.K.K.",
"K.K.K.K.K.K.K.x.' 4 Z i T K.u K.H.Z U y 2 X G 9XK J * o 1 X & b.M.i ;.4 <.>.4 l d s k s E H.K.K.",
"K.K.K.K.K.K.K.K.x O H.T T K.T K.K.~ I ] 4.4.:., ^ I L X l.L.K.P.K.T ] 2.Y.2.g ` d s o.O H.K.K.K.",
"K.K.K.K.K.K.K.K.g . T K.K.T K.K.M.0X9X4 @.+.Y.O.U wXL + l.W W W B 1.s.Y.,.' I.h 4 l k - K.K.K.K.",
"K.K.K.K.K.K.K.K.;.+ Q K.K.K.K.K.M.C E b.# I.o.@.J wX> 3 ,.@.' ` >.I.o.` o.4.4.g d o.$ J.K.K.K.K.",
"K.K.K.K.K.K.K.K.K.x.O m.K.K.K.K.H.! K.K.M.s Y.$.; ( A @.+.#.I.Y.#.` #.#.3.I.4.I.>.. Q K.K.K.K.K.",
"K.K.T K.T i K.T K.K.b.H.K.K.K.K.T K.T i K.: 1 s.x ( C :.3.<.k #.3.2.I.3.3.>.2.+.O b.i T K.T K.K.",
"K.K.i K.i i K.i K.K.K.K.K.K.K.K.i K.i i K.i m.$ B.LXy h <.>.<.>.>.>.>.+.o.l # - i K.i i K.i K.K.",
"K.K.K.i K.K.i K.K.K.K.K.K.K.K.K.K.i K.K.i K.K.K.9XF 1 W.2.o.U.2.>.<.2.U.d - H.K.K.i K.K.i K.K.K.",
"K.K.K.K.K.K.K.K.K.K.K.K.K.K.K.K.K.K.K.K.K.K.K.K.M.Z a 4 s #.s 3 s s g + E K.H.K.K.K.K.K.K.K.K.K.",
"K.K.K.K.K.K.K.K.K.K.K.K.K.K.K.K.K.K.K.K.K.K.K.K.K.K.K.K.K.K.K.K.K.K.K.K.K.K.K.K.K.K.K.K.K.K.K.K.",
"K.K.K.K.K.K.K.K.K.K.K.K.K.K.K.K.K.K.K.K.K.K.K.K.K.K.K.K.K.K.K.K.K.K.K.K.K.K.K.K.K.K.K.K.K.K.K.K."
};
