/* XPM */
static char *Articuno2[] = {
/* columns rows colors chars-per-pixel */
"73 69 16 1 ",
"  c black",
". c #5A3A19",
"X c #003152",
"o c #005273",
"O c gray32",
"+ c #BD293A",
"@ c #8C6B52",
"# c #B59473",
"$ c #007BBD",
"% c #4A84D6",
"& c #6BADF7",
"* c #94C5FF",
"= c #CECECE",
"- c #CEE6FF",
"; c white",
": c None",
/* pixels */
":::::::::::::::::::::::::::::::::::::::::::::::::::::::::::::::::::::::::",
":::::::::::::::::::::::::::::::::::::::::::::::::::::::::::::::::::::::::",
"::::::::::::::::::::::::::::::o :::::::::::::::::::::::::::::::::::::::::",
":::::::::::::::::::::::::::::o$ :::::::::::::::::::::::::::::::::::::::::",
"::::::::::::::::::::::::::::o$$ :::::::::::::::::::::::::::::::::::::::::",
":::::::::::::::::::::::::::o&$ ::::::::::::::::::::::::::::::::::::::::::",
":::::::::::::::::::::::&X:o&$$ ::::::::::::::::::::::::::::::::::::::::::",
":::::::::::::::::::::::&Xo*$$$ ::::::::::::::::::::::::::::::::::::::::::",
":::::::::::::::::::::: &o*&$$ ::     ::::::::::::::::::::::::::::::::::::",
":::::::::::::::::::::: $ *$$$o  $$$ :::::::::::::::::::::::::::::::::::::",
":::::::::::::::::::::o& &$$Xo$$$$$ ::::::::::::::::::::::::::::::::::::::",
":::::::::::::::::::::o* &$o&&$$$$ :::::::::::::::::::::::::::::::::::::::",
":::::::::::::::::::::o$ $X&&$$$  ::::::::::::::::::::::::::::::::::::::::",
"::::::::::::::::::::: $ $X$$$  && :::::::::::::::::::::::::::::::::::::::",
"::::::::::::::::::::::  X$$  =$&& :::::::::::::::::::::::::::::::::::::::",
"::::::::::::::::::::::  X  ;@;$&&o:::::::::::::::::::::::::::::::::::::::",
":::::::::::::::::::::.##@ &X+$&&&& ::::::::::::::::::::::::::::::::::::::",
":::::::::::::::::::::  ..# $$&&&&& ::::::::::::::::::::::::::::::::::::::",
"::::::::::::::::::::::.@++ &&&&&&& ::::::::::::::::::::::::::::::::::::::",
"::::::::::::::::::::::: .+#.&&&&&&% :::::::::::::::::::::::::::::::::::::",
"::::::::::::::::::::::: @#.$&&&&&&% :::::::::::::::::::::::::::::::::::::",
"::::::::::::::::::::::::  $&&&&&&&&%X::X   :   ::::::::::::::::::::::::::",
":::::::::::::::::::oooooX$&&-&&&%&&XXX:X**X **X:  :::::::::::::::::::::::",
":::::::::::::::::oo*****X&&--&-&&&&&&&X*** *** X**X::::::::::::::::::::::",
":::::::::::::::oo*******X&-----&o&&&&&&** *** *****X:::::::::::::::::::::",
"::::::::::::::o*****&&&XX*------o&&&&&**X***X*****X:  :::::::::::::::::::",
":::::::::::::o***&&XXX%X**------o&&&&**%***X*****X  **X::::::::::::::::::",
"::::::::::::o&&&&XX%%%%X*--------o&&&&****X*****X *****X:::::::::::::::::",
":::::::::::o&&&XX%%%%%%X*--------o&&&&*********X%******XXXXX:::::::::::::",
"::::::::::o&&&X%%%%%%%X**--------o&&&&********%******%X$$$$$X :::::::::::",
":::::::::o&&&X%%%%%%%%X**-------o%o&&&**************%XX    oo$ ::::::::::",
":::::::::X&&X%%%%%%%%%o**------*o%%o&&&***********%X%%***** $$oX:::::::::",
":::::::::X&&X%%%%%%&%X***--*---*o%%o&&&*********%%********* $$$ :::::::::",
"::::::::X&&X%%%&%&%&&X**-*-*--**o%%%o&&&*****************XX  o$$X::::::::",
"::::::::X&&X%%%&%&&&&X**-****-**o%%%o&&&***************XXoooX $$ ::::::::",
":::::::oX&X%%%&&%&&&&X*********o%%%%oo&&&&********%X        XXXX$ :::::::",
"::::::X$X&X%&&&&&&&&&X*********o%%%%&oX&&&******************* oX$ :::::::",
":::::X$X&&X%&&&&&&&&&&o*******o%%%%%%&o&&&&******************* o$ :::::::",
":::::X$X&&X%&&...&&&&&X**X**** %%%%%%%&X&&&&******************Xo ::::::::",
":::X$$XX&X%&&O;##.&&&&X*XXX** %%X%%%X%%o&&&&********%XXX%%%%%%oo ::::::::",
":::X$XX&X%&&O;O O@..&&&X%%XXXXOO%&&%%X%%X&&&************%XX  ooo ::::::::",
":::X$XX&X%&&   O;##@.&&.%%%XXO;;O&OO%% %o&&&&****************X   ::::::::",
"::::XX&&X&&&&&O;  .##..@%%%%OO *#O;*O% %o&&&&******************* ::::::::",
"::::XX&&X&&&&&  && .###@ %%O;;. #. *.% Xo&&&&******************** :::::::",
"::::XX&X%&&&&&&&&&&& #@ %  O *#.@# @  XXoo&&&&*********%XX%%*****%:::::::",
"::::X&&X&&&&&&&&&&&&.# **o$oo @#.#.# XXXXo&&&&&**********%XX%%%%%::::::::",
"::::X&&X&&&&&&&&&&&&O; oo $$$o.###@# XX$oo$&&&&**************%XX:::::::::",
"::::X&&&&&&&&&&&&&&O; X::: $$$o.###@ $o$$oo&&&&&****************XX:::::::",
"::::X&X&&&&&&&&&&&&  *X::::  $$.@##.$$$$$$$X&&&&******************X::::::",
":::XX&&&&&&&&&&&&&&&**X::::::   .##.$o$ooooo&&&&&*******%X%%*******X:::::",
":::X&&&&&&&&&&&&&X&****X::::::::.##   $$$$$o&&&&&*********%X%%%&***%:::::",
":::X&&&&&&&&&&&&&*X****o::::::::O;# ::      oX&&&************%X%%%%::::::",
"::X&&&&&&&&&&&&&&&*Xo***X::::::O;* :::::::::o&&&&***************%X:::::::",
"::X&&&&&&&&&&&&&&**%o%**o:::::::  :::::::::::o&&&*****************X::::::",
"::X&&&&&&&&&&&&X****X:oo:::::::::::::::::::::o&&&&*******%X%*******X:::::",
"::X&&&&X&&&&&&&&&***X:::::::::::::::::::::::::o&&&&********%X%%****%:::::",
"::X&&&&X&*&&&&**Xo**X:::::::::::::::::::::::::o&&&&&*********%X%%%%::::::",
"::X&&&&X***&&***o:oX:::::::::::::::::::::::::::o&&&&&***X******%X::::::::",
"::X&&&&o****%****X::::::::::::::::::::::::::::::o&&&&****%X****** X::::::",
"::X&*&*o****%&***X:::::::::::::::::::::::::::::::oo&&*****%%******* :::::",
":::X***o***Xo***X::::::::::::::::::::::::::::::::::o&*******X%****** ::::",
":::X**oo***X:o**X:::::::::::::::::::::::::::::::::::oo*******X%%***** :::",
":::X**oo***o::oo::::::::::::::::::::::::::::::::::::::o*******X:%X**** ::",
"::X**o::o**o:::::::::::::::::::::::::::::::::::::::::::o%******X::XX**X::",
":::XX:::ooo:::::::::::::::::::::::::::::::::::::::::::::X%****** :::XX:::",
":::::::::::::::::::::::::::::::::::::::::::::::::::::::::X%****** :::::::",
":::::::::::::::::::::::::::::::::::::::::::::::::::::::::::::::::::::::::",
":::::::::::::::::::::::::::::::::::::::::::::::::::::::::::::::::::::::::",
":::::::::::::::::::::::::::::::::::::::::::::::::::::::::::::::::::::::::"
};
