/* XPM */
static char *Articuno_bg1[] = {
/* columns rows colors chars-per-pixel */
"48 48 248 2 ",
"   c #081716",
".  c #3A2410",
"X  c #041A24",
"o  c #0D1C2A",
"O  c #072427",
"+  c #022839",
"@  c #162F31",
"#  c #243D38",
"$  c #283235",
"%  c #022B18",
"&  c #4C3824",
"*  c #592C0E",
"=  c #145038",
"-  c #28453A",
";  c #2E4D3E",
":  c #6C4F34",
">  c #76683E",
",  c #04344A",
"<  c #013D5E",
"1  c #043C55",
"2  c #153749",
"3  c #2F3A51",
"4  c #073E64",
"5  c #09415C",
"6  c #194956",
"7  c #154B4E",
"8  c #274647",
"9  c #265A48",
"0  c #284859",
"q  c #235356",
"w  c #355B52",
"e  c #325553",
"r  c #0A6E4C",
"t  c #2A6E50",
"y  c #236450",
"u  c #3C6856",
"i  c #2C644D",
"p  c #004264",
"a  c #00446B",
"s  c #004A6C",
"d  c #094967",
"f  c #16486C",
"g  c #014C74",
"h  c #034D77",
"j  c #154778",
"k  c #00547B",
"l  c #005A7D",
"z  c #065476",
"x  c #185875",
"c  c #175469",
"v  c #245A78",
"b  c #2F4E6F",
"n  c #146B77",
"m  c #296774",
"M  c #346877",
"N  c #387879",
"B  c #336C68",
"V  c #475656",
"C  c #4B4D4D",
"Z  c #426C5A",
"A  c #75675E",
"S  c #485E72",
"D  c #4D7770",
"F  c #6D6A68",
"G  c #61544A",
"H  c #862C1C",
"J  c #C73833",
"K  c #85562F",
"L  c #8B6C4F",
"P  c #B67945",
"I  c #A67D59",
"U  c #856755",
"Y  c #089C57",
"T  c #099858",
"R  c #078755",
"E  c #47867A",
"W  c #528D73",
"Q  c #559277",
"!  c #4C846C",
"~  c #6F907F",
"^  c #BB8759",
"/  c #B58D70",
"(  c #C39C78",
")  c #015484",
"_  c #005B88",
"`  c #185884",
"'  c #055B94",
"]  c #114D88",
"[  c #265989",
"{  c #295B97",
"}  c #365B84",
"|  c #046388",
" . c #006394",
".. c #00649B",
"X. c #086998",
"o. c #186898",
"O. c #1B6D91",
"+. c #27628C",
"@. c #386788",
"#. c #397588",
"$. c #2B6698",
"%. c #396797",
"&. c #297998",
"*. c #387896",
"=. c #2E7B8D",
"-. c #006BA3",
";. c #066EA9",
":. c #0073AC",
">. c #0071A7",
",. c #1A73A6",
"<. c #0075B1",
"1. c #0079B5",
"2. c #007ABA",
"3. c #0077B9",
"4. c #1870AD",
"5. c #2964A5",
"6. c #346BA8",
"7. c #3875A9",
"8. c #346CB3",
"9. c #3A75B5",
"0. c #257AAE",
"q. c #3C5FA7",
"w. c #457797",
"e. c #4B708E",
"r. c #6C7A8A",
"t. c #4A7CAD",
"y. c #587CA4",
"u. c #457CB5",
"i. c #4C72AC",
"p. c #007DC4",
"a. c #3975C6",
"s. c #437ECA",
"d. c #35838B",
"f. c #3C83A3",
"g. c #1680BB",
"h. c #458986",
"j. c #579C87",
"k. c #499999",
"l. c #488991",
"z. c #59A28D",
"x. c #59A38B",
"c. c #5AA993",
"v. c #4EA192",
"b. c #62AD93",
"n. c #6BAC90",
"m. c #65B193",
"M. c #64B498",
"N. c #6CBC9C",
"B. c #6AB796",
"V. c #62AA8B",
"C. c #4786B6",
"Z. c #5987B7",
"A. c #5797B7",
"S. c #4F8FAC",
"D. c #6687AA",
"F. c #6D96BA",
"G. c #59A3A8",
"H. c #6EBEA9",
"J. c #7BAABD",
"K. c #6EC09F",
"L. c #70C29F",
"P. c #6FC1A5",
"I. c #73C7A3",
"U. c #70C1AA",
"Y. c #0083C4",
"T. c #0084CD",
"R. c #0C82CD",
"E. c #038BD5",
"W. c #098CD5",
"Q. c #2A85C6",
"!. c #378ACB",
"~. c #2A9CE9",
"^. c #4A86C5",
"/. c #4889C8",
"(. c #538DC9",
"). c #5696C3",
"_. c #4C88D8",
"`. c #518CD9",
"'. c #4A9AD9",
"]. c #5894D8",
"[. c #659BD8",
"{. c #6595C6",
"}. c #76A5CB",
"|. c #68A4D8",
" X c #76A7DA",
".X c #4A89E4",
"XX c #5C9CE4",
"oX c #5A98E8",
"OX c #518CE3",
"+X c #5DB8FF",
"@X c #57A7EE",
"#X c #63A3EC",
"$X c #6AA8EA",
"%X c #78B4E9",
"&X c #65A6F2",
"*X c #66A9F3",
"=X c #6BADF6",
"-X c #6CAEF9",
";X c #64AAFA",
":X c #75AEF5",
">X c #6EB2FC",
",X c #65B6FD",
"<X c #73B5FE",
"1X c #74BAFF",
"2X c #7ABBFF",
"3X c #7CB7F7",
"4X c #72AEE2",
"5X c #619CDF",
"6X c #6CC1FF",
"7X c #7CC3FF",
"8X c #78C6FF",
"9X c #50C1FF",
"0X c #8AA7BC",
"qX c #B2B2B0",
"wX c #959A9C",
"eX c #88BBE9",
"rX c #84BCFB",
"tX c #8DBEF3",
"yX c #89B6F1",
"uX c #98B3CE",
"iX c #81C4FF",
"pX c #8DC2FF",
"aX c #86CBFF",
"sX c #9ACBFC",
"dX c #93C5F9",
"fX c #8ED3FF",
"gX c #9BD1FF",
"hX c #8BC3EC",
"jX c #A1CDFF",
"kX c #A3D4FE",
"lX c #ABDCFF",
"zX c #A6D7FE",
"xX c #B3DAFE",
"cX c #ABE5FF",
"vX c #B3E3FF",
"bX c #BAE9FF",
"nX c #BAF4FF",
"mX c #98C0D6",
"MX c #C2DFFF",
"NX c #CDE5FF",
"BX c #CBE9FF",
"VX c #D4E9FF",
"CX c #DAECFF",
"ZX c #DEF0FF",
"AX c #C9FFFF",
"SX c #E1F4FE",
"DX c #F5F3F1",
"FX c #C6C5C3",
/* pixels */
"I.I.I.I.I.I.I.I.I.I.I.I.I.I.I.I.I.I.I.I.I.I.I.I.I.I.I.I.I.I.I.I.I.I.I.I.I.I.I.I.I.I.I.I.I.I.I.I.",
"I.I.I.I.I.I.I.I.U.|.S.N.I.I.I.I.I.I.I.I.I.I.I.I.I.I.I.I.I.I.I.I.I.I.I.I.I.I.I.I.I.I.K.Q M M M.I.",
"I.I.Y I.Y t I.Y A.kXZ.M.P.l.M.I.Y I.Y t I.Y I.I.I.I.Y I.t Y I.Y I.I.I.I.I.I.I.I.Y j.@.}.vXeXe I.",
"I.I.t I.t t I.B $XvXZ.S.%XdXm I.t I.t t I.t I.I.I.I.t I.t t I.t I.I.I.I.I.I.I.I.9 S.gXcXzX0 N.I.",
"I.I.I.t I.I.t ).sXkX:X;XjXlXc L.I.t I.I.t I.I.I.I.I.I.t I.I.t I.I.I.I.I.I.I.L.E {.lXkXcXS j.I.I.",
"I.I.I.I.I.I.I.f kX3XoXpXxX XS.k.b.I.I.I.I.I.I.I.I.I.I.I.I.I.I.I.I.I.I.I.I.L.d. XlXgXsXV B.P.I.I.",
"I.I.I.I.I.I.I.$.1XoX`.1XpXu.].kXf I.I.I.I.I.I.I.I.I.I.I.I.I.I.I.I.I.I.L.x.d.:XaXzXhXw.N.j.*.#.I.",
"I.I.I.I.I.I.I.=X-X&X&X>X^.(.lXzXl.G.[.H.I.I.I.I.I.I.I.I.I.I.I.I.I.t I.n (.=X<X>X}.=.G.S.}.nXy.I.",
"I.I.I.I.I.I.I.C.<XOX:X=XXX=XgXZ.A.pXsXf.I.I.I.I.I.I.I.I.I.I.I.I.I.Y =.#X2X1X1X(.[ [.pXvXnXr.W I.",
"I.I.I.I.I.I.I.f 2X&X=X*X&X>X7.t.dXvX[.c.I.I.I.I.I.I.I.I.I.I.I.I.P.*.iX<X<X#X9.^.rXvXzXF.0 Q I.I.",
"I.I.I.I.I.I.I.v 1X>X=X-X>X&X^.<XlXgXN I.I.I.I.I.I.I.I.I.I.I.I.K.&.rXt.7X(.u.(.8XrX X6.l.P.I.I.I.",
"I.I.I.I.I.I.N.` 1X-X=X=X-X-X<X>X%X#.L.I.I.I.I.I.I.I.I.I.I.I.L.d.rXu.6.1X&X*X>X/.8.8.'.3X%XU.I.I.",
"I.I.Y I.Y t I.B 1X*X=X-X=X=X<X&X7.C.Y t L.Y I.I.I.I.Y I.t Y M.|.Z.$.7X-X*XoX7.s.$XsXcXvX} R I.I.",
"I.I.t I.t t L.b 1X-X=X=X=X=X*X:XjX XB t L.c u I.I.I.t I.t t d.|.[ =X>X-X&X#X<X7X3XeX$X[ H.t I.I.",
"I.I.I.t I.I.t ` 7X*X-X-X-X=X*XiXyX7 I.N.n -.@ I.I.I.I.t I.v.!.5.u.8X*X-X>X:X_.^.a.6.oX[.(.U.I.I.",
"I.I.I.I.I.I.L.m $X>X-X=X=X=X-X<X#XN P.f.~., B.I.I.I.I.I.I.E /.[ <X-X-X-X-X9.8./.rXsXcXBXw.b.I.I.",
"I.I.I.I.I.I.I.x.9.aX*X=X-X-X=X:XXXv S.~.2.8 I.N.N.V.L.L.B.$.(.6.<X=X-X=X-X=X7X7XrXeXZ.M b.I.I.I.",
"I.I.I.I.I.I.I.b.@.=X>X-X*X*XaXM 4 e.aXT.g u u s + $ N.I.N.$.$.].<X=X=X=X=X#X6.^._.` l.L.I.I.I.I.",
"I.I.I.I.I.I.I.I.B XX2X=X-X<X'.7.3 C.1.` 4.-.Y.T.q N.L.I.I./.+.(.<X=X-X>X(.[ ` ^.pXpXsX).I.I.I.I.",
"I.I.I.I.I.I.I.I.c.$.2X=X=X2Xa.,.v X.$.6XR.' z w I.I.I.I.E (._.XX>X-X-X*X&X>XaXcXdXkXD.u I.I.I.I.",
"I.I.I.I.I.I.I.I.I.B XX1X=X>X|.4 o 4 3.' 0 0 {.8 I.I.I.I.x XX].>X=X=X-X-X-X^.6.e.w.w Q I.I.I.I.I.",
"I.I.I.I.I.I.I.I.I.L.v 1X>X=X8XF $ + a K / 9X6X$.V.I.I.I.+.+.$.iX-X>X^.} 9.a.[ } G.L.I.I.I.I.I.I.",
"I.I.Y I.Y t I.Y I.I.E /.1X1XZ.. L H 3 i.u.,X<X&X# I.Y V.+./.].:X-X1X<X-X>XfXnXAXtXq t Y I.Y I.I.",
"I.I.t I.t t I.t I.I.L.v 2X>X>Xw.. J H w.,X3X<X#X# I.t m _.].8X=X&Xu.%.e.%.y.D.F.8 n.t t I.t I.I.",
"I.I.I.t I.I.t I.I.I.I.z.u.7X;X8X3 * K *.-X=X<X:Xe b.h.6.i.#X=X<X-Xu.%.@.@ 8 ! j.I.t I.I.t I.I.I.",
"I.I.I.I.I.I.I.I.I.I.I.I.B %XaX>X[., <.1XrX;X&X].j f 9.8.) &X=XoXoX>XaXcXnX3XS.c.I.I.I.I.I.I.I.I.",
"I.I.I.I.I.I.I.I.I.I.I.I.I.N  XzX5X] aXVXxXsX;X5.5.OX8.) @X<X<X&XoX7.9.t.F.uXD.u I.I.I.I.I.I.I.I.",
"I.I.I.I.I.I.I.I.I.t I.t Y I.9 F. X6.BXSXVXCXdX_._.s.4.,X2X#X`.<XiXpX].< @ ! = I.I.I.I.I.I.I.I.I.",
"I.I.I.I.I.I.I.I.I.Y I.Y Y I.Y z.f dXNXVXNXVXSX[.a.>X*X^.1X<X9.j Z.zXbXdXr I.Y I.I.I.I.I.I.I.I.I.",
"I.I.I.I.I.I.I.I.I.I.Y I.I.Y I.P.M lXCXNXNXNXDX3X.X(.$X7.7.<XfXD.  w 0Xw.H.Y I.L.I.I.I.I.I.I.I.I.",
"I.I.I.I.I.I.I.I.I.I.I.I.I.I.I.D [.bXVXVXNXSXmX8.@X`.} 2XZ.@.eXAX3XN W M.c.M N #.c.N.I.I.I.I.I.I.",
"I.I.I.I.I.I.I.I.I.I.I.I.I.I.N.N 3XxXVXNXVXSXC.' $.%XD.$ vXD.8 e.e.E E +.u.2X@X!._ 5 B W I.I.I.I.",
"I.I.Y I.Y t I.Y I.I.I.I.I.I.x.C.bXxXxXjXVXNX).,..Xb e.{ o r L.7 7 x @XaXrX(.4.o.0.1.-.p N Y I.I.",
"I.I.t I.t t I.t I.I.I.I.I.I.x.t.vXjXrXpXzXsX5.a.s.#X<X'.9 y D &.!.1XiX!.g.C./.+X~.E.Y.Y.1 9 I.I.",
"I.I.I.t I.I.t v.v.k.m.I.I.I.N.#.dXkXsXpXkX).5.oXs.oX<X<XO.O.&.g.,X#Xg.].1X6X~...a a g 2...7 I.I.",
"I.I.I.I.c.&.&.1.p.X.L > m k.N.j.$XuXtXxXtX4 a.a.OX8.OX3X$. .2.R.;.X.XX6XQ.1 7 + + + + X 2._ u I.",
"I.I.M.n 0.1XQ.' | qXL A U q | O.} { i.}.@ S e./.OX5.{ s.j -.:. .-.W.~.5 i m.m.p s l _   p T.- I.",
"I.K.c E.Q.x 1 O - - V wX/ P A z C oXs.]   wXFXD.0X{.[ b 5.' 1.:.>.p - r t L.d s < g h < a  .- I.",
"I.m -.-., - Q z.L.Y V =   & ^ ^ K j q.F FXG G K r.r.3 2 4 _ , @ w R L.Y Y N z 5 s l 5 s z k u I.",
"I.z ..a O U.I.I.L.L.Y L.V.% & / + ) 4 b e.I : L : & + %.D D K.I.I.I.R E m >._ 1 l z < s | X I.I.",
"I.x.z + Q I.I.I.L.I.I.I.I.n.FX: h T.1.T...8 ^ / ( & B j.M.b.z.h.n z ' 1.p.2.g k z p 5 l s - I.I.",
"I.N.x + W I.I.I.I.I.I.I.I.Z V W 7 :.1.:.;.;.: ( ^ $ ) _ -.<.-.<.E.2.1.1.....E.-.1 p l | O m.I.I.",
"I.I.T N + = I.Y I.I.I.I.I.K.K.I.Y i 5  .<.2.1 P P 4 T.:.:.>.>.-..... .-.2.Y.1.| h l l + Q Y I.I.",
"I.I.t L.y - I.t I.I.I.I.I.I.I.I.t L.i - 8 ) w.DXA ) Y.<. .>.:.:.>.T.Y.:.1...:.E.1.1 O 9 I.t I.I.",
"I.I.I.t I.I.t I.I.I.I.I.I.I.I.I.I.t I.I.t Q ~ S X 1 ) ;.Y.1.1.1.3.<.1...| -.5 1 u 9 I.I.t I.I.I.",
"I.I.I.I.I.I.I.I.I.I.I.I.I.I.I.I.I.I.I.I.I.I.I.N.M.N.u 6 ) p 5 p < < g q w 9 m.N.I.I.I.I.I.I.I.I.",
"I.I.I.I.I.I.I.I.I.I.I.I.I.I.I.I.I.I.I.I.I.I.I.I.I.I.I.I.I.I.I.I.I.I.I.I.I.I.I.I.I.I.I.I.I.I.I.I.",
"I.I.I.I.I.I.I.I.I.I.I.I.I.I.I.I.I.I.I.I.I.I.I.I.I.I.I.I.I.I.I.I.I.I.I.I.I.I.I.I.I.I.I.I.I.I.I.I."
};
