/* XPM */
static char *Articuno3[] = {
/* columns rows colors chars-per-pixel */
"82 57 16 1 ",
"  c black",
". c #5A3A19",
"X c #003152",
"o c #005273",
"O c gray32",
"+ c #BD293A",
"@ c #8C6B52",
"# c #B59473",
"$ c #007BBD",
"% c #4A84D6",
"& c #6BADF7",
"* c #94C5FF",
"= c #CECECE",
"- c #CEE6FF",
"; c white",
": c None",
/* pixels */
"::::::::::::::::::::::::::::::::::::::::::::::::::::::::::::::::::::::::::::::::::",
":::::::::::::::::::::::::::::::::::::::::::::::::::::%%%%%%:::::::::::::::::::::::",
"::::::::::::::::::::::::::::::::::::::::o :::::::::%%******&%%%:::::::::::::::::::",
":::::::::::::::::::::::::::::::::::::::o$ ::::::::%************%%%::::::::::::::::",
":::::::::::::::::::::::%%%%%%:::::::::o$$ :::::::%*&**************%%%:::::::::::::",
":::::::::::::::::::%%%&******%%::::::o&$ ::::::::X&%*****************%%:::::::::::",
"::::::::::::::::%%%************%:&X:o&$$ :::::::X&&X&******************%%%::::::::",
":::::::::::::%%%**************&*%&Xo*$$$ :::::::X&X%X*********************%%::::::",
":::::::::::%%*****************%& &o*&$$ ::     X*&X%X***************%*******%%::::",
"::::::::%%%******************&X& $ *$$$o  $$$ :X*&X&X****************%%*******%:::",
"::::::%%*******************&%X%o& &$$Xo$$$$$ ::X%&X&X************&*****%%X*****%::",
"::::%%*******%************&%X%%o* &$o&&$$$$ ::::X%X&X&************%******%XX***X::",
":::%*******%%***********&%XX%%%o$ $X&&$$$  ::::::X%&X&***&****&****%X*****%%XXX:::",
"::%*****X%%*****&*****&%XX%%%%% $ $X$$$  && :::::X%&%X***%****%*****%X******%:::::",
"::X***XX%******%*****&XX%%%%%%%X  X$$  =$&& :::::X&&&X***X*****X*****%XX*****%::::",
":::XXX%%*****X%*****&X%%%%%%%X%%  X  ;@;$&&o:::::X&&&X****X****XX*****%&X*****%:::",
":::::%******X%*****&X%%%%%%%X%&.##@ &X+$&&&& ::XXX&&&X**** ***** X*****%*XX***X:::",
"::::%*****XX%*****&X%%&&&%&&&%&  ..# $$&&&&& :X&X%&&&X**** *****  ******% :XXX::::",
":::%*****X&%*****&X%&&&&%&&&%&&&.@++ &&&&&&& X&%X%&&&X**** X****X& ******%::::::::",
":::X***XX*%*****&X&&&&&&%&&&%&&&X .+#.&&&&&& X%%X%&&& ****  *****X* *****%::::::::",
"::::XXX:X%******X&&&&&&%&&&%&&&&% @#.$&&&&&&X%%X%%&&& ***X& *****X** *****%:::::::",
"::::::::%******X&&&&&&%&&&&&&&&&%X  $&&&&&&&%%%X%&&&% *** & *****XX** ****%:::::::",
"::::::::%*****X&&&&&&&&&&&&&&&&&%XX$&&-&&&%%%X%%%&&&& *** &&X****X:XXX ***X:::::::",
":::::::%*****X**&&&&&&&&&&&&&&&&%%X&&--&-&&%X%%%&&&&& *** %& *****X:::: **X:::::::",
":::::::%****X**XX*&&&&&&&&&&&%&&&%X&-----&&X%%%%&&&%& **X&&% *****X::::: X::::::::",
":::::::X***XXXX:X****&&&X*&&&&&&&%X*------%%%%%&&&&&X ** &&&%X****XX::::::::::::::",
":::::::X**X::::X****&&&%&&&&&&&&&X**------%%%%&&&%&&X&  &&&&& ****XX::::::::::::::",
"::::::::XX:::::X***&&X%&&&&&X&%&&X*-------%%%&&&&&X&&XX&X%&&*X ***X:::::::::::::::",
"::::::::::::::XX****X%&&&&&*XX&&&X*-------%%%&&&&&X&&X&&XX%***X  X::::::::::::::::",
"::::::::::::::XX****X&&&&&XX&X&&X**--------%%%&%&&&XX&&&&X ***X:::::::::::::::::::",
":::::::::::::::X***XX*&&%X&XX&&XX**-------o%%%&&X&&&%X&&*X: ** XXX::::::::::::::::",
"::::::::::::::::XXXX***%XX&&X&&Xo**------*o%%%&&& &&&%****XX  &&&&XX   :::::::::::",
":::::::::::::::::::X***XX&&&&XXX***--*---*o%%%%&& &&*% ***X&&&&&$$$$o$$ ::::::::::",
":::::::::::::::::::X**X:X*&&X%&X**-*-*--**o%%%X**X **X ***X&&&&&$ooo$$oo$X::::::::",
"::::::::::::::::::::XX:X****%&&X**-****-**o%%%X**X **X:   &&&&ooo&&$$$$$o ::::::::",
":::::::::::::::::::::::X***X%*&X*********o%%%%&  X:  :Xo&&&&o$&&&&$$$$$$$oX:::::::",
":::::::::::::::::::::o:X***XX**X*********o%%%%&&&&o:XX&&&&&$&&&&$$     o$$ :::::::",
"::::::::::::::::::ooo$ooXXX:X**Xo*******o%%%%%%&&&oX&$&$&$o&&&&$  oXooo o$$ ::::::",
"::::::::::::::::oo&&$$$$...ooXX:X******* %%%%%%%&&o$o$$$$o&&&$$ :XoXoooX $$ ::::::",
":::::::::::::::X$$&&Xo$O;##.$oooX*XX*** %%X%%%X%%%Xo$$$oo$&$$  ::XoXoooX $$ ::::::",
"::::::::::::::X$$&XoooO;O O@..$$XX%%X* %OO%&&%%X%%X$$oo$$$$$ :::XooXoooXoX$ ::::::",
"::::::::::::::X$$Xo  o   O;##@.$$.%%%XXO;;O&OO%% %Xoo$$$$$  ::::XoXooooXoo$ ::::::",
":::::::::::::X$$Xo :: ::O;  .##..@%%%%OO *#O;*O% %X$$$oo  :::::XooXoooXooo :::::::",
":::::::::::::X$Xo ::::::  :: .###@ %%O;;. #. *.% Xooo   ::::::Xo$XooooXooo :::::::",
":::::::::::::X$Xo :::::::::::: #@ $  O *#.@# @  XX   ::::::XXX$$oXooooXoooo ::::::",
"::::::::::::::Xo :::::::::::::.# $o$$$$ @#.#.# XX:::::::::XX$$$$$XooooXooo :::::::",
"::::::::::::::Xo :::::::::::::O; $$oo$$$.###@# X::::::::X$$$$$$$o$$ooXoooo :::::::",
"::::::::::::::Xo ::::::::::::O; :  $$o$$$.###@ $XXXXXXXX$$$$$$oo$$$XXoooo ::::::::",
":::::::::::::::XX :::::::::::  :::: $$oo$.@##.oo$$$$$$$$$$oooo$$$$o$oooo :::::::::",
":::::::::::::::::X ::::::::::::::::: $$$oo.##.$$ooo$$$$ooo$$$$$$$$$$$$  ::::::::::",
":::::::::::::::::::::::::::::::::::::  $$$.## $$$$$ooo$$$$$$$$$$o$$$  ::::::::::::",
":::::::::::::::::::::::::::::::::::::::  $O;# oo$$$$$$$$$$$$oooo$   ::::::::::::::",
":::::::::::::::::::::::::::::::::::::::::O;* $$$oooo$ooooooo$$$  :::::::::::::::::",
"::::::::::::::::::::::::::::::::::::::::::    $$$$$$$$$$$$$$$  :::::::::::::::::::",
"::::::::::::::::::::::::::::::::::::::::::::::    $          :::::::::::::::::::::",
"::::::::::::::::::::::::::::::::::::::::::::::::::::::::::::::::::::::::::::::::::",
"::::::::::::::::::::::::::::::::::::::::::::::::::::::::::::::::::::::::::::::::::"
};
