/* XPM */
static char *Articuno1[] = {
/* columns rows colors chars-per-pixel */
"68 79 16 1 ",
"  c black",
". c #5A3A19",
"X c #003152",
"o c #005273",
"O c gray32",
"+ c #BD293A",
"@ c #8C6B52",
"# c #B59473",
"$ c #007BBD",
"% c #4A84D6",
"& c #6BADF7",
"* c #94C5FF",
"= c #CECECE",
"- c #CEE6FF",
"; c white",
": c None",
/* pixels */
"::::::::::::::::::::::::::::::::::::::::::::::::::::::::::::::::::::",
"::::::::::::::::::::::::::::::::::::::::::::::::::::::::::::::::::::",
":::::::::::::%%:::::::::::::::::::::::::::::::::::::::::::::::XXX:::",
"::::::::::::%**X::::::::::::::::::::::::::::::::::::::::::::XX***X::",
"::::::::::::%**X::%X:::::::::::::::::::::::::::::::::::::::X***** ::",
":::::::::::%***X:%**X:::::::::::::::::::::::::::::::::::::X***** :::",
":::::::::::%***%&***X::::::::::::::::::::::::::::::::::::X*****&X:::",
"::::::::::%****%&***X:::::::::::::::::::::::::::::::::::X****** ::::",
"::::::::::X***&&****X::::::::::::::::::::::::::::::::::X****** :::::",
"::::::::::X&*&%&***%:%X:::::::::::::::::::::::::::::::o****** ::::::",
"::::::::::X&&&%&&**X%**X:::::::::::::::::::::::::::::o*&****X:::XX::",
"::::::::::%&&&%&&&%&***X:::::::::::::::::::::::::::oo&&&&**X::XX**X:",
"::::::::::%&&&&&&&X****X:%%:::::::::::::::::::::::o&&&&&&*X:%X**** :",
"::::::::::&&&%&&&&&&**%:%**%:::::::::::::::::::::o&&&&&&&X%%***** ::",
"::::::::::X&&%&&&%&&&*X&***X::::::::::::::::::::o&&&&&&&X%****** :::",
"::::::::::X&&&&&&&&&&X****%::::::::::::::::::::o&&&&&&%%&*****& ::::",
"::::::::::X&&&&&&&&&X&****X:::::::::::::::::::o&*&&&&%X&&**** X:::::",
"::::::::::X&&&&&&&&&&&&**%:::::::::::::::::::o&*X&&&X&&&&&*%X:::::::",
"::::::::::X&&&&&&&&&&&&**X:::::::::::::::::::o*&X&&&&&&&&%X%%%%:::::",
"::::::::::X&&&&&&&&&&&&&X:::::::::::::::::::o*&X&&&&&&&%X%%&***%::::",
"::::::::::X&&&&&&&&&&&&X%:::::::::::::::::::o*X&&&&&&%X%&&*****X::::",
"::::::::::.&&&&&&&&&&&%**%:::::::::::::::::o*&X&&&&&%&&&&*****X:::::",
"::::::::::X&&&&&&&&&&&***X::::o :::::::::::o&X&&&&&&&&&&&&**%X::::::",
"::::::::::X&&&&&&&&&&&**X::::o$ ::::::::::o&&X&&&&&&&&&&&%X%%%%:::::",
"::::::::::X&&&&&&&&&&&&*X:::o$$ ::::::::::o&X%&&&&&&&&%X%%%&***%::::",
"::::::::::X&&&&&&&&&&&&&X::o&$ :::::::::::X&X&&&&&&&%X%%&******X::::",
":::::::::::X&&&&&&&&&&&&X:o&$$ ::::::::::X&&X&&&&&&&&&&&&*****X:::::",
":::::::::::X&&&&&&&&&&&&Xo*$$$ ::::::::::X&X%&&&&&&&&&&&&&*&XX::::::",
":::::::::::X&&&&&&&&&& &o*&$$ ::     ::::X&X&&&&&&&&&&&&&%XX::::::::",
"::::::::::::X&&&&&&&&& $ *$$$o  $$$ :::::X&X&&&&&&&&&%XX%%%%%:::::::",
"::::::::::::X&&&&&&&&o& &$$Xo$$$$$ ::::::%&X&&&&&&&%XX%%*****%::::::",
"::::::::::::X&&&&&&&&o* &$o&&$$$$ :::::::X&X&&&&&&&&&&&&***** ::::::",
":::::::::::::X&&&&&&&o$ $X&&$$$  :::::::X%&%&&&&&&&&&&&***** :::::::",
":::::::::::::X&&&&&&& $ $X$$$  && ::::::X&&%&&&&&&&&&&&&&X  ::::::::",
"::::::::::::::X&&&&&&&  X$$  =$&& ::::::X&X&&&&&&&&&%XX  :::::::::::",
"::::::::::::::X&&&&&&&  X  ;@;$&&o::::::X&X&&&&&%XXX%%%%%%::::::::::",
":::::::::::::::X&&&&&.##@ &X+$&&&& :::::X&X&&&&&&&&&&&****X:::::::::",
":::::::::::::::X&&&&&  ..# $$&&&&& ::::X%&&&&&&&&&&&&***** :::::::::",
"::::::::::::::::X&&&&&.@++ &&&&&&& ::::X&X&&&&&&&&&&&**** ::::::::::",
"::::::::::::::::X*&&&&& .+#.&&&&&& :::X%%&&&&&%X        X:::::::::::",
":::::::::::::::::X&&&&& @#.$&&&&&& :::X%X&&&&&&&&&&XX:::::::::::::::",
":::::::::::::::::X*&&&&&  $&&&&&&&%XXX%%X&&&&&&&&&***XX:::::::::::::",
"::::::::::::::::::X**&&&X$&&-&&&%%XX%%%X$&&&%%&&&******X::::::::::::",
":::::::::::::::::::X**&&X&&--&-&&X%%%%X$&&&&&&%X%%&**** ::::::::::::",
"::::::::::::::::::::X***X&-----&&%%%%X$&&&&&&&&&%XX    :::::::::::::",
":::::::::::::::::::::X**X*------%%%%%$&&&&%&&&&**%X:::::::::::::::::",
"::::::::::::::::::::::XX**-------%%%&&&&&&&X%&*****X::::::::::::::::",
":::::::::::::::::::::::X*--------%%&&&X&&&&&X &****X::::::::::::::::",
":::::::::::::::::::::::X*--------%%%&&&X&&&&*X  **X:::::::::::::::::",
"::::::::::::::::::::::X**--------%&&X&&&X&&***X:  ::::::::::::::::::",
"::::::::::::::::::::::X**-------o%%&& &&* &****X::::XXXXX:::::::::::",
"::::::::::::::::::::::o**------*o%X&&* *** X**X::XXX&&&&&X  ::::::::",
":::::::::::::::::::::X***--*---*o%%X**X **X:  :XX$&&&&&$$$$$X ::::::",
":::::::::::::::::::::X**-*-*--**o%%%  &o  :::XXo&&&&&&$ooooo$$ :::::",
":::::::::::::::::::::X**-****-**o%%%&&&o::::X&o&&&&&ooo&&&$$oo$X::::",
":::::::::::::::::::::X*********o%%%%&&&o::XX&o&&&&o$&&&&$$$$$$o ::::",
":::::::::::::::::::::X*********o%%%%&&&&oX&$o&&&&$&&&&$$$$$$$$$oX:::",
"::::::::::ooooo:::::::o*******o%%%%%%&&&o$oo&$&$o&&&&$$$     o$$ :::",
":::::::ooo$$$$...oo:::X******* %%%%%%%&&oo$$$$$o&&&$$   oXooo o$$ ::",
":::::oo&&$$$$O;##.$oo:X*XX*** %%X%%%X%%%X$$$$oo$&$$  ::XoXoooX $$ ::",
"::::X$$&&XooO;O O@..$ooX%%X*  OO%&&%%X%%X$$oo$$$$$ ::::XoXoooX $$ ::",
":::X$$&Xooo    O;##@.$$.%%%XXO;;O&OO%% %Xoo$$$$$  ::::XooXoooXoX$ ::",
":::X$$Xo   :::O;  .##..@%%%%OO *#O;*O% %X$$$oo  ::::::XoXooooXoX$ ::",
"::X$$Xo ::::::  :  .###@ %%O;;. #. *.% Xooo   :::::::XooXoooXooo$ ::",
"::X$Xo :::::::::::   #@ $  O *#.@# @  %X   :::::::::Xo$XooooXooo :::",
"::X$Xo :::::::::::: .# o$$$$% @#.#.# XX::::::::::XXX$$oXooooXooo :::",
":::Xo ::::::::::::::O; $oo$$$o.###@# ::::::::XXXX$$$$$XooooXoooo :::",
":::Xo :::::::::::::O;  $$$oo$$$.###@ XXXXXXXX$$$$$$$$o$$oooXooo ::::",
":::Xo :::::::::::::  :: $$$$o$$.@##.o$$$$$$$$$$$$$$oo$$$ooXoooo ::::",
"::::XX :::::::::::::::::  $$$oo$.##.$ooo$$$$$$$oooo$$$$$XXoooo :::::",
"::::::X ::::::::::::::::::  $$$o.## $$$$ooooooo$$$$$$$$o$oooo ::::::",
"::::::::::::::::::::::::::::  $$O;# o$$$$$$$$$$$$$$$$oo$$$$  :::::::",
":::::::::::::::::::::::::::::: O;* $$oooo$$$$$$$$oooo$$$$  :::::::::",
"::::::::::::::::::::::::::::::::     $$$$oooooooo$$$$$   :::::::::::",
":::::::::::::::::::::::::::::::::::::  $$$$$$$$$$$    ::::::::::::::",
":::::::::::::::::::::::::::::::::::::::           ::::::::::::::::::",
"::::::::::::::::::::::::::::::::::::::::::::::::::::::::::::::::::::",
"::::::::::::::::::::::::::::::::::::::::::::::::::::::::::::::::::::",
"::::::::::::::::::::::::::::::::::::::::::::::::::::::::::::::::::::"
};
