/* XPM */
static char *Articuno_bg2[] = {
/* columns rows colors chars-per-pixel */
"48 48 239 2 ",
"   c #050F14",
".  c #10201D",
"X  c #051828",
"o  c #001C38",
"O  c #000225",
"+  c #0C2F3A",
"@  c #253531",
"#  c #2B2512",
"$  c #4E341A",
"%  c #4A3E35",
"&  c #194535",
"*  c #28463E",
"=  c #40403E",
"-  c #704D2C",
";  c #7C4815",
":  c #022C48",
">  c #093749",
",  c #002C55",
"<  c #003454",
"1  c #003C5B",
"2  c #0A3A5B",
"3  c #18374B",
"4  c #24374D",
"5  c #043C68",
"6  c #11356C",
"7  c #044158",
"8  c #14465A",
"9  c #17505D",
"0  c #12544F",
"q  c #294747",
"w  c #295847",
"e  c #364C5A",
"r  c #2F5055",
"t  c #06724C",
"y  c #2A6E50",
"u  c #3A6755",
"i  c #25654D",
"p  c #024869",
"a  c #014977",
"s  c #1B4878",
"d  c #115470",
"f  c #364964",
"g  c #24566B",
"h  c #23567B",
"j  c #37597D",
"k  c #315266",
"l  c #1C636F",
"z  c #29657A",
"x  c #316C77",
"c  c #387A7B",
"v  c #2A6D76",
"b  c #464748",
"n  c #575047",
"m  c #6A5C4E",
"M  c #477059",
"N  c #716256",
"B  c #475975",
"V  c #58646F",
"C  c #47736E",
"Z  c #69696D",
"A  c #B23C2C",
"S  c #89502C",
"D  c #87633F",
"F  c #814C1B",
"G  c #C7413E",
"H  c #8C6E50",
"J  c #AA6F4C",
"K  c #089C57",
"L  c #079358",
"P  c #07874C",
"I  c #4B836C",
"U  c #46857C",
"Y  c #559379",
"T  c #B28256",
"R  c #8D887D",
"E  c #C28A56",
"W  c #C29B76",
"Q  c #CD9B6E",
"!  c #035987",
"~  c #1C538A",
"^  c #025D92",
"/  c #174C85",
"(  c #265886",
")  c #265C95",
"_  c #30558F",
"`  c #02618F",
"'  c #1A6788",
"]  c #026197",
"[  c #1A6E99",
"{  c #246A8A",
"}  c #2D7688",
"|  c #387C84",
" . c #296797",
".. c #34699B",
"X. c #297798",
"o. c #3A6B8D",
"O. c #225DA4",
"+. c #006AA2",
"@. c #0174A9",
"#. c #0378B9",
"$. c #1C6DA0",
"%. c #2968A8",
"&. c #366BA8",
"*. c #2B75A7",
"=. c #3773A7",
"-. c #356DB7",
";. c #2976B3",
":. c #3877B7",
">. c #2F6AB1",
",. c #466689",
"<. c #436899",
"1. c #5B7797",
"2. c #46709F",
"3. c #6D758D",
"4. c #4B7DAD",
"5. c #4677A6",
"6. c #5179AC",
"7. c #457BB4",
"8. c #0079C3",
"9. c #107DC0",
"0. c #3A77C6",
"q. c #487FCC",
"w. c #388686",
"e. c #328993",
"r. c #3F81AF",
"t. c #47958B",
"y. c #569C87",
"u. c #4D8C89",
"i. c #5EA386",
"p. c #58A28E",
"a. c #58A893",
"s. c #57AC99",
"d. c #65AB8B",
"f. c #62AD93",
"g. c #6BBC9C",
"h. c #68B595",
"j. c #4B82BC",
"k. c #598CB7",
"l. c #5995BE",
"z. c #5587AD",
"x. c #638EB8",
"c. c #7292B8",
"v. c #7A82A7",
"b. c #74A09F",
"n. c #70C19F",
"m. c #6EC09F",
"M. c #6FC2A1",
"N. c #73C7A3",
"B. c #70C3A8",
"V. c #0089D4",
"C. c #0684C7",
"Z. c #009AF4",
"A. c #2C99EC",
"S. c #00A0F2",
"D. c #38A9F7",
"F. c #2C92D8",
"G. c #4B88C7",
"H. c #578CC7",
"J. c #5894C7",
"K. c #4986D8",
"L. c #5899DA",
"P. c #508ED1",
"I. c #6799C7",
"U. c #669AD4",
"Y. c #739AC7",
"T. c #66A3CC",
"R. c #6AA4D7",
"E. c #78AADA",
"W. c #74A9C6",
"Q. c #4D8AE1",
"!. c #548DE6",
"~. c #5A98E7",
"^. c #5299F2",
"/. c #649CE3",
"(. c #5DA3E8",
"). c #5DA6F8",
"_. c #4CB9FF",
"`. c #64A4ED",
"'. c #69A4E5",
"]. c #77ABE6",
"[. c #7EB0EA",
"{. c #66A9F5",
"}. c #6BADF7",
"|. c #6BAFFA",
" X c #68A8F7",
".X c #73ABF3",
"XX c #6EB1FB",
"oX c #6EBDFF",
"OX c #64B5FE",
"+X c #73B4FD",
"@X c #73BAFE",
"#X c #7ABCFF",
"$X c #7BB4F7",
"%X c #7AC5FF",
"&X c #919090",
"*X c #8FA8B6",
"=X c #BCB7B2",
"-X c #A19D99",
";X c #D9C0A7",
":X c #85ABDB",
">X c #89AFCB",
",X c #88B7E6",
"<X c #84BCFB",
"1X c #8ABEFD",
"2X c #86B9F2",
"3X c #96C3EA",
"4X c #8DC2F4",
"5X c #82C5FF",
"6X c #8DC1FD",
"7X c #87C1F5",
"8X c #94C5FF",
"9X c #95CCFE",
"0X c #9BCBFF",
"qX c #98C8F7",
"wX c #9BD2FF",
"eX c #9AD4F6",
"rX c #A1CFFE",
"tX c #A3D4FF",
"yX c #A6DAFE",
"uX c #ABDBFF",
"iX c #ABD6FB",
"pX c #BADCFF",
"aX c #AFD2EC",
"sX c #ACE3FB",
"dX c #B3E4FF",
"fX c #BAECFF",
"gX c #B7E8FF",
"hX c #BDF2FF",
"jX c #BDF9FF",
"kX c #B8CBD5",
"lX c #CCE5FF",
"zX c #C6E8FF",
"xX c #D4EAFF",
"cX c #D6EBFF",
"vX c #C2F9FF",
"bX c #CCE2EF",
"nX c #E3F6FE",
"mX c #F1FFFF",
"MX c #D0CED0",
/* pixels */
"N.N.N.N.N.N.N.N.N.N.N.N.N.N.N.N.N.N.N.N.n.n.n.N.N.N.N.N.N.N.N.N.N.N.N.N.N.N.N.N.N.N.N.N.N.N.N.N.",
"N.N.N.N.N.N.N.N.N.N.N.N.N.N.N.N.N.N.B.a.8 h.N.N.N.N.N.N.N.N.N.N.N.N.N.N.N.N.N.N.N.N.N.N.N.N.N.N.",
"N.N.K N.K y N.K N.N.N.N.N.N.N.N.K N.L @.1 P N.N.N.N.K N.y K N.K N.N.N.N.N.N.N.N.K N.y K N.K N.N.",
"N.N.y N.y y N.y N.N.N.N.N.N.N.N.y g.X.C.w i N.N.N.N.y N.y y N.y N.N.N.N.N.N.N.N.y N.y y N.y N.N.",
"N.N.N.y N.N.y N.N.N.N.N.N.n.N.J.c } D.] & N.N.N.N.N.N.y N.N.y N.N.N.N.N.N.N.N.N.N.y N.N.y N.N.N.",
"N.N.N.N.N.N.N.N.N.N.N.N.N.n.d.&...+X8.8 h.I M u d.N.N.N.N.N.N.N.N.N.N.N.N.N.N.N.N.N.N.N.N.N.N.N.",
"N.N.N.N.N.N.N.N.N.N.N.N.N.N.i 2 x.D.] 0 * ] ! . d.n.N.N.N.N.N.N.N.N.N.N.N.N.N.N.N.N.N.N.N.N.N.N.",
"N.N.N.N.N.N.N.N.N.y N.y K f.j.B F.` ..C.V.V.9 n.N.N.N.N.N.N.N.N.N.y N.K y N.y N.N.N.N.N.N.N.N.N.",
"N.N.N.N.N.N.N.N.N.K N.K K a.$.h ^ G._.#.a @ g.N.N.N.N.N.N.N.N.N.N.K N.K K N.K N.N.N.N.N.N.N.N.N.",
"N.N.N.N.N.N.N.N.N.N.K N.N.P > : ^ 9.5 3 4.6.Y N.N.N.N.N.N.N.N.N.N.N.K N.N.K N.N.N.N.N.N.N.N.N.N.",
"N.N.N.N.N.N.N.N.N.N.N.N.B.M.M   , g J *X_.L.I N.N.N.N.N.N.N.N.N.N.N.N.N.N.N.N.N.N.N.N.N.N.N.N.N.",
"N.N.N.N.N.N.N.N.N.N.N.N.B.d.- H $ h Z H.OX%Xe g.N.N.N.N.N.N.N.N.N.N.N.N.N.N.N.N.N.N.N.N.N.N.N.N.",
"N.N.K N.K y N.K N.N.N.N.N.d.# S A 4 F.).XX%X4 g.N.N.K N.y K N.K N.N.N.N.N.N.N.N.K N.y K N.K N.N.",
"N.N.y N.y y N.y N.N.N.N.N.N.g.$ G S H.+X}.#X7.u N.N.y n.y y N.y N.N.N.N.N.N.N.N.y N.y y N.y N.N.",
"N.N.N.y N.N.y N.N.N.N.N.N.N.N.y - k ^.}.|.+X/.g N.n.C & h.I & N.N.N.N.N.N.N.N.N.N.y N.N.y N.N.N.",
"N.N.N.N.N.N.N.N.N.N.N.N.t.} e.} , D.tXXX X X|. .y U x.,.X *X8 I q N.N.N.N.N.N.N.N.N.N.N.N.N.N.N.",
"N.N.N.N.N.N.N.N.N.M.p.} T.0XtXI.%.sXxXpX$XK.}.`.P.z.fX,.W.aX8 z.qX| N.n.N.N.N.N.N.N.N.N.N.N.N.N.",
"N.N.N.N.N.N.N.N.N.l I.yXuX[.<Xj =.nXxXnX3X[ @XXXoX9X2.c.eXj ,XvXeX4 q t y N.y N.N.N.N.N.N.N.N.N.",
"N.N.N.N.N.N.N.N.w.].zXT. .s O./ qXxXlXxXbXz.(.}.5X2X].4X..,XdX3X: + >XJ.t N.K N.N.N.N.N.N.N.N.N.",
"N.N.N.N.N.N.N.w.(.XX) s &.Q.0.) zXcXlXlXmX>X;.@X}.8XiXU.E.iX,X( ,.iXtXdX( t c f.N.N.N.N.N.N.N.N.",
"N.N.N.N.N.N.e.L.%X( ) Q.!.!.) J.zXxXlXlXnX*X;.@X.X8X1XrX0X8XU.'.uXuX8Xs , 5 ! ! * N.N.N.N.N.N.N.",
"N.N.N.N.B.g.=.5X .-.!.K.K.!.~ U.zXxXlXcXaX%.%.G.+X1XrX8X8X8X8XiX0XH.%.( B C e ! +.r N.N.N.N.N.N.",
"N.N.K N.L w 5.P.( ^.K.q.~.:.=.eXpXlXpXnX2X$.0.[ XX+X8X8X8X8X0X2X/.U.R.wXvXjXv.o S.p w K N.K N.N.",
"N.N.y N.y 9 +X) 0.!.~.~.@X:.5.zXpX0XiXlX4X .!.%.P.#X1XrX8X8X1X1X1XuXgXsXE. .,   p V.+ y N.y N.N.",
"N.N.N.P d.' j.) K.`.~.`.%X:.5.fX0X6X6XpXP.>.!.-.d {.+X6X0X8X8X0X8XG.e e     + : o ^ 7 Y y N.N.N.",
"N.N.N.Y a :. .&.@X%XoX|.+XP.5.qXtX0X8X9X%.q.q.!.'  .@X}.0X8X8X8X8X[.Y.Y.:X:X:X,Xr < +.u N.N.N.N.",
"N.N.N.' a /.7.%.<X3.Z /.oX%X .E.Y.[.zXz./ ^.q.q.^.*.L.+X$X0X8X8X8X0XqX8X8XtXtXvX:X: 8 i.N.N.N.N.",
"N.h.[ C.2 =.&.`.>X-XF n H.%X7.7.2 h :X4 / >. X-.&.0.=.XX}.8X8X8X0X0XU._ &.q. ._ :.a & N.N.N.N.N.",
"N.p.! p ( ..Q.U.n % Z W F 1.OXj K./ O f =XU.U.6.) )  .(.XX1X8X8X8X8X8XqX1XG.,.k < X @ N.N.N.N.N.",
"N.m.c 1 '. .~.}.&.b &Xb S J m H Q.^.3.N *XH v.*X<.3 ;.{. X#X0X8X8X8X8X1XrXfXfXsXE.c.* m.N.N.N.N.",
"N.N.y.2 ~. .`.XX%Xx =.Q.B H E $ 6 f -XMX# D % V @ o p L.XX+X0X8X8X8X8X0XR.6.'.1XdXvXE.U N.N.N.N.",
"N.N.u.G...&.#X}.{.%X@XOXOXm - 6.=.7 : 4 E H H $   , : [ #X{.$X0X8X8X8X0X:X..6 7./.q.T.N.N.N.N.N.",
"N.N.t `.L.H.@X}.}.}.}.XX'.=Xq | 0 ! Z.1 H W W - X ] ] a ).@X{.6X9X8X8X8XrXiX,X2XP.h 0 L n.K N.N.",
"N.N.0 =.L.#X{.}.}.}.XX5XB n s N.y M 1 8.q J Q n #.#.#.`  ..X}.+X0X8X8X8X8X1X8XtXiXiXY.g g.y N.N.",
"N.f.2 H.`.XX}.}.}.}.{.L.U.E.I.y.N.y f.@ . - E r ] #.@.@.` @X@X{.6X8X8X0X8X6.&.P.1X8XgXrXg N.N.N.",
"N.d. .5XXX}.}.}.}.XXXX..U.gX0Xz N.N.N.N.n.R ;X. u 1 7 1 > ..(.XX1X0X8X8X1X0XU.k.0.>.`..XW.N.N.N.",
"N.x L.+X|.}.}.}.}.XX@X7X..{ dXE.u.N.N.N.d.kXV h.N.i.i.i.Y h `.XX6X0X8X8X8X0XgXuX,X].G.x N.n.N.N.",
"N.h |.|.+X+X X}.XXL.P.sX[.' P.k.a.N.N.N.g.w Y N.N.N.N.N.N.e.(.@X<X0X8X8X9X[.7.1XuXiXyXk.U n.N.N.",
"N.h {.%X7.P.@X}.XX~.J.7XgXo.L a.N.N.N.N.N.N.N.N.N.N.N.N.N.M.X.@X X<X0X8XrX8XH.&.-.'.yXyXJ.N.N.N.",
"N.z {.5X .4.9X}.XXsXj.l T.0 N.N.N.N.N.N.N.N.N.N.N.N.N.N.N.N.w.(.+X X<X0X].E.fX2Xj.>.=.t.N.N.N.N.",
"N.h +X#X*.I.iX5X.XrX4X| u.N.N.N.N.N.N.N.N.N.N.N.N.N.N.N.N.N.N.w.R.+X+X0X,Xj.4.0XgX9XB u N.N.N.N.",
"N.x U.uXJ.J.uXI.L.iX4Xx n.N.N.N.N.N.N.N.N.N.N.N.N.N.N.N.N.N.N.N.} *.5XrX0X8XG.H.2XuXyX,Xr N.N.N.",
"N.g.h fX{ R.gXd v uXz.f.N.N.N.N.K N.K y N.K N.N.N.N.K N.y L N.K N.h.X.E.iX0XuXI.( '.9XgXtX& h.N.",
"N.u.I.7X7 J.zX} B.X.w.M.N.N.N.N.y N.y y N.y N.N.N.N.y N.y y N.y N.N.g.w.E.tX8XuXY.z g z.yXtXq N.",
"N.c z.l N.{ l.e.N.N.N.N.N.N.N.N.N.y N.N.y N.N.N.N.N.N.y N.N.y N.N.N.N.N.U G.wX0XuXx.I y.9 l.| N.",
"N.N.p.N.N.f.a.N.N.N.N.N.N.N.N.N.N.N.N.N.N.N.N.N.N.N.N.N.N.N.N.N.N.N.N.N.n.x J.0X4XsX1.i.N.p.N.N.",
"N.N.N.N.N.N.N.N.N.N.N.N.N.N.N.N.N.N.N.N.N.N.N.N.N.N.N.N.N.N.N.N.N.N.N.N.N.N.N.N.N.N.N.N.N.N.N.N.",
"N.N.N.N.N.N.N.N.N.N.N.N.N.N.N.N.N.N.N.N.N.N.N.N.N.N.N.N.N.N.N.N.N.N.N.N.N.N.N.N.N.N.N.N.N.N.N.N."
};
