/* XPM */
static char *Garchomp_left_ground[] = {
/* columns rows colors chars-per-pixel */
"48 48 205 2 ",
"   c #020204",
".  c #06090B",
"X  c #080B0C",
"o  c #07070B",
"O  c #0D0E16",
"+  c #140E15",
"@  c #0C1314",
"#  c #0F1219",
"$  c #10111C",
"%  c #151B18",
"&  c #2A0701",
"*  c #281B1C",
"=  c #15231E",
"-  c #10291E",
";  c #03371F",
":  c #3E260F",
">  c #141622",
",  c #161925",
"<  c #1A1C2B",
"1  c #171C28",
"2  c #1D1D31",
"3  c #2B1F31",
"4  c #1A2729",
"5  c #183328",
"6  c #1E2233",
"7  c #1D2737",
"8  c #21392F",
"9  c #202436",
"0  c #24253C",
"q  c #242A3E",
"w  c #213531",
"e  c #273B3A",
"r  c #233B34",
"t  c #5B271F",
"y  c #72311E",
"u  c #752A0F",
"i  c #482D39",
"p  c #7A3C2A",
"a  c #6E372D",
"s  c #1D4D38",
"d  c #264236",
"f  c #29463B",
"g  c #2B4B3D",
"h  c #066F3E",
"j  c #59583D",
"k  c #75693F",
"l  c #262C41",
"z  c #292E43",
"x  c #2B2D4A",
"c  c #272742",
"v  c #2B3246",
"b  c #2E334C",
"n  c #2B3547",
"m  c #39364D",
"M  c #2F3253",
"N  c #2D3957",
"B  c #323352",
"V  c #333A54",
"C  c #363759",
"Z  c #363B5A",
"A  c #393E5E",
"S  c #353C61",
"D  c #3B3E62",
"F  c #4A3444",
"G  c #324C4A",
"H  c #3E4A42",
"J  c #2E5042",
"K  c #335446",
"L  c #345A4A",
"P  c #334254",
"I  c #39425D",
"U  c #3A4A5D",
"Y  c #36455B",
"T  c #395D52",
"R  c #2A6E50",
"E  c #3D6857",
"W  c #296A4D",
"Q  c #3C4465",
"!  c #3F4569",
"~  c #3D4B67",
"^  c #3D5162",
"/  c #3F4A79",
"(  c #3F5577",
")  c #3F6865",
"_  c #424954",
"`  c #49535A",
"'  c #4F4F4D",
"]  c #715B4A",
"[  c #47685E",
"{  c #497053",
"}  c #41456C",
"|  c #424A6D",
" . c #4B4A62",
".. c #415666",
"X. c #455968",
"o. c #454C74",
"O. c #484F79",
"+. c #465174",
"@. c #495377",
"#. c #4A527A",
"$. c #4B5C79",
"%. c #545873",
"&. c #476769",
"*. c #467766",
"=. c #4A6774",
"-. c #527A7A",
";. c #4F6C6A",
":. c #6A657A",
">. c #757574",
",. c #6D6A54",
"<. c #917518",
"1. c #856C2F",
"2. c #907E4B",
"3. c #807F71",
"4. c #089C57",
"5. c #099154",
"6. c #088D4F",
"7. c #4D846D",
"8. c #4F8971",
"9. c #4E8674",
"0. c #518C72",
"q. c #56887F",
"w. c #56957A",
"e. c #539076",
"r. c #9A860D",
"t. c #A9A034",
"y. c #C3A616",
"u. c #E2BE00",
"i. c #E6B500",
"p. c #C5AB21",
"a. c #F1CF00",
"s. c #F2D000",
"d. c #A0A169",
"f. c #A2A477",
"g. c #404E8A",
"h. c #4E5683",
"j. c #4E5983",
"k. c #505B86",
"l. c #525E8A",
"z. c #595A82",
"x. c #505F91",
"c. c #4E5D93",
"v. c #54628C",
"b. c #586287",
"n. c #566591",
"m. c #596694",
"M. c #596996",
"N. c #5D6C9B",
"B. c #576E91",
"V. c #5D769B",
"C. c #4F6484",
"Z. c #7A7A88",
"A. c #727D95",
"S. c #5B6FA4",
"D. c #556AA3",
"F. c #606EA0",
"G. c #6272A3",
"H. c #6577AA",
"J. c #6679AA",
"K. c #697BAC",
"L. c #647EA6",
"P. c #677BB3",
"I. c #568581",
"U. c #5C9E82",
"Y. c #619D8D",
"T. c #5FA486",
"R. c #60A48A",
"E. c #63AB8C",
"W. c #64A892",
"Q. c #66B291",
"!. c #6BB896",
"~. c #6BB599",
"^. c #6DBB9B",
"/. c #69B594",
"(. c #76BD98",
"). c #6982AE",
"_. c #6681AB",
"`. c #6B83B2",
"'. c #6D86B9",
"]. c #718CBD",
"[. c #7187BD",
"{. c #6FC19E",
"}. c #70C19E",
"|. c #7CC79D",
" X c #73C7A3",
".X c #738DC3",
"XX c #7693C4",
"oX c #7797C9",
"OX c #7A9ACB",
"+X c #7898CB",
"@X c #7599D3",
"#X c #6A86C1",
"$X c #7EA1D2",
"%X c #7BA2DD",
"&X c #8C958E",
"*X c #868B8F",
"=X c #A18785",
"-X c #8995A8",
";X c #9A9AA9",
":X c #83C797",
">X c #82A4D8",
",X c #AFAEC3",
"<X c #B4B4C9",
"1X c #88AEE3",
"2X c #BDC3DF",
/* pixels */
" X X X X X X X X X X X X X X X X X X X X X X X X X X X X X X X X X X X X X X X X X X X X X X X X",
" X X X X X X X X X X X X X X X X X X X X X X X X X X X X X X X X X X X X X X X X X X X X X X X X",
" X X4. X4.R  X4. X X X X X X X X4. X4.R  X4. X X X X4. XR 4. X4. X X X X X X X X4. XR 4. X4. X X",
" X XR  XR R  XR  X X X X X X X XR  XR R  XR  X X X XR  XR R  XR  X X X X X X X XR  XR R  XR  X X",
" X X XR  X XR  X X X X X X X X X XR  X XR  X X X X X XR  X XR  X X X X X X X X X XR  X XR  X X X",
" X X X X X X X X X X X X X X X X X X X X X X X X X X X X X X X X X X X X X X X X X X X X X X X X",
" X X X X X X X X X X X X X X X X!.Q.8 @ @ 5 R.!. X X X X X X X X X X X X X X X X X X X X X X X X",
" X X X X X X X X XR  XR 4. XR w.d d V Q V l 8 d 0. X X X X X X X XR  X4.R  XR  X X X X X X X X X",
" X X X X X X X X X4. X4.4. Xh G b b M.G.j.O.B l e 7. X X X X X X X4. X4.4. X4. X X X X X X X X X",
" X X X X X X X X X X4. X X4.g 6 k.o.#.o.} j.J.M.q 4 }. X X X X X X X4. X X4. X X X X X X X X X X",
" X X X X X X X X X X X X^.^.G 6 D D A Z A O.M.k.9 d }. X X X X X X X X X X X X X X X X X X X X X",
" X X X X X X X X X X XW.^ U ( B.).).K.'.b.C V 6 K E. X X X X X X X X X X X X X X X X X X X X X X",
" X X4. X4.R  X4. X XR.( g.D.'.OX>X>XOX>X].V.n.q *. X4. XR 4. X4. X X X X X X X X4. XR 4. X4. X X",
" X XR  XR R  XR  XW.&.k d.f.-X@XXXoX>X>X>X>X>Xv.=.R.R  XR R  XR  X X X X X X X XR  XR R  XR  X X",
" X X XR  X XR  XW.` <.u.a.y.&X@X$XOX_.V.V._.XX'.#.X.}.R  X XR  X X X X X X X X X XR  X XR  X X X",
" X X X X X X X X_ 1.u.a.y.&X+X+XOX].q @ # 6 v.H.O... X X X X X X X X X X X X X X X X X X X X X X",
" X X X X X X X XF <.i.p.&X@X@XJ.| Q B A Q M C 9 9 &. X X X X X X X X X X X X X X X X X X X X X X",
" X X X X X X X Xb j d.>.#X.XS.O.@.C.#.J.K.k.j.Y 2 G }. X X X X X XR  X4.R  XR  X X X X X X X X X",
" X X X X X X X XX.A c.P.S.g.j ,.K..Xv.L.).k.].[.b r  X X X X X X X4. X4.4. X4. X X X X X X X X X",
" X X X X X X X X^.=.! N.z.* r.t./ x.k.K.`.j.M.#.< e ~. X X X X X X X4. X X4. X X X X X X X X X X",
" X X X X X X X X X^.) * y u 1.' # M o.M.N.O.Z > , x %.(.^. X X X X X X X X X X X X X X X X X X X",
" X X X X X X X X X XQ.L & & t ] :.#.6 4 c x O l k.%.Z ;.K f f J !. X X X X X X X X X X X X X X X",
" X X4. X4.R  X4. X X X!.{ { : p =XJ.N 9 V o.V v.v.v < C Q Y U Y =.*.w. X X X X X4. XR 4. X4. X X",
" X XR  XR R  XR  X X X X X:X{ * a :.J.H.n.O.j.G.Q > 6 v..XoX+XXXv.b f R. X X X XR  XR R  XR  X X",
" X X XR  X XR  X X X X X X X}.*.i 1.z.P.@.O . / G.M.M.G.H.K.K.H.`.oX=.w W.}. X X XR  X XR  X X X",
" X X X X X X X X X X X X X X X9.i u F A.-XP   3 n.P.H.G.F.G.F.#.l $.XXC.r U. X X X X X X X X X X",
" X X X X X X X X X X X X X X9.5 + & 3  .*X-X| c 9 I F.#.b v z < L e Y P . 8. X X X X X X X X X X",
" X X X X X X X X XR  XR 5.Y.` _ c 3 M C  .Z.K.k.0 q k.o.# % f K !.s g ; - R.R  X X X X X X X X X",
" X X X X X X X X X4. X4.5._ ,X2XN.S.l.h.o.! N.G.l.N b v.v E }. X X4. X4.4. X4. X X X X X X X X X",
" X X X X X X X X X X4. X^.n <X,XD D.F.N.M.M.S.k.} 3 , l.o.&. X X X X4. X X4. X X X X X X X X X X",
" X X X X X X X X X X X X^.I ;X*XO , A } o.l.k.D x B @.V.N.$.-.{. X X X X X X X X X X X X X X X X",
" X X X X X X X X X X X X XI.` _ g $ C D D o.O.! D C I F.'.j.P  X X X X X X7.E 7. X X X X X X X X",
" X X4. X4.R  X4. X X X X X X*.*.6.&.V | l.j.o.#.h.Z , Q m.k.P h  X X X Xw.e , 8 5. XR 4. X4. X X",
" X XR  XR R  XR  X X X X X X}.}.R ^.4 7 j.N.k.@.O.#.A O b l.A @ 0.Q.Q.w.4 V.^ r R  XR R  XR  X X",
" X X XR  X XR  X X X X X X X X X XR U $ 9 l.N.j.O.k.Q . q k.o.c = = = w V.[.b f ^.R  X XR  X X X",
" X X X X X X X X X X X X X X X X}.}.X.v 6 , 7 j.G.n.o.b , B #.C x 9 V B.].N.B v =. X X X X X X X",
" X X X X X X X X X X X X X X X X X^.Q k.#.< > v Q ~ N.N.Z 6 x Z #.D O.P.F.j.o.D b  X X X X X X X",
" X X X X X X X X XR  XR 4. XR  X X}.=.+.k.k.#.9 # 9 #.b.| 6   q | D D O.A A } ! .. X X X X X X X",
" X X X X X X X X X4. X4.4. X4. X X X^.E 6 o.#.| o.B O @ @ X X @ c B A A + o 9 =.~. X X X X X X X",
" X X X X X X X X X X4. X X4. X X X X XQ.E > B #.o.B 6 *.w.w.w.8.4 X $ > 2 o T ~. X X X X X X X X",
" X X X X X X X X X X X X X X X X X X Xe.K ' >.m.D I q. X X X X X7.E E K > . *. X X X X X X X X X",
" X X X X X X X X X X X X X X X X X X Xg % ' >.%.~ q. X X X X X X X X X!.g d 7. X X X X X X X X X",
" X X4. X4.R  X4. X X X X X X X X4. X4.5 . @ % v -.{.4. XR 4. X4. X X X X^.!.}. X4. XR 4. X4. X X",
" X XR  XR R  XR  X X X X X X X XR  XR R  XR  X X X XR  XR R  XR  X X X X X X X XR  XR R  XR  X X",
" X X XR  X XR  X X X X X X X X X XR  X XR  X X X X X XR  X XR  X X X X X X X X X XR  X XR  X X X",
" X X X X X X X X X X X X X X X X X X X X X X X X X X X X X X X X X X X X X X X X X X X X X X X X",
" X X X X X X X X X X X X X X X X X X X X X X X X X X X X X X X X X X X X X X X X X X X X X X X X",
" X X X X X X X X X X X X X X X X X X X X X X X X X X X X X X X X X X X X X X X X X X X X X X X X"
};
