/* XPM */
static char *Garchomp_right_ground[] = {
/* columns rows colors chars-per-pixel */
"48 48 208 2 ",
"   c #020204",
".  c #06090B",
"X  c #07080B",
"o  c #0D0E16",
"O  c #140E15",
"+  c #0D1314",
"@  c #0F1219",
"#  c #0F1814",
"$  c #10111C",
"%  c #131A18",
"&  c #300F00",
"*  c #291C1E",
"=  c #311C12",
"-  c #331004",
";  c #15231E",
":  c #0F271C",
">  c #35271C",
",  c #141622",
"<  c #161925",
"1  c #1A1C2B",
"2  c #171C28",
"3  c #1D1D31",
"4  c #2B1F31",
"5  c #1B2629",
"6  c #033B21",
"7  c #1E2233",
"8  c #1D2737",
"9  c #113F32",
"0  c #1D332A",
"q  c #21392F",
"w  c #202436",
"e  c #24253C",
"r  c #242A3E",
"t  c #213531",
"y  c #273B3A",
"u  c #243C35",
"i  c #762B10",
"p  c #5E2C21",
"a  c #492D3A",
"s  c #773624",
"d  c #6E382E",
"f  c #174D38",
"g  c #044828",
"h  c #264236",
"j  c #29463B",
"k  c #2B4B3D",
"l  c #20543D",
"z  c #59583D",
"x  c #7E452C",
"c  c #75693F",
"v  c #262C41",
"b  c #292E44",
"n  c #2C2D49",
"m  c #272742",
"M  c #2B3246",
"N  c #2E334C",
"B  c #283846",
"V  c #36354E",
"C  c #2F3253",
"Z  c #2F375A",
"A  c #323352",
"S  c #333A54",
"D  c #363759",
"F  c #363B5A",
"G  c #383E5E",
"H  c #3B3E62",
"J  c #373C62",
"K  c #4A3444",
"L  c #1D5E51",
"P  c #364C48",
"I  c #295643",
"U  c #325446",
"Y  c #345A4A",
"T  c #284250",
"R  c #39425D",
"E  c #364559",
"W  c #245655",
"Q  c #385E50",
"!  c #2F4C45",
"~  c #147D55",
"^  c #2A6E50",
"/  c #3D6857",
"(  c #2A684F",
")  c #3C4365",
"_  c #3E446A",
"`  c #3D4B66",
"'  c #3D5162",
"]  c #3F4A79",
"[  c #3F5577",
"{  c #424954",
"}  c #4F5152",
"|  c #705B4A",
" . c #47685E",
".. c #5C7E58",
"X. c #41456C",
"o. c #424A6D",
"O. c #4B4A62",
"+. c #415665",
"@. c #455969",
"#. c #454C74",
"$. c #484F79",
"%. c #465174",
"&. c #495377",
"*. c #4A527A",
"=. c #4B5C79",
"-. c #545873",
";. c #416B62",
":. c #47676D",
">. c #477867",
",. c #4B6775",
"<. c #527A7A",
"1. c #516266",
"2. c #6A657A",
"3. c #757574",
"4. c #6D6A54",
"5. c #917518",
"6. c #866C30",
"7. c #907E4B",
"8. c #807F71",
"9. c #089C57",
"0. c #0B9156",
"q. c #4D846D",
"w. c #4F8971",
"e. c #4D8776",
"r. c #518B73",
"t. c #56887F",
"y. c #56957A",
"u. c #539076",
"i. c #9A860D",
"p. c #A9A034",
"a. c #C3A616",
"s. c #E2BE00",
"d. c #E6B500",
"f. c #C5AB21",
"g. c #F1CF00",
"h. c #F2D000",
"j. c #A0A169",
"k. c #A2A477",
"l. c #404E8A",
"z. c #4E5783",
"x. c #4E5983",
"c. c #505B86",
"v. c #525E8A",
"b. c #595A82",
"n. c #4E5D93",
"m. c #505F91",
"M. c #54628C",
"N. c #586287",
"B. c #566591",
"V. c #596694",
"C. c #596996",
"Z. c #5D6C9B",
"A. c #596B94",
"S. c #5D769B",
"D. c #4F6484",
"F. c #7A7A88",
"G. c #727D95",
"H. c #5B6FA4",
"J. c #556AA3",
"K. c #606EA0",
"L. c #6272A3",
"P. c #6577AA",
"I. c #6679AA",
"U. c #697BAC",
"Y. c #647EA6",
"T. c #677BB3",
"R. c #568581",
"E. c #5C9E82",
"W. c #629F8E",
"Q. c #5FA486",
"!. c #61A38C",
"~. c #63AB8C",
"^. c #63A591",
"/. c #66B291",
"(. c #6BB997",
"). c #6BB499",
"_. c #6DBB9B",
"`. c #69B494",
"'. c #71BF9D",
"]. c #74BD97",
"[. c #6982AE",
"{. c #6681AB",
"}. c #6B83B2",
"|. c #6D86B9",
" X c #718CBD",
".X c #7187BD",
"XX c #6FC19E",
"oX c #70C19F",
"OX c #73C7A3",
"+X c #738DC3",
"@X c #7693C4",
"#X c #7797C9",
"$X c #7A9ACB",
"%X c #7898CB",
"&X c #7599D3",
"*X c #6A86C1",
"=X c #7EA1D2",
"-X c #7BA2DD",
";X c #8C958E",
":X c #868B8F",
">X c #A18786",
",X c #8995A8",
"<X c #9A9AA9",
"1X c #82A4D8",
"2X c #AFAEC3",
"3X c #B4B4C9",
"4X c #88AEE3",
"5X c #BDC3DF",
/* pixels */
"OXOXOXOXOXOXOXOXOXOXOXOXOXOXOXOXOXOXOXOXOXOXOXOXOXOXOXOXOXOXOXOXOXOXOXOXOXOXOXOXOXOXOXOXOXOXOXOX",
"OXOXOXOXOXOXOXOXOXOXOXOXOXOXOXOXOXOXOXOXOXOXOXOXOXOXOXOXOXOXOXOXOXOXOXOXOXOXOXOXOXOXOXOXOXOXOXOX",
"OXOX9.OX9.^ OX9.OXOXOXOXOXOXOXOX9.OX9.^ OX9.OXOXOXOX9.OX^ 9.OX9.OXOXOXOXOXOXOXOX9.OX^ 9.OX9.OXOX",
"OXOX^ OX^ ^ OX^ OXOXOXOXOXOXOXOX^ OX^ ^ OX^ OXOXOXOX^ OX^ ^ OX^ OXOXOXOXOXOXOXOX^ OX^ ^ OX^ OXOX",
"OXOXOX^ OXOX^ OXOXOXOXOXOXOXOXOXOX^ OXOX^ OXOXOXOXOXOX^ OXOX^ OXOXOXOXOXOXOXOXOXOX^ OXOX^ OXOXOX",
"OXOXOXOXOXOXOXOXOXOXOXOXOXOXOXOXOXOXOXOXOXOXOXOXOXOXOXOXOXOXOXOXOXOXOXOXOXOXOXOXOXOXOXOXOXOXOXOX",
"OXOXOXOXOXOXOXOXOXOXOXOXOXOXOXOXOXOXOXOXOXOXOXOXOX`.Q.0 + # u `.(.OXOXOXOXOXOXOXOXOXOXOXOXOXOXOX",
"OXOXOXOXOXOXOXOXOX^ OX^ 9.OX^ OXOXOXOXOXOXOXOXOXw.h q r S ) S h u I OX9.^ OX^ OXOXOXOXOXOXOXOXOX",
"OXOXOXOXOXOXOXOXOX9.OX9.9.OX9.OXOXOXOXOXOXOXoXq.y v A *.c.K.C.M N 9 r.9.9.OX9.OXOXOXOXOXOXOXOXOX",
"OXOXOXOXOXOXOXOXOXOX9.OXOX9.OXOXOXOXOXOXOXOXoX5 r Z.P.z.X.o.*.#.x.7 6 OXOX9.OXOXOXOXOXOXOXOXOXOX",
"OXOXOXOXOXOXOXOXOXOXOXOXOXOXOXOXOXOXOXOXOXOXoXh w c.C.*.G G H H ) 1 U _._.OXOXOXOXOXOXOXOXOXOXOX",
"OXOXOXOXOXOXOXOXOXOXOXOXOXOXOXOXOXOXOXOXOXOXOX~.U 1 D D B.}.U.[.U.C.[ ' ' /.OXOXOXOXOXOXOXOXOXOX",
"OXOX9.OX9.^ OX9.OXOXOXOXOXOXOXOX9.OX9.^ OX9.OXOXq.r M.A. X1X1X$X=X$X|.J.l.[ ^.OX9.OX^ 9.OX9.OXOX",
"OXOX^ OX^ ^ OX^ OXOXOXOXOXOXOXOX^ OX^ ^ OX^ OXW.:.B.=X4X1X1X1X$X#X&X,Xk.j.c @.E.^ OX^ ^ OX^ OXOX",
"OXOXOX^ OXOX^ OXOXOXOXOXOXOXOXOXOX^ OXOX^ OXOX@.*.|.@X{.S.S.{.$X=X&X:Xa.h.g.6. .^.^ OXOX^ OXOXOX",
"OXOXOXOXOXOXOXOXOXOXOXOXOXOXOXOXOXOXOXOXOXOXoX+.#.P.M.7 @ @ y |.%X#X%X;Xa.g.s.5.{ OXOXOXOXOXOXOX",
"OXOXOXOXOXOXOXOXOXOXOXOXOXOXOXOXOXOXOXOXOXOXOX:.w 3 D C ) R N _ o.Y.-X&X;Xf.d.5.V OXOXOXOXOXOXOX",
"OXOXOXOXOXOXOXOXOX^ OX^ 9.OX^ OXOXOXOXOXOXOXoXP 7 ) D.c.I.P.z.c.*.] J.+X+X3.7.| V OXOXOXOXOXOXOX",
"OXOXOXOXOXOXOXOXOX9.OX9.9.OX9.OXOXOXOXOXOXOXOXu M .X Xc.[.I.M. X}.4.} ] H.T.n.J :.OXOXOXOXOXOXOX",
"OXOXOXOXOXOXOXOXOXOX9.OXOX9.OXOXOXOXOXOXOXOX).y 1 z.V.z.[.I.z.B._ p.i.* b.C.] :._.OXOXOXOXOXOXOX",
"OXOXOXOXOXOXOXOXOXOXOXOXOXOXOXOXOXOXOXOXOX).@.A , , D %.Z.C.#.C , z 6.i s * ;._.OXOXOXOXOXOXOXOX",
"OXOXOXOXOXOXOXOXOXOXOXOXOXOXOXOX(.U j j ! ' D z.x.v o n v 2 8 *.2.| p - & ..'.OXOXOXOXOXOXOXOXOX",
"OXOX9.OX9.^ OX9.OXOXOXOXOXOXy.>.L E E E ` ) 1 M M.V.S #.S w Z I.>Xx = U Y ].OXOX9.OX^ 9.OX9.OXOX",
"OXOX^ OX^ ^ OX^ OXOXOXOXOXQ.j N N.@X$X#X@XM.7 $ ` L.z.$.V.P.P.2.d > / OXOXOXOXOX^ OX^ ^ OX^ OXOX",
"OXOXOX^ OXOX^ OXOXOXOXOX~.q D.@X}.P.I.U.P.L.V.V.L.#.X o &.}.2.s a >.OXOXOXOXOXOXOX^ OXOX^ OXOXOX",
"OXOXOXOXOXOXOXOXOXOXOXE.0 D.@XD.r *.H.L.L.L.P.T.V.3   R ,XG.K i a q.OXOXOXOXOXOXOXOXOXOXOXOXOXOX",
"OXOXOXOXOXOXOXOXOXOXOXw.. S E y Y 1 b M N &.H.R 3 m o.,X:XO.4 - O q r.OXOXOXOXOXOXOXOXOXOXOXOXOX",
"OXOXOXOXOXOXOXOXOX^ OXI 6 k : e.(.U k % o #.x.v r x.U.F.O.Z A e e { 1.~ ^ OX^ OXOXOXOXOXOXOXOXOX",
"OXOXOXOXOXOXOXOXOX9.OX9.9.OX9.OXOXOXOXQ b M.A D M.L.Z.X.#.z.v.K.V.5X2XT 9.OX9.OXOXOXOXOXOXOXOXOX",
"OXOXOXOXOXOXOXOXOXOX9.OXOX9.OXOXOXOXOX>.#.D., 4 o.v.Z.C.V.J.K.V.X.2X3XR _.9.OXOXOXOXOXOXOXOXOXOX",
"OXOXOXOXOXOXOXOXOXOXOXOXOXOXOXOXOX'.<.=.Z.Z.&.A n H c.v.#.X.J 1 o :X<XR _.OXOXOXOXOXOXOXOXOXOXOX",
"OXOXOXOXOXOXOXOXoXq./ q.OXOXOXOXOXOXE z.|.K.) D H _ #.#.H H D $ ! P } R.XXOXOXOXOXOXOXOXOXOXOXOX",
"OXOX9.OX9.^ OX9._.q < y u.OXOXOX9.r.B x.C.) < S z.%.$.z.v.o.R W `.;. .OXOXOXOXOX9.OX^ 9.OX9.OXOX",
"OXOX^ OX^ ^ OX^ XXh ' S.0 u.`.`.l % G v.M o ) *.$.$.c.Z.x.w y ( OXOXOXOXOXOXOXOX^ OX^ ^ OX^ OXOX",
"OXOXOX^ OXOX^ OX_.j V +XS.0 ; ; % m #.c.r . _ z.#.x.Z.c.w $ B OXOXOXOXOXOXOXOXOXOX^ OXOX^ OXOXOX",
"OXOXOXOXOXOXOXOX,.B N Z..XA.S w A D $.N 2 N #.V.L.z.w 2 7 N +._.OXOXOXOXOXOXOXOXOXOXOXOXOXOXOXOX",
"OXOXOXOXOXOXOXOXA J #.z.Z.}.$.H *.D n w S K.A.o.` M , 1 *.c.E OXOXOXOXOXOXOXOXOXOXOXOXOXOXOXOXOX",
"OXOXOXOXOXOXOXOX+.) _ H G $.) H o.e X 1 #.c.=.w @ 7 $.z.x.#.,.'.OX^ OX9.^ OX^ OXOXOXOXOXOXOXOXOX",
"OXOXOXOXOXOXOXOX).W 7 X o G H C r + X X # @ o N #.#.$.#.8 / _.OXOX9.OX9.9.OX9.OXOXOXOXOXOXOXOXOX",
"OXOXOXOXOXOXOXOXOX).f X 3 , $ o ; r.y.y.y.>.w D #.$.C , / `.OXOXOXOX9.OXOX9.OXOXOXOXOXOXOXOXOXOX",
"OXOXOXOXOXOXOXOXOXOX .. < U / / q.OXOXOXOXoXt.R H N.3.} U y.OXOXOXOXOXOXOXOXOXOXOXOXOXOXOXOXOXOX",
"OXOXOXOXOXOXOXOXOXOXr.h ! (.OXOXOXOXOXOXOXOXOXt.o.-.3.} % k OXOXOXOXOXOXOXOXOXOXOXOXOXOXOXOXOXOX",
"OXOX9.OX9.^ OX9.OXOX'.).XXOXOXOX9.OX9.^ OX9.OXoX<.M # #   g OX9.OXOXOXOXOXOXOXOX9.OX^ 9.OX9.OXOX",
"OXOX^ OX^ ^ OX^ OXOXOXOXOXOXOXOX^ OX^ ^ OX^ OXOXOXOX^ OX^ ^ OX^ OXOXOXOXOXOXOXOX^ OX^ ^ OX^ OXOX",
"OXOXOX^ OXOX^ OXOXOXOXOXOXOXOXOXOX^ OXOX^ OXOXOXOXOXOX^ OXOX^ OXOXOXOXOXOXOXOXOXOX^ OXOX^ OXOXOX",
"OXOXOXOXOXOXOXOXOXOXOXOXOXOXOXOXOXOXOXOXOXOXOXOXOXOXOXOXOXOXOXOXOXOXOXOXOXOXOXOXOXOXOXOXOXOXOXOX",
"OXOXOXOXOXOXOXOXOXOXOXOXOXOXOXOXOXOXOXOXOXOXOXOXOXOXOXOXOXOXOXOXOXOXOXOXOXOXOXOXOXOXOXOXOXOXOXOX",
"OXOXOXOXOXOXOXOXOXOXOXOXOXOXOXOXOXOXOXOXOXOXOXOXOXOXOXOXOXOXOXOXOXOXOXOXOXOXOXOXOXOXOXOXOXOXOXOX"
};
