/* XPM */
static char *Garchomp_up_ground[] = {
/* columns rows colors chars-per-pixel */
"48 48 170 2 ",
"   c #020203",
".  c #07070C",
"X  c #050B0A",
"o  c #090B0D",
"O  c #010A06",
"+  c #0B0B11",
"@  c #0D1415",
"#  c #0F1B16",
"$  c #101817",
"%  c #11131D",
"&  c #131D19",
"*  c #12201A",
"=  c #141622",
"-  c #161A23",
";  c #181D26",
":  c #1A1D2B",
">  c #201F35",
",  c #1B2F26",
"<  c #1B2728",
"1  c #1F332C",
"2  c #1E2132",
"3  c #20342F",
"4  c #212236",
"5  c #212D33",
"6  c #252B3C",
"7  c #22233E",
"8  c #223334",
"9  c #233932",
"0  c #28313E",
"q  c #273D39",
"w  c #283A38",
"e  c #15422B",
"r  c #1E4F39",
"t  c #294237",
"y  c #274039",
"u  c #29463A",
"i  c #2B4B3D",
"p  c #272A41",
"a  c #292C45",
"s  c #272A49",
"d  c #2D2F4A",
"f  c #2B3346",
"g  c #2E344D",
"h  c #2D3948",
"j  c #253B49",
"k  c #2D3C50",
"l  c #323654",
"z  c #333A55",
"x  c #353759",
"c  c #36395A",
"v  c #393C5E",
"b  c #3A3D61",
"n  c #2D4342",
"m  c #2E4C43",
"M  c #2E404F",
"N  c #2F5243",
"B  c #225941",
"V  c #36554F",
"C  c #355D4C",
"Z  c #385F4F",
"A  c #305344",
"S  c #374157",
"D  c #384F55",
"F  c #364158",
"G  c #39405D",
"H  c #324B5F",
"J  c #384B5A",
"K  c #3C5E57",
"L  c #294B56",
"P  c #157553",
"I  c #157A55",
"U  c #296A4D",
"Y  c #38614F",
"T  c #2B6150",
"R  c #2A6E50",
"E  c #3A6351",
"W  c #3C6856",
"Q  c #3E6C58",
"!  c #3C4265",
"~  c #3D4B64",
"^  c #3F4369",
"/  c #3F4869",
"(  c #3E5162",
")  c #454343",
"_  c #585C5D",
"`  c #41715D",
"'  c #41466C",
"]  c #424B6E",
"[  c #444864",
"{  c #415265",
"}  c #43556B",
"|  c #435C67",
" . c #454C73",
".. c #444E7A",
"X. c #465274",
"o. c #485975",
"O. c #4A547B",
"+. c #4C597E",
"@. c #46626A",
"#. c #48646F",
"$. c #48696E",
"%. c #436763",
"&. c #447461",
"*. c #467963",
"=. c #487D66",
"-. c #4A7F69",
";. c #4C6B73",
":. c #4E7275",
">. c #65687F",
",. c #7A7B7F",
"<. c #07844A",
"1. c #078B4D",
"2. c #089C57",
"3. c #4B826A",
"4. c #518C73",
"5. c #528478",
"6. c #599A7E",
"7. c #4D5581",
"8. c #4E5A83",
"9. c #4E5E8E",
"0. c #505B86",
"q. c #525E89",
"w. c #4E6282",
"e. c #506685",
"r. c #54628D",
"t. c #556A8D",
"y. c #576591",
"u. c #596694",
"i. c #5A6895",
"p. c #5E6D9C",
"a. c #5E729D",
"s. c #727985",
"d. c #60719F",
"f. c #5F6FA0",
"g. c #606FA0",
"h. c #6172A3",
"j. c #647AA7",
"k. c #6577A9",
"l. c #6679AB",
"z. c #6879AE",
"x. c #6B7DB3",
"c. c #5A9B80",
"v. c #5D9488",
"b. c #5FA486",
"n. c #63A18F",
"m. c #63AC8D",
"M. c #65A792",
"N. c #69B395",
"B. c #6AB897",
"V. c #6BB599",
"C. c #6DBC9B",
"Z. c #6982AE",
"A. c #6D83B6",
"S. c #6F82B9",
"D. c #6F8ABA",
"F. c #728CBD",
"G. c #7E92BE",
"H. c #6FC09D",
"J. c #70C29F",
"K. c #73C7A3",
"L. c #7593C3",
"P. c #7A9ACB",
"I. c #7E9FD1",
"U. c #7EA1D3",
"Y. c #898A94",
"T. c #B9B8BF",
"R. c #89A3C7",
"E. c #85A5D4",
"W. c #AABBDE",
"Q. c #D4D8E7",
/* pixels */
"K.K.K.K.K.K.K.K.K.K.K.K.K.K.K.K.K.K.K.K.K.K.K.K.K.K.K.K.K.K.K.K.K.K.K.K.K.K.K.K.K.K.K.K.K.K.K.K.",
"K.K.K.K.K.K.K.K.K.K.K.K.K.K.K.K.K.K.K.K.K.K.K.K.K.K.K.K.K.K.K.K.K.K.K.K.K.K.K.K.K.K.K.K.K.K.K.K.",
"K.K.2.K.2.R K.2.K.K.K.K.K.K.K.K.2.K.2.R K.2.K.K.K.K.2.K.R 2.K.2.K.K.K.K.K.K.K.K.2.K.R 2.K.2.K.K.",
"K.K.R K.R R K.R K.K.K.K.K.K.K.K.R K.R R K.R K.K.K.K.R K.R R K.R K.K.K.K.K.K.K.K.R K.R R K.R K.K.",
"K.K.K.R K.K.R K.K.K.K.K.K.K.K.K.K.R K.K.R K.K.K.K.K.K.R K.K.R K.K.K.K.K.K.K.K.K.K.R K.K.R K.K.K.",
"K.K.K.K.K.K.K.K.K.K.K.K.K.K.K.K.K.K.K.K.K.K.K.K.K.K.K.K.K.K.K.K.K.K.K.K.K.K.K.K.K.K.K.K.K.K.K.K.",
"K.K.K.K.K.K.K.K.K.K.K.K.K.K.K.K.K.K.K.K.K.K.K.K.K.K.K.K.K.K.K.K.K.K.K.K.K.K.K.K.K.K.K.K.K.K.K.K.",
"K.K.K.K.K.K.K.K.K.R K.R P ! g c.K.K.K.C.N.~ G G G G ~ N.C.K.K.K.c.g G P R K.R K.K.K.K.K.K.K.K.K.",
"K.K.K.K.K.K.K.K.K.2.K.I H y.8.3 6.K.M.J ( +.j.Z.Z.j.+.{ J n.K.6.3 q.y.~ P K.2.K.K.K.K.K.K.K.K.K.",
"K.K.K.K.K.K.K.K.K.K.P } p.P.L.o.w V } ' 8.D.I.I.U.U.D.0.' } V 3 G L.P.i.( P K.K.K.K.K.K.K.K.K.K.",
"K.K.K.K.K.K.K.K.K.K.@.O.l.h.h.x.g >  .i.F.P.P.P.P.P.P.F.i. .4 a p.h.j.k.O.@.K.K.K.K.K.K.K.K.K.K.",
"K.K.K.K.K.K.K.K.K.K.$.' i.r.r.u. .^ q.l.F.P.P.P.P.P.P.F.l.0.'  .i.r.r.i. .$.K.K.K.K.K.K.K.K.K.K.",
"K.K.2.K.2.R K.2.K.K.$.v i.E.P.r. . .0.g.h.F.L.L.L.L.F.h.g.q. . .r.P.I.i.v $.K.K.2.K.R 2.K.2.K.K.",
"K.K.R K.R R K.R K.K.:.c q.P.L.+.d b q.h.h.h.h.h.h.h.h.g.h.q.b d 8.L.P.r.c :.K.K.R K.R R K.R K.K.",
"K.K.K.R K.K.R K.K.K.V.%.2 r.8.; . p y.g.f.p.g.p.p.p.g.g.h.q.a . ; 8.r.2 %.C.K.K.K.R K.K.R K.K.K.",
"K.K.K.K.K.K.K.K.K.K.K.V.Z % % ` 4.m l k.h.h.d.d.d.h.g.h.k.z i 4.` % % Y N.K.K.K.K.K.K.K.K.K.K.K.",
"K.K.K.K.K.K.K.K.K.K.K.K.B.Q ` J.K.Z : i.h.g.h.g.h.p.h.h.i.: E K.K.&.Q B.K.K.K.K.K.K.K.K.K.K.K.K.",
"K.K.K.K.K.K.K.K.K.R K.R 2.K.R K.K.4.q z p.h.p.h.g.h.h.g.c q 4.K.K.R K.2.B &.r K.K.K.K.K.K.K.K.K.",
"K.K.K.K.K.K.K.K.K.2.K.2.2.K.2.K.K.K.4.2 p.k.g.h.h.h.k.i.2 4.K.K.K.2.K.<.e ) q 4.K.K.K.K.K.K.K.K.",
"K.K.K.K.K.K.K.K.K.N.1.C.K.2.K.K.K.C.&.b g.h.h.p.p.h.h.p.v &.C.K.K.K.1.q s.Q.Y.& K.K.K.K.K.K.K.K.",
"K.K.K.K.K.K.K.K.N.t & E K.K.K.K.K.W ; ^ p.h.p.q.0.p.h.f.^ ; W K.K.N.1 ;.E.R.[ . K.K.K.K.K.K.K.K.",
"K.K.K.K.K.K.K.K.9 ,.T._ C K.K.K.Z h r.u.h.f. .O.7. .g.h.u.r.h W m.9 e.j.0...7 o K.K.K.K.K.K.K.K.",
"K.K.2.K.2.R K.2.. >.W.R.J u u u O l x.h.h.p.b y.y.b p.h.h.A.z O q ] k.f s l < =.2.K.R 2.K.2.K.K.",
"K.K.R K.R R K.R   s 9.A.j.~ 6 4 f +.k.k.h.f.a t.t.p f.h.k.l.8.f l y.a = ! x n K.R K.R R K.R K.K.",
"K.K.K.R K.K.R K.i < v x / D.p.i.z.A.i.q.k.p.% ~ ~ % p.k.q.+.p.x.q.a = ! 7.X.o.v.K.R K.K.R K.K.K.",
"K.K.K.K.K.K.K.K.K.9 l g = v +.8.+.q.^ b f.f.2 > 2 2 h.h.b F X.r.~ % ! 8...r.q.g K.K.K.K.K.K.K.K.",
"K.K.K.K.K.K.K.K.N.{ ' 7.l o + @ & o + x f.h.b = % b k.f.l v.5.# - z  .O...i.O.@ K.K.K.K.K.K.K.K.",
"K.K.K.K.K.K.K.K.{ q.q.....G 6 4.m.N   : p.k.! x x ^ h.p.: 4.H.m.m.T [ ' r.k.o.@ K.K.K.K.K.K.K.K.",
"K.K.K.K.K.K.K.K.= 8.i.X. .} I K.&.w ^ +.h.h.O.b b O.h.h.+.w 3.K.K.2.m.L 8.x.o.@ K.K.K.K.K.K.K.K.",
"K.K.K.K.K.K.K.K.+ o.h.q. .j H.&.8 ..h.k.h.g.u.8.8.i.p.h.z.] 5 =.K.K.2.n ^ D.O.@ K.K.K.K.K.K.K.K.",
"K.K.K.K.K.K.K.K.@ O.x.q.X.5.N.* l p.k.k.h.h.k.k.k.h.g.h.k.h.^ 5 3.J.K.*.J h.+.@ K.K.K.K.K.K.K.K.",
"K.K.K.K.K.K.K.K.@ O.S. .D K.J.$ g u.y.r.g.r.O.u.k.f.h.h.q.p.f.g & B.K.K.K ..r.+ K.K.K.K.K.K.K.K.",
"K.K.2.K.2.R K.2.@ O.x.c N K.J.m h 7.! ! r.v x +.i.h.h.i.x O.p.l & B.K.K.` 0 [ , 2.K.R 2.K.2.K.K.",
"K.K.R K.R R K.R @ +.7.K H.K.K.C.S ! ! x  .x a.r. .h.p.7.l ^ 0.d 3 C.K.K.J.W 1 m.R K.R R K.R K.K.",
"K.K.K.R K.K.R K.$ 8.z Z K.K.H.;.x ! ' x / x u.D.a.O.7...l ^ ] D m.K.K.K.K.C.m.K.K.R K.K.R K.K.K.",
"K.K.K.K.K.K.K.K.3.5 m b.K.K.C.; x 7.O.v : s c 0.r...[ 4 x O.' 0 E C.K.K.K.K.K.K.K.K.K.K.K.K.K.K.",
"K.K.K.K.K.K.K.K.K.3.b.K.K.K.H.=.5 a 6 5 C h q.u.8.O.d   ! q.+.d o C.K.K.K.K.K.K.K.K.K.K.K.K.K.K.",
"K.K.K.K.K.K.K.K.K.R K.R 2.K.R K.*.i i ` C.F r.Z.q.' %.m 6 l l 0 Y U K.2.R K.R K.K.K.K.K.K.K.K.K.",
"K.K.K.K.K.K.K.K.K.2.K.2.2.K.2.K.K.K.K.K.C.#.g ..O.:.K.K.N , , Y K.2.K.2.2.K.2.K.K.K.K.K.K.K.K.K.",
"K.K.K.K.K.K.K.K.K.K.2.K.K.2.K.K.K.K.K.K.K.C.@.c :.K.K.K.C.C.B.J.K.K.2.K.K.2.K.K.K.K.K.K.K.K.K.K.",
"K.K.K.K.K.K.K.K.K.K.K.K.K.K.K.K.K.K.K.K.K.K.K.K.K.K.K.K.K.K.K.K.K.K.K.K.K.K.K.K.K.K.K.K.K.K.K.K.",
"K.K.K.K.K.K.K.K.K.K.K.K.K.K.K.K.K.K.K.K.K.K.K.K.K.K.K.K.K.K.K.K.K.K.K.K.K.K.K.K.K.K.K.K.K.K.K.K.",
"K.K.2.K.2.R K.2.K.K.K.K.K.K.K.K.2.K.2.R K.2.K.K.K.K.2.K.R 2.K.2.K.K.K.K.K.K.K.K.2.K.R 2.K.2.K.K.",
"K.K.R K.R R K.R K.K.K.K.K.K.K.K.R K.R R K.R K.K.K.K.R K.R R K.R K.K.K.K.K.K.K.K.R K.R R K.R K.K.",
"K.K.K.R K.K.R K.K.K.K.K.K.K.K.K.K.R K.K.R K.K.K.K.K.K.R K.K.R K.K.K.K.K.K.K.K.K.K.R K.K.R K.K.K.",
"K.K.K.K.K.K.K.K.K.K.K.K.K.K.K.K.K.K.K.K.K.K.K.K.K.K.K.K.K.K.K.K.K.K.K.K.K.K.K.K.K.K.K.K.K.K.K.K.",
"K.K.K.K.K.K.K.K.K.K.K.K.K.K.K.K.K.K.K.K.K.K.K.K.K.K.K.K.K.K.K.K.K.K.K.K.K.K.K.K.K.K.K.K.K.K.K.K.",
"K.K.K.K.K.K.K.K.K.K.K.K.K.K.K.K.K.K.K.K.K.K.K.K.K.K.K.K.K.K.K.K.K.K.K.K.K.K.K.K.K.K.K.K.K.K.K.K."
};
