/* XPM */
static char *Garchomp_down_ground[] = {
/* columns rows colors chars-per-pixel */
"48 48 210 2 ",
"   c #020203",
".  c #060B0A",
"X  c #090C0C",
"o  c #03070D",
"O  c #0A130F",
"+  c #01120A",
"@  c #0B0C12",
"#  c #0E1514",
"$  c #0F1915",
"%  c #021E11",
"&  c #121D1A",
"*  c #121718",
"=  c #371D1E",
"-  c #291518",
";  c #15241D",
":  c #1A221F",
">  c #092F1E",
",  c #141B24",
"<  c #181827",
"1  c #1E1E34",
"2  c #0E1C24",
"3  c #221E2F",
"4  c #391F21",
"5  c #172821",
"6  c #1A2C24",
"7  c #192425",
"8  c #1E332B",
"9  c #1C3027",
"0  c #1E2836",
"q  c #0C2925",
"w  c #272A29",
"e  c #222336",
"r  c #222B3B",
"t  c #242A39",
"y  c #392E3E",
"u  c #233837",
"i  c #3A3738",
"p  c #20372D",
"a  c #451E13",
"s  c #471D05",
"d  c #7E2E0F",
"f  c #642A19",
"g  c #782710",
"h  c #79321B",
"j  c #452E3C",
"k  c #482939",
"l  c #4F323A",
"z  c #6F342E",
"x  c #29463A",
"c  c #274438",
"v  c #35543E",
"b  c #066F3E",
"n  c #775E0B",
"m  c #4D4E2C",
"M  c #4B5C2A",
"N  c #6C5E30",
"B  c #4C602D",
"V  c #2B2C45",
"C  c #272848",
"Z  c #2B3446",
"A  c #3A364A",
"S  c #333652",
"D  c #323A54",
"F  c #363C5A",
"G  c #393C5E",
"H  c #2C2E50",
"J  c #323D6D",
"K  c #44394A",
"L  c #295843",
"P  c #345948",
"I  c #3D415D",
"U  c #3A4A5D",
"Y  c #375655",
"T  c #314549",
"R  c #276249",
"E  c #38614F",
"W  c #2A6E50",
"Q  c #3C6755",
"!  c #3D4464",
"~  c #3C4668",
"^  c #364575",
"/  c #177655",
"(  c #474759",
")  c #525555",
"_  c #674C5C",
"`  c #4A7054",
"'  c #6C604B",
"]  c #7C6D4B",
"[  c #454766",
"{  c #45526C",
"}  c #465473",
"|  c #4C577C",
" . c #495677",
".. c #535976",
"X. c #4E516F",
"o. c #47666C",
"O. c #466B69",
"+. c #467963",
"@. c #487867",
"#. c #5C6279",
"$. c #507C60",
"%. c #676767",
"&. c #6F706F",
"*. c #646578",
"=. c #766A71",
"-. c #727272",
";. c #85310F",
":. c #89310C",
">. c #823213",
",. c #8C3618",
"<. c #9E3814",
"1. c #A03914",
"2. c #AE3C15",
"3. c #90490B",
"4. c #9E5706",
"5. c #BC4119",
"6. c #B64018",
"7. c #A77414",
"8. c #C34216",
"9. c #877A4B",
"0. c #905B60",
"q. c #089C57",
"w. c #07894C",
"e. c #5D805F",
"r. c #4D846C",
"t. c #4F8971",
"y. c #528E74",
"u. c #53837A",
"i. c #56967B",
"p. c #58997D",
"a. c #539076",
"s. c #938107",
"d. c #A89200",
"f. c #BD9103",
"g. c #B89718",
"h. c #C39C00",
"j. c #C39900",
"k. c #D5B100",
"l. c #C6A91A",
"z. c #F2D908",
"x. c #FEE402",
"c. c #E8D722",
"v. c #959A7C",
"b. c #A4AD7E",
"n. c #C9C754",
"m. c #3D4980",
"M. c #3F5588",
"N. c #4C5A86",
"B. c #535C85",
"V. c #585F85",
"C. c #54628D",
"Z. c #566989",
"A. c #576491",
"S. c #5A6995",
"D. c #5E6F9C",
"F. c #586B91",
"G. c #5C749A",
"H. c #4F6586",
"J. c #62749E",
"K. c #6A779F",
"L. c #717995",
"P. c #696F8E",
"I. c #4458A1",
"U. c #5E72A3",
"Y. c #5E78A1",
"T. c #6379A4",
"R. c #6677A8",
"E. c #747FA2",
"W. c #6A7EB2",
"Q. c #606FA1",
"!. c #588B82",
"~. c #578880",
"^. c #5C9F83",
"/. c #5B9385",
"(. c #788598",
"). c #5EA385",
"_. c #60A688",
"`. c #64AD8E",
"'. c #63A483",
"]. c #66B191",
"[. c #69B595",
"{. c #6DBC9B",
"}. c #6AB897",
"|. c #6881AF",
" X c #7983A2",
".X c #7D88A7",
"XX c #6C84B5",
"oX c #728BBD",
"OX c #7087BA",
"+X c #7FC89C",
"@X c #73C7A3",
"#X c #7592C3",
"$X c #7A9BCD",
"%X c #7A97CB",
"&X c #6C91D9",
"*X c #7899D2",
"=X c #748EC1",
"-X c #868589",
";X c #868995",
":X c #8E909D",
">X c #A7B486",
",X c #888FA6",
"<X c #839EB8",
"1X c #8DA3A9",
"2X c #91A6A2",
"3X c #9AA6D2",
"4X c #81A7D8",
"5X c #B9B9C3",
"6X c #CCCCDA",
"7X c #F0F3FF",
/* pixels */
"@X@X@X@X@X@X@X@X@X@X@X@X@X@X@X@X@X@X@X@X@X@X@X@X@X@X@X@X@X@X@X@X@X@X@X@X@X@X@X@X@X@X@X@X@X@X@X@X",
"@X@X@X@X@X@X@X@X@X@X@X@X@X@X@X@X@X@X@X@X@X@X@X@X@X@X@X@X@X@X@X@X@X@X@X@X@X@X@X@X@X@X@X@X@X@X@X@X",
"@X@Xq.@Xq.W @Xq.@X@X@X@X@X@X@X@Xq.@Xq.W @Xq.@X@X@X@Xq.@XW q.@Xq.@X@X@X@X@X@X@X@Xq.@XW q.@Xq.@X@X",
"@X@XW @XW W @XW @X@X@X@X@X@X@X@XW @XW W @XW @X@X@X@XW @XW W @XW @X@X@X@X@X@X@X@XW @XW W @XW @X@X",
"@X@X@XW @X@XW @X@X@X@X@X@X@X@X@X@XW @X@XW @X@X@X@X@X@XW @X@XW @X@X@X@X@X@X@X@X@X@XW @X@XW @X@X@X",
"@X@X@X@X@X@X@X@X@X@X@X@X@X@X@X@X@X@X@X@X@X@X@X@X@X@X@X@X@X@X@X@X@X@X@X@X@X@X@X@X@X@X@X@X@X@X@X@X",
"@X@X@X@X@X@X@X@X@X@X@X@X@X@X@X@X@X@X@X@X@X@X@X@X@X@X@X@X@X@X@X@X@X@X@X@X@X@X@X@X@X@X@X@X@X@X@X@X",
"@X@X@X@X@X@X@X@X@XW @XW q.@XW @X@X@X@X@X@X@X@X@X@X@X@X@X@X@X@X@X@XW @Xq.W @XW @X@X@X@X@X@X@X@X@X",
"@X@X@X@X@X@X@X@X@Xq.@Xq.q.@Xq.@X@X@X@X@X@X@X@X@X@X@X@X@X@X@X@X@X@Xq.@Xq.q.@Xq.@X@X@X@X@X@X@X@X@X",
"@X@X@X@X@X@X@X@X@X@Xq.@X@X/ ! U [.@X@X@X@X!.F I I I I !.{.@X@X@X`.U U /.@Xq.@X@X@X@X@X@X@X@X@X@X",
"@X@X@X@X@X@X@X@X@X@X@X@X/. .oXG.t ].@X@.U ~ A.C.C.Z.A.{ ~ @.@X].8 G.oX .!.@X@X@X@X@X@X@X@X@X@X@X",
"@X@X@X@X@X@X@X@X@X@X@X!.} A.G.A.D u Y ~ { G.#X#XoXoX#XD. .~ Y u S F.G.A.} !.@X@X@X@X@X@X@X@X@X@X",
"@X@Xq.@Xq.W @Xq.@X@X@Xo.[ S.U.J.}   V Q.OX#X$X$X&X*X$X#XXXQ.V o  .U.Q.S.[ o.@X@Xq.@XW q.@Xq.@X@X",
"@X@XW @XW W @XW @X@X@Xo.~ W.4X$XS.~ T.$X$X*X&X<X>X<X&X*X$X$XJ.! S.$X4XR.[ o.@X@XW @XW W @XW @X@X",
"@X@X@XW @X@XW @X@X@X@X!.~ F.%X|.| T.OX#X*X1X2X2Xc.1X2X1X*X#XoXT. .|.%XF.~ !.@X@X@XW @X@XW @X@X@X",
"@X@X@X@X@X@X@X@X@X@X@X@Xt.t B.D 7 e ~ U.&X>Xn.b.c.>Xn.>X&XU.! e ; S H.t u.@X@X@X@X@X@X@X@X@X@X@X",
"@X@X@X@X@X@X@X@X@X@X@X@X@Xr.# 9 ).; 1 [ K.%Xb.z.x.z.b.%XJ.[ 1 ; '.6 # r.@X@X@X@X@X@X@X@X@X@X@X@X",
"@X@X@X@X@X@X@X@X@XW @XW q.@XR ].@X;   n 9.%.g.k.z.k.g.%.9.n   ; @XR `.q.W @XW @X@X@X@X@X@X@X@X@X",
"@X@X@X@X@X@X@X@X@Xq.@Xq.q.@Xq.@X@X^.; d.s.< &.v.l.v.&.< s.d.; ).@Xq.@Xq.q.@Xq.@X@X@X@X@X@X@X@X@X",
"@X@X@X@X@X@X@X@X@X@Xq.@X@Xq.@X@X@X@Xp.M m J I.(.g.(.I.~ m B ).@X@X@Xq.@Xr.> x x L @X@X@X@X@X@X@X",
"@X@X@X@X@X@X@X@X@X+.E E i.@X@X@X@X@X@XY ..(.^ #.] *.^  X..0 y.@X@X@X@Xy.u ..-X%.@ @X@X@X@X@X@X@X",
"@X@X@X@X@X@X@X@X+.( %.( u /.@X@X@X@Xi.Z V.-.j J ^ J j =.*.C u t.@X@Xy.Z C.3X7X6Xw @X@X@X@X@X@X@X",
"@X@Xq.@Xq.W @Xq.$ 6X7X3X .c '.@Xq.).q S N._ h j A k h _ ^ F.#.2 ^.i.u Q.T.N.3X5X& @XW q.@Xq.@X@X",
"@X@XW @XW W @XW $ 5X3XN.R.G.u _.L 0 ..T.S.0.2.d d d 2.0.S. X:XI e < T.W.t t L.-.O @XW W @XW @X@X",
"@X@X@XW @X@XW @X& -.E.e V =XF., Z S :XZ.z 8.2.>.;.;.2.8.z ^ .X-X7 U.XXG V 3 X . ; W @X@XW @X@X@X",
"@X@X@X@X@X@X@X@Xy.6 * < V [ J.D.G -X,X^ z 8.6.2.2.2.2.8.,.4 V R.F.T.r V S.D   * a.@X@X@X@X@X@X@X",
"@X@X@X@X@X@X@X@X[.;   S V.e H W.S.L.S = h 1.5.5.5.5.5.1.:.f - 1 0 <   C R.!   & ).@X@X@X@X@X@X@X",
"@X@X@X@X@X@X@X@X[.+   ! Q.e   e V r   - f ;.<.5.5.5.<.>.f 4 w +.+.; . D Q.V.t & i.@X@X@X@X@X@X@X",
"@X@X@X@X@X@X@X@X[.% < | R.F O v v L # o a ;.>.<.1.<.>.;.a   u @X@Xb $ U Y.XX} ; `.@X@X@X@X@X@X@X",
"@X@X@X@X@X@X@X@X].5 } W.W.} 9 ).'.` 2 @ = h d g g g d h = * 8 a.@X).+ 0 H.XX~ 6 @X@X@X@X@X@X@X@X",
"@X@X@X@X@X@X@X@X}.6 Z.=XS.S # @.$.7 A [ H j ;.3.3.3.;.k H ....7 p.[.x . I XX~ ; ].@X@X@X@X@X@X@X",
"@X@X@X@X@X@X@X@X).5 Z.$XF   6 ` X r ;XP.J l 4.f.j.j.4.l J P.,X! # ].[.9 Z OXZ.; `.@X@X@X@X@X@X@X",
"@X@Xq.@Xq.W @Xq.p.; F.#XZ & t.i.. F V...^ ' j.j.j.h.j.' m.| V.[ @ ].@Xx   ~ H.; w.@XW q.@Xq.@X@X",
"@X@XW @XW W @XW a.$ G. .@ c @Xi.. ! #...~ F N j.j.j.N S [ X.#.G @ ].@Xi.6 o * ; R @XW W @XW @X@X",
"@X@X@XW @X@XW @Xr.$ D 0 9 p.@Xp.O e X.[ H H G ' 7.0.J C A [ ..V * `.@X@X).c . +.@XW @X@XW @X@X@X",
"@X@X@X@X@X@X@X@Xt.+ X X p `.@X`.$ A G ( K A C < s 3 C K A A F 0 * `.@X@X@X).r.@X@X@X@X@X@X@X@X@X",
"@X@X@X@X@X@X@X@X`.Q P P +.].@X`.  i *.*.A Z @.` $.P O.D j ( S A # `.@X@X@X@X@X@X@X@X@X@X@X@X@X@X",
"@X+X@X@X@X@X@X@X@XW @XW q.@XW [.x   ) ) * @.@X+X@X@X@Xv w *.%.j . L @Xq.W @XW @X@X@X@X@X@X@X@X@X",
"@X@X@X@X@X@X@X@X@Xq.@Xq.q.@Xq.@X@Xc 6 7 +.@X@X@X@X@X@XE & ..%.  8 w.@Xq.q.@Xq.@X@X@X@X@X@X@X@X@X",
"@X@X@X@X@X@X@X@X@X@Xq.@X@Xq.@X@X@X{.}.[.@X@X@X@X@X@X@X{.E # # 5 ].@Xq.@X@Xq.@X@X@X@X@X@X@X@X@X@X",
"@X@X@X@X@X@X@X@X@X@X@X@X@X@X@X@X@X@X@X@X@X@X@X@X@X@X@X@X@X@X@X@X@X@X@X@X@X@X@X@X@X@X@X@X@X@X@X@X",
"@X@X@X@X@X@X@X@X@X@X@X@X@X@X@X@X@X@X@X@X@X@X@X@X@X@X@X@X@X@X@X@X@X@X@X@X@X@X@X@X@X@X@X@X@X@X@X@X",
"@X@Xq.@Xq.W @Xq.@X@X@X@X@X@X@X@Xq.@Xq.W @Xq.@X@X@X@Xq.@XW q.@Xq.@X@X@X@X@X@X@X@Xq.@XW q.@Xq.@X@X",
"@X@XW @XW W @XW @X@X@X@X@X@X@X@XW @XW W @XW @X@X@X@XW @XW W @XW @X@X@X@X@X@X@X@XW @XW W @XW @X@X",
"@X@X@XW @X@XW @X@X@X@X@X@X@X@X@X@XW @X@XW @X@X@X@X@X@XW @X@XW @X@X@X@X@X@X@X@X@X@XW @X@XW @X@X@X",
"@X@X@X@X@X@X@X@X@X@X@X@X@X@X@X@X@X@X@X@X@X@X@X@X@X@X@X@X@X@X@X@X@X@X@X@X@X@X@X@X@X@X@X@X@X@X@X@X",
"@X@X@X@X@X@X@X@X@X@X@X@X@X@X@X@X@X@X@X@X@X@X@X@X@X@X@X@X@X@X@X@X@X@X@X@X@X@X@X@X@X@X@X@X@X@X@X@X",
"@X@X@X@X@X@X@X@X@X@X@X@X@X@X@X@X@X@X@X@X@X@X@X@X@X@X@X@X@X@X@X@X@X@X@X@X@X@X@X@X@X@X@X@X@X@X@X@X"
};
