/* XPM */
static char *grass[] = {
/* columns rows colors chars-per-pixel */
"48 48 188 2 ",
"   c #60BD95",
".  c #61BE95",
"X  c #60BF95",
"o  c #62BE95",
"O  c #61BE96",
"+  c #63BE97",
"@  c #64BF96",
"#  c #64BF97",
"$  c #64C097",
"%  c #65C097",
"&  c #65C099",
"*  c #67C098",
"=  c #66C198",
"-  c #67C198",
";  c #67C099",
":  c #67C199",
">  c #67C299",
",  c #67C19A",
"<  c #68C199",
"1  c #69C199",
"2  c #6BC099",
"3  c #6AC199",
"4  c #68C299",
"5  c #69C299",
"6  c #69C19A",
"7  c #6AC19A",
"8  c #6BC19A",
"9  c #68C29A",
"0  c #69C29A",
"q  c #69C39A",
"w  c #68C29B",
"e  c #69C39B",
"r  c #6AC29A",
"t  c #6BC29A",
"y  c #6AC39A",
"u  c #6BC29B",
"i  c #6AC39B",
"p  c #6BC39B",
"a  c #6CC29B",
"s  c #6CC39B",
"d  c #6AC49B",
"f  c #6BC39C",
"g  c #6CC39C",
"h  c #6DC39C",
"j  c #6FC39D",
"k  c #6BC49C",
"l  c #6BC59C",
"z  c #6BC59D",
"x  c #6CC49C",
"c  c #6DC49C",
"v  c #6CC49D",
"b  c #6DC49D",
"n  c #6CC59D",
"m  c #6DC59D",
"M  c #6EC49D",
"N  c #6EC59D",
"B  c #6DC69D",
"V  c #6EC69C",
"C  c #6EC69D",
"Z  c #6DC59E",
"A  c #6FC49E",
"S  c #6EC59E",
"D  c #6FC59E",
"F  c #6DC69E",
"G  c #6EC69E",
"H  c #6FC69E",
"J  c #6EC79E",
"K  c #6EC69F",
"L  c #6FC69F",
"P  c #6EC79F",
"I  c #6FC79F",
"U  c #71C39D",
"Y  c #70C59E",
"T  c #71C59E",
"R  c #72C49E",
"E  c #72C49F",
"W  c #72C59F",
"Q  c #70C69E",
"!  c #70C79E",
"~  c #70C69F",
"^  c #71C69F",
"/  c #70C79F",
"(  c #71C79F",
")  c #72C69F",
"_  c #72C79F",
"`  c #71C89F",
"'  c #72C89F",
"]  c #70C7A0",
"[  c #71C7A0",
"{  c #71C7A1",
"}  c #72C7A0",
"|  c #73C7A0",
" . c #72C7A1",
".. c #73C7A1",
"X. c #75C6A0",
"o. c #74C7A0",
"O. c #74C6A1",
"+. c #75C6A1",
"@. c #74C7A1",
"#. c #75C7A1",
"$. c #76C7A1",
"%. c #77C7A2",
"&. c #71C8A0",
"*. c #71C8A1",
"=. c #72C8A0",
"-. c #73C8A0",
";. c #73C9A0",
":. c #72C8A1",
">. c #73C8A1",
",. c #72C9A1",
"<. c #73C9A1",
"1. c #73C8A2",
"2. c #72C9A2",
"3. c #73C9A2",
"4. c #74C8A1",
"5. c #74C8A2",
"6. c #75C8A2",
"7. c #74C9A2",
"8. c #75C9A2",
"9. c #74C9A3",
"0. c #75C9A3",
"q. c #76C8A2",
"w. c #77C8A2",
"e. c #76C9A3",
"r. c #77C9A3",
"t. c #74CAA2",
"y. c #74CAA3",
"u. c #75CAA3",
"i. c #75CBA3",
"p. c #76CAA3",
"a. c #77CAA3",
"s. c #74CBA4",
"d. c #75CBA4",
"f. c #76CAA4",
"g. c #77CAA4",
"h. c #76CBA4",
"j. c #77CBA4",
"k. c #77CBA5",
"l. c #76CCA4",
"z. c #76CCA5",
"x. c #77CCA5",
"c. c #77CCA6",
"v. c #77CDA6",
"b. c #78C8A3",
"n. c #78C9A3",
"m. c #7AC8A4",
"M. c #7AC8A5",
"N. c #7BC8A5",
"B. c #7AC9A5",
"V. c #7BC9A5",
"C. c #78CAA4",
"Z. c #79CAA5",
"A. c #78CBA5",
"S. c #79CBA5",
"D. c #7ACAA4",
"F. c #7ACAA5",
"G. c #7BCAA5",
"H. c #78CBA6",
"J. c #7BCBA6",
"K. c #78CCA5",
"L. c #78CCA6",
"P. c #79CCA6",
"I. c #78CDA6",
"U. c #78CDA7",
"Y. c #79CDA7",
"T. c #7ACCA6",
"R. c #7ACDA7",
"E. c #79CEA7",
"W. c #7ACEA7",
"Q. c #7CCCA7",
"!. c #7CCDA7",
"~. c #7ACDA8",
"^. c #7ACFA8",
"/. c #7DCDA8",
"(. c #7ECDA8",
"). c #7CCFA9",
"_. c #7ECEA9",
"`. c #7FCEA9",
"'. c #80CDA9",
"]. c #80CEA9",
"[. c #80CFAA",
"{. c #81CFAA",
"}. c #82CEAA",
"|. c #82CFAA",
" X c #82CFAB",
".X c #84CFAB",
"XX c #83D0AC",
"oX c #84D0AC",
/* pixels */
"%.D ..1.) R ^ 0.w.Y 8 8 T E E T ^ 1.} Q Q o.n.) p 2 U W E E E w.8.^ R ) u.9.j 3 s W E E T } u.| ",
"V.=.c.h.t.:.7.I.W.D t c ,.1.>.>.h.x.d.>.>.x.R.t.5 x ] 3.>.,.t.P.j.7.:.y.I.U.b g m 7.>.<.>.z.x.d.",
"M.` *.{ *.:.:.[ &.:.>.:.h.E.i.=.:...=.:.:.=.}  .>.:.9.U.x.=.:.&.[ *.:.*.{ { :.>.>.z.I.4.:.*.{ { ",
"M.` >.:.:.:.:.:.:.:.:.:.3.t.2.:.:.:.:.:.:.:.:.:.:.:.,.2.3.:.:.:.:.:.:.:.:.:.:.:.:.2.3.2.:.:.:.:.",
"M.` :.:.:.:.:.:.:.:.:.:.>.>.1.:.:.:.:.:.:.:.:.:.:.:.>.1.>.:.:.:.:.:.:.:.:.:.:.:.>.>.:.:.:.:.:.:.",
"M.` :.:.:.:.:.:.:.:.:.,.x % H >.*.:.:.:.:.:.:.:.:.>./ < p >.*.:.:.:.:.:.:.:.:.>.:.d : } :.:.:.:.",
"M.' 1.:.:.:.:.:.:.:.:.1.~ h G 3.,.:.:.:.:.:.:.:.:.,.[ S x :.3.,.:.:.:.:.:.:.:.:.>.I x ] 3.1.:.:.",
"m.C ] :.:.1.5.1.:.:.=.y.).R.:.] L  .:.:.3.1.:.:.:.,.T.P.f.[ v } :.:.,.1.1.:.:.{ l.L.j.>.Z G :.:.",
"X.5 p *.1./ x H :.:.:.:.>.3.] t r H ,.:.B m { :.:.:.>.1.7.s % b :.:.] M ~ :.:.:.:.:.7.( * 1 ] ,.",
"m._ :.,.>.G p s :.:.:.:.:.:.:.:.=.<.:.*.c e ~ 1.:.:.:.:.:.:.4.@.>.>.m k c ,.:.:.:.:.:.:.1.:.5...",
"N.` _.oX!.*.6.4.:.:.:.:.:.:.:.=.g.oX.X9.,.5.>.:.:.:.:.:.:.*.>.].XXu.:.5.1.:.:.:.:.:.:.:.&.F.XX(.",
"M.` C.A.u.*.:.:.:.:.:.:.:.:.:.*.3.Z.D.>.*.:.:.:.:.:.:.:.:.:.>.e.g.0.&.:.:.:.:.:.:.:.:.:.*.q.e.j.",
"M.` { } } :.*.=.=.>.,.1.:.:.:.:.*.[ ] :.:.=.=.*.1.5.>.:.:.:.:.&.]  .:.:.:.=.>.2.1.:.:.:.:.&.} ] ",
"M.` 9.j.3.*.:.c.L.] p b :.:.:.:.3.h.y.:.*.y.E.1.b p ] :.:.:.:.P.x.:.:.1.I.x.~ u S >.=.:.:.y.Y.0.",
"M.' f.f.3.*.7.k.P.K x m >.9.>.-.y.i.y.:.:.d.x.7.p z I 9.1.*.1.C.f.3.*.9.k.x.A c m 8.7.*.:.i.g.p.",
"M.` :.=.:.:.:.=.` ,.3.>.H.~.i.:.:.=.=.:.:.=. .:.3.>.9.v.x.:.:.&.=.:.:.:. . .1.5.5.h.U.3.:.:.' =.",
"M.` :.:.:.:.:.:.:.:.:.*.;.;.>.:.:.:.:.:.:.:.:.:.:.:.:.>.1.:.:.:.:.:.:.:.:.:.:.:.*.>.4.:.:.:.:.:.",
"M.` :.:.:.:.:.:.:.:.:.:.>.| 1.:.:.:.:.:.:.:.:.:.:.:.1.[ @.>.:.:.:.:.:.:.:.:.:.:.:.>. .1.:.:.:.:.",
"M.` :.:.:.:.:.:.:.:.:.>.9 . l 1.*.:.:.:.:.:.:.:.:.1.G $ 4 >.*.:.:.:.:.:.:.:.:.>.{ : # ^ :.*.:.:.",
"N.=.3.:.:.:.:.:.:.:.:.,.:./ I 3.1.,.:.:.:.:.:.:.:.:.:.} K ,.5.1.:.:.:.:.:.:.:.:.>.*.~ ] 7.3.:.:.",
"b.b S :.:.1.1.1.:.:.:.7.Y.L.:.H b [ :.:.1.1.,.:.:.,.k.x.p.~ 0 ^ ,.:.2.>.1.:.:.*.p.K.h.>.p x :.:.",
"O.0 x =.4.G e b :.:.:.=.} :.[ p k ~ ,.*.k p [ ,.:.:.:.:.3.c < m :.>.H i Z :.:.:.:.=.>.( 4 p [ >.",
"N.' 2.<.4.( F c :.:.:.:.:.:.:.,.>.7.>.*.F v ^ >.:.:.:.:.:.,.1.>.7.4.G n N ,.:.:.:.:.:.:.3.>.7.>.",
"M.! T.{.S.:.3.3.:.:.:.:.:.:.:.=.0.}.`.2.,.3.,.:.:.:.:.:.:.:.>.J.{.0.:.3.1.:.:.:.:.:.:.:.&.a.].!.",
"M.` 6.8.3.*.:.:.:.:.:.:.:.:.:.:.1.5.7.>.:.:.:.:.:.:.:.:.:.:.:.4.5.5.*.:.:.:.:.:.:.:.:.:.:.4.>.7.",
"M.` *.[ *.:.*.*.{ ,.,.1.:.:.:.:.*.&.&.:.:.{ { *.>.:.,.:.:.:.:.*.*.*.:.*.{ [ ,.:.>.:.:.:.:.*.:.&.",
"M.' f.x.7.*.3.I.U.L r p *. .:.:.y.h.h.>.:.d.E.8.i q / :.*.:.>.I.v.3.*.9.U.I.D 5 x >.{ :.:.i.U.i.",
"M.' 9.7.1.:.1.y.y./ G I 3.u.<.:.7.7.7.>.:.t.9.>.S ~ =.d.3.:.,.7.7.>.:.3.9.u.~ I / 0.u.:.:.9.7.3.",
"M.` :.*.:.:.:.*.*.,.1.:.v.E.f.=.:.*.:.:.:.*.*.:.3.:.y.I.I.:.:.*.:.:.:.:.*.*.,.>.5.x.U.0.:.*.*.:.",
"M.` >.:.:.:.:.:.:.:.:.:.,.>.:.:.:.:.:.:.:.:.:.:.:.:.:.>.,.:.:.:.:.:.:.:.:.:.:.:.:.:.1.:.:.:.:.:.",
"M.` :.:.:.:.:.:.:.:.:.:.:.I :.:.:.:.:.:.:.:.:.:.:.:.>.I } >.:.:.:.:.:.:.:.:.:.:.>.[ I >.:.:.:.:.",
"M.` :.:.:.:.:.:.:.:.:.:.,   y 3.*.:.:.:.:.:.:.:.:.3.l O = -.:.:.:.:.:.:.:.:.:.>.[ $ o Y ,.*.:.:.",
"D.*.3.:.:.:.:.:.:.:.:.5.s.:.] 5.1.,.:.:.:.:.:.:.:.,.t.3./ <.2.2.:.:.:.:.:.:.:.:.7.3.( [ <.;.:.:.",
"#.q k ,.:.>.&.>.:.:.:.7.x.z.[ g t ~ 2.:.:.:.>.:.:.,.d.i.p.c $ A 2.:.1.*.,.:.:.=.y.i.h.[ ; w { ,.",
"#.b D &.3.k = a *.:.:.:.[ *.[ M D I *.&.- > L 1.:.:.*.{ >.S b ~ &.1.n 5 g :.:.:.*.*.:.} n S ] *.",
"V.-.y.g.3.] H F :.:.:.:.:.:.:.5.5.j.g.>.H B ] >.:.:.:.:.:.1.1.r.S.>.P G S ,.:.:.:.:.:.>.5.5.G.0.",
"M.! Q.|.J.*.1.3.:.:.:.:.:.:.:. .p. X[.7.,.3.>.:.:.:.:.:.:.:.:.Q.{.e.:.1.1.:.:.:.:.:.:.:.} g.'./.",
"M.` :.*.:.:.:.*.:.:.,.:.:.:.:.:.:.{ *.*.:.:.*.:.:.:.:.:.:.:.:.[ [ :.:.:.*.:.:.:.:.:.:.:.:.*.] :.",
"M.' >.>.:.:.:.1.<.>.} } >.:.:.:.:.>.:.>.>.:.3.:.:.} >.:.:.:.:.1.1.:.:.:.1.>.>.[ >.:.:.:.:.>.7.:.",
"M.' j.x.9.{ 7.U.E.J 5 r  .{ :.:.u.x.h.>.-.k.^.0.y q L :.*.:.>.I.x.5.{ y.E.E.Z 9 x 4.[ :.=.h.E.d.",
"M.` 3.:.:.:.:.2.3.[ [ &.t.x.1.:.2.2.,.:.:.2.3.>.] &.>.k.y.=.,.2.:.:.:.,.2.3.[ &.=.u.z.*.:.2.:.,.",
"m.` :.:.:.:.:.:.:.:.,.:.d.x.y.=.:.:.:.:.:.:.:.:.,.:.7.d.d.:.:.:.:.:.:.:.:.:.:.:.>.d.z.3.:.:.:.:.",
"m.` :.:.:.:.:.:.:.:.:.:.=.:.:.:.:.:.:.:.:.:.:.:.:.:.:.:.*.:.:.:.:.:.:.:.:.:.:.:.:.>.:.:.:.:.:.:.",
"M.` :.:.:.:.:.:.:.:.:.:.` N >.:.:.:.:.:.:.:.:.:.:.:.>.D ] ,.:.:.:.:.:.:.:.:.:.:.>.~ S >.:.:.:.:.",
"m.` :.:.:.:.:.:.:.:.:.>.6 + x 5.*.:.:.:.:.:.:.:.:.1.S = < >.:.:.:.:.:.:.:.:.:.>.[ > @ ~ 2.:.:.:.",
"N.' 1.:.:.:.:.:.:.:.:.7.P.g.:.,.:.,.:.:.:.:.:.:.:.,.g.j.,.>. .2.:.:.:.:.:.:.:.*.u.j.8.:.:.:.,.:.",
"+.0 9 :.>.4.} >.:.:.:.2.p.g.] p 1 H 1.:.:.*.,.:.:.:.9.u.e.x X p >.:.,.} >.:.:.:.3.3.y.] $ & ] >.",
"$.c H :.5.m 4 f *.:.:.*.=.-. .m G [ >.*.9 9 ~ ,.:.:.*.*.>.G n K >.<.b 7 g ,.:.:.*.*.:.] l V &.:."
};
