/* XPM */
static char *masterball48_2[] = {
/* columns rows colors chars-per-pixel */
"48 48 185 2 ",
"   c black",
".  c #F1044F",
"X  c #76428A",
"o  c #60BD95",
"O  c #61BE95",
"+  c #60BF95",
"@  c #62BE95",
"#  c #63BE97",
"$  c #64BF96",
"%  c #64BF97",
"&  c #64C097",
"*  c #65C097",
"=  c #65C099",
"-  c #67C098",
";  c #66C198",
":  c #67C099",
">  c #67C199",
",  c #67C299",
"<  c #67C19A",
"1  c #68C199",
"2  c #69C199",
"3  c #6BC099",
"4  c #6AC199",
"5  c #68C299",
"6  c #69C299",
"7  c #69C19A",
"8  c #6AC19A",
"9  c #6BC19A",
"0  c #68C29A",
"q  c #69C29A",
"w  c #69C39A",
"e  c #68C29B",
"r  c #69C39B",
"t  c #6AC29A",
"y  c #6BC29A",
"u  c #6AC39A",
"i  c #6BC29B",
"p  c #6BC39B",
"a  c #6CC29B",
"s  c #6CC39B",
"d  c #6AC49B",
"f  c #6BC39C",
"g  c #6CC39C",
"h  c #6DC39C",
"j  c #6FC39D",
"k  c #6BC49C",
"l  c #6BC59C",
"z  c #6CC49C",
"x  c #6DC49C",
"c  c #6CC49D",
"v  c #6DC49D",
"b  c #6CC59D",
"n  c #6DC59D",
"m  c #6EC49D",
"M  c #6EC59D",
"N  c #6DC69D",
"B  c #6EC69C",
"V  c #6EC69D",
"C  c #6DC59E",
"Z  c #6FC49E",
"A  c #6EC59E",
"S  c #6FC59E",
"D  c #6DC69E",
"F  c #6EC69E",
"G  c #6FC69E",
"H  c #6EC79E",
"J  c #6EC69F",
"K  c #6FC69F",
"L  c #6EC79F",
"P  c #6FC79F",
"I  c #71C39D",
"U  c #70C59E",
"Y  c #71C59E",
"T  c #72C49E",
"R  c #72C49F",
"E  c #72C59F",
"W  c #70C69E",
"Q  c #70C79E",
"!  c #70C69F",
"~  c #71C69F",
"^  c #70C79F",
"/  c #71C79F",
"(  c #72C69F",
")  c #72C79F",
"_  c #71C89F",
"`  c #72C89F",
"'  c #70C7A0",
"]  c #71C7A0",
"[  c #71C7A1",
"{  c #72C7A0",
"}  c #73C7A0",
"|  c #72C7A1",
" . c #73C7A1",
".. c #75C6A0",
"X. c #74C7A0",
"o. c #74C6A1",
"O. c #75C6A1",
"+. c #74C7A1",
"@. c #75C7A1",
"#. c #76C7A1",
"$. c #77C7A2",
"%. c #71C8A0",
"&. c #71C8A1",
"*. c #72C8A0",
"=. c #73C8A0",
"-. c #73C9A0",
";. c #72C8A1",
":. c #73C8A1",
">. c #72C9A1",
",. c #73C9A1",
"<. c #73C8A2",
"1. c #72C9A2",
"2. c #73C9A2",
"3. c #74C8A1",
"4. c #74C8A2",
"5. c #75C8A2",
"6. c #74C9A2",
"7. c #75C9A2",
"8. c #74C9A3",
"9. c #75C9A3",
"0. c #76C8A2",
"q. c #77C8A2",
"w. c #76C9A3",
"e. c #77C9A3",
"r. c #74CAA2",
"t. c #74CAA3",
"y. c #75CAA3",
"u. c #75CBA3",
"i. c #76CAA3",
"p. c #77CAA3",
"a. c #74CBA4",
"s. c #75CBA4",
"d. c #76CAA4",
"f. c #77CAA4",
"g. c #76CBA4",
"h. c #77CBA4",
"j. c #77CBA5",
"k. c #76CCA4",
"l. c #76CCA5",
"z. c #77CCA5",
"x. c #77CCA6",
"c. c #77CDA6",
"v. c #78C8A3",
"b. c #78C9A3",
"n. c #7AC8A4",
"m. c #7AC8A5",
"M. c #7BC8A5",
"N. c #7BC9A5",
"B. c #78CAA4",
"V. c #79CAA5",
"C. c #78CBA5",
"Z. c #79CBA5",
"A. c #7ACAA4",
"S. c #7ACAA5",
"D. c #7BCAA5",
"F. c #78CBA6",
"G. c #7BCBA6",
"H. c #78CCA5",
"J. c #78CCA6",
"K. c #79CCA6",
"L. c #78CDA6",
"P. c #78CDA7",
"I. c #79CDA7",
"U. c #7ACCA6",
"Y. c #7ACDA7",
"T. c #79CEA7",
"R. c #7ACEA7",
"E. c #7CCCA7",
"W. c #7CCDA7",
"Q. c #7ACDA8",
"!. c #7ACFA8",
"~. c #7DCDA8",
"^. c #7ECDA8",
"/. c #7CCFA9",
"(. c #7ECEA9",
"). c #80CDA9",
"_. c #80CEA9",
"`. c #80CFAA",
"'. c #81CFAA",
"]. c #82CFAA",
"[. c #82CFAB",
"{. c #84CFAB",
"}. c #83D0AC",
"|. c #84D0AC",
" X c white",
/* pixels */
"$.S  .<.( T ~ 9.q.U 9 9 Y R R Y ~ <.{ W W X.b.( p 3 I E R R R q.7.~ T ( y.8.j 4 s E R R Y { y.} ",
"N.*.x.g.r.;.6.L.R.S y x >.<.:.:.g.z.s.:.:.z.Y.r.6 z ' 2.:.>.r.K.h.6.;.t.L.P.v g n 6.:.,.:.l.z.s.",
"m._ &.[ &.;.;.] %.;.:.;.g.T.u.*.;. .*.;.;.*.{ | :.;.8.P.z.*.;.%.] &.;.&.[ [ ;.:.:.l.L.3.;.&.[ [ ",
"m._ :.;.;.;.;.;.;.;.;.;.2.r.1.;.;.;.;.;.;.;.;.;.;.;.>.1.2.;.;.;.;.;.;.;.;.;.;.;.;.1.2.1.;.;.;.;.",
"m._ ;.;.;.;.;.;.;.;.;.;.:.:.<.;.;.;.;.;.;.;.;.;.;.;.:.<.:.;.;.;.;.;.;.;.;.;.;.;.:.:.;.;.;.;.;.;.",
"m._ ;.;.;.;.;.;.;.;.;.>.z * G :.&.;.;.;.;.;.;.;.;.:.^ 1 p :.&.;.;.;.;.;.;.;.;.:.;.d > { ;.;.;.;.",
"m.` <.;.;.;.;.;.;.;.;.<.! h F 2.>.;.;.;.;.;.;.;.;.>.] A z ;.2.>.;.;.;.;.;.;.;.;.:.P z ' 2.<.;.;.",
"n.V ' ;.;.<.4.<.;.;.*.t./.Y.;.' K | ;.;.2.<.;.;.;.>.U.K.d.] c { ;.;.>.<.<.;.;.[ k.J.h.:.C F ;.;.",
"..6 p &.<.^ z G ;.;.;.;.:.2.' y t G >.;.N n [ ;.;.;.:.<.6.s * v ;.;.' m ! ;.;.;.;.;.6./ - 2 ' >.",
"n.) ;.>.:.F p s ;.;.;.;.;.;.;.;.*.,.;.&.x r ! <.;.;.;.;.;.;.3.+.:.:.n k x >.;.;.;.;.;.;.<.;.4. .",
"M._ (.|.W.&.5.3.;.;.;.;.;.;.;.*.f.|.{.8.>.4.:.;.;.;.;.;.;.&.:._.}.y.;.4.<.;.;.;.;.;.;.;.%.S.}.^.",
"m._ B.C.y.&.;.;.;.;.;.;.;.;.;.&.2.V.A.:.&.;.;.;.;.;.;.;.;.;.:.w.f.9.%.;.;.;.;.;.;.;.;.;.&.0.w.h.",
"m._ [ { { ;.&.*.*.:.>.<.;.;.;.;.&.] ' ;.;.              ;.;.;.%.' | ;.;.;.*.:.1.<.;.;.;.;.%.{ ' ",
"m._ 8.h.2.&.;.x.J.' p v ;.;.;.;.2.g.t.    X X X X X X X     ;.K.z.;.;.<.L.z.! i A :.*.;.;.t.I.9.",
"m.` d.d.2.&.6.j.K.J z n :.8.:.=.t.    . . X X X X X X X . .     d.2.&.8.j.z.Z x n 7.6.&.;.u.f.i.",
"m._ ;.*.;.;.;.*._ >.2.:.F.Q.u.;.  . . . . X X X X X X X . . . .   ;.;.;.| | <.4.4.g.P.2.;.;.` *.",
"m._ ;.;.;.;.;.;.;.;.;.&.-.-.:.  . . . . X X X X X X X X X . . . .   ;.;.;.;.;.;.&.:.3.;.;.;.;.;.",
"m._ ;.;.;.;.;.;.;.;.;.;.:.}   . . . . . X X X  XX  XX X X . . . . .   ;.;.;.;.;.;.:.| <.;.;.;.;.",
"m._ ;.;.;.;.;.;.;.;.;.:.0 O   . . . . . X X  X X X X XX X . . . . .   ;.;.;.;.:.[ > % ~ ;.&.;.;.",
"M.*.2.;.;.;.;.;.;.;.;.>.;.  . . . . . . X X  XX  XX  XX X . . . . . .   ;.;.;.;.:.&.! ' 6.2.;.;.",
"v.v A ;.;.<.<.<.;.;.;.6.I.  . . . . . X X  XX X X X X  XX X . . . . .   <.;.;.&.i.H.g.:.p z ;.;.",
"o.q z *.3.F r v ;.;.;.*.{   . . . . X X X X X       X X X X X . . . .   C ;.;.;.;.*.:./ 5 p ] :.",
"M.` 1.,.3./ D x ;.;.;.;.;.  . . . X X X X X    X X X  X X X X X . . .   M >.;.;.;.;.;.;.2.:.6.:.",
"m.Q U.'.Z.;.2.2.;.;.;.;.;.  X X X X X X X    X X X X X  X X X X X X X   <.;.;.;.;.;.;.;.%.p._.W.",
"m._ 5.7.2.&.;.;.;.;.;.;.;.                   X X X X X                  ;.;.;.;.;.;.;.;.;.3.:.6.",
"m._ &.] &.;.&.&.[ >.>.<.;.   X X X X X X X X   X X X   X X X X X X X X  [ ] >.;.:.;.;.;.;.&.;.%.",
"m.` d.z.6.&.2.L.P.K t p &.   X X X X X X X X X       X X X X X X X X X  P.L.S 6 z :.[ ;.;.u.P.u.",
"m.` 8.6.<.;.<.t.t.^ F P 2.   X X X X X X X X X X X X X X X X X X X X X  8.y.! P ^ 9.y.;.;.8.6.2.",
"m._ ;.&.;.;.;.&.&.>.<.;.c.   X X X X X X X X X X X X X X X X X X X X X  &.&.>.:.4.z.P.9.;.&.&.;.",
"m._ :.;.;.;.;.;.;.;.;.;.>.:.   X X X X X X X X X X X X X X X X X X X  ;.;.;.;.;.;.;.<.;.;.;.;.;.",
"m._ ;.;.;.;.;.;.;.;.;.;.;.P ;.   X X X X X X X X X X X X X X X X X  ;.;.;.;.;.;.:.] P :.;.;.;.;.",
"m._ ;.;.;.;.;.;.;.;.;.;.< o u 2.   X X X X X X X X X X X X X X X  ;.;.;.;.;.;.:.] & @ U >.&.;.;.",
"A.&.2.;.;.;.;.;.;.;.;.4.a.;.' 4.<.   X X X X X X X X X X X X X  ;.;.;.;.;.;.;.;.6.2./ ] ,.-.;.;.",
"@.w k >.;.:.%.:.;.;.;.6.z.l.] g y !      X X X X X X X X X    Z 1.;.<.&.>.;.;.*.t.u.g.] : e [ >.",
"@.v S %.2.k ; a &.;.;.;.] &.] m S P &.%.     X X X X X    A v ! %.<.b 6 g ;.;.;.&.&.;.{ b A ' &.",
"N.=.t.f.2.' G D ;.;.;.;.;.;.;.4.4.h.f.:.G N           ;.;.<.<.e.Z.:.L F A >.;.;.;.;.;.:.4.4.D.9.",
"m.Q E.].G.&.<.2.;.;.;.;.;.;.;.| i.[.`.6.>.2.:.;.;.;.;.;.;.;.;.E.'.w.;.<.<.;.;.;.;.;.;.;.{ f.).~.",
"m._ ;.&.;.;.;.&.;.;.>.;.;.;.;.;.;.[ &.&.;.;.&.;.;.;.;.;.;.;.;.] ] ;.;.;.&.;.;.;.;.;.;.;.;.&.' ;.",
"m.` :.:.;.;.;.<.,.:.{ { :.;.;.;.;.:.;.:.:.;.2.;.;.{ :.;.;.;.;.<.<.;.;.;.<.:.:.] :.;.;.;.;.:.6.;.",
"m.` h.z.8.[ 6.P.T.H 6 t | [ ;.;.y.z.g.:.=.j.!.9.u w K ;.&.;.:.L.z.4.[ t.T.T.C 0 z 3.] ;.*.g.T.s.",
"m._ 2.;.;.;.;.1.2.] ] %.r.z.<.;.1.1.>.;.;.1.2.:.' %.:.j.t.*.>.1.;.;.;.>.1.2.] %.*.y.l.&.;.1.;.>.",
"n._ ;.;.;.;.;.;.;.;.>.;.s.z.t.*.;.;.;.;.;.;.;.;.>.;.6.s.s.;.;.;.;.;.;.;.;.;.;.;.:.s.l.2.;.;.;.;.",
"n._ ;.;.;.;.;.;.;.;.;.;.*.;.;.;.;.;.;.;.;.;.;.;.;.;.;.;.&.;.;.;.;.;.;.;.;.;.;.;.;.:.;.;.;.;.;.;.",
"m._ ;.;.;.;.;.;.;.;.;.;._ M :.;.;.;.;.;.;.;.;.;.;.;.:.S ' >.;.;.;.;.;.;.;.;.;.;.:.! A :.;.;.;.;.",
"n._ ;.;.;.;.;.;.;.;.;.:.7 # z 4.&.;.;.;.;.;.;.;.;.<.A ; 1 :.;.;.;.;.;.;.;.;.;.:.] , $ ! 1.;.;.;.",
"M.` <.;.;.;.;.;.;.;.;.6.K.f.;.>.;.>.;.;.;.;.;.;.;.>.f.h.>.:.| 1.;.;.;.;.;.;.;.&.y.h.7.;.;.;.>.;.",
"O.q 0 ;.:.3.{ :.;.;.;.1.i.f.' p 2 G <.;.;.&.>.;.;.;.8.y.w.z + p :.;.>.{ :.;.;.;.2.2.t.' & = ' :.",
"#.x G ;.4.n 5 f &.;.;.&.*.=.| n F ] :.&.0 0 ! >.;.;.&.&.:.F b J :.,.v 8 g >.;.;.&.&.;.' l B %.;."
};
