/* XPM */
static char *masterball[] = {
/* columns rows colors chars-per-pixel */
"31 32 176 2 ",
"   c #1B1B1C",
".  c #23191D",
"X  c #1E1C24",
"o  c #231D23",
"O  c #2A1D24",
"+  c #351E2C",
"@  c #242424",
"#  c #2B252B",
"$  c #2E2D2D",
"%  c #302F2F",
"&  c #2F302E",
"*  c #30302F",
"=  c #2F2530",
"-  c #3A2230",
";  c #312E33",
":  c #342F3F",
">  c #323233",
",  c #34313B",
"<  c #393738",
"1  c #3C3B3B",
"2  c #401F32",
"3  c #462638",
"4  c #3B2E4A",
"5  c #3A3445",
"6  c #3C334B",
"7  c #4E2F4C",
"8  c #572B43",
"9  c #413E41",
"0  c #453A59",
"q  c #553751",
"w  c #6D3C5A",
"e  c #67325A",
"r  c #743759",
"t  c #4C396C",
"y  c #4D3C70",
"u  c #523D73",
"i  c #533F7A",
"p  c #663A68",
"a  c #7D3E61",
"s  c #454444",
"d  c #484447",
"f  c #494648",
"g  c #4B4B4B",
"h  c #574A52",
"j  c #555454",
"k  c #5C565A",
"l  c #5B5B5B",
"z  c #585356",
"x  c #4D4061",
"c  c #52446C",
"v  c #564971",
"b  c #5D4F7C",
"n  c #54407D",
"m  c #6A476C",
"M  c #684869",
"N  c #72456B",
"B  c #635C61",
"V  c #654B74",
"C  c #694B76",
"Z  c #674F7D",
"A  c #66507E",
"S  c #676365",
"D  c #696869",
"F  c #6B6568",
"G  c #716B6F",
"H  c #746D71",
"J  c #7F767B",
"K  c #797176",
"L  c #84315F",
"P  c #913568",
"I  c #953B72",
"U  c #AD3A7A",
"Y  c #A73A77",
"T  c #B43B7F",
"R  c #89436B",
"E  c #814872",
"W  c #994875",
"Q  c #A04E7E",
"!  c #81797E",
"~  c #5C448C",
"^  c #594581",
"/  c #5F4691",
"(  c #625282",
")  c #6A578D",
"_  c #675689",
"`  c #604693",
"'  c #664D96",
"]  c #6D5B93",
"[  c #6A5498",
"{  c #735E9D",
"}  c #74609D",
"|  c #746397",
" . c #755FA1",
".. c #7661A1",
"X. c #7964A3",
"o. c #7D6AA5",
"O. c #BE3D85",
"+. c #C83F8D",
"@. c #A64F81",
"#. c #BE4589",
"$. c #A55182",
"%. c #AB5384",
"&. c #B25388",
"*. c #B8558C",
"=. c #BA5B90",
"-. c #827E81",
";. c #B56893",
":. c #826EA8",
">. c #8572AA",
",. c #8876AD",
"<. c #8576A2",
"1. c #8E7EB0",
"2. c #C9428E",
"3. c #CB4691",
"4. c #CB4F95",
"5. c #CE5C9C",
"6. c #C95696",
"7. c #D05D9D",
"8. c #D462A2",
"9. c #D36CA5",
"0. c #CD7CAA",
"q. c #D772AA",
"w. c #818081",
"e. c #8D8D8D",
"r. c #949394",
"t. c #9C9C9D",
"y. c #9D959A",
"u. c #A2979E",
"i. c #9687B6",
"p. c #A49DA1",
"a. c #A99EA4",
"s. c #AAA4A8",
"d. c #AAA8AA",
"f. c #A3A3A3",
"g. c #B2A6AD",
"h. c #B6AAB2",
"j. c #B9ADB4",
"k. c #B2B1B2",
"l. c #B8B3B6",
"z. c #BDB3B9",
"x. c #B8B8B8",
"c. c #DD88B7",
"v. c #C2B7BE",
"b. c #A699C1",
"n. c #AB9FC4",
"m. c #AFA4C6",
"M. c #B2A7C8",
"N. c #B1A6C7",
"B. c #B9B0CD",
"V. c #BEB5D1",
"C. c #E59EC5",
"Z. c #C3BCC0",
"A. c #C3BBD3",
"S. c #E4A2C6",
"D. c #E8A9CB",
"F. c #EBB1D1",
"G. c #CBC6CA",
"H. c #C7C4C6",
"J. c #CDC6DA",
"K. c #D4CED2",
"L. c #D2CCDE",
"P. c #DCC0D2",
"I. c #DDDCDD",
"U. c #D6D4D5",
"Y. c #D9D5E2",
"T. c #D7D2E1",
"R. c #E0DEE4",
"E. c #F4D8E7",
"W. c #E8E7EB",
"Q. c #EAEAEB",
"!. c #E5E3E7",
"~. c #F6E1EC",
"^. c #EEEDF0",
"/. c #F0EFF0",
"(. c #F5F5F5",
"). c None",
/* pixels */
").).).).).).).).).).).).).).).).).).).).).).).).).).).).).).).",
").).).).).).).).).).).).).).).).).).).).).).).).).).).).).).).",
").).).).).).).).).).).).).).).).).).).).).).).).).).).).).).).",
").).).).).).).).).).. . ).  o X X ).).).).).).).).).).).).).).",
").).).).).).).).- w R w x ^ ( ( v q R R r - ).).).).).).).).).",
").).).).).).).h ;.5.Q C } ......A Q 8.8.5.%.r . ).).).).).).).",
").).).).).).M P.D.%.v ] .... . .C =.S.F.q.7.6.N . ).).).).).).",
").).).).).8 0.D.;.V <.i. .o.i.i.C ;.E.E.S.7.7.6.L ).).).).).).",
").).).).3 &.8.%.V <.T.A.o.m.!.m.A %.F.E.S.5.7.7.2.3 ).).).).).",
").).).).a 7.%.m | A.W.T.B.R.^.V.] E 9.c.9.5.7.5.4.L ).).).).).",
").).).# W %.V ] b.T.N.W.W.M.J.J.o.V @.7.7.7.5.6.2.U - ).).).).",
").).).O w V ] >.L.N.:.T.M.X.V.Y.>.] m *.7.7.5.4.2.T 2 ).).).).",
").).).X c } ..o.b.,.o.i.o...m.Y.>..._ N &.7.4.+.+.Y 3 ).).).).",
").).).o ^ ......X.] _ ) { ..o.i...} .._ p I T +.O.P + ).).).).",
").).).o y [ X.{ v s , 5 0 ( ..........' ~ u p p e 7 o ).).).).",
").).).  , c ' v ; 3 l l 1 > b ......' / ` ` ~ n t 4 # ).).).).",
").).).  & ; 6 , 1 w.d.k.f.s 5 ] { ' / / ` ~ ~ y 4 # ).).).).).",
").).).@ j < & * l k.I.H.k.e.> 0 i i u t 0 0 5 # # # ).).).).).",
").).).).r.f.j > D R.(./.d.r.> * , , ; ; $ $ # - d z ).).).).).",
").).).).D R.K.g g G.(.Q.t.w.& & & ; ; 1 s g B -.a.B ).).).).).",
").).).).< p.!.e.& D k.f.e.g 1 w.t.t.d.x.z.s.g.j.u.9 ).).).).).",
").).).).).k z.G.D & < g 3 * w.Q.(.(./.U.v.j.j.g.k ).).).).).).",
").).).).).).H l.l.w.j g k r.I.(.!.I.Z.z.h.h.h.! # ).).).).).).",
").).).).).).@ K h.x.k.k.Z.K.K.G.Z.l.h.h.j.h.-.d ).).).).).).).",
").).).).).).).@ S a.h.j.j.h.h.h.h.j.j.j.a.G < ).).).).).).).).",
").).).).).).).).. f ! u.h.j.j.h.j.h.u.! z ).).).).).).).).).).",
").).).).).).).).).).@ 9 B G ! ! H F f o ).).).).).).).).).).).",
").).).).).).).).).).).).).).).).).).).).).).).).).).).).).).).",
").).).).).).).).).).).).).).).).).).).).).).).).).).).).).).).",
").).).).).).).).).).).).).).).).).).).).).).).).).).).).).).).",
").).).).).).).).).).).).).).).).).).).).).).).).).).).).).).).",
").).).).).).).).).).).).).).).).).).).).).).).).).).).).).).)."
};
