/* XPM */
static char * masterball48_2_xpm[] = {
"48 48 397 2",
"  	c None",
". 	c #77C7A2",
"+ 	c #6FC59E",
"@ 	c #73C7A1",
"# 	c #73C8A2",
"$ 	c #72C69F",
"% 	c #72C49E",
"& 	c #71C69F",
"* 	c #75C9A3",
"= 	c #77C8A2",
"- 	c #70C59E",
"; 	c #6BC19A",
"> 	c #71C59E",
", 	c #72C49F",
"' 	c #72C7A0",
") 	c #70C69E",
"! 	c #74C7A0",
"~ 	c #78C9A3",
"{ 	c #6BC39B",
"] 	c #6BC099",
"^ 	c #71C39D",
"/ 	c #72C59F",
"( 	c #75C9A2",
"_ 	c #75CAA3",
": 	c #74C9A3",
"< 	c #6FC39D",
"[ 	c #6AC199",
"} 	c #6CC39B",
"| 	c #73C7A0",
"1 	c #7BC9A5",
"2 	c #72C8A0",
"3 	c #77CCA6",
"4 	c #76CBA4",
"5 	c #74CAA2",
"6 	c #72C8A1",
"7 	c #74C9A2",
"8 	c #78CDA6",
"9 	c #7ACEA7",
"0 	c #6BC29A",
"a 	c #6DC49C",
"b 	c #72C9A1",
"c 	c #73C8A1",
"d 	c #77CCA5",
"e 	c #75CBA4",
"f 	c #7ACDA7",
"g 	c #69C299",
"h 	c #6CC49C",
"i 	c #70C7A0",
"j 	c #73C9A2",
"k 	c #79CCA6",
"l 	c #77CBA4",
"m 	c #74CAA3",
"n 	c #78CDA7",
"o 	c #6DC49D",
"p 	c #6CC39C",
"q 	c #6DC59D",
"r 	c #73C9A1",
"s 	c #76CCA5",
"t 	c #7AC8A5",
"u 	c #71C89F",
"v 	c #71C8A1",
"w 	c #71C7A1",
"x 	c #71C7A0",
"y 	c #71C8A0",
"z 	c #79CEA7",
"A 	c #75CBA3",
"B 	c #72C7A1",
"C 	c #74C8A1",
"D 	c #72C9A2",
"E 	c #65C097",
"F 	c #6FC69E",
"G 	c #70C79F",
"H 	c #68C199",
"I 	c #6AC49B",
"J 	c #67C199",
"K 	c #72C89F",
"L 	c #70C69F",
"M 	c #6DC39C",
"N 	c #6EC69E",
"O 	c #6EC59E",
"P 	c #6FC79F",
"Q 	c #7AC8A4",
"R 	c #6EC69D",
"S 	c #74C8A2",
"T 	c #7CCFA9",
"U 	c #6FC69F",
"V 	c #7ACCA6",
"W 	c #76CAA4",
"X 	c #6CC49D",
"Y 	c #76CCA4",
"Z 	c #78CCA6",
"` 	c #6DC59E",
" .	c #75C6A0",
"..	c #6AC29A",
"+.	c #6DC69D",
"@.	c #6EC49D",
"#.	c #71C79F",
"$.	c #67C098",
"%.	c #69C199",
"&.	c #72C79F",
"*.	c #69C39B",
"=.	c #74C7A1",
"-.	c #6BC49C",
";.	c #7BC8A5",
">.	c #7ECEA9",
",.	c #84D0AC",
"'.	c #7CCDA7",
").	c #75C8A2",
"!.	c #77CAA4",
"~.	c #84CFAB",
"{.	c #80CEA9",
"].	c #83D0AC",
"^.	c #7ACAA5",
"/.	c #7ECDA8",
"(.	c #78CAA4",
"_.	c #78CBA5",
":.	c #79CAA5",
"<.	c #7ACAA4",
"[.	c #76C9A3",
"}.	c #76C8A2",
"|.	c #6BC29B",
"1.	c #79CDA7",
"2.	c #77CBA5",
"3.	c #6EC69F",
"4.	c #73C8A0",
"5.	c #69B793",
"6.	c #569779",
"7.	c #539376",
"8.	c #4D8F71",
"9.	c #4C9072",
"0.	c #529677",
"a.	c #70C29D",
"b.	c #6FC49E",
"c.	c #76CAA3",
"d.	c #78CBA6",
"e.	c #7ACDA8",
"f.	c #6FC39C",
"g.	c #6DC09A",
"h.	c #689274",
"i.	c #616368",
"j.	c #5E346F",
"k.	c #5D336E",
"l.	c #5F346F",
"m.	c #677A6C",
"n.	c #6B977A",
"o.	c #73C9A0",
"p.	c #81866F",
"q.	c #8A6B5D",
"r.	c #D70039",
"s.	c #BC2967",
"t.	c #79458F",
"u.	c #7B4790",
"v.	c #7A448F",
"w.	c #7A4790",
"x.	c #7B448E",
"y.	c #D01350",
"z.	c #CF1843",
"A.	c #807362",
"B.	c #78967B",
"C.	c #818670",
"D.	c #D21547",
"E.	c #E10248",
"F.	c #F10E54",
"G.	c #AE377C",
"H.	c #78488D",
"I.	c #500070",
"J.	c #75428A",
"K.	c #580075",
"L.	c #79498D",
"M.	c #C33074",
"N.	c #F5014E",
"O.	c #DE0348",
"P.	c #C1344A",
"Q.	c #699B7D",
"R.	c #68C29A",
"S.	c #61BE95",
"T.	c #6BC59C",
"U.	c #70C39E",
"V.	c #80866F",
"W.	c #F1044F",
"X.	c #F5004F",
"Y.	c #E3195C",
"Z.	c #7E478B",
"`.	c #3D0067",
" +	c #DDD8E1",
".+	c #5E0079",
"++	c #CDC4D2",
"@+	c #4A0071",
"#+	c #884488",
"$+	c #F2014D",
"%+	c #F40350",
"&+	c #EE044E",
"*+	c #C12A46",
"=+	c #68997B",
"-+	c #64BF97",
";+	c #6EC19B",
">+	c #8B6B5E",
",+	c #E10349",
"'+	c #F40450",
")+	c #F2004E",
"!+	c #E4205D",
"~+	c #5B0077",
"{+	c #D2CCD7",
"]+	c #FFFFFF",
"^+	c #EEECF0",
"/+	c #B2A5BC",
"(+	c #74007C",
"_+	c #F4054D",
":+	c #F70451",
"<+	c #D20344",
"[+	c #63836B",
"}+	c #78C8A3",
"|+	c #658C70",
"1+	c #F50450",
"2+	c #F00550",
"3+	c #F70048",
"4+	c #D41262",
"5+	c #7E5591",
"6+	c #E6E1E8",
"7+	c #8C679C",
"8+	c #EFEBF2",
"9+	c #A48EB0",
"0+	c #D1CBD7",
"a+	c #7F4188",
"b+	c #E60E57",
"c+	c #F60048",
"d+	c #C10B3E",
"e+	c #579B7C",
"f+	c #78CCA5",
"g+	c #74C6A1",
"h+	c #69C29A",
"i+	c #658168",
"j+	c #D40344",
"k+	c #F60652",
"l+	c #FB0042",
"m+	c #D32768",
"n+	c #732582",
"o+	c #AD9CB7",
"p+	c #A387B0",
"q+	c #1C0043",
"r+	c #322E40",
"s+	c #43005E",
"t+	c #B8A5C1",
"u+	c #9075A0",
"v+	c #853683",
"w+	c #DF1F5F",
"x+	c #F90045",
"y+	c #F80653",
"z+	c #C2023E",
"A+	c #529275",
"B+	c #6AC39B",
"C+	c #68C299",
"D+	c #6DC69E",
"E+	c #6A856C",
"F+	c #DA003B",
"G+	c #FF003C",
"H+	c #CB2B6C",
"I+	c #7D4089",
"J+	c #73428A",
"K+	c #804994",
"L+	c #000000",
"M+	c #D1D0D1",
"N+	c #D8D9D8",
"O+	c #B5B5B6",
"P+	c #25004F",
"Q+	c #7C4790",
"R+	c #72428A",
"S+	c #8C3E85",
"T+	c #DB2161",
"U+	c #FF0040",
"V+	c #C80036",
"W+	c #549375",
"X+	c #6CC59D",
"Y+	c #6EC59D",
"Z+	c #70C79E",
"`+	c #81CFAA",
" @	c #79CBA5",
".@	c #548670",
"+@	c #763778",
"@@	c #8D428D",
"#@	c #7E428C",
"$@	c #78438E",
"%@	c #7D4691",
"&@	c #2E004D",
"*@	c #FEFEFE",
"=@	c #FBFBFB",
"-@	c #A8A7A9",
";@	c #5C0073",
">@	c #7A458F",
",@	c #79438D",
"'@	c #81428B",
")@	c #8D438E",
"!@	c #6C326D",
"~@	c #549377",
"{@	c #77CAA3",
"]@	c #4D866C",
"^@	c #3F423E",
"/@	c #4B4F4A",
"(@	c #4A4D48",
"_@	c #4B4F49",
":@	c #D3D3D3",
"<@	c #FCFCFC",
"[@	c #AFAFAF",
"}@	c #262D23",
"|@	c #4B4E48",
"1@	c #494D48",
"2@	c #4C504B",
"3@	c #393C37",
"4@	c #549376",
"5@	c #719C87",
"6@	c #DEDEDE",
"7@	c #ADADAD",
"8@	c #D2D2D2",
"9@	c #D8D8D8",
"0@	c #C0C0C0",
"a@	c #D4D4D4",
"b@	c #C9C9C9",
"c@	c #519375",
"d@	c #6D9984",
"e@	c #DADADA",
"f@	c #B7B7B7",
"g@	c #D5D5D5",
"h@	c #C6C6C6",
"i@	c #529376",
"j@	c #6B9D85",
"k@	c #589B7C",
"l@	c #77CDA6",
"m@	c #6EC29B",
"n@	c #89A999",
"o@	c #E5E5E5",
"p@	c #D1D2D2",
"q@	c #699F85",
"r@	c #6BBC97",
"s@	c #9CB3A7",
"t@	c #EBEBEB",
"u@	c #DBDCDC",
"v@	c #7BA691",
"w@	c #69B894",
"x@	c #9DB3A7",
"y@	c #F0F0F0",
"z@	c #ECECEC",
"A@	c #DEDFDE",
"B@	c #86AB98",
"C@	c #67C19A",
"D@	c #60BD95",
"E@	c #6AC39A",
"F@	c #8BAA9A",
"G@	c #A5B4AC",
"H@	c #FAFAFA",
"I@	c #EEEEEE",
"J@	c #91A79C",
"K@	c #87AB99",
"L@	c #64C097",
"M@	c #62BE95",
"N@	c #74CBA4",
"O@	c #6EC29C",
"P@	c #67B592",
"Q@	c #5D967B",
"R@	c #B8BDBA",
"S@	c #C5C5C5",
"T@	c #A1B0A8",
"U@	c #649C81",
"V@	c #6BBF98",
"W@	c #70C49D",
"X@	c #75C7A1",
"Y@	c #69C39A",
"Z@	c #5DA484",
"`@	c #529375",
" #	c #539476",
".#	c #67C099",
"+#	c #68C29B",
"@#	c #66C198",
"##	c #6CC29B",
"$#	c #67C198",
"%#	c #67C299",
"&#	c #77C9A3",
"*#	c #6EC79F",
"=#	c #7BCAA5",
"-#	c #7CCCA7",
";#	c #82CFAA",
">#	c #7BCBA6",
",#	c #82CFAB",
"'#	c #80CFAA",
")#	c #80CDA9",
"!#	c #7DCDA8",
"~#	c #6EC79E",
"{#	c #7ACFA8",
"]#	c #69C19A",
"^#	c #63BE97",
"/#	c #64BF96",
"(#	c #75C6A1",
"_#	c #60BF95",
":#	c #65C099",
"<#	c #76C7A1",
"[#	c #6BC39C",
"}#	c #6AC19A",
"|#	c #6EC69C",
". + @ # $ % & * = - ; ; > , , > & # ' ) ) ! ~ $ { ] ^ / , , , = ( & % $ _ : < [ } / , , > ' _ | ",
"1 2 3 4 5 6 7 8 9 + 0 a b # c c 4 d e c c d f 5 g h i j c b 5 k l 7 6 m 8 n o p q 7 c r c s d e ",
"t u v w v 6 6 x y 6 c 6 4 z A 2 6 @ 2 6 6 2 ' B c 6 : n d 2 6 y x v 6 v w w 6 c c s 8 C 6 v w w ",
"t u c 6 6 6 6 6 6 6 6 6 j 5 D 6 6 6 6 6 6 6 6 6 6 6 b D j 6 6 6 6 6 6 6 6 6 6 6 6 D j D 6 6 6 6 ",
"t u 6 6 6 6 6 6 6 6 6 6 c c # 6 6 6 6 6 6 6 6 6 6 6 c # c 6 6 6 6 6 6 6 6 6 6 6 c c 6 6 6 6 6 6 ",
"t u 6 6 6 6 6 6 6 6 6 b h E F c v 6 6 6 6 6 6 6 6 c G H { c v 6 6 6 6 6 6 6 6 c 6 I J ' 6 6 6 6 ",
"t K # 6 6 6 6 6 6 6 6 # L M N j b 6 6 6 6 6 6 6 6 b x O h 6 j b 6 6 6 6 6 6 6 6 c P h i j # 6 6 ",
"Q R i 6 6 # S # 6 6 2 m T f 6 i U B 6 6 j # 6 6 6 b V k W x X ' 6 6 b # # 6 6 w Y Z l c ` N 6 6 ",
" .g { v # G h F 6 6 6 6 c j i 0 ..F b 6 +.q w 6 6 6 c # 7 } E o 6 6 i @.L 6 6 6 6 6 7 #.$.%.i b ",
"Q &.6 b c N { } 6 6 6 6 6 6 6 6 2 r 6 v a *.L # 6 6 6 6 6 6 C =.c c q -.a b 6 6 6 6 6 6 # 6 S @ ",
";.u >.,.'.v ).C 6 6 6 6 6 6 6 2 !.,.~.: b S c 6 6 6 6 6 6 v c {.]._ 6 S # 6 6 6 6 6 6 6 y ^.]./.",
"t u (._._ v 6 6 6 6 6 6 6 6 6 v j :.<.c v 6 6 6 6 6 6 6 6 6 c [.!.* y 6 6 6 6 6 6 6 6 6 v }.[.l ",
"t u w ' ' 6 v 2 2 c b # 6 6 6 6 v x i 6 6 2 2 v # S c 6 6 6 6 y i B 6 6 6 2 c D # 6 6 6 6 y ' i ",
"t u : l j v 6 3 Z i { o 6 6 6 6 j 4 m 6 v m z # o { i 6 6 6 6 k d 6 6 # 8 d L |.O c 2 6 6 m 1.* ",
"t K W W j v 7 2.k 3.h q c : c 4.m A m 6 6 5.6.7.8.9.0.a.# v # (.W j v : 2.d b.a q ( 7 v 6 A !.c.",
"t u 6 2 6 6 6 2 u b j c d.e.A 6 6 2 f.g.h.i.j.k.k.k.l.m.n.- & y 2 6 6 6 B B # S S 4 n j 6 6 K 2 ",
"t u 6 6 6 6 6 6 6 6 6 v o.o.c 6 6 < p.q.r.s.t.u.v.w.x.y.z.A.B.6 6 6 6 6 6 6 6 6 v c C 6 6 6 6 6 ",
"t u 6 6 6 6 6 6 6 6 6 6 c | # 6 < C.D.E.F.G.H.I.J.K.L.M.N.O.P.Q.6 6 6 6 6 6 6 6 6 c B # 6 6 6 6 ",
"t u 6 6 6 6 6 6 6 6 6 c R.S.T.U.V.D.W.X.Y.Z.`. +.+++@+#+$+%+&+*+=+6 6 6 6 6 6 c w J -+& 6 v 6 6 ",
";.2 j 6 6 6 6 6 6 6 6 b 6 G P ;+>+,+'+)+!+~+{+]+^+]+/+(+_+W.:+<+[+6 6 6 6 6 6 6 c v L i 7 j 6 6 ",
"}+o O 6 6 # # # 6 6 6 7 1.Z 6 |+<+1+2+3+4+5+6+7+8+9+0+a+b+c+2+:+d+e+D c # 6 6 v c.f+4 c { h 6 6 ",
"g+h+h 2 C N *.o 6 6 6 2 ' 6 x i+j+k+l+m+n+o+p+q+r+s+t+u+v+w+x+y+z+A+F B+` 6 6 6 6 2 c #.C+{ x c ",
";.K D r C #.D+a 6 6 6 6 6 6 6 E+F+G+H+I+J+K+L+M+N+O+P+Q+R+S+T+U+V+W+N X+Y+b 6 6 6 6 6 6 j c 7 c ",
"t Z+V `+ @6 j j 6 6 6 6 6 6 6 .@+@@@#@$@%@&@M+*@]+=@-@;@>@,@'@)@!@~@6 j # 6 6 6 6 6 6 6 y {@{.'.",
"t u ).( j v 6 6 6 6 6 6 6 6 6 ]@^@/@(@(@_@L+:@*@]+<@[@}@|@(@1@2@3@4@v 6 6 6 6 6 6 6 6 6 6 C c 7 ",
"t u v x v 6 v v w b b # 6 6 6 5@6@]+]+]+]+]+7@8@9@0@a@]+]+]+]+]+b@c@6 v w x b 6 c 6 6 6 6 v 6 y ",
"t K W d 7 v j 8 n U ..{ v B 6 d@e@]+]+]+]+]+]+0@f@g@]+]+]+]+]+]+h@i@v : n 8 + g h c w 6 6 A n A ",
"t K : 7 # 6 # m m G N P j _ r j@g@]+]+]+]+]+]+]+]+]+]+]+]+]+]+]+0@k@6 j : _ L P G * _ 6 6 : 7 j ",
"t u 6 v 6 6 6 v v b # 6 l@z W m@n@o@]+]+]+]+]+]+]+]+]+]+]+]+*@p@q@6 6 6 v v b c S d n * 6 v v 6 ",
"t u c 6 6 6 6 6 6 6 6 6 b c 6 6 r@s@t@]+]+]+]+]+]+]+]+]+]+*@u@v@6 6 6 6 6 6 6 6 6 6 # 6 6 6 6 6 ",
"t u 6 6 6 6 6 6 6 6 6 6 6 P 6 6 6 w@x@o@y@]+]+]+]+]+]+]+z@A@B@< 6 6 6 6 6 6 6 6 c x P c 6 6 6 6 ",
"t u 6 6 6 6 6 6 6 6 6 6 C@D@E@j v 6 r@F@G@:@H@]+]+]+I@8@J@K@< 6 6 6 6 6 6 6 6 c x L@M@- b v 6 6 ",
"<.v j 6 6 6 6 6 6 6 6 S N@6 i S # b 6 O@P@Q@R@h@h@S@T@U@V@W@D D 6 6 6 6 6 6 6 6 7 j #.x r o.6 6 ",
"X@Y@-.b 6 c y c 6 6 6 7 d s x p 0 L D 6 6 6 Z@`@A+ #5.A c.a L@b.D 6 # v b 6 6 2 m A 4 x .#+#w b ",
"X@o + y j -.@###v 6 6 6 x v x @.+ P v y $#%#U # 6 6 v w c O o L y # X+g p 6 6 6 v v 6 ' X+O i v ",
"1 4.m !.j i F D+6 6 6 6 6 6 6 S S l !.c F +.i c 6 6 6 6 6 # # &# @c *#N O b 6 6 6 6 6 c S S =#* ",
"t Z+-#;#>#v # j 6 6 6 6 6 6 6 B c.,#'#7 b j c 6 6 6 6 6 6 6 6 -#`+[.6 # # 6 6 6 6 6 6 6 ' !.)#!#",
"t u 6 v 6 6 6 v 6 6 b 6 6 6 6 6 6 w v v 6 6 v 6 6 6 6 6 6 6 6 x x 6 6 6 v 6 6 6 6 6 6 6 6 v i 6 ",
"t K c c 6 6 6 # r c ' ' c 6 6 6 6 c 6 c c 6 j 6 6 ' c 6 6 6 6 # # 6 6 6 # c c x c 6 6 6 6 c 7 6 ",
"t K l d : w 7 n z ~#g ..B w 6 6 _ d 4 c 4.2.{#* E@Y@U 6 v 6 c 8 d S w m z z ` R.h C x 6 2 4 z e ",
"t u j 6 6 6 6 D j x x y 5 d # 6 D D b 6 6 D j c i y c 2.m 2 b D 6 6 6 b D j x y 2 _ s v 6 D 6 b ",
"Q u 6 6 6 6 6 6 6 6 b 6 e d m 2 6 6 6 6 6 6 6 6 b 6 7 e e 6 6 6 6 6 6 6 6 6 6 6 c e s j 6 6 6 6 ",
"Q u 6 6 6 6 6 6 6 6 6 6 2 6 6 6 6 6 6 6 6 6 6 6 6 6 6 6 v 6 6 6 6 6 6 6 6 6 6 6 6 c 6 6 6 6 6 6 ",
"t u 6 6 6 6 6 6 6 6 6 6 u Y+c 6 6 6 6 6 6 6 6 6 6 6 c + i b 6 6 6 6 6 6 6 6 6 6 c L O c 6 6 6 6 ",
"Q u 6 6 6 6 6 6 6 6 6 c ]#^#h S v 6 6 6 6 6 6 6 6 # O @#H c 6 6 6 6 6 6 6 6 6 c x %#/#L D 6 6 6 ",
";.K # 6 6 6 6 6 6 6 6 7 k !.6 b 6 b 6 6 6 6 6 6 6 b !.l b c B D 6 6 6 6 6 6 6 v _ l ( 6 6 6 b 6 ",
"(#h+R.6 c C ' c 6 6 6 D c.!.i { %.F # 6 6 v b 6 6 6 : _ [.h _#{ c 6 b ' c 6 6 6 j j m i L@:#i c ",
"<#a F 6 S q C+[#v 6 6 v 2 4.B q N x c v R.R.L b 6 6 v v c N X+3.c r o }#p b 6 6 v v 6 i T.|#y 6 "};
