/* XPM */
static char *masterball48[] = {
/* columns rows colors chars-per-pixel */
"47 48 188 2 ",
"   c #151415",
".  c #1A1619",
"X  c #1B1A1C",
"o  c #22171D",
"O  c #23181E",
"+  c #1B1921",
"@  c #231D21",
"#  c #2B1D24",
"$  c #242223",
"%  c #282527",
"&  c #2C242A",
"*  c #2C2C2C",
"=  c #33262D",
"-  c #2F302F",
";  c #30312F",
":  c #2F2731",
">  c #2E2D31",
",  c #302E32",
"<  c #3B2835",
"1  c #332B3A",
"2  c #323131",
"3  c #383637",
"4  c #34303A",
"5  c #3A363B",
"6  c gray23",
"7  c #49283A",
"8  c #3D2F4E",
"9  c #3B3444",
"0  c #3B324C",
"q  c #582A47",
"w  c #463846",
"e  c #5B3249",
"r  c #422E55",
"t  c #463C5A",
"y  c #59395E",
"u  c #65314E",
"i  c #782E58",
"p  c #683A56",
"a  c #76375B",
"s  c #493565",
"d  c #4C3B6C",
"f  c #5A3762",
"g  c #4E3C72",
"h  c #533D7C",
"j  c #6C3661",
"k  c #7C3963",
"l  c #454445",
"z  c #494548",
"x  c #4B494A",
"c  c #555354",
"v  c #5A5458",
"b  c #5D5D5D",
"n  c #4E4267",
"m  c #534566",
"M  c #554669",
"N  c #5C476C",
"B  c #554772",
"V  c #5A4B73",
"C  c #54407C",
"Z  c #5D4F7C",
"A  c #5F507E",
"S  c #654262",
"D  c #684265",
"F  c #734364",
"G  c #764469",
"H  c #7A446A",
"J  c #655F63",
"K  c #735866",
"L  c #666465",
"P  c #696366",
"I  c gray42",
"U  c #716B6F",
"Y  c #736E71",
"T  c #747474",
"R  c #7C7C7C",
"E  c #802E5D",
"W  c #99346D",
"Q  c #AB3879",
"!  c #B33C7E",
"~  c #88466C",
"^  c #924771",
"/  c #934974",
"(  c #8B5673",
")  c #A24D7D",
"_  c #807B7F",
"`  c #5C4589",
"'  c #5F4691",
"]  c #625383",
"[  c #68568B",
"{  c #6A588E",
"}  c #604693",
"|  c #634A94",
" . c #6C5A92",
".. c #6B5399",
"X. c #6D5799",
"o. c #735E9D",
"O. c #75619E",
"+. c #7A689F",
"@. c #745EA0",
"#. c #7661A1",
"$. c #7964A3",
"%. c #7E6BA4",
"&. c #BB3C83",
"*. c #C23F88",
"=. c #BE478A",
"-. c #AC5184",
";. c #B45388",
":. c #BA548D",
">. c #837C80",
",. c #8A7A83",
"<. c #BF6496",
"1. c #826EA8",
"2. c #8572AA",
"3. c #8978AE",
"4. c #907FB1",
"5. c #C9418E",
"6. c #CC4A93",
"7. c #C45593",
"8. c #CC5196",
"9. c #C15A93",
"0. c #CE5B9B",
"q. c #D05D9D",
"w. c #D45EA0",
"e. c #CF6BA3",
"r. c #D364A2",
"t. c #D56BA6",
"y. c #D671A9",
"u. c #D978AE",
"i. c #838383",
"p. c #8C8389",
"a. c #8B8A8B",
"s. c #91888D",
"d. c #988E95",
"f. c #939293",
"g. c #999096",
"h. c #9D9399",
"j. c #9B9A9B",
"k. c #A1969D",
"l. c #9483B4",
"z. c #9888B7",
"x. c #9B8CB9",
"c. c #A49DA1",
"v. c #A99EA5",
"b. c #A193BC",
"n. c #A5A4A5",
"m. c #ACA7AA",
"M. c #B2A6AD",
"N. c #B7AAB2",
"B. c #B9ACB4",
"V. c #BDAFB8",
"C. c #B4B3B4",
"Z. c #BCB0B7",
"A. c #BDB2B9",
"S. c #BBB9BB",
"D. c #C481A5",
"F. c #DB83B4",
"G. c #C2B8BE",
"H. c #A79AC2",
"J. c #AEA2C6",
"K. c #B6ABCB",
"L. c #BBB2CF",
"P. c #BEB5D1",
"I. c #E49CC4",
"U. c #C5BDC2",
"Y. c #C2BAD4",
"T. c #E4A0C6",
"R. c #E8ACCD",
"E. c #EAB8D4",
"W. c gray76",
"Q. c #CCC6C9",
"!. c #CCC4CA",
"~. c #D2CBCF",
"^. c #CBC5DA",
"/. c #D4D3D4",
"(. c #DAD7DA",
"). c #EAC8DB",
"_. c #D9D5E3",
"`. c #F3CEE0",
"'. c #F4D8E7",
"]. c #E4E3E4",
"[. c #E5E3EB",
"{. c #E8E6EC",
"}. c #ECEBEC",
"|. c #F6E2EC",
" X c #EEEDF0",
".X c #F4F4F4",
"XX c #F8F8F8",
"oX c None",
/* pixels */
"oXoXoXoXoXoXoXoXoXoXoXoXoXoXoXoXoXoXoXoXoXoXoXoXoXoXoXoXoXoXoXoXoXoXoXoXoXoXoXoXoXoXoXoXoXoXoX",
"oXoXoXoXoXoXoXoXoXoXoXoXoXoXoXoXoXoXoXoXoXoXoXoXoXoXoXoXoXoXoXoXoXoXoXoXoXoXoXoXoXoXoXoXoXoXoX",
"oXoXoXoXoXoXoXoXoXoXoXoXoXoXoXoXoXoXoXoXoXoXoXoXoXoXoXoXoXoXoXoXoXoXoXoXoXoXoXoXoXoXoXoXoXoXoX",
"oXoXoXoXoXoXoXoXoXoXoXoXoXoXoXoXoXoXoXoXoXoXoXoXoXoXoXoXoXoXoXoXoXoXoXoXoXoXoXoXoXoXoXoXoXoXoX",
"oXoXoXoXoXoXoXoXoXoXoXoXoXoXoXoXoXoXoXoXoXoXoXoXoXoXoXoXoXoXoXoXoXoXoXoXoXoXoXoXoXoXoXoXoXoXoX",
"oXoXoXoXoXoXoXoXoXoXoXoXoXoXoXO O O . X + X + + + X oXoXoXoXoXoXoXoXoXoXoXoXoXoXoXoXoXoXoXoXoX",
"oXoXoXoXoXoXoXoXoXoXoXoXoX& 7 a ^ F 5 t V Z ] A Z t 1 e p p e < O oXoXoXoXoXoXoXoXoXoXoXoXoXoX",
"oXoXoXoXoXoXoXoXoXoXoXO 7 ^ 9.0.-.S Z O.#.#.#.$.O.V ~ 7.q.q.7.-.k 7 . oXoXoXoXoXoXoXoXoXoXoXoX",
"oXoXoXoXoXoXoXoXoXoX= K D.t.q.:.D B #.#.#.#.#.$.{ S -.w.r.r.w.w.q.-.u # oXoXoXoXoXoXoXoXoXoXoX",
"oXoXoXoXoXoXoXoXoX= ,.).`.F.:.F M o.#.#.#.#.#.$.] G :.u.T.T.u.q.q.q.9.a & oXoXoXoXoXoXoXoXoXoX",
"oXoXoXoXoXoXoXoX= ( E.'.R.<.F m +.%.#.#.@.$.%.%.] G <.R.'.|.E.y.0.q.w.7.i # oXoXoXoXoXoXoXoXoX",
"oXoXoXoXoXoXoX# a e.I.I.<.~ m 1.J.x.#.#.$.l.J.l.] G <.E.|.'.'.F.0.q.q.q.=.u o oXoXoXoXoXoXoXoX",
"oXoXoXoXoXoX. u 9.w.q.:.G m $.K.{.P.$.$.z._.[.J. .D -.I.'.|.'.F.0.q.q.0.8.! 7 oXoXoXoXoXoXoXoX",
"oXoXoXoXoXoX= ) w.0.:.H m O.H.[.XX^.4.x._..X XK.#.V / y.R.).R.y.0.q.q.q.8.5.i o oXoXoXoXoXoXoX",
"oXoXoXoXoXoXe 0.q.:.F M O.l.(.{.{._.P._. X[..XP.%.] k :.t.y.e.q.0.q.q.q.8.5.Q = oXoXoXoXoXoXoX",
"oXoXoXoXoX@ ~ q.;.F M X.1.Y.[.P.P..X X{.L.L. X^.2. .N / 0.q.q.q.q.0.q.q.6.5.&.q oXoXoXoXoXoXoX",
"oXoXoXoXoX# ^ ) D B @.%.b.[.^.3.H..X XK.%.b.{._.l.#.] m ) q.w.q.q.q.q.0.5.*.*.i . oXoXoXoXoXoX",
"oXoXoXoXoXX u N Z @.$.%.^.[.b.#.z._.Y.2.o.l._.[.x.@.@.V F ;.q.q.q.q.q.6.6.*.*.E o oXoXoXoXoXoX",
"oXoXoXoXoXX 0 ] #.#.#.%.J.L.%.#.2.H.l.#.@.4._.{.b.@.@.o.N F -.q.w.w.8.*.*.*.*.E @ oXoXoXoXoXoX",
"oXoXoXoXoX+ B $.#.#.$.$.%.%.%.$.$.$.$.#.@.3.L.^.l.@.@.$.O.N D ) 8.6.6.*.*.*.&.i @ oXoXoXoXoXoX",
"oXoXoXoXoX+ C X.#.#.#.#.$.o.{ ] ] ]  .@.#.$.%.%.$.#.#.#.$.o.B y k W &.&.&.Q W q + oXoXoXoXoXoX",
"oXoXoXoXoX+ g | o.O.#.#.{ M 0 6 9 9 z B  .$.O.@.O.#.#.#.o...' h d f j k k i q 1 . oXoXoXoXoXoX",
"oXoXoXoXoXX 9 ` | o.#. .t - * * - * % - n | $.#.#.#.O.O...' ' ' ' h h d s r r 9 . oXoXoXoXoXoX",
"oXoXoXoXoX  % 0 n ` [ n * - l I R T c - % z  .$.#.#.o...} ' ' ' } } } ' h s r % oXoXoXoXoXoXoX",
"oXoXoXoXoX. * - 2 0 8 4 ; x i.j.C.S.C.T 2 > n o.@.X.| } } ' } } } } } C s 8 : #   oXoXoXoXoXoX",
"oXoXoXoXoXX 2 - - - 4 - 6 I j.C.C.n.C.S.I * 9 ] ..| } } } ' ` ` C g s 0 < & & $   oXoXoXoXoXoX",
"oXoXoXoXoXX L b 2 - - 2 x i.W.}.}.Q.n.L.n.3 > 0 g g g d s s 8 0 9 4 , & # & : % oXoXoXoXoXoXoX",
"oXoXoXoXoX@ R W.R x - - c j. X.X.X.XS.j.n.l * ; 1 4 4 4 2 > - 2 ; ; & & & 5 v , oXoXoXoXoXoXoX",
"oXoXoXoXoXoXc (.].C.I - l f. X.X.X.XS.f.f.l - ; - - - 2 2 - - * * * < l J p._ * oXoXoXoXoXoXoX",
"oXoXoXoXoXoX2 n. X.XC.6 - I /.XX.X}.n.f.i.3 - * * * - - 2 6 l x c J _ d.v.N.J X oXoXoXoXoXoXoX",
"oXoXoXoXoXoXX L W.}.(.I $ 6 R W./.C.f.a.c * 6 L R i.i.a.j.n.C.m.c.m.N.V.V.k.6 oXoXoXoXoXoXoXoX",
"oXoXoXoXoXoXoX- a.Q.].C.l % 6 b T T I c - - T /.].].].}.}.{.(.W.V.N.N.N.M.J O oXoXoXoXoXoXoXoX",
"oXoXoXoXoXoXoX. x n.!.~.j.z % * ; 7 6 - * b W..XXXXXXX.X{.~.G.N.N.N.B.B.i., oXoXoXoXoXoXoXoXoX",
"oXoXoXoXoXoXoXoX$ P M.G.U.c.I l ; * 2 x R W. X.X.X}.]./.U.V.N.N.N.N.B.k.z oXoXoXoXoXoXoXoXoXoX",
"oXoXoXoXoXoXoXoXoX* U N.A.A.C.n.f.a.j.S./.}.}.].(.~.U.Z.B.N.N.N.M.G.k.v O oXoXoXoXoXoXoXoXoXoX",
"oXoXoXoXoXoXoXoXoXoX- Y M.B.B.Z.Z.Z.G.!.Q.Q.W.W.G.Z.N.N.N.N.N.B.G.k.v $ oXoXoXoXoXoXoXoXoXoXoX",
"oXoXoXoXoXoXoXoXoXoXoX* L k.B.B.B.B.B.B.B.B.B.N.N.N.N.N.N.N.V.N.,.z O oXoXoXoXoXoXoXoXoXoXoXoX",
"oXoXoXoXoXoXoXoXoXoXoXoX@ x >.M.V.B.N.N.N.N.N.B.N.N.N.N.M.G.k.U 3 . oXoXoXoXoXoXoXoXoXoXoXoXoX",
"oXoXoXoXoXoXoXoXoXoXoXoXoXoX2 c _ c.N.V.V.B.B.B.B.G.N.M.d.Y z % oXoXoXoXoXoXoXoXoXoXoXoXoXoXoX",
"oXoXoXoXoXoXoXoXoXoXoXoXoXoXoX. % w J >.s.g.h.h.g.p.Y v 3 O oXoXoXoXoXoXoXoXoXoXoXoXoXoXoXoXoX",
"oXoXoXoXoXoXoXoXoXoXoXoXoXoXoXoXoXoX@ % * 2 3 3 ; & $ oXoXoXoXoXoXoXoXoXoXoXoXoXoXoXoXoXoXoXoX",
"oXoXoXoXoXoXoXoXoXoXoXoXoXoXoXoXoXoXoXoXoXoXoXoXoXoXoXoXoXoXoXoXoXoXoXoXoXoXoXoXoXoXoXoXoXoXoX",
"oXoXoXoXoXoXoXoXoXoXoXoXoXoXoXoXoXoXoXoXoXoXoXoXoXoXoXoXoXoXoXoXoXoXoXoXoXoXoXoXoXoXoXoXoXoXoX",
"oXoXoXoXoXoXoXoXoXoXoXoXoXoXoXoXoXoXoXoXoXoXoXoXoXoXoXoXoXoXoXoXoXoXoXoXoXoXoXoXoXoXoXoXoXoXoX",
"oXoXoXoXoXoXoXoXoXoXoXoXoXoXoXoXoXoXoXoXoXoXoXoXoXoXoXoXoXoXoXoXoXoXoXoXoXoXoXoXoXoXoXoXoXoXoX",
"oXoXoXoXoXoXoXoXoXoXoXoXoXoXoXoXoXoXoXoXoXoXoXoXoXoXoXoXoXoXoXoXoXoXoXoXoXoXoXoXoXoXoXoXoXoXoX",
"oXoXoXoXoXoXoXoXoXoXoXoXoXoXoXoXoXoXoXoXoXoXoXoXoXoXoXoXoXoXoXoXoXoXoXoXoXoXoXoXoXoXoXoXoXoXoX",
"oXoXoXoXoXoXoXoXoXoXoXoXoXoXoXoXoXoXoXoXoXoXoXoXoXoXoXoXoXoXoXoXoXoXoXoXoXoXoXoXoXoXoXoXoXoXoX"
};
