/* XPM */
static char *masterball_ground[] = {
/* columns rows colors chars-per-pixel */
"48 48 204 2 ",
"   c #000100",
".  c #010002",
"X  c #020003",
"o  c #020004",
"O  c #030005",
"+  c #030106",
"@  c #040206",
"#  c #050206",
"$  c #050307",
"%  c #040008",
"&  c #060409",
"*  c #060509",
"=  c #070609",
"-  c #07050A",
";  c #07060A",
":  c #07070B",
">  c #05000E",
",  c #070808",
"<  c #07080B",
"1  c #070B0B",
"2  c #0A090C",
"3  c #0B090D",
"4  c #090A0D",
"5  c #0D0B0E",
"6  c #0A0C0F",
"7  c #0C0E0F",
"8  c #0C0010",
"9  c #090610",
"0  c #0A0014",
"q  c #0E0015",
"w  c #0E0911",
"e  c #0F0D11",
"r  c #0D0E10",
"t  c #0C0F11",
"y  c #140013",
"u  c #120F13",
"i  c #140817",
"p  c #1A001B",
"a  c #1C0019",
"s  c #1C071B",
"d  c #0C1012",
"f  c #0F1017",
"g  c #0E1415",
"h  c #131112",
"j  c #151615",
"k  c #171719",
"l  c #111919",
"z  c #131C1B",
"x  c #16221F",
"c  c #0A0020",
"v  c #130025",
"b  c #170026",
"n  c #110E27",
"m  c #150029",
"M  c #1F0A2E",
"N  c #1D112E",
"B  c #1A0A36",
"V  c #290024",
"C  c #210028",
"Z  c #220A2E",
"A  c #230A2E",
"S  c #211E22",
"D  c #231E22",
"F  c #200030",
"G  c #340039",
"H  c #3C003B",
"J  c #162220",
"K  c #172321",
"L  c #1C2C28",
"P  c #1D2E2A",
"I  c #153020",
"U  c #2B282C",
"Y  c #313A2B",
"T  c #323C2D",
"R  c #243732",
"E  c #363B34",
"W  c #394035",
"Q  c #38005E",
"!  c #750068",
"~  c #7E0070",
"^  c #2A6E50",
"/  c #424042",
"(  c #4E6440",
")  c #556C48",
"_  c #447360",
"`  c #656465",
"'  c #676C61",
"]  c #089C57",
"[  c #518A73",
"{  c #57008B",
"}  c #5F0096",
"|  c #7B008D",
" . c #62009E",
".. c #6200A4",
"X. c #6F00B6",
"o. c #6600BA",
"O. c #6700BE",
"+. c #7E00BB",
"@. c #7F00C8",
"#. c #7900CC",
"$. c #8F009E",
"%. c #990090",
"&. c #AD0085",
"*. c #BE009E",
"=. c #8F3082",
"-. c #AD00A1",
";. c #C900AF",
":. c #C400B0",
">. c #CD03B7",
",. c #E400B4",
"<. c #AC45A8",
"1. c #9400C9",
"2. c #931AC3",
"3. c #8100DE",
"4. c #9606D3",
"5. c #9408E2",
"6. c #9B00EF",
"7. c #9C18E6",
"8. c #8401FC",
"9. c #8A00FF",
"0. c #9401FC",
"q. c #9800FB",
"w. c #9D00FF",
"e. c #9E00FF",
"r. c #A700EF",
"t. c #A200FF",
"y. c #A700FF",
"u. c #AB00FD",
"i. c #A800FF",
"p. c #B400F7",
"a. c #BE00FF",
"s. c #A622FF",
"d. c #AD22FF",
"f. c #AC26FF",
"g. c #DE00C5",
"h. c #DC00DD",
"j. c #DF00EA",
"k. c #D800EE",
"l. c #D800F5",
"z. c #EC00E6",
"x. c #EB00EA",
"c. c #FF00E2",
"v. c #FF00E5",
"b. c #F700EB",
"n. c #FF00EA",
"m. c #FF00EC",
"M. c #FF02F1",
"N. c #FF00F7",
"B. c #FF00F8",
"V. c #FF00F9",
"C. c magenta",
"Z. c #C136F3",
"A. c #C433FF",
"S. c #FF2FE1",
"D. c #FF37E7",
"F. c #FF35F8",
"G. c #BA51FF",
"H. c #FF5CF9",
"J. c #C476FF",
"K. c #FF6CFF",
"L. c #62AA8B",
"P. c #68B394",
"I. c #69B595",
"U. c #69B695",
"Y. c #6CBA98",
"T. c #6DBD9B",
"R. c #6EBE9C",
"E. c #6FC09D",
"W. c #72C5A1",
"Q. c #73C6A2",
"!. c #73C7A3",
"~. c #888888",
"^. c #958C91",
"/. c #9B9598",
"(. c #AD9FA7",
"). c gray64",
"_. c #ABAAAB",
"`. c #ACABAC",
"'. c gray68",
"]. c #CB84DD",
"[. c #C985E0",
"{. c #D98EFC",
"}. c gray81",
"|. c #D0CACD",
" X c #D5CBCD",
".X c #D2D2C4",
"XX c #D7CED3",
"oX c #DBD4D7",
"OX c #E9DFDF",
"+X c #F5CAF6",
"@X c #F2CCF7",
"#X c #F4CFF6",
"$X c #F6D7F4",
"%X c #F8DAF3",
"&X c #FADAF5",
"*X c #FADCF4",
"=X c #E7E1E4",
"-X c #EAEAEA",
";X c #F5E5ED",
":X c #F6E5EE",
">X c #FFE7F3",
",X c #FBE1F5",
"<X c #FFF0F8",
"1X c white",
/* pixels */
"!.!.!.!.!.!.!.!.!.!.!.!.!.!.!.!.!.!.!.!.!.!.!.!.!.!.!.!.!.!.!.!.!.!.!.!.!.!.!.!.!.!.!.!.!.!.!.!.",
"!.!.!.!.!.!.!.!.!.!.!.!.!.!.!.!.!.!.!.!.!.!.!.!.!.!.!.!.!.!.!.!.!.!.!.!.!.!.!.!.!.!.!.!.!.!.!.!.",
"!.!.] !.] ^ !.] !.!.!.!.!.!.!.!.] !.] ^ !.] !.!.!.!.] !.^ ] !.] !.!.!.!.!.!.!.!.] !.^ ] !.] !.!.",
"!.!.^ !.^ ^ !.^ !.!.!.!.!.!.!.!.^ !.^ ^ !.^ !.!.!.!.^ !.^ ^ !.^ !.!.!.!.!.!.!.!.^ !.^ ^ !.^ !.!.",
"!.!.!.^ !.!.^ !.!.!.!.!.!.!.!.!.!.^ !.!.^ !.!.!.!.!.!.^ !.!.^ !.!.!.!.!.!.!.!.!.!.^ !.!.^ !.!.!.",
"!.!.!.!.!.!.!.!.!.!.!.!.!.!.!.!.!.!.!.!.!.!.!.!.!.!.!.!.!.!.!.!.!.!.!.!.!.!.!.!.!.!.!.!.!.!.!.!.",
"!.!.!.!.!.!.!.!.!.!.!.!.!.!.!.!.!.!.!.!.!.!.!.!.!.!.!.!.!.!.!.!.!.!.!.!.!.!.!.!.!.!.!.!.!.!.!.!.",
"!.!.!.!.!.!.!.!.!.^ !.^ ] !.^ !.!.!.!.!.!.!.!.!.!.!.!.!.!.!.!.!.!.^ !.] ^ !.^ !.!.!.!.!.!.!.!.!.",
"!.!.!.!.!.!.!.!.!.] !.] ] !.] !.!.!.!.!.!.!.!.!.!.!.!.!.!.!.!.!.!.] !.] ] !.] !.!.!.!.!.!.!.!.!.",
"!.!.!.!.!.!.!.!.!.!.] !.!.] !.!.!.!.!.!.!.!.!.!.!.!.!.!.!.!.!.!.!.!.] !.!.] !.!.!.!.!.!.!.!.!.!.",
"!.!.!.!.!.!.!.!.!.!.!.!.!.!.!.!.!.!.!.!.!.!.!.!.!.!.!.!.!.!.!.!.!.!.!.!.!.!.!.!.!.!.!.!.!.!.!.!.",
"!.!.!.!.!.!.!.!.!.!.!.!.!.!.!.!.!.!.!.!.!.!.!.!.!.!.!.!.!.!.!.!.!.!.!.!.!.!.!.!.!.!.!.!.!.!.!.!.",
"!.!.] !.] ^ !.] !.!.!.!.!.!.!.!.] !.] ^ !.] !.!.!.!.] !.^ ] !.] !.!.!.!.!.!.!.!.] !.^ ] !.] !.!.",
"!.!.^ !.^ ^ !.^ !.!.!.!.!.!.!.!.^ !.^ ^ !.^ !.!.!.!.^ !.^ ^ !.^ !.!.!.!.!.!.!.!.^ !.^ ^ !.^ !.!.",
"!.!.!.^ !.!.^ !.!.!.!.!.!.!.!.!.!.^ !.!.^ !.!.!.!.!.!.^ !.!.^ !.!.!.!.!.!.!.!.!.!.^ !.!.^ !.!.!.",
"!.!.!.!.!.!.!.!.!.!.!.!.!.!.!.!.!.!.!.!.!.!.!.!.!.!.!.!.!.!.!.!.!.!.!.!.!.!.!.!.!.!.!.!.!.!.!.!.",
"!.!.!.!.!.!.!.!.!.!.!.!.!.!.!.!.!.!.Q.l @ N Z M A n 4 J [ !.!.!.!.!.!.!.!.!.!.!.!.!.!.!.!.!.!.!.",
"!.!.!.!.!.!.!.!.!.^ !.^ ] !.^ !.!.g t G H q.y.y.e.r.p y $ _ !.!.!.^ !.] ^ !.^ !.!.!.!.!.!.!.!.!.",
"!.!.!.!.!.!.!.!.!.] !.] ] !.] !.d I <.b.M.A.f.w.a.H.K.C.~ + L.!.!.] !.] ] !.] !.!.!.!.!.!.!.!.!.",
"!.!.!.!.!.!.!.!.!.!.] !.!.] !.!.R =.F.v.l.J.G.9.z.>X1XV.m.a < !.!.!.] !.!.] !.!.!.!.!.!.!.!.!.!.",
"!.!.!.!.!.!.!.!.!.!.!.!.!.!.!.!.w x.m.;.5.s.d.9.k.S.D.B.g.! - !.!.!.!.!.!.!.!.!.!.!.!.!.!.!.!.!.",
"!.!.!.!.!.!.!.!.!.!.!.!.!.!.!.!.V c.>.2.$X{.@X7.0.j.n.N.:.*.s !.!.!.!.!.!.!.!.!.!.!.!.!.!.!.!.!.",
"!.!.] !.] ^ !.] !.!.!.!.!.!.!.!.i %.4.[.,X&X,X].8.w.h.,.&.-.C ] !.!.!.!.!.!.!.!.] !.^ ] !.] !.!.",
"!.!.^ !.^ ^ !.^ !.!.!.!.!.!.!.!.9 3.i.#X+XZ.%X*Xt.w...| $.+.B ^ !.!.!.!.!.!.!.!.^ !.^ ^ !.^ !.!.",
"!.!.!.^ !.!.^ !.!.!.!.!.!.!.!.!.O Q u.1.v % m p.6.@.X.o.O.#.F !.!.!.!.!.!.!.!.!.!.^ !.!.^ !.!.!.",
"!.!.!.!.!.!.!.!.!.!.!.!.!.!.!.!.1   c 8 ' .X) q  .} { 0 > b f !.!.!.!.!.!.!.!.!.!.!.!.!.!.!.!.!.",
"!.!.!.!.!.!.!.!.!.!.!.!.!.!.!.!.l j ( h  X<XOXD X . o @ E , x !.!.!.!.!.!.!.!.!.!.!.!.!.!.!.!.!.",
"!.!.!.!.!.!.!.!.!.^ !.^ ] !.^ !.L $ =X(.e U u 5 T Y W ).'.3 K !.!.^ !.] ^ !.^ !.!.!.!.!.!.!.!.!.",
"!.!.!.!.!.!.!.!.!.] !.] ] !.] !.!.L 2 ^././ ` -X`.XX~._.r * I.!.!.] !.] ] !.] !.!.!.!.!.!.!.!.!.",
"!.!.!.!.!.!.!.!.!.!.] !.!.] !.!.!.!.6 7 S |.;X}.:XoX# $ ; E.!.!.!.!.] !.!.] !.!.!.!.!.!.!.!.!.!.",
"!.!.!.!.!.!.!.!.!.!.!.!.!.!.!.!.!.!.P.P : = k & * $ ; z Y.!.!.!.!.!.!.!.!.!.!.!.!.!.!.!.!.!.!.!.",
"!.!.!.!.!.!.!.!.!.!.!.!.!.!.!.!.!.!.!.!.!.!.!.R.U.T.E.W.!.!.!.!.!.!.!.!.!.!.!.!.!.!.!.!.!.!.!.!.",
"!.!.] !.] ^ !.] !.!.!.!.!.!.!.!.] !.] ^ !.] !.!.!.!.] !.^ ] !.] !.!.!.!.!.!.!.!.] !.^ ] !.] !.!.",
"!.!.^ !.^ ^ !.^ !.!.!.!.!.!.!.!.^ !.^ ^ !.^ !.!.!.!.^ !.^ ^ !.^ !.!.!.!.!.!.!.!.^ !.^ ^ !.^ !.!.",
"!.!.!.^ !.!.^ !.!.!.!.!.!.!.!.!.!.^ !.!.^ !.!.!.!.!.!.^ !.!.^ !.!.!.!.!.!.!.!.!.!.^ !.!.^ !.!.!.",
"!.!.!.!.!.!.!.!.!.!.!.!.!.!.!.!.!.!.!.!.!.!.!.!.!.!.!.!.!.!.!.!.!.!.!.!.!.!.!.!.!.!.!.!.!.!.!.!.",
"!.!.!.!.!.!.!.!.!.!.!.!.!.!.!.!.!.!.!.!.!.!.!.!.!.!.!.!.!.!.!.!.!.!.!.!.!.!.!.!.!.!.!.!.!.!.!.!.",
"!.!.!.!.!.!.!.!.!.^ !.^ ] !.^ !.!.!.!.!.!.!.!.!.!.!.!.!.!.!.!.!.!.^ !.] ^ !.^ !.!.!.!.!.!.!.!.!.",
"!.!.!.!.!.!.!.!.!.] !.] ] !.] !.!.!.!.!.!.!.!.!.!.!.!.!.!.!.!.!.!.] !.] ] !.] !.!.!.!.!.!.!.!.!.",
"!.!.!.!.!.!.!.!.!.!.] !.!.] !.!.!.!.!.!.!.!.!.!.!.!.!.!.!.!.!.!.!.!.] !.!.] !.!.!.!.!.!.!.!.!.!.",
"!.!.!.!.!.!.!.!.!.!.!.!.!.!.!.!.!.!.!.!.!.!.!.!.!.!.!.!.!.!.!.!.!.!.!.!.!.!.!.!.!.!.!.!.!.!.!.!.",
"!.!.!.!.!.!.!.!.!.!.!.!.!.!.!.!.!.!.!.!.!.!.!.!.!.!.!.!.!.!.!.!.!.!.!.!.!.!.!.!.!.!.!.!.!.!.!.!.",
"!.!.] !.] ^ !.] !.!.!.!.!.!.!.!.] !.] ^ !.] !.!.!.!.] !.^ ] !.] !.!.!.!.!.!.!.!.] !.^ ] !.] !.!.",
"!.!.^ !.^ ^ !.^ !.!.!.!.!.!.!.!.^ !.^ ^ !.^ !.!.!.!.^ !.^ ^ !.^ !.!.!.!.!.!.!.!.^ !.^ ^ !.^ !.!.",
"!.!.!.^ !.!.^ !.!.!.!.!.!.!.!.!.!.^ !.!.^ !.!.!.!.!.!.^ !.!.^ !.!.!.!.!.!.!.!.!.!.^ !.!.^ !.!.!.",
"!.!.!.!.!.!.!.!.!.!.!.!.!.!.!.!.!.!.!.!.!.!.!.!.!.!.!.!.!.!.!.!.!.!.!.!.!.!.!.!.!.!.!.!.!.!.!.!.",
"!.!.!.!.!.!.!.!.!.!.!.!.!.!.!.!.!.!.!.!.!.!.!.!.!.!.!.!.!.!.!.!.!.!.!.!.!.!.!.!.!.!.!.!.!.!.!.!.",
"!.!.!.!.!.!.!.!.!.!.!.!.!.!.!.!.!.!.!.!.!.!.!.!.!.!.!.!.!.!.!.!.!.!.!.!.!.!.!.!.!.!.!.!.!.!.!.!."
};
