/* XPM */
static char *pokeball_right48[] = {
/* columns rows colors chars-per-pixel */
"48 45 190 2 ",
"   c #171515",
".  c #221C1C",
"X  c #2B1E1D",
"o  c #2D201F",
"O  c #261F23",
"+  c #242223",
"@  c #2D2B2D",
"#  c #2C2528",
"$  c #342423",
"%  c #332E2E",
"&  c #382627",
"*  c #2D2F30",
"=  c #312E30",
"-  c #343233",
";  c #3B3434",
":  c #3B3B3C",
">  c #383839",
",  c #2F3031",
"<  c #46231F",
"1  c #422522",
"2  c #4B2622",
"3  c #472B28",
"4  c #572925",
"5  c #4A322E",
"6  c #54322D",
"7  c #5A322B",
"8  c #443533",
"9  c #413D3E",
"0  c #493634",
"q  c #583733",
"w  c #622B25",
"e  c #662E29",
"r  c #6A332D",
"t  c #74352C",
"y  c #6A3B34",
"u  c #683B34",
"i  c #733C33",
"p  c #7A3D34",
"a  c #732F28",
"s  c #7B443C",
"d  c #774139",
"f  c #6B4039",
"g  c #3F3F40",
"h  c #443F42",
"j  c #3F4041",
"k  c #434244",
"l  c #4A4648",
"z  c #4A494B",
"x  c #494747",
"c  c #514B4D",
"v  c #544F52",
"b  c #545254",
"n  c #5C575A",
"m  c #5D5B5C",
"M  c #575556",
"N  c #4E4F50",
"B  c #605C5F",
"V  c #5D5E60",
"C  c #635E60",
"Z  c #5E6060",
"A  c #636263",
"S  c #696668",
"D  c #6C6A6C",
"F  c #686466",
"G  c #736B6E",
"H  c #746D71",
"J  c #757374",
"K  c #7B7579",
"L  c #7D7B7D",
"P  c #797276",
"I  c #84332B",
"U  c #8A362D",
"Y  c #98372E",
"T  c #8B3D31",
"R  c #843E33",
"E  c #993D31",
"W  c #A83C31",
"Q  c #B53E32",
"!  c #83443A",
"~  c #8B453A",
"^  c #8C483D",
"/  c #94493D",
"(  c #9A4538",
")  c #A94535",
"_  c #B74736",
"`  c #C44234",
"'  c #CA4936",
"]  c #D54B37",
"[  c #D94B37",
"{  c #DD4F39",
"}  c #DE543E",
"|  c #D5533E",
" . c #E55139",
".. c #EC533A",
"X. c #EE583F",
"o. c #F0543A",
"O. c #954D41",
"+. c #A85244",
"@. c #B35546",
"#. c #B45949",
"$. c #BA5A49",
"%. c #B05749",
"&. c #A94F41",
"*. c #81797D",
"=. c #C55D4B",
"-. c #CC5F4D",
";. c #D75742",
":. c #EE5B43",
">. c #E75D46",
",. c #F05A42",
"<. c #CD604E",
"1. c #D3614E",
"2. c #DC6652",
"3. c #DB6754",
"4. c #EE634C",
"5. c #F0634B",
"6. c #E56954",
"7. c #ED6C56",
"8. c #EF6E58",
"9. c #E86751",
"0. c #F06D57",
"q. c #F16E58",
"w. c #F26750",
"e. c #EF715C",
"r. c #F0725D",
"t. c #DC7564",
"y. c #F17560",
"u. c #F17A66",
"i. c #F17D69",
"p. c #E07A69",
"a. c #F28A78",
"s. c #F28876",
"d. c #857D82",
"f. c #848383",
"g. c #898386",
"h. c #8B8689",
"j. c #8D8B8C",
"k. c #948D91",
"l. c #949294",
"z. c #999296",
"x. c #9D959A",
"c. c #9E9D9D",
"v. c #A1969C",
"b. c #A2989F",
"n. c #A59DA2",
"m. c #A99EA5",
"M. c #A5A3A4",
"N. c #A9A3A7",
"B. c #AEA4AA",
"V. c #ADABAC",
"C. c #B2A6AD",
"Z. c #B3AAAF",
"A. c #B6AAB2",
"S. c #B9ADB5",
"D. c #B5B3B4",
"F. c #BBB1B7",
"G. c #BDB2B9",
"H. c #BCBABC",
"J. c #F59A8A",
"K. c #F49484",
"L. c #F49F90",
"P. c #F5A294",
"I. c #F6A89A",
"U. c #C1B7BD",
"Y. c #F8B7AB",
"T. c #F7B3A7",
"R. c #F8BDB2",
"E. c #F9C3B9",
"W. c #C5BDC2",
"Q. c #C4C2C3",
"!. c #CCC5C9",
"~. c #CDCBCC",
"^. c #C8C3C7",
"/. c #D0CACE",
"(. c #D5D3D5",
"). c #DAD6D9",
"_. c #DDDADC",
"`. c #D7D7D8",
"'. c #D3CFD1",
"]. c #FACBC3",
"[. c #FBDED9",
"{. c #FBD8D2",
"}. c #EDD7D4",
"|. c #FCE2DD",
" X c #E2E2E2",
".X c #E8E7E8",
"XX c #EDECED",
"oX c #F4F3F4",
"OX c #FCE5E0",
"+X c None",
/* pixels */
"+X+X+X+X+X+X+X+X+X+X+X+X+X+X+X+X+X+X+X+X+X+X+X+X+X+X+X+X+X+X+X+X+X+X+X+X+X+X+X+X+X+X+X+X+X+X+X+X",
"+X+X+X+X+X+X+X+X+X+X+X+X+X+X+X+X+X+X+X+X+X+X+X+X+X+X+X+X. +X+X+X+X+X+X+X+X+X+X+X+X+X+X+X+X+X+X+X",
"+X+X+X+X+X+X+X+X+X+X+X+X+X+X+X+X7 7 q y i p p p i i u 7 & . +X+X+X+X+X+X+X+X+X+X+X+X+X+X+X+X+X+X",
"+X+X+X+X+X+X+X+X+X+X+X+X+X+X7 s / &.$.=.<.1.1.-.<.=.@.&.~ r 5 X   +X+X+X+X+X+X+X+X+X+X+X+X+X+X+X",
"+X+X+X+X+X+X+X+X+X+X+X+Xi ! / %.<.2.6.7.7.q.q.7.q.9.6.2.-.@./ r 2 & +X+X+X+X+X+X+X+X+X+X+X+X+X+X",
"+X+X+X+X+X+X+X+X+X+X3 7 ~ @.3.7.q.q.q.q.q.q.0.0.q.0.q.0.w.q.2.$.! 7 2 +X+X+X+X+X+X+X+X+X+X+X+X+X",
"+X+X+X+X+X+X+X+X+X4 y +.1.6.7.8.q.q.q.q.q.0.0.q.q.q.q.q.q.q.7.7.1.) a 1 +X+X+X+X+X+X+X+X+X+X+X+X",
"+X+X+X+X+X+X+X+X7 s +.t.a.J.a.s.r.8.7.q.0.0.0.0.q.7.7.q.q.7.q.q.7.;.) a 2 +X+X+X+X+X+X+X+X+X+X+X",
"+X+X+X+X+X+X+X7 i $.p.J.Y.E.E.J.s.8.q.q.q.q.q.q.q.0.7.q.0.0.0.0.0.5.{ ) w < +X+X+X+X+X+X+X+X+X+X",
"+X+X+X+X+X+X1 i %.t.P.E.{.|.[.E.K.r.q.q.0.q.7.7.0.q.q.0.0.q.q.7.q.5.,.[ W w X +X+X+X+X+X+X+X+X+X",
"+X+X+X+X+X+X7 ( 3.a.T.{.|.|.|.].I.y.q.7.7.q.7.q.q.0.0.0.0.q.0.q.0.>.,. .' I 2 X +X+X+X+X+X+X+X+X",
"+X+X+X+X+X+X/ =.u.a.R.|.|.|.|.].P.u.q.0.0.q.0.0.q.0.0.0.0.q.7.q.0.4.,... .Q e $ +X+X+X+X+X+X+X+X",
"+X+X+X+X+Xi $.6.r.s.T.[.|.|.{.T.a.r.q.q.0.0.0.0.0.q.7.0.0.0.7.7.0.5..... .` Y 4 +X+X+X+X+X+X+X+X",
"+X+X+X+Xi ^ 1.7.r.i.P.E.].].R.J.s.7.7.q.q.0.0.0.0.0.0.0.0.q.q.q.5.:.o... .] W e 1 +X+X+X+X+X+X+X",
"+X+X+X+X/ @.6.q.q.r.a.P.I.I.K.i.q.0.q.0.0.0.0.0.0.7.0.0.0.0.q.5.5.,.o... .[ _ I 2 . +X+X+X+X+X+X",
"+X+X+X1 ! <.7.q.q.q.r.u.s.y.r.r.7.0.0.q.0.0.0.0.q.0.0.0.0.0.0.7.5.......o.[ ` Y w $ +X+X+X+X+X+X",
"+X+X+X6 / 2.7.0.0.7.7.7.q.0.w.0.q.q.q.q.7.q.q.q.q.0.0.0.0.0.q.4.,....... .[ ` Q a < +X+X+X+X+X+X",
"+X+X+Xd ) 6.0.0.0.7.q.q.7.7.6.6.9.7.7.7.q.q.q.7.0.0.0.q.0.0.0.4.,....... .[ ` Q I 4 +X+X+X+X+X+X",
"+X+X+Xs @.w.w.0.q.q.e.7.1.<.#.#.$.<.3.7.q.q.r.7.0.0.0.7.q.7.4.X.o....... .[ ` Q U 4 +X+X+X+X+X+X",
"+X+X+Xd ) >.w.0.q.7.3.$./ d f f f s +.<.3.7.q.7.q.7.0.0.0.4.:........... .[ ` Q U w +X+X+X+X+X+X",
"+X+X+Xq ~ ' } w.7.3.#.s q ; ; ; : 0 u ^ %.3.8.r.q.0.q.q.4.:.......o.....;.] ` Q I 4 +X+X+X+X+X+X",
"+X+X+X$ 4 ~ _ } >.) f 9 > k b Z M x ; 8 f #.3.7.0.0.7.4.,.o.........o...,.' Q Y w < +X+X+X+X+X+X",
"+X+X  + & 6 d ( ) d 0 > N S L f.j.L Z j 8 s $.7.5.0.4.:...o.o.o.o.o.o.,.] Q U r 3 X +X+X+X+X+X+X",
"+X+X  + @ % % 6 q 0 - j D j.V.D.D.D.l.A : q O.1.4.,.X......... . .[ [ ` W I e 3 # . +X+X+X+X+X+X",
"+X+X+X, > g % % , , : b f.V.Q.^.H.V.D.h.b : f _ | } [ [ ] ' ' _ _ W U t 7 3 & # + + +X+X+X+X+X+X",
"+X+X+Xx m D N : * , 9 Z c.^. X X~.H.D.l.S : 6 p ( E ( E ~ T p i y q 5 8 & # = - = # +X+X+X+X+X+X",
"+X+X+Xb L M.f.A k - j A D. XoXoX XQ.M.l.J 9 % 5 7 7 6 5 5 ; % % = = * % = ; h v k - +X+X+X+X+X+X",
"+X+X+Xj J H.~.V.L j > V D. XoXoX XQ.c.h.D : , % % % % % % % % * = = = 9 l C P K b = +X+X+X+X+X+X",
"+X+X+X+XJ M._._.V.Z > z l.~.XXXX`.D.c.L M > , > > > j j j k z N v M C G *.k.z.*.n +X+X+X+X+X+X+X",
"+X+X+X+XZ L Q. X~.f.z > D M.~.'.H.M.j.A j > k M Z S S D J L f.h.h.h.z.n.B.A.n.F +X+X+X+X+X+X+X+X",
"+X+X+X+X% c l.~.`.V.D > j Z f.l.j.f.D z - x J V.H.H.Q.Q.~.~.'.Q.S.C.C.A.S.B.g.l +X+X+X+X+X+X+X+X",
"+X+X+X+X+X9 G M.~.Q.l.Z : > z b b b j > k J V._..XXXXXXX X X(.^.U.U.S.S.S.k.G k +X+X+X+X+X+X+X+X",
"+X+X+X+X+X+XM *.C.W.D.j.m j : > : : : z D B.).oXoXXXXX.X)./.W.S.A.A.S.A.m.*.M +X+X+X+X+X+X+X+X+X",
"+X+X+X+X+X+X+XH d.C.G.A.z.f.S M v M D l.H._.XXXX.X X)./.W.U.S.A.A.A.S.m.*.D +X+X+X+X+X+X+X+X+X+X",
"+X+X+X+X+X+X+X+XP h.m.G.D.N.c.j.h.k.m.U.'._._.).(.!.W.U.S.S.A.S.A.A.m.d.v +X+X+X+X+X+X+X+X+X+X+X",
"+X+X+X+X+X+X+X+X+XJ h.m.Z.F.G.F.U.U.W.W.!.!.^.W.W.U.A.A.A.A.A.A.C.m.d.n - +X+X+X+X+X+X+X+X+X+X+X",
"+X+X+X+X+X+X+X+X+X+XD K x.Z.S.S.U.A.U.A.S.U.U.S.S.S.A.A.S.S.S.C.b.*.v % +X+X+X+X+X+X+X+X+X+X+X+X",
"+X+X+X+X+X+X+X+X+X+X+XA D d.b.C.C.U.C.U.S.S.A.S.S.S.S.S.A.B.n.d.G C +X+X+X+X+X+X+X+X+X+X+X+X+X+X",
"+X+X+X+X+X+X+X+X+X+X+X+Xh b G h.x.m.C.C.C.C.C.A.C.C.B.m.x.d.P M h +X+X+X+X+X+X+X+X+X+X+X+X+X+X+X",
"+X+X+X+X+X+X+X+X+X+X+X+X+X= ; l B *.h.z.x.v.b.b.x.k.d.*.C h ; = +X+X+X+X+X+X+X+X+X+X+X+X+X+X+X+X",
"+X+X+X+X+X+X+X+X+X+X+X+X+X+X+ - +XC M M n C C C n v c m +X- + +X+X+X+X+X+X+X+X+X+X+X+X+X+X+X+X+X",
"+X+X+X+X+X+X+X+X+X+X+X+X+X+X+X+X+X+X+ + # = = = # O . +X+X+X+X+X+X+X+X+X+X+X+X+X+X+X+X+X+X+X+X+X",
"+X+X+X+X+X+X+X+X+X+X+X+X+X+X+X+X+X+X+X+X+X+X+X+X+X+X+X+X+X+X+X+X+X+X+X+X+X+X+X+X+X+X+X+X+X+X+X+X",
"+X+X+X+X+X+X+X+X+X+X+X+X+X+X+X+X+X+X+X+X+X+X+X+X+X+X+X+X+X+X+X+X+X+X+X+X+X+X+X+X+X+X+X+X+X+X+X+X",
"+X+X+X+X+X+X+X+X+X+X+X+X+X+X+X+X+X+X+X+X+X+X+X+X+X+X+X+X+X+X+X+X+X+X+X+X+X+X+X+X+X+X+X+X+X+X+X+X"
};
