/* XPM */
static char * pokeball48_right_xpm[] = {
"48 48 316 2",
"  	c None",
". 	c #77C7A2",
"+ 	c #6FC59E",
"@ 	c #73C7A1",
"# 	c #73C8A2",
"$ 	c #72C69F",
"% 	c #72C49E",
"& 	c #71C69F",
"* 	c #75C9A3",
"= 	c #77C8A2",
"- 	c #70C59E",
"; 	c #6BC19A",
"> 	c #71C59E",
", 	c #72C49F",
"' 	c #72C7A0",
") 	c #70C69E",
"! 	c #74C7A0",
"~ 	c #78C9A3",
"{ 	c #6BC39B",
"] 	c #6BC099",
"^ 	c #71C39D",
"/ 	c #72C59F",
"( 	c #75C9A2",
"_ 	c #75CAA3",
": 	c #74C9A3",
"< 	c #6FC39D",
"[ 	c #6AC199",
"} 	c #6CC39B",
"| 	c #73C7A0",
"1 	c #7BC9A5",
"2 	c #72C8A0",
"3 	c #77CCA6",
"4 	c #76CBA4",
"5 	c #74CAA2",
"6 	c #72C8A1",
"7 	c #74C9A2",
"8 	c #78CDA6",
"9 	c #7ACEA7",
"0 	c #6BC29A",
"a 	c #6DC49C",
"b 	c #72C9A1",
"c 	c #73C8A1",
"d 	c #77CCA5",
"e 	c #75CBA4",
"f 	c #7ACDA7",
"g 	c #69C299",
"h 	c #6CC49C",
"i 	c #70C7A0",
"j 	c #73C9A2",
"k 	c #79CCA6",
"l 	c #77CBA4",
"m 	c #74CAA3",
"n 	c #78CDA7",
"o 	c #6DC49D",
"p 	c #6CC39C",
"q 	c #6DC59D",
"r 	c #73C9A1",
"s 	c #76CCA5",
"t 	c #7AC8A5",
"u 	c #71C89F",
"v 	c #71C8A1",
"w 	c #71C7A1",
"x 	c #71C7A0",
"y 	c #71C8A0",
"z 	c #79CEA7",
"A 	c #75CBA3",
"B 	c #72C7A1",
"C 	c #74C8A1",
"D 	c #72C9A2",
"E 	c #65C097",
"F 	c #6FC69E",
"G 	c #0C0C0C",
"H 	c #0E1212",
"I 	c #131212",
"J 	c #0C0F10",
"K 	c #68C199",
"L 	c #6AC49B",
"M 	c #67C199",
"N 	c #72C89F",
"O 	c #70C69F",
"P 	c #6DC39C",
"Q 	c #6EC69E",
"R 	c #33211E",
"S 	c #56332D",
"T 	c #7D4439",
"U 	c #9C4E41",
"V 	c #A25043",
"W 	c #AB5446",
"X 	c #87473C",
"Y 	c #5A342E",
"Z 	c #3D2623",
"` 	c #1A1616",
" .	c #060809",
"..	c #6FC79F",
"+.	c #7AC8A4",
"@.	c #6EC69D",
"#.	c #74C8A2",
"$.	c #7CCFA9",
"%.	c #DC6653",
"&.	c #EF6C56",
"*.	c #F06D57",
"=.	c #F36E58",
"-.	c #F0725D",
";.	c #6B3E36",
">.	c #281C1A",
",.	c #76CCA4",
"'.	c #78CCA6",
").	c #6DC59E",
"!.	c #75C6A0",
"~.	c #70C79F",
"{.	c #422E2B",
"].	c #E56954",
"^.	c #B65949",
"/.	c #171718",
"(.	c #6EC49D",
"_.	c #71C79F",
":.	c #67C098",
"<.	c #69C199",
"[.	c #72C79F",
"}.	c #28201F",
"|.	c #9C4A3B",
"1.	c #332220",
"2.	c #7BC8A5",
"3.	c #7ECEA9",
"4.	c #84D0AC",
"5.	c #7CCDA7",
"6.	c #75C8A2",
"7.	c #AA4232",
"8.	c #F3664E",
"9.	c #B34534",
"0.	c #452B27",
"a.	c #7ACAA5",
"b.	c #83D0AC",
"c.	c #7ECDA8",
"d.	c #78CAA4",
"e.	c #78CBA5",
"f.	c #F38977",
"g.	c #F7BCB2",
"h.	c #FACCC4",
"i.	c #F8BEB4",
"j.	c #F28672",
"k.	c #ED533A",
"l.	c #C14835",
"m.	c #76C8A2",
"n.	c #76C9A3",
"o.	c #231C1C",
"p.	c #FAD4CD",
"q.	c #FCE2DD",
"r.	c #FCE5E0",
"s.	c #F9C3BA",
"t.	c #EE6650",
"u.	c #2C2324",
"v.	c #FBDDD8",
"w.	c #E34E38",
"x.	c #7D3A2F",
"y.	c #1C1B1B",
"z.	c #6BC29B",
"A.	c #6EC59E",
"B.	c #79CDA7",
"C.	c #76CAA4",
"D.	c #77CBA5",
"E.	c #F17B67",
"F.	c #EF644D",
"G.	c #F1543A",
"H.	c #C34234",
"I.	c #572C2B",
"J.	c #77CAA4",
"K.	c #76CAA3",
"L.	c #F7B5AA",
"M.	c #E55139",
"N.	c #CE4635",
"O.	c #963730",
"P.	c #F38D7B",
"Q.	c #F17A66",
"R.	c #EE5F48",
"S.	c #B63C32",
"T.	c #6B2F2B",
"U.	c #ED5B42",
"V.	c #DC4C37",
"W.	c #BA3D32",
"X.	c #8E362F",
"Y.	c #D1624F",
"Z.	c #AB3A31",
"`.	c #64BF97",
" +	c #4A2D29",
".+	c #78C8A3",
"++	c #77372E",
"@+	c #85372E",
"#+	c #74C6A1",
"$+	c #69C29A",
"%+	c #BC5A4A",
"&+	c #76433B",
"*+	c #663E37",
"=+	c #68C299",
"-+	c #CC4C36",
";+	c #F0583F",
">+	c #322C2D",
",+	c #2C2C2D",
"'+	c #2D2E30",
")+	c #CE604F",
"!+	c #70C79E",
"~+	c #7ACCA6",
"{+	c #81CFAA",
"]+	c #79CBA5",
"^+	c #2F3131",
"/+	c #45322F",
"(+	c #5C2D29",
"_+	c #77CAA3",
":+	c #80CEA9",
"<+	c #3B2B29",
"[+	c #D74C37",
"}+	c #383737",
"|+	c #818181",
"1+	c #B9B9B9",
"2+	c #CDCCCD",
"3+	c #646464",
"4+	c #4E3531",
"5+	c #973830",
"6+	c #252425",
"7+	c #323232",
"8+	c #8B8A8B",
"9+	c #9B9A9A",
"0+	c #929292",
"a+	c #ECECEC",
"b+	c #2C242A",
"c+	c #0D100F",
"d+	c #5B595B",
"e+	c #7D7D7D",
"f+	c #B3B3B3",
"g+	c #DDDBDC",
"h+	c #D4D3D4",
"i+	c #E6E5E5",
"j+	c #D5513B",
"k+	c #31252C",
"l+	c #4D4C4D",
"m+	c #A5A3A4",
"n+	c #F3F3F3",
"o+	c #C4C3C4",
"p+	c #6C342D",
"q+	c #322F32",
"r+	c #484748",
"s+	c #545354",
"t+	c #454244",
"u+	c #847D82",
"v+	c #3D3B3C",
"w+	c #5C565B",
"x+	c #8C8589",
"y+	c #B1A6AC",
"z+	c #968D92",
"A+	c #F0EEF0",
"B+	c #727172",
"C+	c #716E70",
"D+	c #B9ACB4",
"E+	c #BCB0B6",
"F+	c #645E61",
"G+	c #ACA9AB",
"H+	c #BDB2B8",
"I+	c #B7AAB2",
"J+	c #A1979D",
"K+	c #64C097",
"L+	c #62BE95",
"M+	c #7ACAA4",
"N+	c #B0ADAF",
"O+	c #CCC5CA",
"P+	c #E9E7E9",
"Q+	c #6F6D6E",
"R+	c #615B5F",
"S+	c #73C9A0",
"T+	c #75C7A1",
"U+	c #69C39A",
"V+	c #6BC49C",
"W+	c #C6BCC2",
"X+	c #E0DCDE",
"Y+	c #67C099",
"Z+	c #68C29B",
"`+	c #66C198",
" @	c #6CC29B",
".@	c #CAC1C7",
"+@	c #6CC59D",
"@@	c #73C8A0",
"#@	c #6DC69E",
"$@	c #C0BCBF",
"%@	c #D3CED1",
"&@	c #AFA3AA",
"*@	c #7BCAA5",
"=@	c #7CCCA7",
"-@	c #82CFAA",
";@	c #7BCBA6",
">@	c #C1B6BC",
",@	c #9A8F95",
"'@	c #80CDA9",
")@	c #7DCDA8",
"!@	c #6EC79E",
"~@	c #6AC29A",
"{@	c #201F20",
"]@	c #514C4F",
"^@	c #AA9FA5",
"/@	c #68C29A",
"(@	c #7E767B",
"_@	c #928B8F",
":@	c #82797D",
"<@	c #696366",
"[@	c #6EC59D",
"}@	c #69C19A",
"|@	c #63BE97",
"1@	c #67C299",
"2@	c #64BF96",
"3@	c #75C6A1",
"4@	c #60BF95",
"5@	c #65C099",
"6@	c #76C7A1",
"7@	c #6BC39C",
"8@	c #6EC69F",
"9@	c #6AC19A",
"0@	c #6BC59C",
"a@	c #6EC69C",
". + @ # $ % & * = - ; ; > , , > & # ' ) ) ! ~ $ { ] ^ / , , , = ( & % $ _ : < [ } / , , > ' _ | ",
"1 2 3 4 5 6 7 8 9 + 0 a b # c c 4 d e c c d f 5 g h i j c b 5 k l 7 6 m 8 n o p q 7 c r c s d e ",
"t u v w v 6 6 x y 6 c 6 4 z A 2 6 @ 2 6 6 2 ' B c 6 : n d 2 6 y x v 6 v w w 6 c c s 8 C 6 v w w ",
"t u c 6 6 6 6 6 6 6 6 6 j 5 D 6 6 6 6 6 6 6 6 6 6 6 b D j 6 6 6 6 6 6 6 6 6 6 6 6 D j D 6 6 6 6 ",
"t u 6 6 6 6 6 6 6 6 6 6 c c # 6 6 6 6 6 6 6 6 6 6 6 c # c 6 6 6 6 6 6 6 6 6 6 6 c c 6 6 6 6 6 6 ",
"t u 6 6 6 6 6 6 6 6 6 b h E F c v 6 6 6 G H G I G J H K { c v 6 6 6 6 6 6 6 6 c 6 L M ' 6 6 6 6 ",
"t N # 6 6 6 6 6 6 6 6 # O P Q j b I R S T U V W W V X Y Z `  .b 6 6 6 6 6 6 6 6 c ..h i j # 6 6 ",
"+.@.i 6 6 # #.# 6 6 2 m $.f 6 ` S U %.&.*.=.-.=.=.=.*.&.%.W ;.>.G 6 b # # 6 6 w ,.'.l c ).Q 6 6 ",
"!.g { v # ~.h F 6 6 6 6 c H {.V ].=.*.*.*.*.&.&.*.*.*.&.=.=.&.^.S /.i (.O 6 6 6 6 6 7 _.:.<.i b ",
"+.[.6 b c Q { } 6 6 6 6 }.T %.*.&.*.*.&.*.*.*.*.=.*.*.*.&.&.*.=.].|.1.J a b 6 6 6 6 6 6 # 6 #.@ ",
"2.u 3.4.5.v 6.C 6 6 6 >.7.-.-.-.*.&.&.*.*.*.*.*.&.*.*.*.*.*.*.&.*.8.9.0.H 6 6 6 6 6 6 6 y a.b.c.",
"t u d.e._ v 6 6 6 6 >.V *.f.g.h.i.j.&.*.&.-.*.&.=.&.*.*.*.*.*.*.=.&.k.l.Z G 6 6 6 6 6 6 v m.n.l ",
"t u w ' ' 6 v 2 2 o.U *.f.p.q.q.r.s.-.*.*.*.*.*.&.*.*.*.*.*.*.*.*.t.k.k.9.u.H D # 6 6 6 6 y ' i ",
"t u : l j v 6 3 G T &.=.g.r.q.q.q.v.f.&.*.*.*.*.*.*.*.*.*.*.*.*.*.*.k.k.w.x.y.z.A.c 2 6 6 m B.* ",
"t N C.C.j v 7 D.0.%.=.-.h.q.q.q.q.p.E.*.&.*.-.*.*.*.*.*.*.*.*.*.*.F.G.k.w.H.I.H q ( 7 v 6 A J.K.",
"t u 6 2 6 6 6 /.U -.*.-.s.q.q.q.r.L.&.*.*.*.*.*.*.*.*.&.*.*.*.*.*.F.k.k.M.N.O.u.#.4 n j 6 6 N 2 ",
"t u 6 6 6 6 6 S ].*.*.&.P.s.q.v.g.Q.&.*.*.*.*.*.*.*.*.*.*.*.&.*.&.R.G.k.k.N.S.T.J c C 6 6 6 6 6 ",
"t u 6 6 6 6 I |.*.*.*.*.*.j.P.f.*.&.*.*.*.*.*.*.*.*.*.&.*.*.*.*.t.U.k.k.k.V.W.X.y.c B # 6 6 6 6 ",
"t u 6 6 6 6 }.Y.=.*.*.*.*.*.&.&.&.*.*.*.*.*.*.*.*.*.*.&.*.*.*.*.R.k.k.k.k.w.S.Z.Z M `.& 6 v 6 6 ",
"2.2 j 6 6 6  +].*.*.*.*.*.*.*.&.&.&.&.&.*.*.*.*.*.*.*.-.*.&.*.&.k.k.k.k.k.w.S.S.T.H O i 7 j 6 6 ",
".+o A.6 6 # ++F.*.&.*.*.&.&.=.=.*.*.-.*.*.&.*.*.*.*.*.*.*.*.*.F.k.k.k.k.k.V.W.W.@+I 4 c { h 6 6 ",
"#+$+h 2 C H X k.&.*.&.&.=.].%+X &+*+X %+].*.&.&.*.*.*.&.*.*.F.k.k.k.k.k.k.V.S.S.O.` c _.=+{ x c ",
"2.N D r C _.0.-+;+8.*.*.Y.&+>+,+,+'+'+,+*+)+*.&.*.*.*.*.&.F.;+M.k.k.k.k.k.N.S.W.X./.6 6 j c 7 c ",
"t !+~+{+]+6 }.&+-+;+8.].&+,+^+,+^+^+,+,+,+/+)+&.&.*.*.&.t.;+k.k.k.k.k.k.k.H.S.Z.(+I 6 6 y _+:+5.",
"t u 6.( j I ,+,+<+X [+|.>+,+}+|+1+2+1+3+,+^+4+Y.-.&.&.F.k.k.k.k.k.k.k.k.M.H.5+I.6+I 6 6 6 C c 7 ",
"t u v x v I 6+^+^+,+{.<+,+7+8+9+0+0+1+a+|+,+,+T &.F.;+k.k.k.k.k.k.k.k.M.9.T.<+b+b+I 6 6 6 v 6 y ",
"t N C.d 7 c+}+}+^+7+^+^+>+d+e+f+g+h+0+9+i+d+,+{.j+;+G.k.k.M.V.-+l.7.x.S <+u.b+k+b+I w 6 6 A n A ",
"t N : 7 # 6 l+m+l+,+^+7+,+d+f+n+a+n+a+8+o+0+,+,+p+@+x.++p+Y  +<+>+>+,+'+k+k+b+q+}+H _ 6 6 : 7 j ",
"t u 6 v 6 6 7+h+g+8+r+^+^+s+h+n+n+n+n+9+8+9+,+^+,+,+,+,+,+^+^+^+7+7+7+k+b+b+t+u+t+d n * 6 v v 6 ",
"t u c 6 6 6 I 0+n+n+h+l+6+}+o+n+n+n+n+8+8+|+,+^+7+7+7+7+7+7+^+^+b+,+,+v+w+x+y+z+y.6 # 6 6 6 6 6 ",
"t u 6 6 6 6 6 l+2+A+n+e+6+^+e+a+n+n+g+B+f+l+,+,+,+,+,+^+7+v+r+d+3+C+x+m+D+D+E+F+G x ..c 6 6 6 6 ",
"t u 6 6 6 6 6 y.8+h+a+h+v+6+7+B+1+1+|+0+e+,+,+l+G+f+f+1+o+2+g+i+h+H+D+D+I+D+J+,+x K+L+- b v 6 6 ",
"M+v j 6 6 6 6  ./+N+O+P+m+,+6+7+r+s+Q+s+,+^+>+G+n+n+n+n+n+n+a+O+D+D+I+I+D+D+R+ .7 j _.x r S+6 6 ",
"T+U+V+b 6 c y c I C+D+W+g+9+}+6+,+,+,+,+,+^+0+a+n+n+n+n+A+X+W+D+D+D+I+D+D+u+6+2 m A 4 x Y+Z+w b ",
"T+o + y j V+`+ @v 6+u+D+H+.@f+Q+r+7+7+v+3+f+a+n+n+n+a+g+O+D+I+I+I+I+I+D+J+>+6 6 v v 6 ' +@A.i v ",
"1 @@m J.j i F #@6 6 ,+z+D+I+H+o+$@I+G+.@i+P+P+i+g+%@W+D+I+I+I+I+I+I+D+&@t+ .6 6 6 6 6 c #.#.*@* ",
"t !+=@-@;@v # j 6 6 6 >+x+D+D+I+D+E+>@>@>@>@1+H+D+I+I+I+D+I+I+D+D+D+,@t+G 6 6 6 6 6 6 6 ' J.'@)@",
"t u 6 v 6 6 6 v 6 6 b 6 6+Q+y+D+D+D+I+I+I+I+D+I+I+I+I+I+I+I+I+D+D+u+>+ .v 6 6 6 6 6 6 6 6 v i 6 ",
"t N c c 6 6 6 # r c ' ' c /.l+z+D+D+D+D+D+I+I+D+D+D+D+D+I+D+D+J+d+6+6 6 # c c x c 6 6 6 6 c 7 6 ",
"t N l d : w 7 n z !@g ~@B w  .{@]@u+^@D+E+D+D+D+D+D+D+E+y+x+d+,+G #.w m z z )./@h C x 6 2 4 z e ",
"t u j 6 6 6 6 D j x x y 5 d # 6  .y.7+F+(@x+z+z+z+_@:@<@v+y.G D 6 6 6 b D j x y 2 _ s v 6 D 6 b ",
"+.u 6 6 6 6 6 6 6 6 b 6 e d m 2 6 6 6 6 I I o.6+6+/.I G e 6 6 6 6 6 6 6 6 6 6 6 c e s j 6 6 6 6 ",
"+.u 6 6 6 6 6 6 6 6 6 6 2 6 6 6 6 6 6 6 6 6 6 6 6 6 6 6 v 6 6 6 6 6 6 6 6 6 6 6 6 c 6 6 6 6 6 6 ",
"t u 6 6 6 6 6 6 6 6 6 6 u [@c 6 6 6 6 6 6 6 6 6 6 6 c + i b 6 6 6 6 6 6 6 6 6 6 c O A.c 6 6 6 6 ",
"+.u 6 6 6 6 6 6 6 6 6 c }@|@h #.v 6 6 6 6 6 6 6 6 # A.`+K c 6 6 6 6 6 6 6 6 6 c x 1@2@O D 6 6 6 ",
"2.N # 6 6 6 6 6 6 6 6 7 k J.6 b 6 b 6 6 6 6 6 6 6 b J.l b c B D 6 6 6 6 6 6 6 v _ l ( 6 6 6 b 6 ",
"3@$+/@6 c C ' c 6 6 6 D K.J.i { <.F # 6 6 v b 6 6 6 : _ n.h 4@{ c 6 b ' c 6 6 6 j j m i K+5@i c ",
"6@a F 6 #.q =+7@v 6 6 v 2 @@B q Q x c v /@/@O b 6 6 v v c Q +@8@c r o 9@p b 6 6 v v 6 i 0@a@y 6 "};
