/* XPM */
static char * pokeball48_left_xpm[] = {
"48 48 315 2",
"  	c None",
". 	c #77C7A2",
"+ 	c #6FC59E",
"@ 	c #73C7A1",
"# 	c #73C8A2",
"$ 	c #72C69F",
"% 	c #72C49E",
"& 	c #71C69F",
"* 	c #75C9A3",
"= 	c #77C8A2",
"- 	c #70C59E",
"; 	c #6BC19A",
"> 	c #71C59E",
", 	c #72C49F",
"' 	c #72C7A0",
") 	c #70C69E",
"! 	c #74C7A0",
"~ 	c #78C9A3",
"{ 	c #6BC39B",
"] 	c #6BC099",
"^ 	c #71C39D",
"/ 	c #72C59F",
"( 	c #75C9A2",
"_ 	c #75CAA3",
": 	c #74C9A3",
"< 	c #6FC39D",
"[ 	c #6AC199",
"} 	c #6CC39B",
"| 	c #73C7A0",
"1 	c #7BC9A5",
"2 	c #72C8A0",
"3 	c #77CCA6",
"4 	c #76CBA4",
"5 	c #74CAA2",
"6 	c #72C8A1",
"7 	c #74C9A2",
"8 	c #78CDA6",
"9 	c #7ACEA7",
"0 	c #6BC29A",
"a 	c #6DC49C",
"b 	c #72C9A1",
"c 	c #73C8A1",
"d 	c #77CCA5",
"e 	c #75CBA4",
"f 	c #7ACDA7",
"g 	c #69C299",
"h 	c #6CC49C",
"i 	c #70C7A0",
"j 	c #73C9A2",
"k 	c #79CCA6",
"l 	c #77CBA4",
"m 	c #74CAA3",
"n 	c #78CDA7",
"o 	c #6DC49D",
"p 	c #6CC39C",
"q 	c #6DC59D",
"r 	c #73C9A1",
"s 	c #76CCA5",
"t 	c #7AC8A5",
"u 	c #71C89F",
"v 	c #71C8A1",
"w 	c #71C7A1",
"x 	c #71C7A0",
"y 	c #71C8A0",
"z 	c #79CEA7",
"A 	c #75CBA3",
"B 	c #72C7A1",
"C 	c #74C8A1",
"D 	c #72C9A2",
"E 	c #65C097",
"F 	c #6FC69E",
"G 	c #0E1212",
"H 	c #0C0F10",
"I 	c #0C0C0C",
"J 	c #131212",
"K 	c #6AC49B",
"L 	c #67C199",
"M 	c #72C89F",
"N 	c #70C69F",
"O 	c #6DC39C",
"P 	c #6EC69E",
"Q 	c #060809",
"R 	c #1A1616",
"S 	c #3D2623",
"T 	c #5A342E",
"U 	c #87473C",
"V 	c #A25043",
"W 	c #AB5446",
"X 	c #9C4E41",
"Y 	c #7D4439",
"Z 	c #56332D",
"` 	c #33211E",
" .	c #6FC79F",
"..	c #7AC8A4",
"+.	c #6EC69D",
"@.	c #74C8A2",
"#.	c #7CCFA9",
"$.	c #281C1A",
"%.	c #6B3E36",
"&.	c #DC6653",
"*.	c #EF6C56",
"=.	c #F06D57",
"-.	c #F36E58",
";.	c #F0725D",
">.	c #76CCA4",
",.	c #78CCA6",
"'.	c #6DC59E",
").	c #75C6A0",
"!.	c #70C79F",
"~.	c #171718",
"{.	c #B65949",
"].	c #E56954",
"^.	c #422E2B",
"/.	c #6EC49D",
"(.	c #71C79F",
"_.	c #67C098",
":.	c #69C199",
"<.	c #72C79F",
"[.	c #332220",
"}.	c #9C4A3B",
"|.	c #28201F",
"1.	c #7BC8A5",
"2.	c #7ECEA9",
"3.	c #84D0AC",
"4.	c #7CCDA7",
"5.	c #75C8A2",
"6.	c #452B27",
"7.	c #B34534",
"8.	c #F3664E",
"9.	c #AA4232",
"0.	c #7ACAA5",
"a.	c #83D0AC",
"b.	c #7ECDA8",
"c.	c #78CAA4",
"d.	c #78CBA5",
"e.	c #C14835",
"f.	c #ED533A",
"g.	c #F28672",
"h.	c #F8BEB4",
"i.	c #FACCC4",
"j.	c #F7BCB2",
"k.	c #F38977",
"l.	c #76C8A2",
"m.	c #76C9A3",
"n.	c #2C2324",
"o.	c #EE6650",
"p.	c #F9C3BA",
"q.	c #FCE5E0",
"r.	c #FCE2DD",
"s.	c #FAD4CD",
"t.	c #231C1C",
"u.	c #1C1B1B",
"v.	c #7D3A2F",
"w.	c #E34E38",
"x.	c #FBDDD8",
"y.	c #6EC59E",
"z.	c #79CDA7",
"A.	c #76CAA4",
"B.	c #77CBA5",
"C.	c #572C2B",
"D.	c #C34234",
"E.	c #F1543A",
"F.	c #EF644D",
"G.	c #F17B67",
"H.	c #77CAA4",
"I.	c #76CAA3",
"J.	c #963730",
"K.	c #CE4635",
"L.	c #E55139",
"M.	c #F7B5AA",
"N.	c #6B2F2B",
"O.	c #B63C32",
"P.	c #EE5F48",
"Q.	c #F17A66",
"R.	c #F38D7B",
"S.	c #8E362F",
"T.	c #BA3D32",
"U.	c #DC4C37",
"V.	c #ED5B42",
"W.	c #AB3A31",
"X.	c #D1624F",
"Y.	c #64BF97",
"Z.	c #4A2D29",
"`.	c #78C8A3",
" +	c #85372E",
".+	c #77372E",
"++	c #74C6A1",
"@+	c #69C29A",
"#+	c #BC5A4A",
"$+	c #663E37",
"%+	c #76433B",
"&+	c #68C299",
"*+	c #F0583F",
"=+	c #CE604F",
"-+	c #2C2C2D",
";+	c #2D2E30",
">+	c #322C2D",
",+	c #CC4C36",
"'+	c #70C79E",
")+	c #7ACCA6",
"!+	c #81CFAA",
"~+	c #79CBA5",
"{+	c #5C2D29",
"]+	c #45322F",
"^+	c #2F3131",
"/+	c #77CAA3",
"(+	c #80CEA9",
"_+	c #252425",
":+	c #973830",
"<+	c #4E3531",
"[+	c #646464",
"}+	c #B9B9B9",
"|+	c #CDCCCD",
"1+	c #818181",
"2+	c #383737",
"3+	c #D74C37",
"4+	c #3B2B29",
"5+	c #2C242A",
"6+	c #ECECEC",
"7+	c #929292",
"8+	c #9B9A9A",
"9+	c #8B8A8B",
"0+	c #323232",
"a+	c #31252C",
"b+	c #D5513B",
"c+	c #5B595B",
"d+	c #E6E5E5",
"e+	c #D4D3D4",
"f+	c #DDDBDC",
"g+	c #B3B3B3",
"h+	c #7D7D7D",
"i+	c #0D100F",
"j+	c #322F32",
"k+	c #6C342D",
"l+	c #C4C3C4",
"m+	c #F3F3F3",
"n+	c #4D4C4D",
"o+	c #A5A3A4",
"p+	c #454244",
"q+	c #847D82",
"r+	c #545354",
"s+	c #484748",
"t+	c #968D92",
"u+	c #B1A6AC",
"v+	c #8C8589",
"w+	c #5C565B",
"x+	c #3D3B3C",
"y+	c #645E61",
"z+	c #BCB0B6",
"A+	c #B9ACB4",
"B+	c #716E70",
"C+	c #727172",
"D+	c #F0EEF0",
"E+	c #A1979D",
"F+	c #B7AAB2",
"G+	c #BDB2B8",
"H+	c #ACA9AB",
"I+	c #64C097",
"J+	c #62BE95",
"K+	c #7ACAA4",
"L+	c #615B5F",
"M+	c #CCC5CA",
"N+	c #6F6D6E",
"O+	c #E9E7E9",
"P+	c #B0ADAF",
"Q+	c #73C9A0",
"R+	c #75C7A1",
"S+	c #69C39A",
"T+	c #6BC49C",
"U+	c #C6BCC2",
"V+	c #E0DCDE",
"W+	c #67C099",
"X+	c #68C29B",
"Y+	c #66C198",
"Z+	c #6CC29B",
"`+	c #CAC1C7",
" @	c #6CC59D",
".@	c #73C8A0",
"+@	c #6DC69E",
"@@	c #AFA3AA",
"#@	c #D3CED1",
"$@	c #C0BCBF",
"%@	c #7BCAA5",
"&@	c #7CCCA7",
"*@	c #82CFAA",
"=@	c #7BCBA6",
"-@	c #9A8F95",
";@	c #C1B6BC",
">@	c #80CDA9",
",@	c #7DCDA8",
"'@	c #6EC79E",
")@	c #6AC29A",
"!@	c #AA9FA5",
"~@	c #514C4F",
"{@	c #201F20",
"]@	c #68C29A",
"^@	c #696366",
"/@	c #82797D",
"(@	c #928B8F",
"_@	c #7E767B",
":@	c #6EC59D",
"<@	c #69C19A",
"[@	c #63BE97",
"}@	c #68C199",
"|@	c #67C299",
"1@	c #64BF96",
"2@	c #75C6A1",
"3@	c #60BF95",
"4@	c #65C099",
"5@	c #76C7A1",
"6@	c #6BC39C",
"7@	c #6EC69F",
"8@	c #6AC19A",
"9@	c #6BC59C",
"0@	c #6EC69C",
". + @ # $ % & * = - ; ; > , , > & # ' ) ) ! ~ $ { ] ^ / , , , = ( & % $ _ : < [ } / , , > ' _ | ",
"1 2 3 4 5 6 7 8 9 + 0 a b # c c 4 d e c c d f 5 g h i j c b 5 k l 7 6 m 8 n o p q 7 c r c s d e ",
"t u v w v 6 6 x y 6 c 6 4 z A 2 6 @ 2 6 6 2 ' B c 6 : n d 2 6 y x v 6 v w w 6 c c s 8 C 6 v w w ",
"t u c 6 6 6 6 6 6 6 6 6 j 5 D 6 6 6 6 6 6 6 6 6 6 6 b D j 6 6 6 6 6 6 6 6 6 6 6 6 D j D 6 6 6 6 ",
"t u 6 6 6 6 6 6 6 6 6 6 c c # 6 6 6 6 6 6 6 6 6 6 6 c # c 6 6 6 6 6 6 6 6 6 6 6 c c 6 6 6 6 6 6 ",
"t u 6 6 6 6 6 6 6 6 6 b h E F c v 6 6 6 6 G H I J I G I { c v 6 6 6 6 6 6 6 6 c 6 K L ' 6 6 6 6 ",
"t M # 6 6 6 6 6 6 6 6 # N O P j b Q R S T U V W W V X Y Z ` J b 6 6 6 6 6 6 6 6 c  .h i j # 6 6 ",
"..+.i 6 6 # @.# 6 6 2 m #.f 6 I $.%.W &.*.=.-.-.-.;.-.=.*.&.X Z R 6 b # # 6 6 w >.,.l c '.P 6 6 ",
").g { v # !.h F 6 6 6 6 c j ~.Z {.*.-.-.*.=.=.=.*.*.=.=.=.=.-.].V ^.G /.N 6 6 6 6 6 7 (._.:.i b ",
"..<.6 b c P { } 6 6 6 6 H [.}.].-.=.*.*.=.=.=.-.=.=.=.=.*.=.=.*.=.&.Y |.a b 6 6 6 6 6 6 # 6 @.@ ",
"1.u 2.3.4.v 5.C 6 6 6 G 6.7.8.=.*.=.=.=.=.=.=.*.=.=.=.=.=.*.*.=.;.;.;.9.$.6 6 6 6 6 6 6 y 0.a.b.",
"t u c.d._ v 6 6 6 6 I S e.f.*.-.=.=.=.=.=.=.*.-.*.=.;.*.=.*.g.h.i.j.k.=.V $.6 6 6 6 6 6 v l.m.l ",
"t u w ' ' 6 v 2 2 G n.7.f.f.o.=.=.=.=.=.=.=.=.*.=.=.=.=.=.;.p.q.r.r.s.k.=.X t.D # 6 6 6 6 y ' i ",
"t u : l j v 6 3 ,.u.v.w.f.f.=.=.=.=.=.=.=.=.=.=.=.=.=.=.*.k.x.r.r.r.q.j.-.*.Y I y.c 2 6 6 m z.* ",
"t M A.A.j v 7 B.G C.D.w.f.E.F.=.=.=.=.=.=.=.=.=.=.;.=.*.=.G.s.r.r.r.r.i.;.-.&.6.q ( 7 v 6 A H.I.",
"t u 6 2 6 6 6 2 n.J.K.L.f.f.F.=.=.=.=.=.*.=.=.=.=.=.=.=.=.*.M.q.r.r.r.p.;.=.;.X ~.4 n j 6 6 M 2 ",
"t u 6 6 6 6 6 H N.O.K.f.f.E.P.*.=.*.=.=.=.=.=.=.=.=.=.=.=.*.Q.j.x.r.p.R.*.=.=.].Z c C 6 6 6 6 6 ",
"t u 6 6 6 6 6 u.S.T.U.f.f.f.V.o.=.=.=.=.*.=.=.=.=.=.=.=.=.=.*.=.k.R.g.=.=.=.=.=.}.J B # 6 6 6 6 ",
"t u 6 6 6 6 6 S W.O.w.f.f.f.f.P.=.=.=.=.*.=.=.=.=.=.=.=.=.=.=.*.*.*.=.=.=.=.=.-.X.|.Y.& 6 v 6 6 ",
"1.2 j 6 6 6 G N.O.O.w.f.f.f.f.f.*.=.*.=.;.=.=.=.=.=.=.=.*.*.*.*.*.=.=.=.=.=.=.=.].Z.N i 7 j 6 6 ",
"`.o y.6 6 # J  +T.T.U.f.f.f.f.f.F.=.=.=.=.=.=.=.=.=.*.=.=.;.=.=.-.-.*.*.=.=.*.=.F..+4 c { h 6 6 ",
"++@+h 2 C P R J.O.O.U.f.f.f.f.f.f.F.=.=.*.=.=.=.*.*.=.].#+U $+%+U #+].-.*.*.=.*.f.U G (.&+{ x c ",
"1.M D r C (.~.S.T.O.K.f.f.f.f.f.L.*+F.*.=.=.=.=.*.=.=+$+-+;+;+-+-+>+%+X.=.=.8.*+,+6.6 6 j c 7 c ",
"t '+)+!+~+6 J {+W.O.D.f.f.f.f.f.f.f.*+o.*.=.=.*.*.=+]+-+-+-+^+^+-+^+-+%+].8.*+,+%+|.6 6 y /+(+4.",
"t u 5.( j v J _+C.:+D.L.f.f.f.f.f.f.f.f.F.*.*.;.X.<+^+-+[+}+|+}+1+2+-+>+}.3+U 4+-+-+J 6 6 C c 7 ",
"t u v x v 6 J 5+5+4+N.7.L.f.f.f.f.f.f.f.f.*+F.*.Y -+-+1+6+}+7+7+8+9+0+-+4+^.-+^+^+_+J 6 6 v 6 y ",
"t M A.d 7 v J 5+a+5+n.4+Z v.9.e.,+U.L.f.f.E.*+b+^.-+c+d+8+7+e+f+g+h+c+>+^+^+0+^+2+2+i+6 6 A n A ",
"t M : 7 # 6 G 2+j+5+a+a+;+-+>+>+4+Z.T k+.+v. +k+-+-+7+l+9+6+m+6+m+g+c+-+0+^+-+n+o+n+_ 6 6 : 7 j ",
"t u 6 v 6 6 6 p+q+p+5+5+a+0+0+0+^+^+^+-+-+-+-+-+^+-+8+9+8+m+m+m+m+e+r+^+^+s+9+f+e+0+n * 6 v v 6 ",
"t u c 6 6 6 6 u.t+u+v+w+x+-+-+5+^+^+0+0+0+0+0+0+^+-+1+9+9+m+m+m+m+l+2+_+n+e+m+m+7+J # 6 6 6 6 6 ",
"t u 6 6 6 6 6 I y+z+A+A+o+v+B+[+c+s+x+0+^+-+-+-+-+-+n+g+C+f+m+m+6+h+^+_+h+m+D+|+n+x  .c 6 6 6 6 ",
"t u 6 6 6 6 6 6 -+E+A+F+A+A+G+e+d+f+|+l+}+g+g+H+n+-+-+h+7+1+}+}+C+0+_+x+e+6+e+9+u.I+J+- b v 6 6 ",
"K+v j 6 6 6 6 6 Q L+A+A+F+F+A+A+M+6+m+m+m+m+m+m+H+>+^+-+r+N+r+s+0+_+-+o+O+M+P+]+Q j (.x r Q+6 6 ",
"R+S+T+b 6 c y c 6 _+q+A+A+F+A+A+A+U+V+D+m+m+m+m+6+7+^+-+-+-+-+-+_+2+8+f+U+A+B+J m A 4 x W+X+w b ",
"R+o + y j T+Y+Z+v 6 >+E+A+F+F+F+F+F+A+M+f+6+m+m+m+6+g+[+x+0+0+s+N+g+`+G+A+q+_+6 v v 6 '  @y.i v ",
"1 .@m H.j i F +@6 6 Q p+@@A+F+F+F+F+F+F+A+U+#@f+d+O+O+d+`+H+F+$@l+G+F+A+t+-+6 6 6 6 6 c @.@.%@* ",
"t '+&@*@=@v # j 6 6 6 I p+-@A+A+A+F+F+A+F+F+F+A+G+}+;@;@;@;@z+A+F+A+A+v+>+6 6 6 6 6 6 6 ' H.>@,@",
"t u 6 v 6 6 6 v 6 6 b 6 Q >+q+A+A+F+F+F+F+F+F+F+F+A+F+F+F+F+A+A+A+u+N+_+v 6 6 6 6 6 6 6 6 v i 6 ",
"t M c c 6 6 6 # r c ' ' c 6 _+c+E+A+A+F+A+A+A+A+A+F+F+A+A+A+A+A+t+n+~.6 # c c x c 6 6 6 6 c 7 6 ",
"t M l d : w 7 n z '@g )@B w 6 I -+c+v+u+z+A+A+A+A+A+A+z+A+!@q+~@{@Q w m z z '.]@h C x 6 2 4 z e ",
"t u j 6 6 6 6 D j x x y 5 d # 6 D I u.x+^@/@(@t+t+t+v+_@y+0+u.Q 6 6 6 b D j x y 2 _ s v 6 D 6 b ",
"..u 6 6 6 6 6 6 6 6 b 6 e d m 2 6 6 6 6 I J ~._+_+t.J J e 6 6 6 6 6 6 6 6 6 6 6 c e s j 6 6 6 6 ",
"..u 6 6 6 6 6 6 6 6 6 6 2 6 6 6 6 6 6 6 6 6 6 6 6 6 6 6 v 6 6 6 6 6 6 6 6 6 6 6 6 c 6 6 6 6 6 6 ",
"t u 6 6 6 6 6 6 6 6 6 6 u :@c 6 6 6 6 6 6 6 6 6 6 6 c + i b 6 6 6 6 6 6 6 6 6 6 c N y.c 6 6 6 6 ",
"..u 6 6 6 6 6 6 6 6 6 c <@[@h @.v 6 6 6 6 6 6 6 6 # y.Y+}@c 6 6 6 6 6 6 6 6 6 c x |@1@N D 6 6 6 ",
"1.M # 6 6 6 6 6 6 6 6 7 k H.6 b 6 b 6 6 6 6 6 6 6 b H.l b c B D 6 6 6 6 6 6 6 v _ l ( 6 6 6 b 6 ",
"2@@+]@6 c C ' c 6 6 6 D I.H.i { :.F # 6 6 v b 6 6 6 : _ m.h 3@{ c 6 b ' c 6 6 6 j j m i I+4@i c ",
"5@a F 6 @.q &+6@v 6 6 v 2 .@B q P x c v ]@]@N b 6 6 v v c P  @7@c r o 8@p b 6 6 v v 6 i 9@0@y 6 "};
