/* XPM */
static char *pokeball_left2[] = {
/* columns rows colors chars-per-pixel */
"32 30 162 2 ",
"   c #131212",
".  c #1E1C1C",
"X  c #181413",
"o  c #221C1E",
"O  c #2E1E1B",
"+  c #211F20",
"@  c #242324",
"#  c #2A2526",
"$  c #2C252B",
"%  c #2D2D2E",
"&  c #3B2421",
"*  c #342E2E",
"=  c #3D2D2C",
"-  c #31252A",
";  c #2E2F30",
":  c #322E31",
">  c #2F3031",
",  c #333233",
"<  c #393030",
"1  c #373738",
"2  c #353838",
"3  c #3D3B3C",
"4  c #42221E",
"5  c #442421",
"6  c #422824",
"7  c #4F2F29",
"8  c #452B2A",
"9  c #5F2824",
"0  c #532E28",
"q  c #512622",
"w  c #48312E",
"e  c #46322E",
"r  c #54312C",
"t  c #5B332D",
"y  c #4C3633",
"u  c #413939",
"i  c #463431",
"p  c #602A25",
"a  c #732F2A",
"s  c #63352E",
"d  c #6C372E",
"f  c #73322C",
"g  c #683F38",
"h  c #633C36",
"j  c #703931",
"k  c #7F4137",
"l  c #413F40",
"z  c #444344",
"x  c #4B494B",
"c  c #534F50",
"v  c #535353",
"b  c #595356",
"n  c #5A5759",
"m  c #5B5B5C",
"M  c #655F62",
"N  c #646264",
"B  c #696366",
"V  c #6A6568",
"C  c #696A6A",
"Z  c #70696E",
"A  c #756E72",
"S  c #757374",
"D  c #7C7579",
"F  c #7B797B",
"G  c #8C352F",
"H  c #97362E",
"J  c #863D32",
"K  c #A93C31",
"L  c #B23D32",
"P  c #B83E33",
"I  c #844339",
"U  c #8B463B",
"Y  c #A34839",
"T  c #A94737",
"R  c #B94735",
"E  c #C54234",
"W  c #CA4434",
"Q  c #C84A36",
"!  c #DA4D38",
"~  c #D44D37",
"^  c #D7513B",
"/  c #E24F38",
"(  c #E55139",
")  c #ED533A",
"_  c #F0543A",
"`  c #974E43",
"'  c #A04F41",
"]  c #AC5546",
"[  c #B65545",
"{  c #B95747",
"}  c #BC5B4B",
"|  c #81797E",
" . c #CB5F4D",
".. c #DF5C46",
"X. c #ED5A42",
"o. c #EE5F48",
"O. c #F05C44",
"+. c #CF614F",
"@. c #D3624F",
"#. c #DF6854",
"$. c #D86450",
"%. c #EE614A",
"&. c #F3634B",
"*. c #E46954",
"=. c #EF6C56",
"-. c #EE6E59",
";. c #E26752",
":. c #F06D57",
">. c #F16E58",
",. c #EF705A",
"<. c #F0735D",
"1. c #F17965",
"2. c #F1806C",
"3. c #F38775",
"4. c #857D81",
"5. c #838283",
"6. c #8B8689",
"7. c #958C91",
"8. c #949393",
"9. c #9B9196",
"0. c #9D9C9C",
"q. c #9D9799",
"w. c #A2999E",
"e. c #A49AA0",
"r. c #A3A1A2",
"t. c #ACA0A7",
"y. c #ACABAC",
"u. c #AFA3AA",
"i. c #B1A5AD",
"p. c #B4A8AF",
"a. c #B6AAB2",
"s. c #B9ACB4",
"d. c #BBB0B7",
"f. c #BBB6B9",
"g. c #BDBABC",
"h. c #F49180",
"j. c #F59D8E",
"k. c #F6A89A",
"l. c #C1B8BD",
"z. c #F7B9AE",
"x. c #F8B7AC",
"c. c #F8BEB3",
"v. c #F9C7BE",
"b. c #C7BEC4",
"n. c #C4C3C4",
"m. c #CBCACB",
"M. c #CCC4C9",
"N. c #D1CACE",
"B. c #D5D5D5",
"V. c #DCDBDC",
"C. c #D9D5D7",
"Z. c #FACCC4",
"A. c #FBDED8",
"S. c #FBD8D2",
"D. c #FCE2DD",
"F. c #DFDFE0",
"G. c #E0DFE0",
"H. c #E3E2E3",
"J. c #EDECED",
"K. c #FCE5E0",
"L. c #F4F3F4",
"P. c None",
/* pixels */
"P.P.P.P.P.P.P.P.P.P.P.P.P.P.P.P.P.P.P.P.P.P.P.P.P.P.P.P.P.P.P.P.",
"P.P.P.P.P.P.P.P.P.P.P.P.  6 r t s s t 7 6 P.P.P.P.P.P.P.P.P.P.P.",
"P.P.P.P.P.P.P.P.P.P.X 8 I { @.*.*.*.;.@.{ U 0 P.P.P.P.P.P.P.P.P.",
"P.P.P.P.P.P.P.P.P.6 I @.=.:.:.:.>.:.:.:.:.=.+.I & P.P.P.P.P.P.P.",
"P.P.P.P.P.P.P.P.4 T :.>.:.:.:.:.>.>.:.:.:.:.<.-.[ r P.P.P.P.P.P.",
"P.P.P.P.P.P.P.4 R o.>.:.:.:.:.=.:.:.:.:.<.3.c.x.3.{ 0 P.P.P.P.P.",
"P.P.P.P.P.P.O K ) %.:.:.:.-.:.:.:.:.:.:.1.Z.D.D.Z.2.[ 6 P.P.P.P.",
"P.P.P.P.P.o f ! ) %.:.:.:.:.:.:.:.:.:.:.2.Z.D.D.A.j.:.U P.P.P.P.",
"P.P.P.P.P.5 L / ) X.:.:.:.:.:.:.>.=.>.=.,.k.D.D.S.h.:.$.t P.P.P.",
"P.P.P.P.. a E ( ) X.=.:.:.:.:.:.>.:.:.>.-.<.k.z.k.,.:.:.' P.P.P.",
"P.P.P.P.& H W / ) ) o.:.:.-.:.:.:.=.>.>.>.=.-.<.=.=.:.:. .6 P.P.",
"P.P.P.P.q L W ) ) ) ) :.:.:.:.:.>.>.>.>.>.>.=.-.=.:.:.:.;.j P.P.",
"P.P.P.P.p L W ) ) ) ) o.=.:.:.:.:.>.:.#.} ] ] +.=.:.:.:.%.J P.P.",
"P.P.P.P.p L E / _ ) ) ) o.=.:.:.:.=.{ k < * * y ` *.:.&.^ t P.P.",
"P.P.P.P.& G P ! ) ) ) ) ) &.=.-.-.] i > v C n 2 < ` ..R d # P.P.",
"P.P.P.P.o = a R ( ) _ _ _ _ O.&.@.k > 5.f.y.0.S , w d i % @   P.",
"P.P.P.P.+ $ $ 8 d J T R Q ^ ! ! Y * C g.y.m.m.8.x ; % % z , P.P.",
"P.P.P.P.: x : $ % * * * e r t t i > 5.r.m.L.L.m.v > 2 C r.n P.P.",
"P.P.P.P.: 4.4.b u , > > % % % % % > S 6.m.L.L.m.z 3 0.G.f.2 P.P.",
"P.P.P.P.P.M a.i.q.5.F S N m v v z % v 8.y.H.V.5.% N G.G.S P.P.P.",
"P.P.P.P.P., 7.s.s.s.b.V.H.V.B.B.g.v % m F 5.C , 3 y.G.w.% P.P.P.",
"P.P.P.P.P.P.n u.s.a.a.b.C.J.L.L.L.y.x : 2 , , u 8.m.a.b P.P.P.P.",
"P.P.P.P.P.P.P.V a.a.a.a.d.b.C.H.J.J.n.5.m m F r.l.p.Z P.P.P.P.P.",
"P.P.P.P.P.P.P.@ A u.a.a.a.s.s.l.n.m.m.m.g.s.g.s.p.S P.P.P.P.P.P.",
"P.P.P.P.P.P.P.P.@ B e.s.s.a.s.s.a.a.s.s.s.s.s.e.N P.P.P.P.P.P.P.",
"P.P.P.P.P.P.P.P.P.P.l D e.a.s.s.s.s.s.d.s.w.D l P.P.P.P.P.P.P.P.",
"P.P.P.P.P.P.P.P.P.P.P.# 3 B 4.7.9.9.7.5.V 3 @ P.P.P.P.P.P.P.P.P.",
"P.P.P.P.P.P.P.P.P.P.P.P.P.P.. $ , : # # P.P.P.P.P.P.P.P.P.P.P.P.",
"P.P.P.P.P.P.P.P.P.P.P.P.P.P.P.P.P.P.P.P.P.P.P.P.P.P.P.P.P.P.P.P.",
"P.P.P.P.P.P.P.P.P.P.P.P.P.P.P.P.P.P.P.P.P.P.P.P.P.P.P.P.P.P.P.P."
};
