/* XPM */
static char *pokeball_left2[] = {
/* columns rows colors chars-per-pixel */
"32 30 162 2 ",
"   c #131212",
".  c #1E1C1C",
"X  c #181413",
"o  c #221C1E",
"O  c #2E1E1B",
"+  c #211F20",
"@  c #242324",
"#  c #2A2526",
"$  c #2C252B",
"%  c #2D2D2E",
"&  c #3B2421",
"*  c #342E2E",
"=  c #3D2D2C",
"-  c #31252A",
";  c #2E2F30",
":  c #322E31",
">  c #2F3031",
",  c #333233",
"<  c #393030",
"1  c #373738",
"2  c #353838",
"3  c #3D3B3C",
"4  c #42221E",
"5  c #442421",
"6  c #422824",
"7  c #4F2F29",
"8  c #452B2A",
"9  c #5F2824",
"0  c #532E28",
"q  c #512622",
"w  c #48312E",
"e  c #46322E",
"r  c #54312C",
"t  c #5B332D",
"y  c #4C3633",
"u  c #413939",
"i  c #463431",
"p  c #602A25",
"a  c #732F2A",
"s  c #63352E",
"d  c #6C372E",
"f  c #73322C",
"g  c #683F38",
"h  c #633C36",
"j  c #703931",
"k  c #7F4137",
"l  c #413F40",
"z  c #444344",
"x  c #4B494B",
"c  c #534F50",
"v  c #535353",
"b  c #595356",
"n  c #5A5759",
"m  c #5B5B5C",
"M  c #655F62",
"N  c #646264",
"B  c #696366",
"V  c #6A6568",
"C  c #696A6A",
"Z  c #70696E",
"A  c #756E72",
"S  c #757374",
"D  c #7C7579",
"F  c #7B797B",
"G  c #8C352F",
"H  c #97362E",
"J  c #863D32",
"K  c #A93C31",
"L  c #B23D32",
"P  c #B83E33",
"I  c #844339",
"U  c #8B463B",
"Y  c #A34839",
"T  c #A94737",
"R  c #B94735",
"E  c #C54234",
"W  c #CA4434",
"Q  c #C84A36",
"!  c #DA4D38",
"~  c #D44D37",
"^  c #D7513B",
"/  c #E24F38",
"(  c #E55139",
")  c #ED533A",
"_  c #F0543A",
"`  c #974E43",
"'  c #A04F41",
"]  c #AC5546",
"[  c #B65545",
"{  c #B95747",
"}  c #BC5B4B",
"|  c #81797E",
" . c #CB5F4D",
".. c #DF5C46",
"X. c #ED5A42",
"o. c #EE5F48",
"O. c #F05C44",
"+. c #CF614F",
"@. c #D3624F",
"#. c #DF6854",
"$. c #D86450",
"%. c #EE614A",
"&. c #F3634B",
"*. c #E46954",
"=. c #EF6C56",
"-. c #EE6E59",
";. c #E26752",
":. c #F06D57",
">. c #F16E58",
",. c #EF705A",
"<. c #F0735D",
"1. c #F17965",
"2. c #F1806C",
"3. c #F38775",
"4. c #857D81",
"5. c #838283",
"6. c #8B8689",
"7. c #958C91",
"8. c #949393",
"9. c #9B9196",
"0. c #9D9C9C",
"q. c #9D9799",
"w. c #A2999E",
"e. c #A49AA0",
"r. c #A3A1A2",
"t. c #ACA0A7",
"y. c #ACABAC",
"u. c #AFA3AA",
"i. c #B1A5AD",
"p. c #B4A8AF",
"a. c #B6AAB2",
"s. c #B9ACB4",
"d. c #BBB0B7",
"f. c #BBB6B9",
"g. c #BDBABC",
"h. c #F49180",
"j. c #F59D8E",
"k. c #F6A89A",
"l. c #C1B8BD",
"z. c #F7B9AE",
"x. c #F8B7AC",
"c. c #F8BEB3",
"v. c #F9C7BE",
"b. c #C7BEC4",
"n. c #C4C3C4",
"m. c #CBCACB",
"M. c #CCC4C9",
"N. c #D1CACE",
"B. c #D5D5D5",
"V. c #DCDBDC",
"C. c #D9D5D7",
"Z. c #FACCC4",
"A. c #FBDED8",
"S. c #FBD8D2",
"D. c #FCE2DD",
"F. c #DFDFE0",
"G. c #E0DFE0",
"H. c #E3E2E3",
"J. c #EDECED",
"K. c #FCE5E0",
"L. c #F4F3F4",
"P. c None",
/* pixels */
"P.P.P.P.P.P.P.P.P.P.P.P.P.P.P.P.P.P.P.P.P.P.P.P.P.P.P.P.P.P.P.P.",
"P.P.P.P.P.P.P.P.P.P.P.6 w t s s t r 6   P.P.P.P.P.P.P.P.P.P.P.P.",
"P.P.P.P.P.P.P.P.P.7 U { @.*.=.*.*.@.{ I 8 X P.P.P.P.P.P.P.P.P.P.",
"P.P.P.P.P.P.P.& I +.-.>.:.>.:.:.:.>.:.=.@.I 6 P.P.P.P.P.P.P.P.P.",
"P.P.P.P.P.P.0 ] =.-.=.-.:.:.:.:.:.:.=.>.>.=.T 5 P.P.P.P.P.P.P.P.",
"P.P.P.P.P.0 } 3.x.v.3.,.:.:.:.:.>.=.>.=.=.:.O.R 4 P.P.P.P.P.P.P.",
"P.P.P.P.6 [ 3.v.D.D.v.1.:.:.:.-.:.>.:.>.:.-.%.) K O P.P.P.P.P.P.",
"P.P.P.P.U :.j.A.D.D.Z.2.:.:.:.:.>.=.:.:.:.>.%.) ! f o P.P.P.P.P.",
"P.P.P.t $.:.3.S.D.A.k.<.:.:.:.:.:.:.:.:.-.=.O.) / L 5 P.P.P.P.P.",
"P.P.P.' :.:.1.k.x.k.1.:.:.:.:.:.:.=.:.:.:.&.X.) ( E f . P.P.P.P.",
"P.P.6  .>.:.=.,.<.:.=.:.:.:.:.:.:.:.:.:.=.%.) ) ) W H & P.P.P.P.",
"P.P.j ;.:.:.:.=.:.:.:.:.>.:.:.:.:.:.:.:.:.X.) ) ( W L q P.P.P.P.",
"P.P.k %.=.=.-.=. .] ] } #.-.:.-.:.=.:.=.o.) ) ) ( W L p P.P.P.P.",
"P.P.s ~ &.:.*.` y * * < k } -.-.:.:.:.o.) ) ) ) / E L p P.P.P.P.",
"P.P.# d R X.` , 2 n C v ; i } -.:.:.o._ ) ) ) _ / P G & P.P.P.P.",
"P.  @ % i d i > A 0.y.f.5.> h $.&.O.) _ _ ) ) / R a = o P.P.P.P.",
"P.P., z % ; > x 8.m.m.y.g.N * Y ^ ! ~ Q R T G s 8 - $ + P.P.P.P.",
"P.P.n r.C 2 > b n.L.L.m.r.5., e s t r i < : , % $ : x , P.P.P.P.",
"P.P.2 f.G.0.1 z m.L.L.m.8.S > ; % ; ; ; ; ; : u b 4.4.: P.P.P.P.",
"P.P.P.S G.G.N % 5.V.H.y.8.x > z x v n N S F 5.q.i.a.M P.P.P.P.P.",
"P.P.P.* w.G.y.3 2 C 5.F m % c f.B.B.F.G.F.b.d.s.s.7., P.P.P.P.P.",
"P.P.P.P.b s.m.8.3 > , 2 % x p.L.L.L.J.C.l.a.a.s.u.n P.P.P.P.P.P.",
"P.P.P.P.P.Z p.l.r.F m m 5.n.J.J.H.B.b.d.a.a.a.p.V P.P.P.P.P.P.P.",
"P.P.P.P.P.P.S i.d.f.d.g.M.N.N.b.b.s.a.a.a.s.u.A # P.P.P.P.P.P.P.",
"P.P.P.P.P.P.P.N e.s.s.s.s.s.s.s.s.a.a.s.s.e.B @ P.P.P.P.P.P.P.P.",
"P.P.P.P.P.P.P.P.l D e.a.s.s.s.s.s.s.a.e.D l P.P.P.P.P.P.P.P.P.P.",
"P.P.P.P.P.P.P.P.P.@ 3 V 6.7.9.9.7.4.B 3 @ P.P.P.P.P.P.P.P.P.P.P.",
"P.P.P.P.P.P.P.P.P.P.P.P.@ # , : $ o P.P.P.P.P.P.P.P.P.P.P.P.P.P.",
"P.P.P.P.P.P.P.P.P.P.P.P.P.P.P.P.P.P.P.P.P.P.P.P.P.P.P.P.P.P.P.P.",
"P.P.P.P.P.P.P.P.P.P.P.P.P.P.P.P.P.P.P.P.P.P.P.P.P.P.P.P.P.P.P.P."
};
