/* XPM */
static char *pokeball_left48[] = {
/* columns rows colors chars-per-pixel */
"48 45 191 2 ",
"   c #181717",
".  c #221C1C",
"X  c #2B1E1D",
"o  c #32201F",
"O  c #241F22",
"+  c #242223",
"@  c #2A2425",
"#  c #2D262A",
"$  c #2D2D2E",
"%  c #342323",
"&  c #322D2E",
"*  c #392626",
"=  c #2E2F30",
"-  c #312E31",
";  c #343334",
":  c #3B3435",
">  c #3B3B3C",
",  c #383839",
"<  c #3E302E",
"1  c #43221E",
"2  c #422622",
"3  c #4B2622",
"4  c #472B28",
"5  c #5A2925",
"6  c #4D322E",
"7  c #47302D",
"8  c #53312D",
"9  c #5B322B",
"0  c #453432",
"q  c #403C3C",
"w  c #483735",
"e  c #573733",
"r  c #622B25",
"t  c #6A2D28",
"y  c #6D312B",
"u  c #63362F",
"i  c #77352B",
"p  c #673B34",
"a  c #6C3A33",
"s  c #6A3F38",
"d  c #733B32",
"f  c #793D34",
"g  c #732F28",
"h  c #78423A",
"j  c #3D3F40",
"k  c #443F42",
"l  c #3F4041",
"z  c #444344",
"x  c #4B4A4B",
"c  c #494648",
"v  c #504C4E",
"b  c #534E51",
"n  c #545254",
"m  c #5D575A",
"M  c #5C5B5C",
"N  c #585657",
"B  c #4E4F50",
"V  c #615C5F",
"C  c #5D5F60",
"Z  c #635E61",
"A  c #5F6163",
"S  c #646263",
"D  c #6C6A6C",
"F  c #696668",
"G  c #726B6E",
"H  c #736D71",
"J  c #747374",
"K  c #7C7579",
"L  c #7C7B7C",
"P  c #797276",
"I  c #6F6F70",
"U  c #84342C",
"Y  c #8C352D",
"T  c #98372E",
"R  c #873D32",
"E  c #973C31",
"W  c #AA3C30",
"Q  c #B53E32",
"!  c #BA3F33",
"~  c #8A453A",
"^  c #854339",
"/  c #94493D",
"(  c #9A4437",
")  c #AA4535",
"_  c #B64938",
"`  c #C44234",
"'  c #CA4936",
"]  c #D44A36",
"[  c #DA4B37",
"{  c #DD4E38",
"}  c #D64F39",
"|  c #DD523B",
" . c #D7503C",
".. c #CC503B",
"X. c #E45139",
"o. c #EC533A",
"O. c #F1543B",
"+. c #974E43",
"@. c #A54E40",
"#. c #A95143",
"$. c #AA5446",
"%. c #B25646",
"&. c #BB5949",
"*. c #B55748",
"=. c #817A7E",
"-. c #C55C4B",
";. c #CB5F4C",
":. c #D65B46",
">. c #ED5B44",
",. c #EA5E47",
"<. c #F05C44",
"1. c #CD604E",
"2. c #D3614E",
"3. c #DC6552",
"4. c #D76553",
"5. c #DD725F",
"6. c #EE634D",
"7. c #F2654E",
"8. c #E56954",
"9. c #ED6C56",
"0. c #EF6E58",
"q. c #E86751",
"w. c #F06D57",
"e. c #F16E58",
"r. c #F16750",
"t. c #EF715B",
"y. c #F1725D",
"u. c #DF7665",
"i. c #F17661",
"p. c #F17A66",
"a. c #F17D69",
"s. c #EF7561",
"d. c #F28B79",
"f. c #F2826F",
"g. c #857E82",
"h. c #838283",
"j. c #8A8387",
"k. c #8B8689",
"l. c #8D8A8C",
"z. c #948E92",
"x. c #949293",
"c. c #999497",
"v. c #9D959A",
"b. c #9B989B",
"n. c #908C8D",
"m. c #A1969C",
"M. c #A2989F",
"N. c #A39EA1",
"B. c #A99EA5",
"V. c #A4A3A4",
"C. c #A9A3A7",
"Z. c #AEA3AA",
"A. c #ADACAD",
"S. c #B1A6AD",
"D. c #B3A9AF",
"F. c #B6AAB2",
"G. c #B9ADB5",
"H. c #B6B4B5",
"J. c #BBB1B7",
"K. c #BDB3B9",
"L. c #BCBABB",
"P. c #F49584",
"I. c #F59C8D",
"U. c #F79887",
"Y. c #F5A597",
"T. c #C0B6BC",
"R. c #F8B7AB",
"E. c #F8B8AD",
"W. c #F8BDB3",
"Q. c #F9C5BC",
"!. c #C5BEC2",
"~. c #C4C2C3",
"^. c #CBC5C9",
"/. c #CDCBCD",
"(. c #C8C5C7",
"). c #D1CACE",
"_. c #D1CFD1",
"`. c #DBDADB",
"'. c #D7D5D7",
"]. c #FACDC5",
"[. c #FBDAD4",
"{. c #FBDDD7",
"}. c #EDD9D6",
"|. c #FCE2DD",
" X c #E1DFE0",
".X c #E3E2E3",
"XX c #E8E7E8",
"oX c #ECEBEC",
"OX c #FCE4E0",
"+X c #F4F3F4",
"@X c None",
/* pixels */
"@X@X@X@X@X@X@X@X@X@X@X@X@X@X@X@X@X@X@X@X@X@X@X@X@X@X@X@X@X@X@X@X@X@X@X@X@X@X@X@X@X@X@X@X@X@X@X@X",
"@X@X@X@X@X@X@X@X@X@X@X@X@X@X@X@X@X@X@X. @X@X@X@X@X@X@X@X@X@X@X@X@X@X@X@X@X@X@X@X@X@X@X@X@X@X@X@X",
"@X@X@X@X@X@X@X@X@X@X@X@X@X@X@X@X@X@X. * 9 u a d f f f d a u 9 9 @X@X@X@X@X@X@X@X@X@X@X@X@X@X@X@X",
"@X@X@X@X@X@X@X@X@X@X@X@X@X@X@X  X 6 y ~ #.&.-.;.1.1.1.;.-.*.#.+.^ 9 @X@X@X@X@X@X@X@X@X@X@X@X@X@X",
"@X@X@X@X@X@X@X@X@X@X@X@X@X@X* 3 u / *.;.3.8.9.9.e.w.9.9.9.8.3.;.%./ ^ d @X@X@X@X@X@X@X@X@X@X@X@X",
"@X@X@X@X@X@X@X@X@X@X@X@X@X3 u ~ &.3.9.w.w.w.w.w.e.e.e.w.9.w.9.w.9.4.*.~ 9 4 @X@X@X@X@X@X@X@X@X@X",
"@X@X@X@X@X@X@X@X@X@X@X@X1 y ) ;.9.9.e.w.w.w.w.w.e.e.e.w.w.w.w.w.e.t.8.2.#.f 8 @X@X@X@X@X@X@X@X@X",
"@X@X@X@X@X@X@X@X@X@X@X1 y ) :.w.e.e.w.w.w.w.w.w.w.e.w.w.w.w.e.y.a.P.U.d.u.%.h 9 @X@X@X@X@X@X@X@X",
"@X@X@X@X@X@X@X@X@X@X1 t ) :.<.e.e.9.w.w.e.w.w.9.w.w.w.w.w.w.y.f.I.W.Q.E.I.u.%.d 9 @X@X@X@X@X@X@X",
"@X@X@X@X@X@X@X@X@XX r W [ o.6.r.e.w.w.0.0.w.w.w.9.w.w.w.9.y.i.I.Q.[.[.[.Q.I.u.%.d 2 @X@X@X@X@X@X",
"@X@X@X@X@X@X@X@XX 3 U ' o.>.6.w.e.w.e.e.0.w.w.e.e.w.w.w.w.y.p.Y.].|.OX|.[.R.d.3./ u @X@X@X@X@X@X",
"@X@X@X@X@X@X@X. % g ) { o.>.6.w.e.w.9.w.w.w.w.w.w.w.w.e.w.w.p.Y.].|.OX|.|.W.P.y.-./ @X@X@X@X@X@X",
"@X@X@X@X@X@X@Xo 3 T ' X.o.O.>.w.e.w.9.w.w.e.w.w.w.w.w.w.w.9.y.d.E.[.OX|.[.R.d.y.q.&.a @X@X@X@X@X",
"@X@X@X@X@X@X@X2 g W ] X.o.o.>.9.0.w.w.w.w.e.9.e.w.w.w.w.w.w.9.a.P.W.].].Q.Y.a.y.9.2.~ @X@X@X@X@X",
"@X@X@X@X@X@X. 3 U ! ] X.o.o.>.r.w.w.e.w.e.9.w.w.w.w.w.w.w.e.y.9.p.P.Y.Y.Y.f.0.w.w.8.*./ @X@X@X@X",
"@X@X@X@X@X@X% r T ` ] X.o.o.o.<.9.w.w.0.e.w.w.w.w.w.w.w.y.e.e.w.t.s.f.a.i.y.w.9.w.9.1.^ 2 @X@X@X",
"@X@X@X@X@X@X2 g Q ` [ X.o.O.o.o.6.w.w.w.0.w.w.w.e.w.w.e.e.e.y.e.t.9.0.t.9.9.9.e.w.9.3./ 8 @X@X@X",
"@X@X@X@X@X@X3 U Q ` [ O.o.o.o.o.>.w.w.w.w.w.w.w.e.e.e.e.e.w.9.9.8.8.8.9.9.9.w.w.e.9.8._ d @X@X@X",
"@X@X@X@X@X@X5 U Q ` [ O.o.o.O.o.o.6.w.w.w.w.w.w.w.e.e.w.0.3.;.&.$.*.1.4.9.e.e.w.t.9.q._ ^ @X@X@X",
"@X@X@X@X@X@Xr U ! ` [ X.o.O.o.o.o.>.6.9.w.w.w.w.w.e.9.3.-.$.h h h h h / &.3.9.e.w.r.6.) d @X@X@X",
"@X@X@X@X@X@X5 U Q ` ] [ o.o.o.o.o.o.>.r.9.w.9.w.0.8.2.$.~ s 0 , , : : e h $.3.9.7.,...^ 5 @X@X@X",
"@X@X@X@X@X@X2 t T Q ' X.o.o.o.o.o.O.o.<.r.w.9.9.0.4.$.h 0 : c N C N z : q h _ 3. ._ ^ 8 & @X@X@X",
"@X@X@X@X@X@XX 4 y Y Q ] o.o.O.O.O.O.O.o.<.r.r.9.8.&.~ 0 l C h.l.l.L F B > w h ( ( h 6 % +   @X@X",
"@X@X@X@X@X@X. @ 7 5 Y ) ' [ { X.o.X.o.o.o.O.<.6.3./ p > A x.F.H.A.V.n.I z < 7 9 8 < = $ +   @X@X",
"@X@X@X@X@X@XO @ # * 4 9 f R ( _ _ ` ' } { { | .._ h q N l.H.A.L.(.~.A.h.B , = ; & ; > , $ @X@X@X",
"@X@X@X@X@X@X@ - ; & # * 7 e 9 a i h ^ ^ ( ( ( ( h 6 > D x.H.L./..X.X/.V.C > = = , B D M c @X@X@X",
"@X@X@X@X@X@X- z v q : * - - & & & & < 7 8 8 8 8 7 & q J n.V.~..X+X+X.XH.S q ; l A h.V.L n @X@X@X",
"@X@X@X@X@X@X- n =.P V v > ; - - & & & & & % = = & $ > D h.x.~..X+X+XXXH.C , c L A./.L.K > @X@X@X",
"@X@X@X@X@X@X@XV =.c.z.=.G Z m n B B z z j > > > ; = ; C L c.H.'.oXoX_.x.c > S D.`.`.C.J @X@X@X@X",
"@X@X@X@X@X@X@Xn F M.F.S.N.x.l.j.h.h.L J I D D A M z , z D n.b.~._./.V.F > c h./..X~.L @X@X@X@X@X",
"@X@X@X@X@X@X@X; c j.Z.G.F.D.S.H.~./././.~.~.~.L.A.L c , x D L n.x.h.C > , D A.'./.c.x @X@X@X@X@X",
"@X@X@X@X@X@X@X@Xq G z.F.G.G.H.T.(.'. XXXoXXXXXXX XA.J l , z n N n x > , M x.~.^.N.H > @X@X@X@X@X",
"@X@X@X@X@X@X@X@X@Xm =.B.D.G.F.F.T.!.!.`.XXoX+X+X+X'.Z.H x j j j j j j m n.H.!.S.=.N @X@X@X@X@X@X",
"@X@X@X@X@X@X@X@X@X@XD =.B.G.F.F.G.G.!.!.!.`.XXOXoXoX`.J.x.I N B n F =.c.G.K.Z.g.H @X@X@X@X@X@X@X",
"@X@X@X@X@X@X@X@X@X@X> b g.B.F.F.F.F.G.G.!.!.!.!.'. X`.).L.V.z.k.l.b.C.F.K.B.l.P @X@X@X@X@X@X@X@X",
"@X@X@X@X@X@X@X@X@X@X@X- V g.B.S.F.F.F.F.G.G.!.!.!.!.^.!.^.!.!.J.G.L.J.D.B.l.H @X@X@X@X@X@X@X@X@X",
"@X@X@X@X@X@X@X@X@X@X@X@X& v K m.S.G.G.G.F.F.G.G.G.H.G.J.J.J.J.G.G.G.D.m.K G @X@X@X@X@X@X@X@X@X@X",
"@X@X@X@X@X@X@X@X@X@X@X@X@X@XS G g.N.Z.F.G.T.G.G.F.F.G.G.G.J.G.F.B.N.g.G Z @X@X@X@X@X@X@X@X@X@X@X",
"@X@X@X@X@X@X@X@X@X@X@X@X@X@X@Xk n H g.v.B.Z.S.S.F.S.D.S.D.G.Z.m.g.H n k @X@X@X@X@X@X@X@X@X@X@X@X",
"@X@X@X@X@X@X@X@X@X@X@X@X@X@X@X@X: 0 c V =.g.z.v.M.M.m.v.z.g.K Z x , - @X@X@X@X@X@X@X@X@X@X@X@X@X",
"@X@X@X@X@X@X@X@X@X@X@X@X@X@X@X@X@X@ ; @Xm v n V Z Z Z m n n V @X; + @X@X@X@X@X@X@X@X@X@X@X@X@X@X",
"@X@X@X@X@X@X@X@X@X@X@X@X@X@X@X@X@X@X@X@X@X  O $ - - & @ @ @ @X@X@X@X@X@X@X@X@X@X@X@X@X@X@X@X@X@X",
"@X@X@X@X@X@X@X@X@X@X@X@X@X@X@X@X@X@X@X@X@X@X@X@X@X@X@X@X@X@X@X@X@X@X@X@X@X@X@X@X@X@X@X@X@X@X@X@X",
"@X@X@X@X@X@X@X@X@X@X@X@X@X@X@X@X@X@X@X@X@X@X@X@X@X@X@X@X@X@X@X@X@X@X@X@X@X@X@X@X@X@X@X@X@X@X@X@X",
"@X@X@X@X@X@X@X@X@X@X@X@X@X@X@X@X@X@X@X@X@X@X@X@X@X@X@X@X@X@X@X@X@X@X@X@X@X@X@X@X@X@X@X@X@X@X@X@X"
};
