/* XPM */
static char *Slowbro[] = {
/* columns rows colors chars-per-pixel */
"61 55 246 2 ",
"   c #0A0D02",
".  c #060E00",
"X  c #1C0C00",
"o  c #180A05",
"O  c #0C1400",
"+  c #0D1A00",
"@  c #091405",
"#  c #121401",
"$  c #131A01",
"%  c #161207",
"&  c #191213",
"*  c #250302",
"=  c #2B0400",
"-  c #230B02",
";  c #2B0C00",
":  c #260909",
">  c #330300",
",  c #3C0200",
"<  c #330A01",
"1  c #3A0A01",
"2  c #32060C",
"3  c #241202",
"4  c #321300",
"5  c #420100",
"6  c #4A0100",
"7  c #440B00",
"8  c #510000",
"9  c #7B3B38",
"0  c #6E3934",
"q  c #7C5617",
"w  c #4D5A26",
"e  c #525D2C",
"r  c #525F21",
"t  c #515C32",
"y  c #555D3D",
"u  c #565437",
"i  c #4D5538",
"p  c #774429",
"a  c #6B473A",
"s  c #7A4539",
"d  c #6E512E",
"f  c #546224",
"g  c #55622C",
"h  c #5A6729",
"j  c #566233",
"k  c #596439",
"l  c #70642E",
"z  c #68611D",
"x  c #723D42",
"c  c #555A44",
"v  c #51564D",
"b  c #784745",
"n  c #6B4943",
"m  c #556143",
"M  c #963718",
"N  c #8B3716",
"B  c #8A3925",
"V  c #963827",
"C  c #863B37",
"Z  c #97332E",
"A  c #A3362B",
"S  c #8A591B",
"D  c #975819",
"F  c #8D481C",
"G  c #86620A",
"H  c #89681A",
"J  c #84422A",
"K  c #864338",
"L  c #954835",
"P  c #8F592D",
"I  c #B15E36",
"U  c #866225",
"Y  c #B8643B",
"T  c #A05715",
"R  c #D8552A",
"E  c #D55634",
"W  c #C85B33",
"Q  c #E25224",
"!  c #C16139",
"~  c #903D40",
"^  c #BC7666",
"/  c #B67A73",
"(  c #BA7776",
")  c #B1706E",
"_  c #B56646",
"`  c #CB5442",
"'  c #CB6D5A",
"]  c #D8695A",
"[  c #C77758",
"{  c #CB684E",
"}  c #E26A5C",
"|  c #E1685A",
" . c #F27D59",
".. c #CA6C66",
"X. c #DC6564",
"o. c #D36C64",
"O. c #DD6B64",
"+. c #DB6B6B",
"@. c #D46A6A",
"#. c #C3736C",
"$. c #CB746A",
"%. c #C77665",
"&. c #D67368",
"*. c #D56D74",
"=. c #C77675",
"-. c #D47173",
";. c #CA6D74",
":. c #E46666",
">. c #E36B65",
",. c #E4666C",
"<. c #E1696B",
"1. c #E86E62",
"2. c #E57569",
"3. c #F27C70",
"4. c #929E59",
"5. c #97A45D",
"6. c #949C6A",
"7. c #969C78",
"8. c #8E9D6C",
"9. c #AA8D75",
"0. c #95A464",
"q. c #99A563",
"w. c #95A26C",
"e. c #9AA56B",
"r. c #9BA96B",
"t. c #96AA67",
"y. c #96A273",
"u. c #99A573",
"i. c #9CA973",
"p. c #9AA37B",
"a. c #9BA67B",
"s. c #9CB466",
"d. c #A3AA67",
"f. c #A0AC78",
"g. c #F28A5E",
"h. c #ED925D",
"j. c #E68557",
"k. c #DAB758",
"l. c #D2B25C",
"z. c #D88C75",
"x. c #CB9A7B",
"c. c #D99379",
"v. c #D8966F",
"b. c #ED8D6A",
"n. c #E98967",
"m. c #F48564",
"M. c #FB8566",
"N. c #F58A64",
"B. c #FA8A64",
"V. c #F5856B",
"C. c #FC856C",
"Z. c #F48B6C",
"A. c #FA896C",
"S. c #EB9268",
"D. c #F69264",
"F. c #ED8C74",
"G. c #E58D7C",
"H. c #ED8B7B",
"J. c #EA8774",
"K. c #FC8574",
"L. c #F38B74",
"P. c #FC8B74",
"I. c #F68878",
"U. c #E89477",
"Y. c #F59476",
"T. c #D7B669",
"R. c #D6AD77",
"E. c #CCB876",
"W. c #D7B579",
"Q. c #D4AE6A",
"!. c #E1B574",
"~. c #F7AD70",
"^. c #F2CC75",
"/. c #FCD27B",
"(. c #F8D979",
"). c #EDD276",
"_. c #B47D82",
"`. c #C07A84",
"'. c #989C83",
"]. c #A69285",
"[. c #9CA584",
"{. c #A0A690",
"}. c #CD9689",
"|. c #DB9383",
" X c #D89688",
".X c #DA8E8B",
"XX c #EA8C84",
"oX c #E68C88",
"OX c #F68B83",
"+X c #F19386",
"@X c #D2B48B",
"#X c #FBB68A",
"$X c #FFAC94",
"%X c #FEAA9A",
"&X c #FEB393",
"*X c #FBB898",
"=X c #F0AE8A",
"-X c #FEB3A1",
";X c #FFADA1",
":X c #B9CB8C",
">X c #BDCC95",
",X c #BECC9B",
"<X c #B8C795",
"1X c #BAD594",
"2X c #BDCAA4",
"3X c #C2CE8E",
"4X c #C3D18E",
"5X c #C1CE95",
"6X c #C1CD9B",
"7X c #C8C79B",
"8X c #C4D29B",
"9X c #C7D498",
"0X c #FECB84",
"qX c #F0CF8D",
"wX c #EBD68A",
"eX c #FCD483",
"rX c #F4DB83",
"tX c #F8D888",
"yX c #FDCE96",
"uX c #EDD995",
"iX c #F8D497",
"pX c #ECCD99",
"aX c #C4CAA6",
"sX c #C7D2A6",
"dX c #CECEAB",
"fX c #EED8A4",
"gX c #DAEEB6",
"hX c #E3EDB8",
"jX c #E4F2BB",
"kX c #E7F2B8",
"lX c #F4E08B",
"zX c #E2EBC8",
"xX c #E7F3C5",
"cX c #FFEBDC",
"vX c #FFEAD7",
"bX c #FCF8DB",
"nX c #F3EDD0",
"mX c #FFECE6",
"MX c #FEF4E3",
"NX c #FFF3EC",
"BX c #FAFAE7",
"VX c #FEF3F3",
"CX c #FDF9F6",
"ZX c #FFEDF6",
"AX c #DDF0C3",
"SX c None",
/* pixels */
"SXSXSXSXSXSXSXSXSXSXSXSXSXSXSXSXSXSXSXSXSXSXSXSXSXSXSXSXSXSXSXSXSXSXSXSXSXSXSXSXSXSXSXSXSXSXSXSXSXSXSXSXSXSXSXSXSXSXSXSXSX",
"SXSXSXSXSXSXSXSXSXSXSXSXSXSXSXSXSXSXSXSXSXSXSXSXSXSXSXSXSXSXSXSXSXSXSXSXSXSXSXSXSXSXSXSXSXSXSXSXSXSXSXSXSXSXSXSXSXSXSXSXSX",
"SXSXSXSXSXSXSXSX#.^ s SXSXSXSXSXSXSXSXSXSXSXSXSXSXSXSXSXSXSXSXSXSXSXSXSXSXSXSXSXSXSXSXSXSXSXSXSXSXSXSXSXSXSXSXSXSXSXSXSXSX",
"SXSXSXSXSXSXSX-.%X$X|.> SXSXSXSXSXSXSXSXSXSXSXO.*.C SXSXSXSXSXSXSXSXSXSXSXSXSXSXSXSXSXSXSXSXSXSXSXSXSXSXSXSXSXSXSXSXSXSXSX",
"SXSXSXSXSXSXs -X$Xb.G.G.C K 9 K K p SXSXSXB $.&X-XoX> SXSXSXSXSXSXSXSXSXSXSXSXSXSXSXSXSXSXSXSXSXSXSXSXSXSXSXSXSXSXSXSXSXSX",
"SXSXSXSXSXSX> |.U.Y.M B -X*X$X-XH.H.p , V H.$X$XH.$.( b SXSXSXSXSXSXSXSXSXSXSXSXSXSXSXSXSXSXSXSXSXSXd.e.SXSXSXSXSXSXSXSXSX",
"SXSXSXSXSXSX>  XC J *X*X*X&X#X*X&XY.F.J.V L.H.V Z ../ ; SXSXSXSXSXSXSXSXSXSXSXSXSXSXSXSXSXSXSXSXSXu.hXkXc SXSXSXSXSXSXSXSX",
"SXSXSXSXSXSXSXa cX*X*X#X#X#X*X*Xc.|.U.J.Z.L.V XXXXC / = SXSXSXSXSXSXSXSXSXSXSXSXSXSXSXSXSXSXSXq.q.kXkX6X$ SXSXSXSXSXSXSXSX",
"SXSXSXSXSXSX& NXoX%X$X&X#XU.x.vXbXbXvX}.Y.F.6 .X+X;./ o SXSXSXSXSXSXSXSXSXSXSXSXSXSXSXSXSXSXe 5X:X9X4Xe.+ SXSXSXSXSXSXSXSX",
"SXSXSXSXSX% BXvXc.F.b.n.Y.z.vXcXBXBXNXmXU.J., 9 =.( * SXSXSXSXSXSXSXSXSXSXSXSXSXSXSXSXSXSX# 6X5X4X4X3Xd.u.c SXSXSXSXSXSXSX",
"SXSXSXSXSXq H S D D S.S.v.x.MXVXCX& CXNXz.F.G.7 , = SXSXSXSXSXSXSXSXSXSXSXc i.y.SXSXSX  O O $ g e.9X6.7.[.$ SXSXSXSXSXSXSX",
"SXSXSXS H (.eX/.(./.T.D 7 x.MXCXCXVXNXmXz.F.Y.z.}.> SXSXSXSXSXSXSXSXSXSXSXt 6XaX6Xt t xXzXzXxX9Xi.g # p.{.  SXSXSXSXSXSXSX",
"SXSXH rXwXtXeX/.(.(.(.eXeXU X BXVXNXNXcXc.Z.b.F.OX) x SXSXSXSXSXSXSXSXSXSXSX$ [.j u.zXzXzXhXkX4X5X5X6X#   SXSXSXSXSXSXSXSX",
"SXl lXlXiXq qXtXG ).(.(./.tXfXX BXbXcX}.U.Z.N.A.3.oX, SXSXSXSXSXSXSXSXSXSXSXSX. aXsX@ $ zXjX4X9X4X5X6X[.  SXy.g t SXSXSXSX",
"SX- lX).uXfXfXuXrXlXlXeXtX).wXuXl 3 }.c.j.B.C.C.K.XX#.x SXSXc p.SXSXSXSXSXSX@ O m + sXdXO t k 5X9X4X9Xr.8.$ sXaXp.# SXSXSX",
"SX- E.E.3 4 ; - 4 E.iXtXlXrXrX).T.W.4 v.N.B.M.C.A.H.$., SXSX# 6Xe.SXSXSXm t hXhXzXi a.a.$ 2X,Xw + 4X6.0.r.u.p.dX# SXSXSXSX",
"SXSX# X s K K 9 s * ; ; @XqX^.l.T.Q.W.1 S.B.g.M.B.F.$.6 SXSXd aX1Xj t j xXgXjXgXw a.e.i.+ ,X>X>X,XO y.w.i.i.$ @ SXSXSXSXSX",
"SXSXSXCXa SXSXC b > b s < U Q.T.!.U E.T.P n.B.B.Z.F.$.$.~ SXSX[.2X+ 1XAXjXjXjXjX8Xw.i.w.w.h >X>X,X2X+ u.i.a.i SXSXSXSXSXSX",
"SXSXSXSXSXSXSXx , C Z Z B nX< > * 3XT.T.= z.b.N.b.F.O.-.> SXSXm + 2X2Xy.k g xXjXjX8Xi.w.8X>X8X,X2XsX[.+ w.y.O SXSXSXSXSXSX",
"SXSXSXSXSXSX9 6 C Z ` E { B K a ; E.T.T.> |.b.N.b.b.} X.^ - SX+ {.2X2Xk g 8.1X,X8X8X8X8X8X>X9X<Xu.k w a.+ 7.@ SXSXSXSXSXSX",
"SXSXSXSXSXSXK , W R E E R ! B p = W.E.U [ H.Z.N.Z.A.K.} >.%.- [.[.m @ + + j e e k 9X8X5X8X,X1X,X8Xj w u.j + SXSXSXSXSXSXSX",
"SXSXSXSXSXC 7 _ E R R Q Q R I P W.R.R., H.V.Z.V.V.M.3.P.K.&.1 X % 2XAXAXjXjXjX>X>X+ + h ,X5X,X,Xi.0.w.w.a.y SXSXSXSXSXSXSX",
"SXSXSXSXSXs 5 Y W R Q Q Q R _ 7 R.W.5 ..J.K.A.V.B.Z.Z.P.V.F.=.< @XxXgXgXhXhXjXjX9X8X8X5X+ g a.a.w.t.f r a.y @ % O y y SXSX",
"SXSXSXSXSX> =XI W E E R R W , W.E.> %.I.K.P.A.M.B.Z.Z.L.m.Y.J.z.* 5XgXjXhXhXjX,X6XsX<XaX6Xy.$ g u.i.f r g 8.m [.p.a.7.# SX",
"SXSXSXSXSX* yXD _ { ! Y T , T.T.P j.o.I.A.P.M.M.A.Z.b.b.Z.Z.D.S.c.d 8X9X1X1Xw.j O $ %   # e q.q.+ a.f h f e.e.w.p.7.. SXSX",
"SXSXSXSXSXSXU iXS 6 6 D 0XrX!.!.[ o.J.I.A.M P.B.m.A.b.b.Z.V.g.n.U.7 dX9X1X:X<XAXnXzX# aXdX7Xq.5.a.. r.5.5.t.e f.+ $ SXSXSX",
"SXSXSXSXSXSXX fXiXtXeX/.qXpX!., [ ' I.H.L $X&Xn.M.A.A.A.V.M.m.Z.S.c.d 7X1X1X:Xt.a.BXbXbXBXbXd.5.t.0.r t.5.i.$ c SXSXSXSXSX",
"SXSXSXSXSXSXSX4 uXqXeXeXW., L [ { P.I.V &X=X&X&XA.C.A.A.A.A.V.V.V.n.7 7X8X1X1X1X1Xw u bXbX6.d.d.5.t.0.h q.u.O SXSXSXSXSXSX",
"SXSXSXSXSXSX%.=X= ; 1 , L [ $.' b.I.H.B =X#X#XY.A.C.A.P.V.M.A.A.N.Z.z.J e.w.t.t.t.r.q.l h e.5.4.5.0.q.g i.k SXSXSXSXSXSXSX",
"SXSXSXSXSX-.%XyX-Xp ^ ..O.] O.I.Y.H.V *X=X#XU.D.C.A.Z.A.A.A.K.V.Z.D.L.6 < % l 0.d.q.5.0.8.t.q.h r q.q.u.c % SXSXSXSXSXSXSX",
"SXSXSXSXSX' *X&Xv.N Y.B.B.P.M.L.J.V &X#X#X0XZ.A.A.A.M b.A.A.A.A.Z.Z.m.F.J vXn % X 6.q.t.t.t.0.r g g e.y.# SXSXSXSXSXSXSXSX",
"SXSXSXSX^ $X&X&XN b.B.B.g.g.m.n.XXF *X#X~.h.B.C.A.L.6 b.Z.n.A.Z.P.Z.A.L.G.|.K cXbX$ u.u.t.t.0.h e j w.a.% SXSXSXSXSXSXSXSX",
"SXSXSXSXs -X$Xn.M h.Z.B.m.B.B.A.oX6 &X$XS.S.m.V.F.V O.F.Z.m.P.M.C.L.P.A XXXXI.B vXo $ u.0.s.4.h g w.i.y.a.O SXSXSXSXSXSXSX",
"SXSXSXSX0 oXJ.Y.F yX~.N.j.g.h.Y.B .XXXF.n.N.L.F.U.6 O.P.V.m.3.M.A.K.P.3.A I.K.L.J > NX% e.q.t.4.t.t.w.i.u.$ . SXSXSXSXSXSX",
"SXSXSXn mX.Xo.' > iXiX/./.0X0XyX> }.+XJ.N.n.G.XX8 o.O.K.M.M.C.C.P.] K.>.A XXJ.A.Y.c.NXCX$ y.t.t.q.w.i.i.u.+ p.+ k c SXSXSX",
"SXSXSX* mX/ $.^ ; fXiX/./././.yX< _.`.+.b.S.G.6 $.O.} C.M.M.K.K.] V.:.OXo.B L.A.V.G.9.: # 7.0.0.f f g u.u.e w.u.,XaXy c SX",
"SXSXSXSX- ; vX, = pXwX(.^./.eXyXo ZX( #.%.|.6 %.o.] C.B.M.M.3.1.3.1.3.-..X6 L.P.3.' ) * & # i.0.r.h g y.f.w.u.6.8.aXaX% SX",
"SXSXSXSXSXa  X}.}.d H k.(.^.^.yXX mX, B vX1 #...' Z.B.g.B.C.K.] :.X.<.@.=.6 ' } >...) o &   6.q.e.e.w.u.t p.y.p.[.@ # SXSX",
"SXSXSXSXK |.XXG.}.; tXk.G G G U # 3 iXiX= , c.F.N.g.h.h.B.A.K.1.X.<.+.../ 5 ' ] 2.-.b & % # u.q.t.0.6.j e .   @ @ SXSXSXSX",
"SXSXSXSX9 .XI.I.c.1 0X/.rXrXrXrXuXuXrXtXp }.S.N.D.j.h.h.V.P.2.<.X.X.+.*./ > o.] ] #.: o # $ j r.w.i.u.$ SXSXSXSXSXSXSXSXSX",
"SXSXSXSX1  XU.Z.b.h.J yXeXrX(.(.rXrX^.(.7 c.S.N.g.B.B.m.V.P.O.<.<.<.+.o.^ 6 +.X...^ 3 k k p.u.e p.p.O SXSXSXSXSXSXSXSXSXSX",
"SXSXSXSX;  XG.Z.m.n.6 P H l.(.(.(.(.k.G > |.b.B.B.M.K.K.K.2.O.<.<.<.@...K #.@...=.= ].7.[.7.7.O # O SXSXSXSXSXSXSXSXSXSXSX",
"SXSXSXSXSXb oXOXK.&.%., iXT.q G G G k.!., .XOXP.C.C.P.3.} 1.>.,.,.,.&.=.8 =.=.`.- ].].'.# # O SXSXSXSXSXSXSXSXSXSXSXSXSXSX",
"SXSXSXSXSX= #...O.<.&.^ 7 W.T.T.T.k.k.R.> =.J.3.K.K.} } 1.:.:.,.,.+.=.5 ( ( , = SX  % & SXSXSXSXSXSXSXSXSXSXSXSXSXSXSXSXSX",
"SXSXSXSXSXSX> =.+.] O.o.%.7 P R.Q.k.l.S p K -.X.:.:.:.>.:.>.:.,.,.*.9.1 * : SXSXSXSXSXSXSXSXSXSXSXSXSXSXSXSXSXSXSXSXSXSXSX",
"SXSXSXSXSXSXSX, A >.>.&.&.$.^ > p S U W.@X> ^ ;.*.,.:.:.O.X.:.,.<.-., SXSXSXSXSXSXSXSXSXSXSXSXSXSXSXSXSXSXSXSXSXSXSXSXSXSX",
"SXSXSXSXSXSXs .XoXZ A ] +.+.&.$.^ p < : 3 3 = ( ;.,.,.,.O.O.:.,.*.*.5 SXSXSXSXSXSXSXSXSXSXSXSXSXSXSXSXSXSXSXSXSXSXSXSXSXSX",
"SXSXSXSXSXu mX( C oXXXJ.-.@.-.=.( > SXSXSXSXSX, ;.*.,.,.O.+.:.X.,.*.`.b SXSXSXSXSXSXSXSXSXSXSXSXSXSXSXSXSXSXSXSXSXSXSXSXSX",
"SXSXSXSXv CXMXa mXx oX=.( ( ( , 2 SXSXSXSXSXb oXoXOXOX| | } X.X.*.;.`.2 SXSXSXSXSXSXSXSXSXSXSXSXSXSXSXSXSXSXSXSXSXSXSXSXSX",
"SXSXSXSX&   + BXCXZXs ( 2 = b SXSXSXSXSXSXSX2 C #.oXOXJ.C.| +.+.;.;._.: SXSXSXSXSXSXSXSXSXSXSXSXSXSXSXSXSXSXSXSXSXSXSXSXSX",
"SXSXSXSXSXSXc % & o = b SXSXSXSXSXSXSXSXSX7.CXCXn > K B I.] +.*.`._.* SXSXSXSXSXSXSXSXSXSXSXSXSXSXSXSXSXSXSXSXSXSXSXSXSXSX",
"SXSXSXSXSXSXSXSXSXSXSXSXSXSXSXSXSXSXSXSXSX'.BXCXo mXmX/ K =.=.( , * SXSXSXSXSXSXSXSXSXSXSXSXSXSXSXSXSXSXSXSXSXSXSXSXSXSXSX",
"SXSXSXSXSXSXSXSXSXSXSXSXSXSXSXSXSXSXSXSXSX  @ @ BXCXZXCX: : : : SXSXSXSXSXSXSXSXSXSXSXSXSXSXSXSXSXSXSXSXSXSXSXSXSXSXSXSXSX",
"SXSXSXSXSXSXSXSXSXSXSXSXSXSXSXSXSXSXSXSXSXSXSXv v & & & SXSXSXSXSXSXSXSXSXSXSXSXSXSXSXSXSXSXSXSXSXSXSXSXSXSXSXSXSXSXSXSXSX",
"SXSXSXSXSXSXSXSXSXSXSXSXSXSXSXSXSXSXSXSXSXSXSXSXSXSXSXSXSXSXSXSXSXSXSXSXSXSXSXSXSXSXSXSXSXSXSXSXSXSXSXSXSXSXSXSXSXSXSXSXSX"
};
