/* XPM */
static char *slowbro48_right[] = {
/* columns rows colors chars-per-pixel */
"48 47 240 2 ",
"   c #171B0A",
".  c #15120A",
"X  c #280907",
"o  c #281E0E",
"O  c #391913",
"+  c #35140D",
"@  c #1B2212",
"#  c #262818",
"$  c #2F311A",
"%  c #363B26",
"&  c #4E1A17",
"*  c #552619",
"=  c #47271B",
"-  c #5C2927",
";  c #583A29",
":  c #533329",
">  c #672B27",
",  c #782E2B",
"<  c #67312A",
"1  c #74352A",
"2  c #6E3732",
"3  c #743A38",
"4  c #682E31",
"5  c #6A2319",
"6  c #3A4427",
"7  c #3F4531",
"8  c #5E441B",
"9  c #43492D",
"0  c #495433",
"q  c #545839",
"w  c #4F4E2A",
"e  c #764B2B",
"r  c #774538",
"t  c #6C5436",
"y  c #576529",
"u  c #58633C",
"i  c #68753B",
"p  c #5A5C44",
"a  c #5F564C",
"s  c #764342",
"d  c #6B564F",
"f  c #5C6645",
"g  c #5F6E50",
"h  c #646D4C",
"j  c #636648",
"k  c #6D7A4B",
"l  c #6A7548",
"z  c #707E41",
"x  c #6C7553",
"c  c #737B59",
"v  c #676852",
"b  c #6E7068",
"n  c #943C2E",
"m  c #99462B",
"M  c #874A35",
"N  c #974639",
"B  c #855837",
"V  c #9B5C37",
"C  c #8B532B",
"Z  c #AE4D31",
"A  c #98693D",
"S  c #9B7A2B",
"D  c #B67038",
"F  c #D8562B",
"G  c #CA5636",
"H  c #E05325",
"J  c #8B4B49",
"K  c #964945",
"L  c #8D5747",
"P  c #995144",
"I  c #8C5450",
"U  c #975857",
"Y  c #A75A47",
"T  c #A65956",
"R  c #B55D56",
"E  c #AF5048",
"W  c #8D6E4F",
"Q  c #926D4E",
"!  c #A76645",
"~  c #BA664B",
"^  c #AB6759",
"/  c #B86857",
"(  c #AB7952",
")  c #935A60",
"_  c #A05E64",
"`  c #8C7367",
"'  c #9C6E68",
"]  c #A96C66",
"[  c #B96E65",
"{  c #A87D62",
"}  c #B67167",
"|  c #C6584E",
" . c #C66857",
".. c #D66A5C",
"X. c #C67559",
"o. c #CD734E",
"O. c #E36B5E",
"+. c #E2735A",
"@. c #C86A66",
"#. c #D36C6B",
"$. c #DC6A6B",
"%. c #DC6965",
"&. c #C5756C",
"*. c #DC7C64",
"=. c #D97669",
"-. c #CA6D71",
";. c #C97474",
":. c #D77A76",
">. c #DE6D70",
",. c #E36B64",
"<. c #E3666B",
"1. c #E2696A",
"2. c #E06765",
"3. c #EB7669",
"4. c #E77866",
"5. c #F37D6D",
"6. c #EE7C71",
"7. c #79854B",
"8. c #798554",
"9. c #7E8A55",
"0. c #7E8A5C",
"q. c #768159",
"w. c #7A8263",
"e. c #B08D33",
"r. c #B59239",
"t. c #808E4F",
"y. c #9F835A",
"u. c #87955A",
"i. c #919C59",
"p. c #828D5A",
"a. c #B58A46",
"s. c #A88857",
"d. c #B8915A",
"f. c #838C65",
"g. c #8A9663",
"h. c #8C9A62",
"j. c #889466",
"k. c #959968",
"l. c #938B7A",
"z. c #8B9572",
"x. c #949A76",
"c. c #BA9765",
"v. c #B48F70",
"b. c #94A465",
"n. c #9AAA6A",
"m. c #99A768",
"M. c #99A573",
"N. c #9DA974",
"B. c #9CA67A",
"V. c #A1AB69",
"C. c #A4A57D",
"Z. c #A5B27A",
"A. c #C9935A",
"S. c #EE895E",
"D. c #EF8F5E",
"F. c #C8A657",
"G. c #D5AB57",
"H. c #D0AE56",
"J. c #DA8869",
"K. c #DD916D",
"L. c #D88677",
"P. c #CA8B6F",
"I. c #ED8C6C",
"U. c #E88568",
"Y. c #F58664",
"T. c #F48B64",
"R. c #F98966",
"E. c #FA866B",
"W. c #F48A6B",
"Q. c #F9896C",
"!. c #F68568",
"~. c #F3956C",
"^. c #EC8B73",
"/. c #E98A77",
"(. c #F58B72",
"). c #FA8A71",
"_. c #F58775",
"`. c #E9957B",
"'. c #F49879",
"]. c #EC906B",
"[. c #C6A267",
"{. c #D9B86B",
"}. c #D6B978",
"|. c #CEAC6F",
" X c #E2B766",
".X c #FAB57B",
"XX c #EFAF78",
"oX c #DDC372",
"OX c #E6C36B",
"+X c #E7CA74",
"@X c #F1CE76",
"#X c #F9D77C",
"$X c #938F88",
"%X c #B69089",
"&X c #9FA284",
"*X c #A3AE84",
"=X c #AAB687",
"-X c #B2BD8B",
";X c #B7B985",
":X c #B3BB95",
">X c #A7AA9C",
",X c #BABAA8",
"<X c #DC9985",
"1X c #DA9991",
"2X c #E99785",
"3X c #EE9385",
"4X c #D9BC81",
"5X c #D2AC96",
"6X c #F5A988",
"7X c #FBB68B",
"8X c #F8A892",
"9X c #FCB493",
"0X c #F9B598",
"qX c #E8A894",
"wX c #CCB5AF",
"eX c #ECBFAE",
"rX c #BAC98D",
"tX c #BAC895",
"yX c #BAD393",
"uX c #ADC385",
"iX c #C1CE94",
"pX c #C2D29A",
"aX c #C5D294",
"sX c #ECD088",
"dX c #FADA86",
"fX c #F2CB89",
"gX c #CFD3AD",
"hX c #ECC1AF",
"jX c #DDEBB3",
"kX c #DCE8AC",
"lX c #E2E9B9",
"zX c #E3F2BB",
"xX c #D9D1C8",
"cX c #E8D7C7",
"vX c #EED8CE",
"bX c #E7F6C3",
"nX c #F9EDD9",
"mX c #FFFDF5",
"MX c #F8F0E7",
"NX c None",
/* pixels */
"NXNXNXNXNXNXNXNXNXNXNXNXNXNXNXNXNXNXNXNXNXNXNXNXNXNXNXNXNXNXNXNXNXNXNXNXNXNXNXNXNXNXNXNXNXNXNXNX",
"NXNXNXNXNXNXNXNXNXNXNXNXNXNXNXNXNXNXNXNXNXNXNXNXNXNXNXNXNXNXNXNXNXNXNXNXNXNXNXNXNXNXNXNXNXNXNXNX",
"NXNXNXNXNXNXNXNXNXNXNXNXNXNXNXNXNXNXNXNXNXNXNXNXNXNXNXNXNXNXNXNXNXNXNXNXNXNXNXNXNXNXNXNXNXNXNXNX",
"NXNXNXNXNXNXNXNXNXNXNXNXNXNXNXNXNXNXNXNXNXNXNXNXNXNXNXNXNXNXNXNXNXNXNXNXNXNXNXNXNXNXNXNXNXNXNXNX",
"NXNXNXNXNXNXNXNX} NXNXNXNXNXNXNXNXNXNXNXNXNXNXNXNXNXNXNXNXNXNXNXNXNXNXNXNXNXNXNXNXNXNXNXNXNXNXNX",
"NXNXNXNXNXNXNX3X2X^ NXNXNXNXNXNXNXNXNX:.T NXNXNXNXNXNXNXNXNXNXNXNXNXNXNXNXNXNXNXNXNXNXNXNXNXNXNX",
"NXNXNXNXNXNXL 8X`.../ ^ ^ ! Y NXNXE `.8X:.2 NXNXNXNXNXNXNXNXNXNXNXNXNXNXNXNXNXNXNXNXNXNXNXNXNXNX",
"NXNXNXNXNXNX- &.~ X.2X0X0X8X`.~ m *.`. .@._ = NXNXNXNXNXNXNXNXNXNXNXNXNXNXNXNXaXB.NXNXNXNXNXNXNX",
"NXNXNXNXNXNXNX%XqX9X9X9X0X0X2X2XJ.4.E -.R I X NXNXNXNXNXNXNXNXNXNXNXNXNXNXn.aXlXc NXNXNXNXNXNXNX",
"NXNXNXNXNXNX$XhX3X6X6X`.hXnXnXvX2X*., <X;.s NXNXNXNXNXNXNXNXNXNXNXNXNXNXk.yXaXrXl NXNXNXNXNXNXNX",
"NXNXNXNXNX8 v.d.D U.].`.nXMX>XMXhX^.N > 2 NXNXNXNXNXNXNXNXNXM.NXNXNX  @ h m.iXZ.M.q NXNXNXNXNXNX",
"NXNXNXNXS G. X X XG.A s.vXmXxXMXhX^.J.} - NXNXNXNXNXNXNXNXj C.:Xq.0.:X,X-X*Xt.q z.% NXNXNXNXNXNX",
"NXNXNXF.+X{.dXOX@X#X@Xd.c xXmXMXqX].(.'.[ 4 NXNXNXNXNXNXNXNX9 q.&Xx.gXbXkXaXrXB.# NXNXNXNXNXNXNX",
"NXNXw +XsX|.fX}.+X#X#X#X}.k.l.5XK.W.E._./.K NXNXx NXNXNXNXNX. 0 x c x 0.n.iXaXtXc 7 *Xj.6 NXNXNX",
"NXNXo c.W 8 ; w s.}.fXdX#XoXs.B J.T.E.E.^.T NXNXq ;XNXNXNXq.-X:Xx *Xf w.B.u h.N.n.p.B.c NXNXNXNX",
"NXNXNX6 d r 3 3 = = r [.OX XF.s.A T.R.R.^./ , NX` tXu q.tXzXbX=Xh.M.l p.yXtXc k M.x.% NXNXNXNXNX",
"NXNXNXNXNXNXNX> - n , { B e s.}.A ~ ~.T.^.=.K NXNXh q.tX=XM.jXjXtXN.Z.V.tXpXtXf x z.6 NXNXNXNXNX",
"NXNXNXNXNXNX4 5 n Z G ! 1 O y.}.B / ~.~.W.,.[ > NXp >Xz.0 k =XrXpXyXpXpXpX-X8.h u f @ NXNXNXNXNX",
"NXNXNXNXNXNX> m F F F F C e c.c.V ^.W.W.E.5.3./ = v w.g f 0.g.9.0.j.;XpXyXrX9.7.u.6 NXNXNXNXNXNX",
"NXNXNXNXNX1 5 G F F H F m ( |.M / W.E.R.Q.E.).U.r ; pXzXzXzXzXgXz.p.8.9.*XC.b.7.p.l @   0 NXNXNX",
"NXNXNXNXNX* } D G H F Z C c.B R _.).E.E.R.W.W.(.K.L C.jXjXjXkX=X=X=Xx.c 0 q.h.y y q.x w.z.f NXNX",
"NXNXNXNXNXNXA.D N n D V |.A./ *.).+.E.E.W.W.W.W.I./.B rXpXyXZ.0.a $ p c i.7.u i i u.h.0.f # NXNX",
"NXNXNXNXNXNXt }.a.A. XdXA.! =._.%.X.'.R.E.W.W.W.T.I.^ k.pXyXyXtXlX>XnXlXV.b.7.7.n.i.0 q NXNXNXNX",
"NXNXNXNXNXNXNX{ 4X X|.L Y ~ 5.*.X.9X9X'.E.Q.Q.E.R.W.U.r rXyXuXuXp.x.lXuXV.n.n.9.t.h.o NXNXNXNXNX",
"NXNXNXNXNXNX<Xv.> 1 N  .#.4.W. .J.7X6XQ.E.R.Q.Q.E.R.W.X.e j u.V.m.i.7.i.i.7.i.u.8.q NXNXNXNXNXNX",
"NXNXNXNXNX*.9X6XV *.U.S.W.^./ K.7X7X~.E.Y. .!.Q.).W.W.*.M ` t w p.m.m.m.t.y l b.f   NXNXNXNXNXNX",
"NXNXNXNXNX2X9XX.o.S.R.5.T./.E 6X.X~.R.Q.*.n I.!.Q.W.(.Y.*.<X] wXa 8.n.n.t.y i M.h NXNXNXNXNXNXNX",
"NXNXNXNXNXL.6X| S.~.S.Y.R.*.P 2X'.D.E.).N ..W.Y.E.E.).5.| /.*.P.; v 8.n.i.z u.n.M.% NXNXNXNXNXNX",
"NXNXNXNXl.1X=.N |.fX.X.X.X^ ] 3XI.I./.R N 3.).!.Q.Q.6.5.| %.).4.} xXc 8.m.m.b.n.M.6 0 6 p NXNXNX",
"NXNXNXNX' %X&.< v.dXdX#XdXW _ :.J.I.R N %.3.E.E.E.3.4.6.:.E U.(.`.' O g m.9.y k N.k j.M.:Xx NXNX",
"NXNXNXNXNX: <Xr ( H.@X#XdXW >XU v.^ N @.+.Q.R.E.5.,.,.1.-.n ..5.=.I . @ h.b.7.9.g.k.M.M.f.j NXNX",
"NXNXNXNXNX] <X1Xe F.F.e.r.t t v.{ - =.J.S.D.T.E.5.2.%.$.-.>  ...#.s .   u.m.n.h.u 7 7 7 # NXNXNX",
"NXNXNXNX< &.(.`.M {.@X+X+XoX}.dXs.^ ].T.S.D.R.E.3.1.%.$.;.> R ..[ O o $ k b.N.h NXNXNXNXNXNXNXNX",
"NXNXNXNXX ] (.~.J.m F.oX#X#XdXoXC ^ ].S.R.R.E.5.1.1.$.$./ N #.#.K q c z.0.w p NXNXNXNXNXNXNXNXNX",
"NXNXNXNXNXL /._.4.N B [.r.r.r.H.e ^ _.E.R.E.5.,.1.<.<.#.K R -.J d $Xx 9 9 NXNXNXNXNXNXNXNXNXNXNX",
"NXNXNXNXNX& T =.%.#.V ( F.H.H.H.B U 6.5.5.,.,.O.<.>.>.T > U * NX# # NXNXNXNXNXNXNXNXNXNXNXNXNXNX",
"NXNXNXNXNXNX- K ..,.#.K L Q a.a.( 3 @.#.%.<.2.,.<.1.#.3 X X NXNXNXNXNXNXNXNXNXNXNXNXNXNXNXNXNXNX",
"NXNXNXNXNXNXU } E | %.>. .! C * t = 2 -.$.<.<.%.<.<.#.& NXNXNXNXNXNXNXNXNXNXNXNXNXNXNXNXNXNXNXNX",
"NXNXNXNXNXl.wX] &.L.:.;.@.T - NXNXNX- T :.<.,.%.<.$.-._ NXNXNXNXNXNXNXNXNXNXNXNXNXNXNXNXNXNXNXNX",
"NXNXNXNXNXb $XhXwX[ T s J + NXNXNXNX4 -.3X3X3.,.%.$.;.) + NXNXNXNXNXNXNXNXNXNXNXNXNXNXNXNXNXNXNX",
"NXNXNXNXNXNX% v d - s NXNXNXNXNXNX*XwX%Xs T  .4.>.-.' 4 NXNXNXNXNXNXNXNXNXNXNXNXNXNXNXNXNXNXNXNX",
"NXNXNXNXNXNXNXNXNXNXNXNXNXNXNXNXNXb ,X$XwXvX_ I ) s O NXNXNXNXNXNXNXNXNXNXNXNXNXNXNXNXNXNXNXNXNX",
"NXNXNXNXNXNXNXNXNXNXNXNXNXNXNXNXNXNX@ b $X$Xd X X NXNXNXNXNXNXNXNXNXNXNXNXNXNXNXNXNXNXNXNXNXNXNX",
"NXNXNXNXNXNXNXNXNXNXNXNXNXNXNXNXNXNXNXNXNXNXNXNXNXNXNXNXNXNXNXNXNXNXNXNXNXNXNXNXNXNXNXNXNXNXNXNX",
"NXNXNXNXNXNXNXNXNXNXNXNXNXNXNXNXNXNXNXNXNXNXNXNXNXNXNXNXNXNXNXNXNXNXNXNXNXNXNXNXNXNXNXNXNXNXNXNX",
"NXNXNXNXNXNXNXNXNXNXNXNXNXNXNXNXNXNXNXNXNXNXNXNXNXNXNXNXNXNXNXNXNXNXNXNXNXNXNXNXNXNXNXNXNXNXNXNX",
"NXNXNXNXNXNXNXNXNXNXNXNXNXNXNXNXNXNXNXNXNXNXNXNXNXNXNXNXNXNXNXNXNXNXNXNXNXNXNXNXNXNXNXNXNXNXNXNX"
};
