/* XPM */
static char *slowbro48_left[] = {
/* columns rows colors chars-per-pixel */
"48 47 240 2 ",
"   c #171B0A",
".  c #15120A",
"X  c #280907",
"o  c #281E0E",
"O  c #391913",
"+  c #35140D",
"@  c #1B2212",
"#  c #262818",
"$  c #2F311A",
"%  c #363B26",
"&  c #4E1A17",
"*  c #552619",
"=  c #47271B",
"-  c #5C2927",
";  c #583A29",
":  c #533329",
">  c #672B27",
",  c #782E2B",
"<  c #67312A",
"1  c #74352A",
"2  c #6E3732",
"3  c #743A38",
"4  c #682E31",
"5  c #6A2319",
"6  c #3A4427",
"7  c #3F4531",
"8  c #5E441B",
"9  c #43492D",
"0  c #495433",
"q  c #545839",
"w  c #4F4E2A",
"e  c #764B2B",
"r  c #774538",
"t  c #6C5436",
"y  c #576529",
"u  c #58633C",
"i  c #68753B",
"p  c #5A5C44",
"a  c #5F564C",
"s  c #764342",
"d  c #6B564F",
"f  c #5C6645",
"g  c #5F6E50",
"h  c #646D4C",
"j  c #636648",
"k  c #6D7A4B",
"l  c #6A7548",
"z  c #707E41",
"x  c #6C7553",
"c  c #737B59",
"v  c #676852",
"b  c #6E7068",
"n  c #943C2E",
"m  c #99462B",
"M  c #874A35",
"N  c #974639",
"B  c #855837",
"V  c #9B5C37",
"C  c #8B532B",
"Z  c #AE4D31",
"A  c #98693D",
"S  c #9B7A2B",
"D  c #B67038",
"F  c #D8562B",
"G  c #CA5636",
"H  c #E05325",
"J  c #8B4B49",
"K  c #964945",
"L  c #8D5747",
"P  c #995144",
"I  c #8C5450",
"U  c #975857",
"Y  c #A75A47",
"T  c #A65956",
"R  c #B55D56",
"E  c #AF5048",
"W  c #8D6E4F",
"Q  c #926D4E",
"!  c #A76645",
"~  c #BA664B",
"^  c #AB6759",
"/  c #B86857",
"(  c #AB7952",
")  c #935A60",
"_  c #A05E64",
"`  c #8C7367",
"'  c #9C6E68",
"]  c #A96C66",
"[  c #B96E65",
"{  c #A87D62",
"}  c #B67167",
"|  c #C6584E",
" . c #C66857",
".. c #D66A5C",
"X. c #C67559",
"o. c #CD734E",
"O. c #E36B5E",
"+. c #E2735A",
"@. c #C86A66",
"#. c #D36C6B",
"$. c #DC6A6B",
"%. c #DC6965",
"&. c #C5756C",
"*. c #DC7C64",
"=. c #D97669",
"-. c #CA6D71",
";. c #C97474",
":. c #D77A76",
">. c #DE6D70",
",. c #E36B64",
"<. c #E3666B",
"1. c #E2696A",
"2. c #E06765",
"3. c #EB7669",
"4. c #E77866",
"5. c #F37D6D",
"6. c #EE7C71",
"7. c #79854B",
"8. c #798554",
"9. c #7E8A55",
"0. c #7E8A5C",
"q. c #768159",
"w. c #7A8263",
"e. c #B08D33",
"r. c #B59239",
"t. c #808E4F",
"y. c #9F835A",
"u. c #87955A",
"i. c #919C59",
"p. c #828D5A",
"a. c #B58A46",
"s. c #A88857",
"d. c #B8915A",
"f. c #838C65",
"g. c #8A9663",
"h. c #8C9A62",
"j. c #889466",
"k. c #959968",
"l. c #938B7A",
"z. c #8B9572",
"x. c #949A76",
"c. c #BA9765",
"v. c #B48F70",
"b. c #94A465",
"n. c #9AAA6A",
"m. c #99A768",
"M. c #99A573",
"N. c #9DA974",
"B. c #9CA67A",
"V. c #A1AB69",
"C. c #A4A57D",
"Z. c #A5B27A",
"A. c #C9935A",
"S. c #EE895E",
"D. c #EF8F5E",
"F. c #C8A657",
"G. c #D5AB57",
"H. c #D0AE56",
"J. c #DA8869",
"K. c #DD916D",
"L. c #D88677",
"P. c #CA8B6F",
"I. c #ED8C6C",
"U. c #E88568",
"Y. c #F58664",
"T. c #F48B64",
"R. c #F98966",
"E. c #FA866B",
"W. c #F48A6B",
"Q. c #F9896C",
"!. c #F68568",
"~. c #F3956C",
"^. c #EC8B73",
"/. c #E98A77",
"(. c #F58B72",
"). c #FA8A71",
"_. c #F58775",
"`. c #E9957B",
"'. c #F49879",
"]. c #EC906B",
"[. c #C6A267",
"{. c #D9B86B",
"}. c #D6B978",
"|. c #CEAC6F",
" X c #E2B766",
".X c #FAB57B",
"XX c #EFAF78",
"oX c #DDC372",
"OX c #E6C36B",
"+X c #E7CA74",
"@X c #F1CE76",
"#X c #F9D77C",
"$X c #938F88",
"%X c #B69089",
"&X c #9FA284",
"*X c #A3AE84",
"=X c #AAB687",
"-X c #B2BD8B",
";X c #B7B985",
":X c #B3BB95",
">X c #A7AA9C",
",X c #BABAA8",
"<X c #DC9985",
"1X c #DA9991",
"2X c #E99785",
"3X c #EE9385",
"4X c #D9BC81",
"5X c #D2AC96",
"6X c #F5A988",
"7X c #FBB68B",
"8X c #F8A892",
"9X c #FCB493",
"0X c #F9B598",
"qX c #E8A894",
"wX c #CCB5AF",
"eX c #ECBFAE",
"rX c #BAC98D",
"tX c #BAC895",
"yX c #BAD393",
"uX c #ADC385",
"iX c #C1CE94",
"pX c #C2D29A",
"aX c #C5D294",
"sX c #ECD088",
"dX c #FADA86",
"fX c #F2CB89",
"gX c #CFD3AD",
"hX c #ECC1AF",
"jX c #DDEBB3",
"kX c #DCE8AC",
"lX c #E2E9B9",
"zX c #E3F2BB",
"xX c #D9D1C8",
"cX c #E8D7C7",
"vX c #EED8CE",
"bX c #E7F6C3",
"nX c #F9EDD9",
"mX c #FFFDF5",
"MX c #F8F0E7",
"NX c None",
/* pixels */
"NXNXNXNXNXNXNXNXNXNXNXNXNXNXNXNXNXNXNXNXNXNXNXNXNXNXNXNXNXNXNXNXNXNXNXNXNXNXNXNXNXNXNXNXNXNXNXNX",
"NXNXNXNXNXNXNXNXNXNXNXNXNXNXNXNXNXNXNXNXNXNXNXNXNXNXNXNXNXNXNXNXNXNXNXNXNXNXNXNXNXNXNXNXNXNXNXNX",
"NXNXNXNXNXNXNXNXNXNXNXNXNXNXNXNXNXNXNXNXNXNXNXNXNXNXNXNXNXNXNXNXNXNXNXNXNXNXNXNXNXNXNXNXNXNXNXNX",
"NXNXNXNXNXNXNXNXNXNXNXNXNXNXNXNXNXNXNXNXNXNXNXNXNXNXNXNXNXNXNXNXNXNXNXNXNXNXNXNXNXNXNXNXNXNXNXNX",
"NXNXNXNXNXNXNXNXNXNXNXNXNXNXNXNXNXNXNXNXNXNXNXNXNXNXNXNXNXNXNXNXNXNXNXNXNXNXNX[ NXNXNXNXNXNXNXNX",
"NXNXNXNXNXNXNXNXNXNXNXNXNXNXNXNXNXNXNXNXNXNXNXNXNXNXNXT :.NXNXNXNXNXNXNXNXNX^ 2X3XNXNXNXNXNXNXNX",
"NXNXNXNXNXNXNXNXNXNXNXNXNXNXNXNXNXNXNXNXNXNXNXNXNXNX3 :.8X/.E NXNXY T ^ ^ / X.'.8XI NXNXNXNXNXNX",
"NXNXNXNXNXNXNXB.iXNXNXNXNXNXNXNXNXNXNXNXNXNXNXNXNX* U @. .`.*.m ~ '.8X0X0X`.X.~ } < NXNXNXNXNXNX",
"NXNXNXNXNXNXNXc lXaXn.NXNXNXNXNXNXNXNXNXNXNXNXNXNXX I R :.E U.U.3X2X0X0X7X9X7XqX%XNXNXNXNXNXNXNX",
"NXNXNXNXNXNXNXx rXaXrXk.NXNXNXNXNXNXNXNXNXNXNXNXNXNXs ;.L.> *.qXvXMXnXhX`.6X6X6XhX$XNXNXNXNXNXNX",
"NXNXNXNXNXNXq B.Z.rXn.h     NXNXNXx.NXNXNXNXNXNXNXNXNX2 > M 4.hXMX>XMXnX`.U.D.~ d.v.8 NXNXNXNXNX",
"NXNXNXNXNXNX% z.q p.Z.-X:X,Xj.k tXC.j NXNXNXNXNXNXNXNX- [ K./.hXMXxXmXcXy.A G. X X XG.S NXNXNXNX",
"NXNXNXNXNXNXNX$ B.iXaXkXbXgXx.&Xq.7 NXNXNXNXNXNXNXNX4 [ _._.W.qXnXmXgXW d.@X#X@XOXdX{.sXF.NXNXNX",
"NXNXNX6 f.*X6 q.rXaXyXM.j.x c c 0 . NXNXNXNXNXx NXNXK /.).E.I.`.5Xl.v.iXdX#X#X@XoXsX|.sX+X8 NXNX",
"NXNXNXNXc B.g.n.V.h.j N.q.f C.x :X-Xq.NXNXNX=Xq NXNXT ^.E.R.T.J.B s.oX#XdXsX}.s.w < w Q c.o NXNX",
"NXNXNXNXNX% k.M.x c rXtXf.l N.j.-XbXjXtX7.h iX` NX, / I.R.R.T.A s.F.oXOXc.t = & 3 1 3 d 6 NXNXNX",
"NXNXNXNXNX6 z.c f tXpXtXZ.Z.N.rXjXjXM.=XtXq.h NXNXK =.^.!.T./ A {.s.t B { 1 n - > NXNXNXNXNXNXNX",
"NXNXNXNXNX@ f u l 8.-XyXpXpXyXpXrX=Xl 0 z.>Xf NX> [ ,.I.W.~.( B {.s.O 1 Y G G n 5 4 NXNXNXNXNXNX",
"NXNXNXNXNXNX6 p.7.0.tXpXpX-Xg.0.9.u.0.f v c v =  .3.5.Q.W.W.W.! c.c.e m G F F F n > NXNXNXNXNXNX",
"NXNXNX0   @ x u.z b.N.*X8.8.w.x.kXzXzXzXbXpXw r 6.W.).W.W.!.Q./ B |.Q m F H F F G 5 3 NXNXNXNXNX",
"NXNXf z.f.h 8.y y g.8.0 c z.=X*X*XgXjXjXjXC.L L.(.W.W.Q.Q.E.)._./ B c.M Z F F G D ~ * NXNXNXNXNX",
"NXNX# f 0.g.u.i z f l b.q.f $ f w.Z.yXpXrXB K.T.W.W.].Q.E.!.+.).*. .A.|.V D m m D A.NXNXNXNXNXNX",
"NXNXNXNXq 0 i.b.7.z b.V.jXvX>XlXyXyXyXpXk.^ W.T.T.W.W.E.!.'.*...^.=.! A.fX Xa.A.sXt NXNXNXNXNXNX",
"NXNXNXNXNX# i.t.t.m.m.V.5XlXx.u.uXrXyX-XM U.W.!.E.Q.Q.Q.'.7X9X/ ,.I.~ Y P {.{.}.` NXNXNXNXNXNXNX",
"NXNXNXNXNXNXq 8.h.i.7.i.i.7.i.m.V.u.j e X.W.W.E.E.Q.E.E.W.'.7XK. .(.4.#. .N 1 - v.<XNXNXNXNXNXNX",
"NXNXNXNXNXNX  f n.i y u.n.n.n.p.0 t ` M *.W.Q.).Q.W.o.!.E.~.7X7XJ./ `.!.4.U.U.Z 6X0X=.NXNXNXNXNX",
"NXNXNXNXNXNXNXj m.u y t.n.n.7.p wX] <X4.!.).W.E.!.I.m ,.W.T.~..X6XY ^.T.Y.R.R.o.X.9X2XNXNXNXNXNX",
"NXNXNXNXNXNX6 M.M.u.z i.n.9.g ; P.J.6. .5.).E.E.Y.^...N (.W.].'.3XY *.R.Y.T.~.A.| 6XL.NXNXNXNXNX",
"NXNXNXg 6 0 6 M.m.b.b.b.9.b xX} *.W.%.| 5.3.).E.!.).,.N / ^.W.^.3X] ! 7X.X.XfX|.V *.1Xl.NXNXNXNX",
"NXNXx :Xx.g.k N.7.y 9.m.f # { /.E.6.E =.6.3.3.E.R.E.5.#.N T I.J.:._ W dX#XdXdXv.> &.%X' NXNXNXNX",
"NXNXj w.B.N.k.h.8.9.b.g.@ X I =.5.#., :.1.3.O.5.R.E.!.+.@.N ^ P.T >XQ dX#X@XH.y.3 %X: NXNXNXNXNX",
"NXNXNX# 9 6 7 u g.n.n.j.. . r #...| > &.$.2.O.5.E.T.S.S.U.&.- { v.q e e.e.F.F.r <X2X} NXNXNXNXNX",
"NXNXNXNXNXNXNXNXh N.k.z $ o O [ ..| > &.#.%.<.3._.T.D.S.T.].^ s.dXoXoXoXOX@X{.C /.(.&.< NXNXNXNX",
"NXNXNXNXNXNXNXNXNXf 0 0.z.c p J #.#.N [ $.<.1.1.6.E.!.T.R.~.^ C OX#XdX#XoXF.N J.~.^.^ X NXNXNXNX",
"NXNXNXNXNXNXNXNXNXNXNX6 9 b x.d I -.T K #.<.<.1.,.5.).E.).(.^ e H.r.e.r.[.A N 4._./.I NXNXNXNXNX",
"NXNXNXNXNXNXNXNXNXNXNXNXNXNX$ o NX& U 2 T >.<.<.O.,.,.5.5.6.U e H.H.F.F.( P @.2.=.T & NXNXNXNXNX",
"NXNXNXNXNXNXNXNXNXNXNXNXNXNXNXNXNXNX+ X 3 -.<.<.,.2.<.$.$.@.r ( a.a.Q ! N #.<...P * NXNXNXNXNXNX",
"NXNXNXNXNXNXNXNXNXNXNXNXNXNXNXNXNXNXNXNX& @.<.<.,.2.<.<.-.2 O t * e Y [ =.=.| E / ) NXNXNXNXNXNX",
"NXNXNXNXNXNXNXNXNXNXNXNXNXNXNXNXNXNXNXNX_ $.<.2.,.,.<.:.T 4 NXNXNX< T @.;.:.L.@.} wXl.NXNXNXNXNX",
"NXNXNXNXNXNXNXNXNXNXNXNXNXNXNXNXNXNXNXX ) -.#.#.O.3._.3X-.4 NXNXNXNX+ J s T } wXxX$Xb NXNXNXNXNX",
"NXNXNXNXNXNXNXNXNXNXNXNXNXNXNXNXNXNXNXNX: ] -.>.4. ._ s %XwX*XNXNXNXNXNXNXs - d d 7 NXNXNXNXNXNX",
"NXNXNXNXNXNXNXNXNXNXNXNXNXNXNXNXNXNXNXNXNXO 3 _ J _ vXwX$XgXb NXNXNXNXNXNXNXNXNXNXNXNXNXNXNXNXNX",
"NXNXNXNXNXNXNXNXNXNXNXNXNXNXNXNXNXNXNXNXNXNXNX+ X d $X$Xv . NXNXNXNXNXNXNXNXNXNXNXNXNXNXNXNXNXNX",
"NXNXNXNXNXNXNXNXNXNXNXNXNXNXNXNXNXNXNXNXNXNXNXNXNXNXNXNXNXNXNXNXNXNXNXNXNXNXNXNXNXNXNXNXNXNXNXNX",
"NXNXNXNXNXNXNXNXNXNXNXNXNXNXNXNXNXNXNXNXNXNXNXNXNXNXNXNXNXNXNXNXNXNXNXNXNXNXNXNXNXNXNXNXNXNXNXNX",
"NXNXNXNXNXNXNXNXNXNXNXNXNXNXNXNXNXNXNXNXNXNXNXNXNXNXNXNXNXNXNXNXNXNXNXNXNXNXNXNXNXNXNXNXNXNXNXNX",
"NXNXNXNXNXNXNXNXNXNXNXNXNXNXNXNXNXNXNXNXNXNXNXNXNXNXNXNXNXNXNXNXNXNXNXNXNXNXNXNXNXNXNXNXNXNXNXNX"
};
