/* XPM */
static char *slowbro48[] = {
/* columns rows colors chars-per-pixel */
"48 44 239 2 ",
"   c #2C2E1A",
".  c #363C24",
"X  c #3A2E22",
"o  c #2F1C17",
"O  c #513027",
"+  c #652B28",
"@  c #64352B",
"#  c #673935",
"$  c #783C38",
"%  c #742F26",
"&  c #3C4628",
"*  c #464D34",
"=  c #535C3C",
"-  c #50553A",
";  c #544832",
":  c #6C473D",
">  c #7A4639",
",  c #714C35",
"<  c #5A643D",
"1  c #6A773E",
"2  c #565846",
"3  c #4D4C43",
"4  c #7C4440",
"5  c #765344",
"6  c #695C4D",
"7  c #5B6243",
"8  c #5E6945",
"9  c #636C4B",
"0  c #656847",
"q  c #6B754D",
"w  c #6A7546",
"e  c #737E48",
"r  c #666554",
"t  c #6E7654",
"y  c #727C55",
"u  c #77775A",
"i  c #787269",
"p  c #76726A",
"a  c #8C3A2C",
"s  c #87483B",
"d  c #835B37",
"f  c #96533A",
"g  c #B74F31",
"h  c #A45637",
"j  c #B95431",
"k  c #976F3D",
"l  c #BF623B",
"z  c #D8552C",
"x  c #C8512B",
"c  c #C46A37",
"v  c #824542",
"b  c #8C4A47",
"n  c #964B43",
"m  c #895549",
"M  c #98534A",
"N  c #9A5753",
"B  c #8B5151",
"V  c #A5544A",
"C  c #B85C4E",
"Z  c #A85A53",
"A  c #B75D57",
"S  c #986846",
"D  c #9B7747",
"F  c #9B785A",
"G  c #8A6B50",
"H  c #A8694B",
"J  c #A8774B",
"K  c #B37447",
"L  c #A96556",
"P  c #BD6254",
"I  c #B5635B",
"U  c #B76959",
"Y  c #A97856",
"T  c #B77859",
"R  c #BA6E4A",
"E  c #BA5F65",
"W  c #AD5F62",
"Q  c #997968",
"!  c #8D7770",
"~  c #AD6C62",
"^  c #BD6460",
"/  c #BA6A65",
"(  c #A77966",
")  c #BD7565",
"_  c #B57773",
"`  c #AD7F73",
"'  c #C35D57",
"]  c #C6675A",
"[  c #D46C5D",
"{  c #D0675F",
"}  c #C4715A",
"|  c #CD725E",
" . c #C67A5A",
".. c #D8705C",
"X. c #D7785E",
"o. c #C3604E",
"O. c #E2795D",
"+. c #CC6C63",
"@. c #C86766",
"#. c #DD6B6A",
"$. c #D56967",
"%. c #C87666",
"&. c #D47964",
"*. c #DB7D63",
"=. c #D47C6B",
"-. c #DD7C6A",
";. c #D87366",
":. c #D27271",
">. c #E46B65",
",. c #E36B6A",
"<. c #E66B6A",
"1. c #EA7368",
"2. c #E37C69",
"3. c #ED7A6A",
"4. c #E67965",
"5. c #ED7B71",
"6. c #77844C",
"7. c #768154",
"8. c #77825A",
"9. c #7A845C",
"0. c #7A8755",
"q. c #7C8462",
"w. c #7E8A62",
"e. c #7F8D68",
"r. c #818E54",
"t. c #818D5C",
"y. c #849355",
"u. c #8B9A5C",
"i. c #87945B",
"p. c #92995D",
"a. c #9C8159",
"s. c #A9874C",
"d. c #B8944A",
"f. c #A98357",
"g. c #B68758",
"h. c #BA965A",
"j. c #BEA258",
"k. c #828C63",
"l. c #828A68",
"z. c #9A8769",
"x. c #859163",
"c. c #8A956A",
"v. c #8D9A69",
"b. c #899665",
"n. c #929E6A",
"m. c #888779",
"M. c #8D9773",
"N. c #94867D",
"B. c #A68361",
"V. c #B99967",
"C. c #A68179",
"Z. c #AB9678",
"A. c #B88D6F",
"S. c #95A26D",
"D. c #98A568",
"F. c #96A272",
"G. c #9CAA75",
"H. c #9BA778",
"J. c #A1AE7C",
"K. c #A3AD75",
"L. c #A3B17C",
"P. c #A9B57B",
"I. c #BBA474",
"U. c #C8995B",
"Y. c #CB8B58",
"T. c #C9A859",
"R. c #D8B75D",
"E. c #D0AB5B",
"W. c #CA8469",
"Q. c #D5866B",
"!. c #DA8367",
"~. c #C49C61",
"^. c #C78374",
"/. c #D78773",
"(. c #D8936F",
"). c #EB8366",
"_. c #E2836A",
"`. c #EC846A",
"'. c #EF896B",
"]. c #E98965",
"[. c #F38565",
"{. c #F48B64",
"}. c #F5856A",
"|. c #F9856A",
" X c #F48A6B",
".X c #F98A6B",
"XX c #F88A65",
"oX c #F69168",
"OX c #E68B75",
"+X c #F28970",
"@X c #E7987B",
"#X c #F69674",
"$X c #C7A866",
"%X c #CCB065",
"&X c #D9B869",
"*X c #D5BB75",
"=X c #CEB973",
"-X c #F4A179",
";X c #EFB874",
":X c #DCC277",
">X c #E5C56D",
",X c #E8CB77",
"<X c #F4CA78",
"1X c #F4D078",
"2X c #AE968C",
"3X c #9CA282",
"4X c #A5AB84",
"5X c #AAB485",
"6X c #ADBB84",
"7X c #ABB786",
"8X c #B2BC86",
"9X c #B7B095",
"0X c #C48581",
"qX c #E99A86",
"wX c #D7A38A",
"eX c #EBA486",
"rX c #F5AA8B",
"tX c #F3A384",
"yX c #EFB095",
"uX c #C7BBA3",
"iX c #EBBCA8",
"pX c #B5C38C",
"aX c #B9C88D",
"sX c #BAC594",
"dX c #B9C695",
"fX c #C2CE9B",
"gX c #C0C996",
"hX c #C5D39B",
"jX c #CAD5A5",
"kX c #D6CDB4",
"lX c #E9C7B6",
"zX c #F2C8B0",
"xX c #D2E2AB",
"cX c #EDCC80",
"vX c #EAD8CA",
"bX c #EBE1D7",
"nX c #F0E5DC",
"mX c #E5DDD7",
"MX c None",
/* pixels */
"MXMXMXMXMXMXMXMXMXMXMXMXMXMXMXMXMXMXMXMXMXMXMXMXMXMXMXMXMXMXMXMXMXMXMXMXMXMXMXMXMXMXMXMXMXMXMXMX",
"MXMXMXMXMXMXMX^.MXMXMXMXMXMXMXMXMXMXMXMXMXMXMXMXMXMXMXMXMXMXMXMXMXMXMXMXMXMXMXMXMXMXMXMXMXMXMXMX",
"MXMXMXMXMXMX@XW.~ MXMXMXMXMXMXMXMXMXMXMXMXMXMXMXMXMXMXMXMXMXMXMXMXMXMXMXMXMXMXMXMXMXMXMXMXMXMXMX",
"MXMXMXMXMX~ /./.T U U T U Z M MXMX=.qX/./ MXMXMXMXMXMXMXMXMXMXMXMXMXMXMXMXMXMXMXMXMXMXMXMXMXMXMX",
"MXMXMXMXb M Q./.Q.Q./././.} I A | =./.%.I v MXMXMXMXMXMXMXMXMXMXMXMXMXMXMXMXMXMXMXMXMXMXMXMXMXMX",
"MXMXMXMX4 m %.(.-XrXyXyXyXeX/.%.| ;.+.] Z $ MXMXMXMXMXMXMXMXMXMXMXMXMXMXMXMXMXhXH.0.MXMXMXMXMXMX",
"MXMXMXMXQ C.wXyXtXrXrXyXzXzXiXeX&.P / / L # MXMXMXMXMXMXMXMXMXMXMXMXMXMXb.K.gXhXS.q MXMXMXMXMXMX",
"MXMXMXMX( A.wXeX@X@XyXzXvXnXvXiX/.I V B 4 O MXMXMXMXMXMXMXMXMXMXMXMXMX2 9.D.P.6Xv.t MXMXMXMXMXMX",
"MXMXMXk s.j.U.U.!.!.wXlXmXmXmXiXqX| M $ + MXMXMXMXMXMXMXMXMXH.H.MXMXr r q.F.K.S.k.u MXMXMXMXMXMX",
"MXMXj.$X:X,X>X&X&XU.V.9XmXnXmXiXqX_.&.Z b MXMXMXMXMXMXMXMXMXl.c.M.3X9XdXdXpXP.c.q = MXMXMXMXMXMX",
"MXs.%X=X:X:X>X,X1X:X$X$XuXkXiXiX@X X+X;.~ MXMXMXMXMXMXMXMXMX9 t l.M.4XdXdXaXpXH.y 2 9.MXMXMXMXMX",
"; D =Xj.V.h.T.>XcXcX,XwXI.Z.2X(.OX X+X2.@.MXMXMXMXMXMXMXMXMX2 9 8.w.q.e.F.P.pX6Xv.7.l.k.y MXMXMX",
"MXG D 5 , d d S f.=X>X,X=XV.f.W.!.XX.X}.+.s MXMXG.n.0.e.H.pX5XF.x.x.8.7.F.S.v.v.n.u.w.q 7 MXMXMX",
"MXMX< , @ @ @ % > F V.E.j.h.g.Y  .]. X X%.n MXMXv.e.e.M.J.dXjXdXG.n.i.e.J.5Xv.w.x.b.t 7 - MXMXMX",
"MXMXMXMXMXMX+ % a s k S k a.h.J T Q.'.'.*.C V MX7.8.e.H.G.pXjXjXpXK.L.P.pXdX5Xq.7.7.7 - MXMXMXMX",
"MXMXMXMXMX% a a g g h s : D j.J T !.'. X3.[ V 5 2 t e.7.7.w.4XpXpXpXpXdXdXpXH.7.9 8 * MXMXMXMXMX",
"MXMXMXMX+ % f j z z g f > D h.J } `. X}.}.4.] b ; t M.9.x.n.L.L.5XJ.7XaXdX6XD.0.w 8 & MXMXMXMXMX",
"MXMXMXMX% a g z z z x h J J Y U X..X X}. X}.2.I $ u 4X9XdXjXdXpXF.l.v.D.J.J.D.0.0.w & & MXMXMXMX",
"MXMXMXMXf h j z z x g h J J R &.).|..X X X X X*.L Q 4XjXxXxXdX6Xc.w.8.7.7.w.w.6.1 w q t q.t MXMX",
"MXMXMXMXJ K R l j c R J g.T } *.[.|..X.X X X X].&.g.V.jXxXhXdX5XM.l.l.k.7.6.6.1 1 6.7.8.y q MXMX",
"MXMXMXMXY Y g.K l U.~.U. .| _.-._.{..X.X X X XXX X .B.6XaXaXpX4X4Xm.3X8XG.y.6.6.0.y.6.w 7 MXMXMX",
"MXMXMXMXG S g.h.d.~.g.Y T X.2.&.OX-X#X+X.X.X|..X X2. .Z.6XaXpX7XK.K.9XgXK.p.u.r.y.0.0 < MXMXMXMX",
"MXMXMXMXY Y g.g.g.) T U  .4.-.Q.@XrX#X.X.X.X|.|..X].X.T z.F.G.S.D.K.6X6XD.D.u.u.y.6.< MXMXMXMXMX",
"MXMXMXMXeXqXg.H V o...X._.2.=.OXeX-X#X}. X}. X.X.X.X).R m 9 6.0.p.p.p.p.u.6.6.u.6.w MXMXMXMXMXMX",
"MXMXMX#.qXtXW.} ..O.).)._.!.Q.eX-X#XoXO...X.}..X.X.X)...T ( Q G 0.r.v.p.y.1 1 0.y = MXMXMXMXMXMX",
"MXMXMX;.OXqXX.X..XXXXX[.*.&.Q.#X-XoX.X..o.X.3.|..X.X X2.2./.A.Q u 9.b.D.p.1 1 i.7.7 MXMXMXMXMXMX",
"MXMXMX_ ^._.} !.#XoXoX].| | Q.@X#X X3.] C O.3.XX.X.X}.4.;.-.!.) G i l.b.p.y.y.S.c.q . MXMXMXMXMX",
"MXMXMX2X^.) l U.cX;X;X;XY T /.'.'._.] C o.3.|.|..X}.3.>.{ $.`.!.) C.u t p.u.y.u.x.8.< 8 l.l.MXMX",
"MXMXMXQ ( ~ S V.,X1X1X;Xa.( ^./.=.} C P ..[.XX|.}.3.1.,.] o.4.+X/.( 6 * y.u.y.6.r.x.7.9.l.w.MXMX",
"MXMXMX5 G ( G f.%X>X<X*Xz.Q ( ) L Z P ;.1.[.XX|.1.1.,.#.A V $.1.@.m O   6.u.u.0.0.x.t.x.l.u MXMX",
"MXMXMXm ~ A.Y Y U.&XR.T.a.a.V.Y H L | ).).{..X}.1.,.#.$.Z n ' $.@.# o   w u.S.w.e < = 8 MXMXMXMX",
"MXMXMXZ %.OXW.T d.E.R.E.h.V.V.f.Y / ].{.{.XX.X}.,.,.,.$.Z n A @.Z #   & 1 0.i.7.< &   MXMXMXMXMX",
"MXMXMXm ) #X]. .R $X>X,X,X,X&Xk H &.).XXXX X|.3.,.,.#.+.Z V E ' Z 5 6 9 q q 9 = * MXMXMXMXMXMXMX",
"MXMXMXMX%.5.`.] H g.j.R.R.R.E.k L -. X.X}.}.1.1.,.,.#.' Z N Z M 5 6 8 7 9 MXMXMXMXMXMXMXMXMXMXMX",
"MXMXMXMXE E >.{ C H s.d.d.d.d.k H %.5.5.3.1.>.>.,.#.@.V b b M 4 : r 2 * MXMXMXMXMXMXMXMXMXMXMXMX",
"MXMXMXMX$ n ' [ { C H J d.d.d.J Z A <.<.<.>.>.>.,.#.^ a # + MXMXMXMXMXMXMXMXMXMXMXMXMXMXMXMXMXMX",
"MXMXMXMXB N Z ' [ { P U H S d d > s A $.,.,.>.>.,.$.E v MXMXMXMXMXMXMXMXMXMXMXMXMXMXMXMXMXMXMXMX",
"MXMXMXMXC.C.~ @.+.$.+.^ M > + , O @ M @.,.,.,.,.#.$.E MXMXMXMXMXMXMXMXMXMXMXMXMXMXMXMXMXMXMXMXMX",
"MXMXMXp N.9X2X0X%./ ^ N v # MXMXMXMXE :.5.#.>.>.#.#.E B MXMXMXMXMXMXMXMXMXMXMXMXMXMXMXMXMXMXMXMX",
"MXMXMXMXi i C.Q N B M MXMXMXMXMXMX2X_ _ @.$.#.#.#.E E B MXMXMXMXMXMXMXMXMXMXMXMXMXMXMXMXMXMXMXMX",
"MXMXMXMXMX2 p r 4 # MXMXMXMXMXMX2X3X2XN._ _ @.@.E W N MXMXMXMXMXMXMXMXMXMXMXMXMXMXMXMXMXMXMXMXMX",
"MXMXMXMXMXMXMXMXMXMXMXMXMXMXMXMXp ! m.2X2X2XG v 4 v MXMXMXMXMXMXMXMXMXMXMXMXMXMXMXMXMXMXMXMXMXMX",
"MXMXMXMXMXMXMXMXMXMXMXMXMXMXMXMXMXMXMXm.m.m.MXMXMXMXMXMXMXMXMXMXMXMXMXMXMXMXMXMXMXMXMXMXMXMXMXMX",
"MXMXMXMXMXMXMXMXMXMXMXMXMXMXMXMXMXMXMX3 3 MXMXMXMXMXMXMXMXMXMXMXMXMXMXMXMXMXMXMXMXMXMXMXMXMXMXMX"
};
