/* XPM */
static char *Slowbro2[] = {
/* columns rows colors chars-per-pixel */
"32 29 224 2 ",
"   c #1C1A0D",
".  c #1E2712",
"X  c #2B321E",
"o  c #363E26",
"O  c #50281D",
"+  c #673A1E",
"@  c #492824",
"#  c #572726",
"$  c #5A3B2D",
"%  c #672825",
"&  c #65372A",
"*  c #6E3C3A",
"=  c #683633",
"-  c #793634",
";  c #773026",
":  c #364026",
">  c #5C4527",
",  c #454C33",
"<  c #4E5639",
"1  c #52563D",
"2  c #555C3D",
"3  c #444E28",
"4  c #6A432F",
"5  c #664437",
"6  c #794239",
"7  c #58642E",
"8  c #66743A",
"9  c #4E4D44",
"0  c #6F4543",
"q  c #685A40",
"w  c #7B454A",
"e  c #5D6743",
"r  c #636B47",
"t  c #6B764D",
"y  c #687446",
"u  c #757E4B",
"i  c #6B6B56",
"p  c #6D7558",
"a  c #747C59",
"s  c #756642",
"d  c #76726B",
"f  c #913626",
"g  c #884639",
"h  c #8F5E3A",
"j  c #985539",
"k  c #AD502D",
"l  c #8E6A36",
"z  c #A8673C",
"x  c #C05125",
"c  c #CA5631",
"v  c #C45B38",
"b  c #D2512F",
"n  c #E05428",
"m  c #994B45",
"M  c #8A5E45",
"N  c #995649",
"B  c #9B5655",
"V  c #884F45",
"C  c #AF4F45",
"Z  c #A7564A",
"A  c #A95A58",
"S  c #B45A50",
"D  c #9A6C43",
"F  c #8E6250",
"G  c #966953",
"H  c #8F6F4D",
"J  c #A46A47",
"K  c #AB654A",
"L  c #A2784A",
"P  c #BE714A",
"I  c #A76559",
"U  c #B56659",
"Y  c #A97657",
"T  c #BA7457",
"R  c #BE5C60",
"E  c #807C68",
"W  c #A76964",
"Q  c #B66763",
"!  c #A7796C",
"~  c #BA7264",
"^  c #AF7872",
"/  c #C75E59",
"(  c #C36353",
")  c #C96D5E",
"_  c #C76758",
"`  c #DE6E5F",
"'  c #CA785A",
"]  c #D7775D",
"[  c #C7634E",
"{  c #CB6B65",
"}  c #CC6869",
"|  c #DC6C65",
" . c #DF696C",
".. c #D76B67",
"X. c #CC7668",
"o. c #DD746A",
"O. c #DE7E6A",
"+. c #DA7865",
"@. c #CE6F77",
"#. c #C67D7A",
"$. c #DC7471",
"%. c #E46A64",
"&. c #E3676A",
"*. c #E46B69",
"=. c #EB7468",
"-. c #E47C69",
";. c #ED7C6C",
":. c #E47768",
">. c #E87F7C",
",. c #7D8C4E",
"<. c #748047",
"1. c #768154",
"2. c #77815B",
"3. c #7E8B5B",
"4. c #7B8657",
"5. c #7C8562",
"6. c #7E8D67",
"7. c #828D5D",
"8. c #849353",
"9. c #8D9B5C",
"0. c #8A975A",
"q. c #959055",
"w. c #BB9845",
"e. c #A98154",
"r. c #B78A56",
"t. c #BA9756",
"y. c #BEA152",
"u. c #818A63",
"i. c #83896A",
"p. c #859162",
"a. c #8B956C",
"s. c #8E986D",
"d. c #8A9663",
"f. c #929D6B",
"g. c #878877",
"h. c #929478",
"j. c #BF806F",
"k. c #A99973",
"l. c #A78B6C",
"z. c #98A869",
"x. c #9CAA74",
"c. c #99A874",
"v. c #A1AA6A",
"b. c #BEA26B",
"n. c #A0AC7A",
"m. c #A3B074",
"M. c #CD9158",
"N. c #EF8C5E",
"B. c #C8A74E",
"V. c #D2A15F",
"C. c #D5B359",
"Z. c #CC8164",
"A. c #DC836B",
"S. c #D08066",
"D. c #C59E62",
"F. c #D78878",
"G. c #D28B74",
"H. c #E5836E",
"J. c #EE8C6B",
"K. c #E98367",
"L. c #F68A65",
"P. c #F88964",
"I. c #F5856B",
"U. c #FA856B",
"Y. c #F48B6B",
"T. c #F98A6C",
"R. c #F68566",
"E. c #F59668",
"W. c #E88975",
"Q. c #FA8670",
"!. c #F78970",
"~. c #E39979",
"^. c #F69777",
"/. c #C3A863",
"(. c #C8A966",
"). c #D7B568",
"_. c #C6AB71",
"`. c #D0BB71",
"'. c #F5A472",
"]. c #DBC37C",
"[. c #EBC76C",
"{. c #ECCA75",
"}. c #F7CC79",
"|. c #EED175",
" X c #F2D67B",
".X c #AA8783",
"XX c #B59184",
"oX c #9DA683",
"OX c #A1A786",
"+X c #A6B483",
"@X c #ABB985",
"#X c #B4BE8D",
"$X c #B2B888",
"%X c #B1A396",
"&X c #B6B796",
"*X c #C39995",
"=X c #E78E80",
"-X c #EE9883",
";X c #F6AC8C",
":X c #F6A888",
">X c #F1AF91",
",X c #C2B5B2",
"<X c #EBB7A5",
"1X c #B4C28B",
"2X c #B8C589",
"3X c #B9C693",
"4X c #B4CC8B",
"5X c #BDCFA1",
"6X c #C2CE91",
"7X c #C2D19A",
"8X c #C9D49C",
"9X c #FDCC82",
"0X c #F8D888",
"qX c #C9D6A2",
"wX c #CDD4A3",
"eX c #F2C1B2",
"rX c #ECD0BD",
"tX c #D6E6AD",
"yX c #D9E5B6",
"uX c #D6D1CC",
"iX c #F4D9C3",
"pX c #E5DFD8",
"aX c #F4ECE5",
"sX c None",
/* pixels */
"sXsXsXsXsXsXsXsXsXsXsXsXsXsXsXsXsXsXsXsXsXsXsXsXsXsXsXsXsXsXsXsX",
"sXsXsXsX~.W sXsXsXsXsXsXsXsXsXsXsXsXsXsXsXsXsXsXsXsXsXsXsXsXsXsX",
"sXsXsXB -X' U ~ U N sXX.-XQ sXsXsXsXsXsXsXsXsXsXsXsXsXsXsXsXsXsX",
"sXsXsX6 Z.~.;X>X;XA.( +.) U = sXsXsXsXsXsXsXsXsXsXsX8X4.sXsXsXsX",
"sXsXsX.X<X:X:X>XiXiX>XS Q Q @ sXsXsXsXsXsXsXsXsXd.2X6Xr sXsXsXsX",
"sXsXl t.M.Z.Z.rXaXuX<XX.g # sXsXsXsXsXsXn.sXsX9 2.m.f.5.sXsXsXsX",
"sXy.`. X|.[.D.l.pXaX<XJ.H.B sXsXsXsXsXsX5.a.oXyXwX2Xu., sXsXsXsX",
"> `._.b.C.0X X].k.XX~.I.!.{ sXsXsXsXsXsX, a 5.5.x.2X1Xt s.2.sXsX",
"sXs 4 & 4 M b.|.`.e.T L.T.O.- sXc.3.6.1XqXs.d.t n.7.p.z.a 1 sXsX",
"sXsXsXsX% ; g L l b.L Z.Y.H.Z sXa 6.+X@XyX3Xm.x.3X3Xp 3.2 sXsXsX",
"sXsXsX% f c c g & (.z A.Y.I.` 6 9 a.e y c.@X1X7X7Xx.t e : sXsXsX",
"sXsXsX; c n n k L e.U Y.I.I.I.{ $ oX3XqX7Xc.6.z.+Xx.,.1.: sXsXsX",
"sXsXsXJ v c x j r.K K.U.T.Y.Y.J.T k.yXtX3Xa.5.t y 4.8 8 a 5.t sX",
"sXsXsXe.r.z V.(.T -.O.N.T.Y.Y.L.J.Y 1X4X$XOXg.&Xz.<.u 0.<.e sXsX",
"sXsXsXM t.D.j.J ' -.X.;X^.T.T.U.Y.] l.1X1Xx.$X8Xv.z.8.8.< sXsXsX",
"sXsXsX:XY m ( ] K.+.~.:XT.R.I.T.T.Y.C 2 u 0.q.9.8.<.9.r sXsXsXsX",
"sXsX$.;X' K.P.R.A.Z.;XE.T.[ ] T.T.Y.-.G.! a 3.v.,.7 p.2 sXsXsXsX",
"sXsX^ W.[ '.L.E._ S.^.Y.-.C ;.R.T.T.` o.H.F d 9.9.8.c.2.. sXsXsX",
"sXsXXX~ l 0X}.9XH G.H.A.Z _ R.U.I.=.| ( Y.W.l.9 z.,.,.p.y 6.i.sX",
"sXsX5 ! F /.[.{.E ! ~ N _ =.P.U.=.*.$.m | $.0   3.9.,.p.p.a.i sX",
"sXsXI =XY r.C.B.L b.e.I J.N.L.T.*. .} g / { @   <.z.3.3 X sXsXsX",
"sXsXV ^.N.K ).|. X{.l X.L.P.Y.;. .*.{ m { A q p t r , sXsXsXsXsX",
"sXsXsX@.;.Z L y.w.B.h X.Q.U.=.%.&. .Z B m 5 i , sXsXsXsXsXsXsXsX",
"sXsXsX- / | S D r.w.D A *.*.%.%.&.} = # sXsXsXsXsXsXsXsXsXsXsXsX",
"sXsXsX! S _ | { N & 4 O A  .*. .*.R sXsXsXsXsXsXsXsXsXsXsXsXsXsX",
"sXsXd %X*X#.Q A * sXsXsXR >.*.%. .@.w sXsXsXsXsXsXsXsXsXsXsXsXsX",
"sXsXsX9 d 0 = sXsXsXsX%X.XW { ..} B sXsXsXsXsXsXsXsXsXsXsXsXsXsX",
"sXsXsXsXsXsXsXsXsXsXsXd g.,Xh.- * sXsXsXsXsXsXsXsXsXsXsXsXsXsXsX",
"sXsXsXsXsXsXsXsXsXsXsXsXsX9 sXsXsXsXsXsXsXsXsXsXsXsXsXsXsXsXsXsX"
};
