/* XPM */
static char *Steps[] = {
/* columns rows colors chars-per-pixel */
"96 48 154 2 ",
"   c black",
".  c #010101",
"X  c #020202",
"o  c gray1",
"O  c gray2",
"+  c #060606",
"@  c #070707",
"#  c gray3",
"$  c #090909",
"%  c gray4",
"&  c #0C0C0C",
"*  c gray5",
"=  c #0E0E0E",
"-  c gray6",
";  c #101010",
":  c gray7",
">  c gray8",
",  c #151515",
"<  c #161616",
"1  c #181818",
"2  c #191919",
"3  c gray10",
"4  c #1B1B1B",
"5  c #1D1D1D",
"6  c #202020",
"7  c #222222",
"8  c #232323",
"9  c gray14",
"0  c #252525",
"q  c #282828",
"w  c gray16",
"e  c #2A2A2A",
"r  c gray17",
"t  c gray19",
"y  c #313131",
"u  c #323232",
"i  c gray20",
"p  c #353535",
"a  c #373737",
"s  c #3A3A3A",
"d  c gray24",
"f  c #3E3E3E",
"g  c #414141",
"h  c gray26",
"j  c #434343",
"k  c #444444",
"l  c gray27",
"z  c #464646",
"x  c gray28",
"c  c #484848",
"v  c #494949",
"b  c #4C4C4C",
"n  c gray30",
"m  c #4E4E4E",
"M  c gray32",
"N  c gray33",
"B  c #555555",
"V  c #565656",
"C  c gray36",
"Z  c #5D5D5D",
"A  c gray37",
"S  c #5F5F5F",
"D  c #606060",
"F  c #626262",
"G  c gray39",
"H  c #646464",
"J  c gray40",
"K  c #6A6A6A",
"L  c gray44",
"P  c gray45",
"I  c #747474",
"U  c gray46",
"Y  c #777777",
"T  c gray48",
"R  c #7C7C7C",
"E  c gray49",
"W  c #7E7E7E",
"Q  c gray50",
"!  c gray51",
"~  c gray52",
"^  c #868686",
"/  c #888888",
"(  c #898989",
")  c #8B8B8B",
"_  c gray55",
"`  c #909090",
"'  c #929292",
"]  c #939393",
"[  c #959595",
"{  c #979797",
"}  c #989898",
"|  c #9B9B9B",
" . c gray61",
".. c #A0A0A0",
"X. c gray64",
"o. c #A4A4A4",
"O. c gray65",
"+. c #A7A7A7",
"@. c gray66",
"#. c #A9A9A9",
"$. c #AAAAAA",
"%. c gray67",
"&. c #ACACAC",
"*. c gray68",
"=. c #AEAEAE",
"-. c #AFAFAF",
";. c #B1B1B1",
":. c #B2B2B2",
">. c gray70",
",. c #B6B6B6",
"<. c gray74",
"1. c #C3C3C3",
"2. c gray77",
"3. c #C5C5C5",
"4. c gray78",
"5. c gray79",
"6. c #CDCDCD",
"7. c #D0D0D0",
"8. c gray82",
"9. c LightGray",
"0. c gray83",
"q. c #D5D5D5",
"w. c #D7D7D7",
"e. c gray85",
"r. c #DFDFDF",
"t. c gray88",
"y. c #E1E1E1",
"u. c #E2E2E2",
"i. c gray89",
"p. c #E4E4E4",
"a. c gray90",
"s. c #E7E7E7",
"d. c gray91",
"f. c #E9E9E9",
"g. c #EAEAEA",
"h. c #ECECEC",
"j. c gray93",
"k. c #EEEEEE",
"l. c #EFEFEF",
"z. c gray94",
"x. c #F1F1F1",
"c. c #F3F3F3",
"v. c #F4F4F4",
"b. c gray96",
"n. c #F6F6F6",
"m. c gray97",
"M. c #F8F8F8",
"N. c #F9F9F9",
"B. c gray98",
"V. c #FBFBFB",
"C. c gray99",
"Z. c #FDFDFD",
"A. c #FEFEFE",
"S. c white",
/* pixels */
"S.S.S.S.S.S.S.S.S.S.S.S.S.S.S.S.S.S.S.S.S.S.S.S.S.S.S.S.S.S.S.S.S.S.S.S.S.S.S.S.S.S.S.S.S.S.S.S.S.S.S.S.S.S.S.S.S.S.S.S.S.S.S.S.S.S.S.S.S.S.S.S.S.S.S.S.S.S.S.S.S.S.S.S.S.S.S.S.S.S.S.S.S.S.S.S.",
"S.S.S.S.S.S.S.S.S.S.S.S.S.S.S.S.S.S.S.S.S.S.S.S.S.S.S.S.S.S.S.S.S.S.S.S.S.S.S.S.S.S.S.S.S.S.S.S.S.S.S.S.S.S.S.S.S.S.S.S.S.S.S.S.S.S.S.S.S.S.S.S.S.S.S.S.S.S.S.S.S.S.S.S.S.S.S.S.S.S.S.S.S.S.S.S.",
"S.S.S.S.S.S.S.S.S.S.S.S.S.S.S.S.S.S.S.S.S.S.S.S.S.S.S.S.S.S.S.S.S.S.S.S.S.S.S.S.S.S.S.S.S.S.S.S.S.S.S.S.S.S.S.S.S.S.S.S.S.S.S.S.S.S.S.S.S.S.S.S.S.S.S.S.S.S.S.S.S.S.S.S.S.S.S.S.S.S.S.S.S.S.S.S.",
"S.S.S.S.S.S.S.S.S.S.S.S.S.S.S.S.S.S.S.S.S.S.S.S.S.S.S.S.S.S.S.S.S.S.S.S.S.S.S.S.S.S.S.S.S.S.S.S.S.S.S.S.S.S.S.S.S.S.S.S.S.S.S.S.S.S.S.S.S.S.S.S.S.S.S.S.S.S.S.S.S.S.S.S.S.S.S.S.S.S.S.S.S.S.S.S.",
"S.S.S.S.S.S.S.S.S.S.S.S.S.S.S.S.S.S.S.S.S.S.S.S.S.S.S.S.S.S.S.S.S.S.S.S.S.S.S.S.S.S.S.S.S.S.S.S.S.S.S.S.S.S.S.S.S.S.S.S.S.S.S.S.S.S.S.S.S.S.S.S.S.S.S.S.S.S.S.S.S.S.S.S.S.S.S.S.S.S.S.S.S.S.S.S.",
"S.S.S.S.S.S.S.S.S.S.S.S.S.S.S.S.S.S.S.S.S.S.S.S.S.S.S.S.S.S.S.S.S.S.S.S.S.S.S.S.S.S.S.S.S.S.S.S.S.S.S.S.S.S.S.S.S.S.S.S.S.S.S.S.S.S.S.S.S.S.S.S.S.S.S.S.S.S.S.S.S.S.S.S.S.S.S.S.S.S.S.S.S.S.S.S.",
"S.S.S.S.S.S.S.S.S.S.S.S.S.S.S.S.S.S.S.S.S.S.S.S.S.S.S.S.S.S.S.S.S.S.S.S.S.S.S.S.S.S.S.S.S.S.S.S.S.S.S.S.S.S.S.S.S.S.S.S.S.S.S.S.S.S.S.S.S.S.S.S.S.S.S.S.S.S.S.S.S.S.S.S.S.S.S.S.S.S.S.S.S.S.S.S.",
"S.S.S.S.S.S.S.S.S.S.S.S.S.S.S.S.S.S.S.S.S.S.S.S.S.S.S.S.S.S.S.S.S.S.S.S.S.S.S.S.S.S.S.S.S.S.S.S.S.S.S.S.S.S.S.S.S.S.S.S.S.S.S.S.S.S.S.S.S.S.S.S.S.S.S.S.S.S.S.S.S.S.S.S.S.S.S.S.S.S.S.S.S.S.S.S.",
"S.S.S.S.S.S.S.S.S.S.S.S.S.S.S.S.S.S.S.S.S.S.S.S.S.S.S.S.S.S.S.S.S.S.S.S.S.S.S.S.S.S.S.S.S.S.S.S.S.S.S.S.S.S.S.S.S.S.S.S.S.S.S.S.S.S.S.S.S.S.S.S.S.S.S.S.S.S.S.S.S.S.S.S.S.S.S.S.S.S.S.S.S.S.S.S.",
"S.S.S.S.S.S.S.S.S.S.S.S.S.S.S.S.S.S.S.S.S.S.S.S.S.S.S.S.S.S.S.S.S.S.S.S.S.S.S.S.S.S.S.S.S.S.S.S.S.S.S.S.S.S.S.S.S.S.S.S.S.S.S.S.S.S.S.S.S.S.S.S.S.S.S.S.S.S.S.S.S.S.S.S.S.S.S.S.S.S.S.S.S.S.S.S.",
"S.S.S.S.S.S.S.S.S.S.S.S.S.S.S.S.S.S.S.S.S.S.S.S.S.S.S.S.S.S.S.S.S.S.S.S.S.S.S.S.S.S.S.S.S.S.S.S.S.S.S.S.S.S.S.S.S.S.S.S.S.S.S.S.S.S.S.S.S.S.S.S.S.S.S.S.S.S.S.S.S.S.S.S.S.S.S.S.S.S.S.S.S.S.S.S.",
"S.S.S.S.S.S.S.S.S.S.S.S.S.S.S.S.S.S.S.S.S.S.S.S.S.S.S.S.S.S.S.S.S.S.S.S.S.S.S.S.S.S.S.S.S.S.S.S.S.S.S.S.S.S.S.S.S.S.S.S.S.S.S.S.S.S.S.S.S.S.S.S.S.S.S.S.S.S.S.S.S.S.S.S.S.S.S.S.S.S.S.S.S.S.S.S.",
"S.S.S.S.S.S.S.S.S.S.S.S.S.S.S.S.S.S.S.S.S.S.S.S.S.S.S.S.S.S.S.S.S.S.S.S.S.S.S.S.S.S.S.S.S.S.S.S.S.S.S.S.S.S.S.S.S.S.S.S.S.S.S.S.S.S.S.S.S.S.S.S.S.S.S.S.S.S.S.S.S.S.S.S.S.S.S.S.S.S.S.S.S.S.S.S.",
"S.S.S.S.S.S.S.S.S.S.S.S.S.S.S.S.S.S.S.S.S.S.S.S.S.S.S.S.S.S.S.S.S.S.S.S.S.S.S.S.S.S.S.S.S.S.S.S.S.S.S.S.S.S.S.S.S.S.S.S.S.S.S.S.S.S.S.S.S.S.S.S.S.S.S.S.S.S.S.S.S.S.S.S.S.S.S.S.S.S.S.S.S.S.S.S.",
"S.S.S.S.S.S.S.S.S.S.S.S.S.S.S.S.S.S.S.S.S.S.S.S.S.S.S.S.S.S.S.S.S.S.S.S.S.S.S.S.S.S.S.S.S.S.S.S.S.S.S.S.S.S.S.S.S.S.S.S.S.S.S.S.S.S.S.S.S.S.S.S.S.S.S.S.S.S.S.S.S.S.S.S.S.S.S.S.S.S.S.S.S.S.S.S.",
"S.S.S.S.S.S.S.S.S.S.S.S.S.S.S.S.S.S.S.S.S.S.S.S.S.S.S.S.S.S.S.S.S.S.S.S.S.S.S.S.S.S.S.S.S.S.S.S.S.S.S.S.S.S.S.S.S.S.S.S.S.S.S.S.S.S.S.S.S.S.S.S.S.S.S.S.S.S.S.S.S.S.S.S.S.S.S.S.S.S.S.S.S.S.S.S.",
"S.S.S.S.S.S.S.S.S.S.S.S.S.,.B 0 > 6 v o.Z.S.S.-.z z z z z z z z z z Z S.S.2.z z z z z z z z z c.S.S.=.z z z z z n L 2.S.S.S.S.S.S.3.S q , 5 h [ N.S.S.S.S.S.S.S.S.S.S.S.S.S.S.S.S.S.S.S.S.S.S.S.",
"S.S.S.S.S.S.S.S.S.S.S.S.U   ; n Z x *   v n.S.@.p p p p :   t p p p m S.S.-.  8 g g g g g g g c.S.S.`   9 p p p e O   J Z.S.S.S.' X % c A b >   u h.S.S.S.S.S.S.S.S.S.S.S.S.S.S.S.S.S.S.S.S.S.S.",
"S.S.S.S.S.S.S.S.S.S.S.5.  s l.S.S.S.x.J r v.S.S.S.S.S.S.V   i.S.S.S.S.S.S.-.  ( S.S.S.S.S.S.S.S.S.S.`   #.S.S.S.S.s.j   { S.S.i.+ 0 p.S.S.S.M.E 2 s.S.S.S.S.S.S.S.S.S.S.S.S.S.S.S.S.S.S.S.S.S.S.",
"S.S.S.S.S.S.S.S.S.S.S.~   -.S.S.S.S.S.A.j.S.S.S.S.S.S.S.V   i.S.S.S.S.S.S.-.  ( S.S.S.S.S.S.S.S.S.S.`   #.S.S.S.S.S.t.. y S.S.O.  ` S.S.S.S.S.S.h.S.S.S.S.S.S.S.S.S.C.l.S.S.S.S.S.S.S.S.S.S.S.S.",
"S.S.S.S.S.S.S.S.S.S.S.^   &.S.S.S.S.S.S.S.S.S.S.S.S.S.S.V   i.S.S.S.S.S.S.-.  ( S.S.S.S.S.S.S.S.S.S.`   #.S.S.S.S.S.S.3 # S.S.+.  _ S.S.S.S.S.S.S.S.S.S.S.S.S.S.S.S.k . ..S.S.S.S.S.S.S.S.S.S.S.",
"S.S.S.S.S.S.S.S.S.S.S.1.  a l.S.S.S.S.S.S.S.S.S.S.S.S.S.V   i.S.S.S.S.S.S.-.  ( S.S.S.S.S.S.S.S.S.S.`   #.S.S.S.S.S.S.> * S.S.t.o 7 p.S.S.S.S.S.S.S.S.S.S.S.S.S.S.S.7   ~ S.S.S.S.S.S.S.S.S.S.S.",
"S.S.S.S.S.S.S.S.S.S.S.S.Z   > K *.d.S.S.S.S.S.S.S.S.S.S.V   i.S.S.S.S.S.S.-.  I w.w.w.w.w.w.M.S.S.S.`   #.S.S.S.S.S.6.  f S.S.S.R   * D O.y.S.S.S.S.S.S.S.S.S.S.S.S.y.,.B.S.S.S.S.S.S.S.S.S.S.S.",
"S.S.S.S.S.S.S.S.S.S.S.S.C.` 6     . i } B.S.S.S.S.S.S.S.V   i.S.S.S.S.S.S.-.                q.S.S.S.`   #.S.S.S.M.<.0   >.S.S.S.S.X.e       w / b.S.S.S.S.S.S.S.S.S.S.S.S.S.S.S.S.S.S.S.S.S.S.S.",
"S.S.S.S.S.S.S.S.S.S.S.S.S.S.A.8.] n $   g n.S.S.S.S.S.S.V   i.S.S.S.S.S.S.-.  Z *.*.*.*.*.*.x.S.S.S.`   o O O O     % [ S.S.S.S.S.S.S.e.| V =   r g.S.S.S.S.S.S.S.S.S.S.S.S.S.S.S.S.S.S.S.S.S.S.",
"S.S.S.S.S.S.S.S.S.S.S.S.S.S.S.S.S.S.s.l   ! S.S.S.S.S.S.V   i.S.S.S.S.S.S.-.  ( S.S.S.S.S.S.S.S.S.S.`   n P P P T ..f.S.S.S.S.S.S.S.S.S.S.S.l.C   G S.S.S.S.S.S.S.S.S.S.S.S.S.S.S.S.S.S.S.S.S.S.",
"S.S.S.S.S.S.S.S.S.S.S.S.S.S.S.S.S.S.S.p.  p S.S.S.S.S.S.V   i.S.S.S.S.S.S.-.  ( S.S.S.S.S.S.S.S.S.S.`   #.S.S.S.S.S.S.S.S.S.S.S.S.S.S.S.S.S.S.m.= < S.S.S.S.S.S.S.S.S.S.S.S.S.S.S.S.S.S.S.S.S.S.",
"S.S.S.S.S.S.S.S.S.S.S.M.p.S.S.S.S.S.S.S.@ 0 S.S.S.S.S.S.V   i.S.S.S.S.S.S.-.  ( S.S.S.S.S.S.S.S.S.S.`   #.S.S.S.S.S.S.S.S.S.S.A.r.S.S.S.S.S.S.S.q o S.S.S.S.S.S.S.S.S.S.S.S.S.S.S.S.S.S.S.S.S.S.",
"S.S.S.S.S.S.S.S.S.S.S.H t z.S.S.S.S.S.7.  x S.S.S.S.S.S.V   i.S.S.S.S.S.S.-.  ( S.S.S.S.S.S.S.S.S.S.`   #.S.S.S.S.S.S.S.S.S.S.! 5 p.S.S.S.S.S.g.@ q S.S.S.S.S.S.S.S.S.S.S.S.S.S.S.S.S.S.S.S.S.S.",
"S.S.S.S.S.S.S.S.S.S.S.P   w ;.m.S.Z.4.e   %.S.S.S.S.S.S.V   i.S.S.S.S.S.S.-.  ( S.S.S.S.S.S.S.S.S.S.`   #.S.S.S.S.S.S.S.S.S.S.'   4 X.c.S.A.9.d   ) S.S.S.S.S.S.S.S.E p 3.S.S.S.S.S.S.S.S.S.S.S.",
"S.S.S.S.S.S.S.S.S.S.S.Z.R +   O 2 &   o W S.S.S.S.S.S.S.V   i.S.S.S.S.S.S.-.  o @ @ @ @ @ @ @ 4.S.S.`   #.S.S.S.S.S.S.S.S.S.S.S.] &   o 1 -     H V.S.S.S.S.S.S.S.S.,   U S.S.S.S.S.S.S.S.S.S.S.",
"S.S.S.S.S.S.S.S.S.S.S.S.S.a.] A n N Q q.S.S.S.S.S.S.S.S.$.Q x.S.S.S.S.S.S.w.Q Q Q Q Q Q Q Q Q u.S.S.4.Q 0.S.S.S.S.S.S.S.S.S.S.S.S.k. .F m M Y 5.S.S.S.S.S.S.S.S.S.S.:.I a.S.S.S.S.S.S.S.S.S.S.S.",
"S.S.S.S.S.S.S.S.S.S.S.S.S.S.S.S.S.S.S.S.S.S.S.S.S.S.S.S.S.S.S.S.S.S.S.S.S.S.S.S.S.S.S.S.S.S.S.S.S.S.S.S.S.S.S.S.S.S.S.S.S.S.S.S.S.S.S.S.S.S.S.S.S.S.S.S.S.S.S.S.S.S.S.S.S.S.S.S.S.S.S.S.S.S.S.S.",
"S.S.S.S.S.S.S.S.S.S.S.S.S.S.S.S.S.S.S.S.S.S.S.S.S.S.S.S.S.S.S.S.S.S.S.S.S.S.S.S.S.S.S.S.S.S.S.S.S.S.S.S.S.S.S.S.S.S.S.S.S.S.S.S.S.S.S.S.S.S.S.S.S.S.S.S.S.S.S.S.S.S.S.S.S.S.S.S.S.S.S.S.S.S.S.S.",
"S.S.S.S.S.S.S.S.S.S.S.S.S.S.S.S.S.S.S.S.S.S.S.S.S.S.S.S.S.S.S.S.S.S.S.S.S.S.S.S.S.S.S.S.S.S.S.S.S.S.S.S.S.S.S.S.S.S.S.S.S.S.S.S.S.S.S.S.S.S.S.S.S.S.S.S.S.S.S.S.S.S.S.S.S.S.S.S.S.S.S.S.S.S.S.S.",
"S.S.S.S.S.S.S.S.S.S.S.S.S.S.S.S.S.S.S.S.S.S.S.S.S.S.S.S.S.S.S.S.S.S.S.S.S.S.S.S.S.S.S.S.S.S.S.S.S.S.S.S.S.S.S.S.S.S.S.S.S.S.S.S.S.S.S.S.S.S.S.S.S.S.S.S.S.S.S.S.S.S.S.S.S.S.S.S.S.S.S.S.S.S.S.S.",
"S.S.S.S.S.S.S.S.S.S.S.S.S.S.S.S.S.S.S.S.S.S.S.S.S.S.S.S.S.S.S.S.S.S.S.S.S.S.S.S.S.S.S.S.S.S.S.S.S.S.S.S.S.S.S.S.S.S.S.S.S.S.S.S.S.S.S.S.S.S.S.S.S.S.S.S.S.S.S.S.S.S.S.S.S.S.S.S.S.S.S.S.S.S.S.S.",
"S.S.S.S.S.S.S.S.S.S.S.S.S.S.S.S.S.S.S.S.S.S.S.S.S.S.S.S.S.S.S.S.S.S.S.S.S.S.S.S.S.S.S.S.S.S.S.S.S.S.S.S.S.S.S.S.S.S.S.S.S.S.S.S.S.S.S.S.S.S.S.S.S.S.S.S.S.S.S.S.S.S.S.S.S.S.S.S.S.S.S.S.S.S.S.S.",
"S.S.S.S.S.S.S.S.S.S.S.S.S.S.S.S.S.S.S.S.S.S.S.S.S.S.S.S.S.S.S.S.S.S.S.S.S.S.S.S.S.S.S.S.S.S.S.S.S.S.S.S.S.S.S.S.S.S.S.S.S.S.S.S.S.S.S.S.S.S.S.S.S.S.S.S.S.S.S.S.S.S.S.S.S.S.S.S.S.S.S.S.S.S.S.S.",
"S.S.S.S.S.S.S.S.S.S.S.S.S.S.S.S.S.S.S.S.S.S.S.S.S.S.S.S.S.S.S.S.S.S.S.S.S.S.S.S.S.S.S.S.S.S.S.S.S.S.S.S.S.S.S.S.S.S.S.S.S.S.S.S.S.S.S.S.S.S.S.S.S.S.S.S.S.S.S.S.S.S.S.S.S.S.S.S.S.S.S.S.S.S.S.S.",
"S.S.S.S.S.S.S.S.S.S.S.S.S.S.S.S.S.S.S.S.S.S.S.S.S.S.S.S.S.S.S.S.S.S.S.S.S.S.S.S.S.S.S.S.S.S.S.S.S.S.S.S.S.S.S.S.S.S.S.S.S.S.S.S.S.S.S.S.S.S.S.S.S.S.S.S.S.S.S.S.S.S.S.S.S.S.S.S.S.S.S.S.S.S.S.S.",
"S.S.S.S.S.S.S.S.S.S.S.S.S.S.S.S.S.S.S.S.S.S.S.S.S.S.S.S.S.S.S.S.S.S.S.S.S.S.S.S.S.S.S.S.S.S.S.S.S.S.S.S.S.S.S.S.S.S.S.S.S.S.S.S.S.S.S.S.S.S.S.S.S.S.S.S.S.S.S.S.S.S.S.S.S.S.S.S.S.S.S.S.S.S.S.S.",
"S.S.S.S.S.S.S.S.S.S.S.S.S.S.S.S.S.S.S.S.S.S.S.S.S.S.S.S.S.S.S.S.S.S.S.S.S.S.S.S.S.S.S.S.S.S.S.S.S.S.S.S.S.S.S.S.S.S.S.S.S.S.S.S.S.S.S.S.S.S.S.S.S.S.S.S.S.S.S.S.S.S.S.S.S.S.S.S.S.S.S.S.S.S.S.S.",
"S.S.S.S.S.S.S.S.S.S.S.S.S.S.S.S.S.S.S.S.S.S.S.S.S.S.S.S.S.S.S.S.S.S.S.S.S.S.S.S.S.S.S.S.S.S.S.S.S.S.S.S.S.S.S.S.S.S.S.S.S.S.S.S.S.S.S.S.S.S.S.S.S.S.S.S.S.S.S.S.S.S.S.S.S.S.S.S.S.S.S.S.S.S.S.S.",
"S.S.S.S.S.S.S.S.S.S.S.S.S.S.S.S.S.S.S.S.S.S.S.S.S.S.S.S.S.S.S.S.S.S.S.S.S.S.S.S.S.S.S.S.S.S.S.S.S.S.S.S.S.S.S.S.S.S.S.S.S.S.S.S.S.S.S.S.S.S.S.S.S.S.S.S.S.S.S.S.S.S.S.S.S.S.S.S.S.S.S.S.S.S.S.S.",
"S.S.S.S.S.S.S.S.S.S.S.S.S.S.S.S.S.S.S.S.S.S.S.S.S.S.S.S.S.S.S.S.S.S.S.S.S.S.S.S.S.S.S.S.S.S.S.S.S.S.S.S.S.S.S.S.S.S.S.S.S.S.S.S.S.S.S.S.S.S.S.S.S.S.S.S.S.S.S.S.S.S.S.S.S.S.S.S.S.S.S.S.S.S.S.S.",
"S.S.S.S.S.S.S.S.S.S.S.S.S.S.S.S.S.S.S.S.S.S.S.S.S.S.S.S.S.S.S.S.S.S.S.S.S.S.S.S.S.S.S.S.S.S.S.S.S.S.S.S.S.S.S.S.S.S.S.S.S.S.S.S.S.S.S.S.S.S.S.S.S.S.S.S.S.S.S.S.S.S.S.S.S.S.S.S.S.S.S.S.S.S.S.S.",
"S.S.S.S.S.S.S.S.S.S.S.S.S.S.S.S.S.S.S.S.S.S.S.S.S.S.S.S.S.S.S.S.S.S.S.S.S.S.S.S.S.S.S.S.S.S.S.S.S.S.S.S.S.S.S.S.S.S.S.S.S.S.S.S.S.S.S.S.S.S.S.S.S.S.S.S.S.S.S.S.S.S.S.S.S.S.S.S.S.S.S.S.S.S.S.S."
};
