/* XPM */
static char *tree_wall_ground[] = {
/* columns rows colors chars-per-pixel */
"48 48 198 2 ",
"   c #063E00",
".  c #0B3E00",
"X  c #342604",
"o  c #392807",
"O  c #451E06",
"+  c #452509",
"@  c #47280A",
"#  c #4A2A0D",
"$  c #502A0E",
"%  c #522D11",
"&  c #582E13",
"*  c #463412",
"=  c #4D3415",
"-  c #543414",
";  c #57391A",
":  c #074300",
">  c #094502",
",  c #064A00",
"<  c #084C01",
"1  c #0E4A0B",
"2  c #0D4609",
"3  c #065500",
"4  c #095401",
"5  c #055900",
"6  c #0A5A01",
"7  c #0C590C",
"8  c #134F13",
"9  c #155216",
"0  c #1A561D",
"q  c #066000",
"w  c #0A6301",
"e  c #056B00",
"r  c #0A6A01",
"t  c #0D620B",
"y  c #0E6B0A",
"u  c #057300",
"i  c #0B7301",
"p  c #0C7D02",
"a  c #0F7E0B",
"s  c #0B7608",
"d  c #107D0D",
"f  c #107909",
"g  c #0F6811",
"h  c #0F6410",
"j  c #106712",
"k  c #117216",
"l  c #137C16",
"z  c #14781A",
"x  c #0C7B15",
"c  c #205F26",
"v  c #235F2B",
"b  c #325335",
"n  c #1A6124",
"m  c #206625",
"M  c #24632C",
"N  c #276530",
"B  c #276831",
"V  c #3B6439",
"C  c #20703A",
"Z  c #59401F",
"A  c #555132",
"S  c #296E4D",
"D  c #2A6E50",
"F  c #5A714E",
"G  c #536B49",
"H  c #0E8204",
"J  c #0D8409",
"K  c #0D8C0B",
"L  c #0A8B07",
"P  c #128405",
"I  c #13840C",
"U  c #128B0C",
"Y  c #18880E",
"T  c #12910D",
"R  c #168412",
"E  c #1C8B12",
"W  c #168917",
"Q  c #0C9312",
"!  c #0B991A",
"~  c #139314",
"^  c #1D9415",
"/  c #159913",
"(  c #159C1A",
")  c #199C1B",
"_  c #1A9718",
"`  c #0C8515",
"'  c #228F16",
"]  c #2A9C1D",
"[  c #279B1C",
"{  c #19A31F",
"}  c #27A21F",
"|  c #188F24",
" . c #199325",
".. c #1A9D25",
"X. c #1B9C28",
"o. c #1F9028",
"O. c #249128",
"+. c #2A9823",
"@. c #329F24",
"#. c #0FA421",
"$. c #19A422",
"%. c #1BAB25",
"&. c #1DAD2B",
"*. c #19A628",
"=. c #1EB32E",
"-. c #1FBD2F",
";. c #1FAD30",
":. c #1FB531",
">. c #1EB830",
",. c #27A627",
"<. c #32A324",
"1. c #36A728",
"2. c #3AAD2D",
"3. c #2CB02E",
"4. c #20B22F",
"5. c #30B12F",
"6. c #20B532",
"7. c #22BB35",
"8. c #24BD38",
"9. c #2BBD39",
"0. c #2DB735",
"q. c #3EB232",
"w. c #38BB39",
"e. c #3AA038",
"r. c #44BB3A",
"t. c #49BA3B",
"y. c #42B238",
"u. c #31D21E",
"i. c #2ACE18",
"p. c #3BD32A",
"a. c #23C23A",
"s. c #2EC13D",
"d. c #24C43A",
"f. c #35C13E",
"g. c #4CC73C",
"h. c #099646",
"j. c #089C57",
"k. c #369A46",
"l. c #50BF42",
"z. c #4C9769",
"x. c #4C9568",
"c. c #519971",
"v. c #628D6C",
"b. c #62906F",
"n. c #6A9673",
"m. c #4AA964",
"M. c #4BAA66",
"N. c #52AF70",
"B. c #58A57B",
"V. c #52A474",
"C. c #59B37B",
"Z. c #54B274",
"A. c #25CB40",
"S. c #33C440",
"D. c #3BC642",
"F. c #3DC946",
"G. c #3FCE4A",
"H. c #41CA47",
"J. c #43CE4B",
"K. c #48CF4C",
"L. c #45C241",
"P. c #54C949",
"I. c #57C849",
"U. c #4CD14E",
"Y. c #46D149",
"T. c #46D552",
"R. c #4CD350",
"E. c #4CD853",
"W. c #53D452",
"Q. c #55DB58",
"!. c #5EDD5B",
"~. c #59D553",
"^. c #62D454",
"/. c #66DA5A",
"(. c #69DD5C",
"). c #69E15C",
"_. c #6CE362",
"`. c #69E563",
"'. c #71E564",
"]. c #71E867",
"[. c #75EA69",
"{. c #7BEC6C",
"}. c #7DF171",
"|. c #76F567",
" X c #81F572",
".X c #8BFC7B",
"XX c #5DAC82",
"oX c #5DB782",
"OX c #5EB882",
"+X c #63B38B",
"@X c #63BB89",
"#X c #66B790",
"$X c #67BE90",
"%X c #68BA93",
"&X c #6CBF99",
"*X c #71C59F",
"=X c #73C7A3",
"-X c #93FF84",
/* pixels */
"=X=X=X=X=X=X=X=X=X=X=X=X=X=X=X=X=X=X=X=X=X=X=X=X=X=X=X=X=X=X=X=X=X=X=X=X=X=X=X=X=X=X=X=X=X=X=X=X",
"=X=X=X=X=X=X=X=X=X=X=X=X=X=X=X=X=X=X=X=X=X$Xd ' ^ H I $X=X=X=X=X=X=X=X=X=X=X=X=X=X=X=X=X=X=X=X=X",
"=X=Xj.=Xj.D =Xj.=X=X=X=X=X=X=X=Xj.=Xj.D =Xh.' I.Q.,.K C.D j.=Xj.=X=X=X=X=X=X=X=Xj.=XS j.=Xj.=X=X",
"=X=XD =XD D =XD =X=X=X=X=X=X=X=XD =XD D C.W I.{.[.`.P.+.C D =XD =X=X=X=X=X=X=X=XD =XD D =XD =X=X",
"=X=X=XD =X=XD =X=X=X=X=X=X=X=X=X=XD =XN.x 3._.Q.S.!.].3.o.Z.D =X=X=X=X=X=X=X=X=X=XD =X=XD =X=X=X",
"=X=X=X=X=X=X=X=X=X=X=X=X=X=X=X=X=XM.m.e.5.s.).W.=.f.`.9.! o.m.M.=X=X=X=X=X=X=X=X=X=X=X=X=X=X=X=X",
"=X=X=X=X=X=X=X=X=X=X=X=X*X@XoXoXm.a P r.K.9.). XR.J._.F.s.3.E P M.oXC.@X=X=X=X=X=X=X=X=X=X=X=X=X",
"=X=X=X=X=X=X=X=X=XS =XS j.O.P R I p $.s.8.f._.{.'.'.[.].].[.I.P I P I ` S =XS =X=X=X=X=X=X=X=X=X",
"=X=X=X=X=X=X=X=X=Xj.=Xj.j.Y q./.t.I $.J.!.(.'.[.[.{.{.{.{..X^.U ( &./ a j.=Xj.=X=X=X=X=X=X=X=X=X",
"=X=X=X=X=X=X=X=X=X=Xj.@Xk.s P.-X^.I w.[._.U._.[.{._.H.F.H.Y.w.H #.T.w.d k.h.=X=X=X=X=X=X=X=X=X=X",
"=X=X=X=X=X=X=X=X=X=X=XZ.H ] L.].^._ q.'.(.T._.{.).g.S.F.J.0.T ~ f.!.P.] p Z.=X=X=X=X=X=X=X=X=X=X",
"=X=X=X=X=X=X=X=X=X=X=XC.E ^.U.J.!.0.K 2././.{.{.p.i.].(./.2.K 4.W.D.J.^.E C.=X=X=X=X=X=X=X=X=X=X",
"=X=Xj.=Xj.D =Xj.=X=X=XV.E ).}.K.F./.9.~ I ] (. Xp.p./.<.R ) 6.6.^ ( T.(.E V.=X=Xj.=XD j.=Xj.=X=X",
"=X=XD =XD D =XD =X=Xc.n Y /..XU.s.]._.0.! ~ [ ^.|.g.] ! ! #.f.~.4.L r./.E n c.=XD =XD D =XD =X=X",
"=X=X=XD =X=XD =X=Xc.n w P 1.t.,.,._. X/.E.U.2.1.w.<.Q %.G.Q.R.U.a.L ' 2.P q m c.=XD =X=XD =X=X=X",
"=X=X=X=X=X=X=X=X=XN y / U p u U 2.].}.}.(.~.].y.W 1.F.D.U./.R.D.F.} u H U / y N =X=X=X=X=X=X=X=X",
"=X=X=X=X=X=X=X=X%Xv k :.&.K u <.).{.'._.t.] (.[._.(.(.].Y.6.H.]._.<.e p &.:.k v %X=X=X=X=X=X=X=X",
"=X=X=X=X=X=X=X#XN >   z 7.=.g 7 2.).2.R <.^.[.{..XI.<./.].!._.'.1.t   t ;.z > 2 N #X=X=X=X=X=X=X",
"=X=X=X=X=X=X=XN   , 4 d 7.d.7 : H } P +.^. X}.{.{._.t.1.^..X'.<.p : 1  .:.d :     B =X=X=X=X=X=X",
"=X=X=X=X=X=X=X: , 4 6 s $.:.| W P 5 e <.P.t.t.U.Q.~.r.P ] P.2.T Q l  .d.7.~ 6 : , : =X=X=X=X=X=X",
"=X=X=X=X=X=X=X> 6 6 , < H { &.=.*.j l T L p e ~ &.~ r w p J ~ 7.7.&.%.&.%.T 6 > 4 : =X=X=X=X=X=X",
"=X=X=X=X=X=X=X: 4 6 , < i P H { 6.*.&.&.>...7 r K i , > W 6.=.6.7.( P H P p 6 > 6 : =X=X=X=X=X=X",
"=X=Xj.=Xj.D =X: 6 6 6 < 4 i / 6.*.7 9  .d.6.X.$.%.$.X.X.;.d.X.y ..>./ i , , > , 4 > D j.=Xj.=X=X",
"=X=XD =XD D =X> < 6 6 6 , 4 $.d.;.z 6 s $.:.8.7.8.&.{ 7.7.7.|    .A.%.i . : < 4 6 : D D =XD =X=X",
"=X=X=XD =X=XD B 2 < < 4 4 . l =.a.7.U H ( 6.6.6.7.$.p ~ =.8.X.z *.7.~ w , < 6 6 < : =X=XD =X=X=X",
"=X=X=X=X=X=X=X+X9 : : < 4 , 6 ~ =.7.U ( 7.7.7.7.8.%.U U { :.7.7.;.U 6 : 4 > , 4 : 0 =X=X=X=X=X=X",
"=X=X=X=X=X=X=X#X9 4 6 6 6 6 > 4 ~ %.U _ 7.6.6.6.:.=.=.%.~ ~ 7.:.h . < 4 : : < 4 8 B.=X=X=X=X=X=X",
"=X=X=X=X=X=X=X+X9 4 6 6 6 6 ,   w U w 4 k T ~ U T ~ ~ g < w / U , . 4 6 4 4 6 4 0 %X=X=X=X=X=X=X",
"=X=X=X=X=X=X=X+X9 4 6 4 < 4 4 > 4 w 4 : 4 w r r r r w , : 4 r w 4 4 w 4 < , 6 4 9 +X=X=X=X=X=X=X",
"=X=X=X=X=X=X=X+X1 < 4 < , 6 6 w 6 < < 6 6 6 6 4 < 4 4 6 6 6 6 6 6 6 6 6 , . , , 1 +X=X=X=X=X=X=X",
"=X=X=X=X=X=X=X+Xc > : , 6 6 6 6 4 > > 4 6 6 4 , . , 6 6 6 6 6 6 4 4 6 6 4 , . 2 c +X=X=X=X=X=X=X",
"=X=X=X=X=X=X=X*X+Xv , 6 6 6 6 < , 4 4 4 6 6 6 6 > > 6 6 6 6 6 6 < : < 6 6 6 , c +X*X=X=X=X=X=X=X",
"=X=Xj.=Xj.D =Xj.=XN : 4 6 6 w <   , 6 6 6 6 6 6 6 < , 6 6 6 6 6 4 : . < 6 4 : M j.=XD j.=Xj.=X=X",
"=X=XD =XD D =XD =Xx.0 : < < 4 , . . 4 6 6 6 6 4 4 6 < < 6 6 6 4 4 >   : , : 0 x.S =XD D =XD =X=X",
"=X=X=XD =X=XD =X=X=Xx.c c c c c 0 > < 4 5 4 4 : , 6 3 : , 5 < : 9 c c c c c z.=X=XD =X=XD =X=X=X",
"=X=X=X=X=X=X=X=X=X=X*X&X&X&X&X&XB.9 1 2 > > . . . . . : . 2 1 9 B.*X&X&X&X&X=X=X=X=X=X=X=X=X=X=X",
"=X=X=X=X=X=X=X=X=X=X=X=X=X=X=X=X=XXXXXV o * * o X X X X X V B.XX=X=X=X=X=X=X=X=X=X=X=X=X=X=X=X=X",
"=X=X=X=X=X=X=X=X=XD =XD j.=XD =X=X=X=XF - - $ $ % % $ + O G =X=X=XD =Xj.D =XD =X=X=X=X=X=X=X=X=X",
"=X=X=X=X=X=X=X=X=Xj.=Xj.j.=Xj.=X=X=X=Xn.A ; @ - - - - + A v.=X=X=Xj.=Xj.j.=Xj.=X=X=X=X=X=X=X=X=X",
"=X=X=X=X=X=X=X=X=X=Xj.=X=Xj.=X=X=X=X=X=Xn.; ; - + + - + v.=X=X=X=X=Xj.=X=Xj.=X=X=X=X=X=X=X=X=X=X",
"=X=X=X=X=X=X=X=X=X=X=X=X=X=X=X=X=X=X=X=Xn.; - # o + - + b.=X=X=X=X=X=X=X=X=X=X=X=X=X=X=X=X=X=X=X",
"=X=X=X=X=X=X=X=X=X=X=X=X=X=X=X=X=X=X=X=Xv.# - = + + - + v.=X=X=X=X=X=X=X=X=X=X=X=X=X=X=X=X=X=X=X",
"=X=Xj.=Xj.D =Xj.=X=X=X=X=X=X=X=Xj.=Xj.D v.# # - % % - + b j.=Xj.=X=X=X=X=X=X=X=Xj.=XD j.=Xj.=X=X",
"=X=XD =XD D =XD =X=X=X=X=X=X=X=XD =XD D n.= * ; Z Z - = b D =XD =X=X=X=X=X=X=X=XD =XD D =XD =X=X",
"=X=X=XD =X=XD =X=X=X=X=X=X=X=X=X=XD =X=XD =X=X=X=X=X=XD =X=XD =X=X=X=X=X=X=X=X=X=XD =X=XD =X=X=X",
"=X=X=X=X=X=X=X=X=X=X=X=X=X=X=X=X=X=X=X=X=X=X=X=X=X=X=X=X=X=X=X=X=X=X=X=X=X=X=X=X=X=X=X=X=X=X=X=X",
"=X=X=X=X=X=X=X=X=X=X=X=X=X=X=X=X=X=X=X=X=X=X=X=X=X=X=X=X=X=X=X=X=X=X=X=X=X=X=X=X=X=X=X=X=X=X=X=X",
"=X=X=X=X=X=X=X=X=X=X=X=X=X=X=X=X=X=X=X=X=X=X=X=X=X=X=X=X=X=X=X=X=X=X=X=X=X=X=X=X=X=X=X=X=X=X=X=X"
};
